<svg xmlns="http://www.w3.org/2000/svg" width="17.946" height="22" viewBox="0 0 17.946 22">
  <g id="apple-black-logo" transform="translate(-46.315)">
    <g id="Group_6449" data-name="Group 6449" transform="translate(46.315)">
      <path id="Path_74417" data-name="Path 74417" d="M61.316,128.045c-.605-3.046,2.286-4.832,2.286-4.832a5.524,5.524,0,0,0-3.019-2.049,5.262,5.262,0,0,0-3.784.5,4.214,4.214,0,0,1-1.418.395c-1.365,0-2.363-1.445-4.964-.787a6.133,6.133,0,0,0-4.019,4.99,13.532,13.532,0,0,0,1.813,8.064c1.418,2.444,2.863,3.363,3.888,3.389s2.049-.735,3.283-.92,1.995.448,3.206.788,1.63.025,3.019-1.157,2.655-4.572,2.655-4.572A4.9,4.9,0,0,1,61.316,128.045Z" transform="translate(-46.315 -115.713)"/>
      <path id="Path_74418" data-name="Path 74418" d="M255.266,3.481A4.164,4.164,0,0,0,256.153,0a6.421,6.421,0,0,0-3.144,1.643,4.732,4.732,0,0,0-1.052,3.387A5.923,5.923,0,0,0,255.266,3.481Z" transform="translate(-242.944)"/>
    </g>
  </g>
</svg>
