<svg xmlns="http://www.w3.org/2000/svg" width="24" height="24" viewBox="0 0 24 24">
  <path id="Block_User" d="M18,12a5.955,5.955,0,0,0-3.03.83l-1-.4a.747.747,0,0,1-.472-.7v-.582l.047-.01a3.005,3.005,0,0,0,2.2-2.892v-3a5.25,5.25,0,1,0-10.5,0v3a3.015,3.015,0,0,0,2.25,2.9v.582a.747.747,0,0,1-.471.7L2.358,14.3A3.731,3.731,0,0,0,0,17.781V20.25a1.5,1.5,0,0,0,1.5,1.5H13.324A6,6,0,1,0,18,12ZM1.5,20.25V17.781a2.239,2.239,0,0,1,1.414-2.089l4.672-1.868A2.24,2.24,0,0,0,9,11.734v-.582A1.515,1.515,0,0,0,7.85,9.7,1.5,1.5,0,0,1,6.75,8.25v-3a3.75,3.75,0,1,1,7.5,0v3a1.5,1.5,0,0,1-1.1,1.447A1.515,1.515,0,0,0,12,11.153v.582a2.24,2.24,0,0,0,1.414,2.09l.21.084a5.961,5.961,0,0,0-1.183,6.342ZM13.5,18a4.493,4.493,0,0,1,7.1-3.664L14.336,20.6A4.471,4.471,0,0,1,13.5,18ZM18,22.5a4.471,4.471,0,0,1-2.6-.836L21.664,15.4A4.493,4.493,0,0,1,18,22.5Z" fill="#fff"/>
</svg>
