<svg xmlns="http://www.w3.org/2000/svg" width="21.131" height="20" viewBox="0 0 21.131 20">
  <g id="contact" transform="translate(0 -13.7)">
    <g id="Group_6448" data-name="Group 6448" transform="translate(0 13.7)">
      <g id="Group_6447" data-name="Group 6447" transform="translate(0 0)">
        <path id="Path_74415" data-name="Path 74415" d="M16.1,117.795l-3.562-2.375a.367.367,0,0,0-.491.08l-1.037,1.333a1.112,1.112,0,0,1-1.425.294l-.192-.105a12.529,12.529,0,0,1-3.263-2.557A12.513,12.513,0,0,1,3.569,111.2l-.106-.192a1.111,1.111,0,0,1,.294-1.424l1.333-1.038a.366.366,0,0,0,.08-.491L2.8,104.494a.365.365,0,0,0-.491-.111l-1.49.894a1.434,1.434,0,0,0-.656.846c-.49,1.783-.078,4.9,4.663,9.645s7.861,5.154,9.646,4.664a1.434,1.434,0,0,0,.846-.657l.893-1.49A.365.365,0,0,0,16.1,117.795Z" transform="translate(0 -100.591)"/>
        <path id="Path_74416" data-name="Path 74416" d="M115.822,13.76a.205.205,0,0,0-.147-.06H99.861a.205.205,0,0,0-.208.208V19.4l.9,1.345a1.124,1.124,0,0,1-.244,1.505L98.974,23.29a.36.36,0,0,0-.1.461l.109.2a9.517,9.517,0,0,0,1.259,1.836h15.43a.206.206,0,0,0,.208-.2V13.907A.2.2,0,0,0,115.822,13.76ZM105.1,20.624v0l-3.866,4.142a.377.377,0,1,1-.552-.515l3.866-4.14a.377.377,0,1,1,.552.515Zm2.669-.3a1.251,1.251,0,0,1-.755-.249L100.7,15.294a.378.378,0,0,1,.458-.6l6.306,4.784a.509.509,0,0,0,.6,0l6.308-4.784a.378.378,0,1,1,.456.6l-6.308,4.784A1.251,1.251,0,0,1,107.768,20.327Zm7.093,4.456a.377.377,0,0,1-.534-.018l-3.866-4.142a.377.377,0,0,1,.553-.513l3.865,4.14A.377.377,0,0,1,114.861,24.783Z" transform="translate(-94.752 -13.7)"/>
      </g>
    </g>
  </g>
</svg>
