<svg id="facebook" xmlns="http://www.w3.org/2000/svg" width="30" height="30" viewBox="0 0 30 30">
  <path id="Path_74409" data-name="Path 74409" d="M30,15A15,15,0,0,1,17.344,29.818V19.336h3.5L21.5,15h-4.16V12.186a2.168,2.168,0,0,1,2.445-2.343H21.68V6.152a23.072,23.072,0,0,0-3.358-.293c-3.426,0-5.665,2.077-5.665,5.836V15H8.848v4.336h3.809V29.818A15,15,0,1,1,30,15Z" fill="#1877f2"/>
  <path id="Path_74410" data-name="Path 74410" d="M162.991,113.477l.665-4.336H159.5v-2.814a2.168,2.168,0,0,1,2.444-2.343h1.891v-3.691a23.067,23.067,0,0,0-3.358-.293c-3.426,0-5.666,2.077-5.666,5.836v3.3H151v4.336h3.809v10.482a15.159,15.159,0,0,0,4.688,0V113.477Z" transform="translate(-142.152 -94.141)" fill="#fff"/>
</svg>
