<svg xmlns="http://www.w3.org/2000/svg" xmlns:xlink="http://www.w3.org/1999/xlink" width="260.659" height="139.98" viewBox="0 0 260.659 139.98">
  <defs>
    <linearGradient id="linear-gradient" y1="0.5" x2="1" y2="0.5" gradientUnits="objectBoundingBox">
      <stop offset="0.008" stop-color="#ffca95"/>
      <stop offset="0.085" stop-color="#fabe85"/>
      <stop offset="0.242" stop-color="#f3ab6d"/>
      <stop offset="0.385" stop-color="#ee9f5e"/>
      <stop offset="0.502" stop-color="#ed9c59"/>
      <stop offset="0.691" stop-color="#ed964f"/>
      <stop offset="0.992" stop-color="#ed8a37"/>
    </linearGradient>
    <linearGradient id="linear-gradient-3" y1="0.5" x2="1" y2="0.5" gradientUnits="objectBoundingBox">
      <stop offset="0.008" stop-color="#ed8a37"/>
      <stop offset="0.617" stop-color="#ed964f"/>
      <stop offset="1" stop-color="#ed9c59"/>
    </linearGradient>
    <linearGradient id="linear-gradient-4" y1="0.5" x2="1" y2="0.5" gradientUnits="objectBoundingBox">
      <stop offset="0.008" stop-color="#ffca95"/>
      <stop offset="0.322" stop-color="#fec791"/>
      <stop offset="0.599" stop-color="#fcc086"/>
      <stop offset="0.861" stop-color="#f8b474"/>
      <stop offset="1" stop-color="#f6ac68"/>
    </linearGradient>
    <linearGradient id="linear-gradient-5" y1="0.5" x2="1" y2="0.5" gradientUnits="objectBoundingBox">
      <stop offset="0.008" stop-color="#fde3cd"/>
      <stop offset="0.517" stop-color="#fcd9bb"/>
      <stop offset="0.992" stop-color="#efd1bb"/>
    </linearGradient>
    <linearGradient id="linear-gradient-6" y1="0.5" x2="1" y2="0.5" gradientUnits="objectBoundingBox">
      <stop offset="0.008" stop-color="#ffca95"/>
      <stop offset="0.169" stop-color="#fec791"/>
      <stop offset="0.312" stop-color="#fcc086"/>
      <stop offset="0.446" stop-color="#f8b474"/>
      <stop offset="0.517" stop-color="#f6ac68"/>
      <stop offset="0.535" stop-color="#f4a761"/>
      <stop offset="0.607" stop-color="#f19a4e"/>
      <stop offset="0.69" stop-color="#ee9141"/>
      <stop offset="0.795" stop-color="#ed8b39"/>
      <stop offset="0.992" stop-color="#ed8a37"/>
    </linearGradient>
    <linearGradient id="linear-gradient-7" y1="0.5" x2="1" y2="0.5" gradientUnits="objectBoundingBox">
      <stop offset="0.241" stop-color="#ff9a6a"/>
      <stop offset="0.992" stop-color="#f17954"/>
    </linearGradient>
    <linearGradient id="linear-gradient-8" y1="0.5" x2="1" y2="0.5" gradientUnits="objectBoundingBox">
      <stop offset="0.008" stop-color="#ffbd95"/>
      <stop offset="0.559" stop-color="#ff9a6a"/>
      <stop offset="0.992" stop-color="#f17954"/>
    </linearGradient>
    <linearGradient id="linear-gradient-9" y1="0.5" x2="1" y2="0.5" gradientUnits="objectBoundingBox">
      <stop offset="0.004" stop-color="#ff5f5b"/>
      <stop offset="1" stop-color="#c24242"/>
    </linearGradient>
    <linearGradient id="linear-gradient-10" x1="0.06" y1="0.243" x2="1.005" y2="0.639" gradientUnits="objectBoundingBox">
      <stop offset="0.008" stop-color="#ffbd95"/>
      <stop offset="0.222" stop-color="#ffb388"/>
      <stop offset="0.703" stop-color="#ffa06f"/>
      <stop offset="1" stop-color="#ff9a67"/>
    </linearGradient>
    <linearGradient id="linear-gradient-11" y1="0.5" x2="1" y2="0.5" gradientUnits="objectBoundingBox">
      <stop offset="0.008" stop-color="#ffbd95"/>
      <stop offset="1" stop-color="#ff9a67"/>
    </linearGradient>
    <linearGradient id="linear-gradient-12" y1="0.5" x2="1" y2="0.5" gradientUnits="objectBoundingBox">
      <stop offset="0" stop-color="#ff9a6a"/>
      <stop offset="0.992" stop-color="#f17954"/>
    </linearGradient>
    <linearGradient id="linear-gradient-13" y1="0.5" x2="1" y2="0.5" gradientUnits="objectBoundingBox">
      <stop offset="0.008" stop-color="#ffbd95"/>
      <stop offset="0.289" stop-color="#ffb990"/>
      <stop offset="0.601" stop-color="#ffaf83"/>
      <stop offset="0.928" stop-color="#ff9e6c"/>
      <stop offset="1" stop-color="#ff9a67"/>
    </linearGradient>
    <linearGradient id="linear-gradient-14" x1="160.566" y1="0.5" x2="161.566" y2="0.5" gradientUnits="objectBoundingBox">
      <stop offset="0" stop-color="#ff9a67"/>
      <stop offset="0.118" stop-color="#ff9e6c"/>
      <stop offset="0.992" stop-color="#ffbd95"/>
    </linearGradient>
    <linearGradient id="linear-gradient-15" x1="2714.942" y1="-30.441" x2="2714.288" y2="-30.658" gradientUnits="objectBoundingBox">
      <stop offset="0" stop-color="#ffcab0"/>
      <stop offset="0.273" stop-color="#ffdfd0"/>
      <stop offset="0.55" stop-color="#fff0e9"/>
      <stop offset="0.801" stop-color="#fffbf9"/>
      <stop offset="1" stop-color="#fff"/>
    </linearGradient>
    <linearGradient id="linear-gradient-16" x1="2509.991" y1="-946.759" x2="2510.138" y2="-945.893" xlink:href="#linear-gradient-15"/>
    <linearGradient id="linear-gradient-17" x1="949.468" y1="0.773" x2="950.15" y2="0.121" gradientUnits="objectBoundingBox">
      <stop offset="0" stop-color="#fff"/>
      <stop offset="0.199" stop-color="#fffbf9"/>
      <stop offset="0.45" stop-color="#fff0e9"/>
      <stop offset="0.727" stop-color="#ffdfd0"/>
      <stop offset="1" stop-color="#ffcab0"/>
    </linearGradient>
    <linearGradient id="linear-gradient-18" y1="0.5" x2="1" y2="0.5" gradientUnits="objectBoundingBox">
      <stop offset="0.092" stop-color="#ff9a6a"/>
      <stop offset="0.992" stop-color="#f17954"/>
    </linearGradient>
    <linearGradient id="linear-gradient-20" y1="0.5" x2="1" y2="0.5" gradientUnits="objectBoundingBox">
      <stop offset="0.008" stop-color="#fde3cd"/>
      <stop offset="0.517" stop-color="#fcd9bb"/>
      <stop offset="0.992" stop-color="#e6b693"/>
    </linearGradient>
    <linearGradient id="linear-gradient-21" y1="0.5" x2="1" y2="0.5" gradientUnits="objectBoundingBox">
      <stop offset="0.011" stop-color="#99a275"/>
      <stop offset="0.313" stop-color="#95a072"/>
      <stop offset="0.609" stop-color="#899b68"/>
      <stop offset="0.902" stop-color="#759359"/>
      <stop offset="0.992" stop-color="#6e9054"/>
    </linearGradient>
    <linearGradient id="linear-gradient-23" x1="-0.208" y1="0.711" x2="0.699" y2="0.438" xlink:href="#linear-gradient-8"/>
    <linearGradient id="linear-gradient-24" x1="27.148" y1="20.823" x2="28.093" y2="20.481" xlink:href="#linear-gradient-11"/>
    <linearGradient id="linear-gradient-25" x1="23.837" y1="27.068" x2="25.237" y2="27.068" gradientUnits="objectBoundingBox">
      <stop offset="0" stop-color="#f8e5ca"/>
      <stop offset="0.517" stop-color="#ecb365"/>
      <stop offset="1" stop-color="#db9736"/>
    </linearGradient>
    <linearGradient id="linear-gradient-28" x1="5421.993" y1="611.308" x2="5420.844" y2="611.101" xlink:href="#linear-gradient-15"/>
    <linearGradient id="linear-gradient-29" x1="-2.326" y1="-11.293" x2="-1.347" y2="-11.293" xlink:href="#linear-gradient-5"/>
  </defs>
  <g id="Group_12165" data-name="Group 12165" transform="translate(-144.421 -183.74)">
    <g id="Group_12124" data-name="Group 12124" transform="translate(144.421 276.141)">
      <g id="Group_12120" data-name="Group 12120" transform="translate(218.621)">
        <path id="Path_79912" data-name="Path 79912" d="M270.577,235.079a15.939,15.939,0,0,0-4.292.418c-.743.175-.428,1.314.313,1.14a14.714,14.714,0,0,1,3.979-.374C271.339,236.291,271.337,235.11,270.577,235.079Z" transform="translate(-265.861 -235.067)" fill="#def1ec"/>
        <path id="Path_79913" data-name="Path 79913" d="M271.526,236.065l-4.432.108a.591.591,0,0,0,0,1.181l4.432-.106A.592.592,0,0,0,271.526,236.065Z" transform="translate(-265.332 -234.269)" fill="#def1ec"/>
        <path id="Path_79914" data-name="Path 79914" d="M272.25,237.335l-4.337-.094a.592.592,0,0,0,0,1.183l4.337.094A.592.592,0,0,0,272.25,237.335Z" transform="translate(-264.675 -233.328)" fill="#def1ec"/>
        <path id="Path_79915" data-name="Path 79915" d="M273.651,238.572l-5.026-.27c-.762-.04-.758,1.141,0,1.183l5.026.27C274.414,239.795,274.408,238.614,273.651,238.572Z" transform="translate(-264.106 -232.479)" fill="#def1ec"/>
        <path id="Path_79916" data-name="Path 79916" d="M274.939,239.672a26.108,26.108,0,0,0-5.223-.173c-.756.05-.762,1.233,0,1.183a26.11,26.11,0,0,1,5.223.173C275.694,240.954,275.683,239.771,274.939,239.672Z" transform="translate(-263.231 -231.567)" fill="#def1ec"/>
        <path id="Path_79917" data-name="Path 79917" d="M275.974,240.974l-5.323-.45c-.76-.065-.754,1.118,0,1.183l5.323.448C276.735,242.22,276.728,241.037,275.974,240.974Z" transform="translate(-262.483 -230.702)" fill="#def1ec"/>
        <path id="Path_79918" data-name="Path 79918" d="M276.6,242.241q-2.565-.275-5.127-.549c-.758-.081-.751,1.1,0,1.181q2.563.275,5.127.549C277.354,243.5,277.347,242.32,276.6,242.241Z" transform="translate(-261.826 -229.769)" fill="#def1ec"/>
        <path id="Path_79919" data-name="Path 79919" d="M278.7,243.688l-6.405-.772c-.756-.092-.747,1.093,0,1.183l6.405.77C279.455,244.96,279.446,243.778,278.7,243.688Z" transform="translate(-261.165 -228.791)" fill="#def1ec"/>
        <path id="Path_79920" data-name="Path 79920" d="M276.977,244.154h-3.646a.591.591,0,0,0,0,1.181h3.646A.591.591,0,0,0,276.977,244.154Z" transform="translate(-260.34 -227.795)" fill="#def1ec"/>
        <path id="Path_79921" data-name="Path 79921" d="M279.016,245.083h-2.925a4.477,4.477,0,0,0-2.4.383.591.591,0,0,0,.6,1.021,4.349,4.349,0,0,1,2.166-.221q1.28,0,2.56,0A.591.591,0,0,0,279.016,245.083Z" transform="translate(-259.821 -227.054)" fill="#def1ec"/>
        <path id="Path_79922" data-name="Path 79922" d="M279.508,246.357q-2.268-.051-4.535.027c-.76.025-.763,1.208,0,1.183q2.266-.078,4.535-.029A.591.591,0,0,0,279.508,246.357Z" transform="translate(-259.027 -226.049)" fill="#def1ec"/>
        <path id="Path_79923" data-name="Path 79923" d="M280.391,247.169a23.4,23.4,0,0,1-4.486.355.592.592,0,0,0,0,1.183,25.1,25.1,0,0,0,4.8-.4C281.457,248.173,281.139,247.036,280.391,247.169Z" transform="translate(-258.281 -225.392)" fill="#def1ec"/>
        <path id="Path_79924" data-name="Path 79924" d="M281.629,248.608l-5.122-.139a.592.592,0,0,0,0,1.183l5.122.139A.592.592,0,0,0,281.629,248.608Z" transform="translate(-257.799 -224.343)" fill="#def1ec"/>
        <path id="Path_79925" data-name="Path 79925" d="M282.858,250.065a40.42,40.42,0,0,1-5.253-.454c-.745-.115-1.066,1.024-.315,1.14a43.065,43.065,0,0,0,5.568.5A.592.592,0,0,0,282.858,250.065Z" transform="translate(-257.058 -223.435)" fill="#def1ec"/>
        <path id="Path_79926" data-name="Path 79926" d="M283.069,251.079l-4.92-.378c-.762-.058-.754,1.125,0,1.183l4.92.376C283.83,252.319,283.823,251.137,283.069,251.079Z" transform="translate(-256.483 -222.558)" fill="#def1ec"/>
        <path id="Path_79927" data-name="Path 79927" d="M284.781,252.346l-5.811-.212c-.763-.027-.76,1.156,0,1.183l5.811.212C285.544,253.555,285.543,252.373,284.781,252.346Z" transform="translate(-255.828 -221.411)" fill="#def1ec"/>
        <path id="Path_79928" data-name="Path 79928" d="M284.727,253.348H279.9a.592.592,0,0,0,0,1.183h4.826A.592.592,0,0,0,284.727,253.348Z" transform="translate(-255.085 -220.438)" fill="#def1ec"/>
        <path id="Path_79929" data-name="Path 79929" d="M286.306,254.134a47.779,47.779,0,0,1-5.8.387.591.591,0,0,0,0,1.181,47.764,47.764,0,0,0,5.8-.385C287.052,255.219,287.061,254.036,286.306,254.134Z" transform="translate(-254.603 -219.814)" fill="#def1ec"/>
        <path id="Path_79930" data-name="Path 79930" d="M286.06,255.215a30.71,30.71,0,0,0-4.636.256c-.743.1-.754,1.282,0,1.183a30.479,30.479,0,0,1,4.636-.256A.592.592,0,0,0,286.06,255.215Z" transform="translate(-253.856 -218.949)" fill="#def1ec"/>
        <path id="Path_79931" data-name="Path 79931" d="M289.681,256.168a37.5,37.5,0,0,0-7.737.533c-.751.128-.432,1.267.313,1.14a36.113,36.113,0,0,1,7.424-.492C290.443,257.375,290.441,256.194,289.681,256.168Z" transform="translate(-253.335 -218.201)" fill="#def1ec"/>
        <path id="Path_79932" data-name="Path 79932" d="M287.545,257.229l-4.637.409c-.753.067-.76,1.249,0,1.183l4.637-.409C288.3,258.345,288.305,257.163,287.545,257.229Z" transform="translate(-252.673 -217.334)" fill="#def1ec"/>
        <path id="Path_79933" data-name="Path 79933" d="M289.879,258.763a31.091,31.091,0,0,1-5.716-.149c-.756-.09-.747,1.093,0,1.183a31.1,31.1,0,0,0,5.716.15C290.635,259.895,290.641,258.712,289.879,258.763Z" transform="translate(-251.666 -216.229)" fill="#def1ec"/>
        <path id="Path_79934" data-name="Path 79934" d="M290.493,259.694a56.166,56.166,0,0,0-5.613.238c-.753.068-.76,1.251,0,1.181q2.8-.257,5.613-.236A.592.592,0,0,0,290.493,259.694Z" transform="translate(-251.095 -215.361)" fill="#def1ec"/>
        <path id="Path_79935" data-name="Path 79935" d="M292.083,260.812l-6.6.005a.592.592,0,0,0,0,1.183l6.6-.005A.592.592,0,0,0,292.083,260.812Z" transform="translate(-250.617 -214.465)" fill="#def1ec"/>
      </g>
      <g id="Group_12121" data-name="Group 12121">
        <path id="Path_79936" data-name="Path 79936" d="M165.407,235.079a15.939,15.939,0,0,1,4.292.418c.742.175.427,1.314-.315,1.14a14.7,14.7,0,0,0-3.977-.374C164.644,236.291,164.647,235.11,165.407,235.079Z" transform="translate(-128.084 -235.067)" fill="#def1ec"/>
        <path id="Path_79937" data-name="Path 79937" d="M164.586,236.065l4.432.108a.591.591,0,0,1,0,1.181l-4.432-.106A.592.592,0,0,1,164.586,236.065Z" transform="translate(-128.742 -234.269)" fill="#def1ec"/>
        <path id="Path_79938" data-name="Path 79938" d="M163.819,237.335l4.335-.094a.592.592,0,0,1,0,1.183l-4.335.094A.592.592,0,0,1,163.819,237.335Z" transform="translate(-129.355 -233.328)" fill="#def1ec"/>
        <path id="Path_79939" data-name="Path 79939" d="M162.725,238.572l5.024-.27c.763-.04.76,1.141,0,1.183l-5.024.27C161.962,239.795,161.965,238.614,162.725,238.572Z" transform="translate(-130.231 -232.479)" fill="#def1ec"/>
        <path id="Path_79940" data-name="Path 79940" d="M161.519,239.672a26.108,26.108,0,0,1,5.222-.173c.756.05.762,1.233,0,1.183a26.11,26.11,0,0,0-5.222.173C160.765,240.954,160.774,239.771,161.519,239.672Z" transform="translate(-131.189 -231.567)" fill="#def1ec"/>
        <path id="Path_79941" data-name="Path 79941" d="M160.53,240.974l5.325-.45c.76-.065.753,1.118,0,1.183l-5.325.448C159.771,242.22,159.776,241.037,160.53,240.974Z" transform="translate(-131.984 -230.702)" fill="#def1ec"/>
        <path id="Path_79942" data-name="Path 79942" d="M159.819,242.241q2.563-.275,5.127-.549c.758-.081.751,1.1,0,1.181q-2.563.275-5.127.549C159.062,243.5,159.069,242.32,159.819,242.241Z" transform="translate(-132.551 -229.769)" fill="#def1ec"/>
        <path id="Path_79943" data-name="Path 79943" d="M158.284,243.688l6.405-.772c.756-.092.747,1.093,0,1.183l-6.405.77C157.528,244.96,157.535,243.778,158.284,243.688Z" transform="translate(-133.779 -228.791)" fill="#def1ec"/>
        <path id="Path_79944" data-name="Path 79944" d="M158.784,244.154h3.647a.591.591,0,0,1,0,1.181h-3.647A.591.591,0,0,1,158.784,244.154Z" transform="translate(-133.384 -227.795)" fill="#def1ec"/>
        <path id="Path_79945" data-name="Path 79945" d="M157.363,245.083h2.925a4.48,4.48,0,0,1,2.4.383.591.591,0,0,1-.6,1.021,4.356,4.356,0,0,0-2.167-.221q-1.28,0-2.56,0A.591.591,0,0,1,157.363,245.083Z" transform="translate(-134.521 -227.054)" fill="#def1ec"/>
        <path id="Path_79946" data-name="Path 79946" d="M156.65,246.357q2.268-.051,4.535.027c.76.025.763,1.208,0,1.183q-2.268-.078-4.535-.029A.591.591,0,0,1,156.65,246.357Z" transform="translate(-135.092 -226.049)" fill="#def1ec"/>
        <path id="Path_79947" data-name="Path 79947" d="M155.82,247.169a23.427,23.427,0,0,0,4.488.355.592.592,0,0,1,0,1.183,25.1,25.1,0,0,1-4.8-.4C154.756,248.173,155.075,247.036,155.82,247.169Z" transform="translate(-135.893 -225.392)" fill="#def1ec"/>
        <path id="Path_79948" data-name="Path 79948" d="M154.79,248.608l5.122-.139a.592.592,0,0,1,0,1.183l-5.122.139A.592.592,0,0,1,154.79,248.608Z" transform="translate(-136.581 -224.343)" fill="#def1ec"/>
        <path id="Path_79949" data-name="Path 79949" d="M153.7,250.065a40.447,40.447,0,0,0,5.253-.454c.745-.115,1.066,1.024.313,1.14a43.01,43.01,0,0,1-5.566.5A.592.592,0,0,1,153.7,250.065Z" transform="translate(-137.457 -223.435)" fill="#def1ec"/>
        <path id="Path_79950" data-name="Path 79950" d="M153.258,251.079l4.92-.378c.76-.058.754,1.125,0,1.183l-4.92.376C152.5,252.319,152.5,251.137,153.258,251.079Z" transform="translate(-137.805 -222.558)" fill="#def1ec"/>
        <path id="Path_79951" data-name="Path 79951" d="M151.943,252.346l5.813-.212c.763-.027.76,1.156,0,1.183l-5.813.212C151.181,253.555,151.183,252.373,151.943,252.346Z" transform="translate(-138.858 -221.411)" fill="#def1ec"/>
        <path id="Path_79952" data-name="Path 79952" d="M151.56,253.348h4.828a.592.592,0,0,1,0,1.183H151.56A.592.592,0,0,1,151.56,253.348Z" transform="translate(-139.165 -220.438)" fill="#def1ec"/>
        <path id="Path_79953" data-name="Path 79953" d="M150.412,254.134a47.755,47.755,0,0,0,5.8.387.591.591,0,0,1,0,1.181,47.741,47.741,0,0,1-5.8-.385C149.667,255.219,149.658,254.036,150.412,254.134Z" transform="translate(-140.077 -219.814)" fill="#def1ec"/>
        <path id="Path_79954" data-name="Path 79954" d="M150.137,255.215a30.684,30.684,0,0,1,4.636.256c.745.1.754,1.282,0,1.183a30.453,30.453,0,0,0-4.636-.256A.592.592,0,0,1,150.137,255.215Z" transform="translate(-140.304 -218.949)" fill="#def1ec"/>
        <path id="Path_79955" data-name="Path 79955" d="M147.837,256.168a37.51,37.51,0,0,1,7.737.533c.751.128.432,1.267-.313,1.14a36.122,36.122,0,0,0-7.424-.492C147.074,257.375,147.077,256.194,147.837,256.168Z" transform="translate(-142.145 -218.201)" fill="#def1ec"/>
        <path id="Path_79956" data-name="Path 79956" d="M148.653,257.229l4.639.409c.752.067.76,1.249,0,1.183l-4.639-.409C147.9,258.345,147.893,257.163,148.653,257.229Z" transform="translate(-141.488 -217.334)" fill="#def1ec"/>
        <path id="Path_79957" data-name="Path 79957" d="M146.8,258.763a31.071,31.071,0,0,0,5.714-.149c.756-.09.749,1.093,0,1.183a31.082,31.082,0,0,1-5.714.15C146.043,259.895,146.037,258.712,146.8,258.763Z" transform="translate(-142.973 -216.229)" fill="#def1ec"/>
        <path id="Path_79958" data-name="Path 79958" d="M146.142,259.694q2.814-.022,5.613.238c.753.068.76,1.251,0,1.181q-2.8-.257-5.613-.236A.592.592,0,0,1,146.142,259.694Z" transform="translate(-143.501 -215.361)" fill="#def1ec"/>
        <path id="Path_79959" data-name="Path 79959" d="M144.993,260.812l6.6.005a.592.592,0,0,1,0,1.183l-6.6-.005A.592.592,0,0,1,144.993,260.812Z" transform="translate(-144.421 -214.465)" fill="#def1ec"/>
      </g>
      <g id="Group_12123" data-name="Group 12123" transform="translate(5.61 0.354)">
        <path id="Path_79960" data-name="Path 79960" d="M147.537,282.408H397l-35.469-47.144H183.006Z" transform="translate(-147.537 -235.264)" fill="#def1ec"/>
        <g id="Group_12122" data-name="Group 12122" transform="translate(5.549)">
          <path id="Path_79961" data-name="Path 79961" d="M196.244,235.264H184.421l-28.955,47.144h21.2Z" transform="translate(-146.742 -235.264)" fill="#dccbaf" opacity="0.3" style="mix-blend-mode: multiply;isolation: isolate"/>
          <path id="Path_79962" data-name="Path 79962" d="M207.912,235.308H196.089l-17.133,47.144h21.2Z" transform="translate(-127.944 -235.228)" fill="#dccbaf" opacity="0.3" style="mix-blend-mode: multiply;isolation: isolate"/>
          <path id="Path_79963" data-name="Path 79963" d="M238.839,235.264h11.823l28.955,47.144h-21.2Z" transform="translate(-80.024 -235.264)" fill="#dccbaf" opacity="0.3" style="mix-blend-mode: multiply;isolation: isolate"/>
          <path id="Path_79964" data-name="Path 79964" d="M259.841,235.264h11.823l35.469,47.144H286.6Z" transform="translate(-63.217 -235.264)" fill="#dccbaf" opacity="0.3" style="mix-blend-mode: multiply;isolation: isolate"/>
          <path id="Path_79965" data-name="Path 79965" d="M221.915,235.308h11.823l17.133,47.144h-21.2Z" transform="translate(-93.567 -235.228)" fill="#dccbaf" opacity="0.3" style="mix-blend-mode: multiply;isolation: isolate"/>
          <path id="Path_79966" data-name="Path 79966" d="M220.448,235.308H208.624l-5.309,47.144h21.2Z" transform="translate(-108.451 -235.228)" fill="#dccbaf" opacity="0.3" style="mix-blend-mode: multiply;isolation: isolate"/>
          <path id="Path_79967" data-name="Path 79967" d="M357.993,243.755H162.538l3.8-5.045H354.285Z" transform="translate(-141.082 -232.506)" fill="#dccbaf" opacity="0.3" style="mix-blend-mode: multiply;isolation: isolate"/>
          <path id="Path_79968" data-name="Path 79968" d="M373.291,251.37H156.75l3.8-5.045,208.887.01Z" transform="translate(-145.715 -226.412)" fill="#dccbaf" opacity="0.3" style="mix-blend-mode: multiply;isolation: isolate"/>
          <path id="Path_79969" data-name="Path 79969" d="M389.7,260.392H150.62l4.81-6.589H384.176Z" transform="translate(-150.62 -220.428)" fill="#dccbaf" opacity="0.3" style="mix-blend-mode: multiply;isolation: isolate"/>
        </g>
      </g>
    </g>
    <g id="Group_12126" data-name="Group 12126" transform="translate(277.602 249.878)">
      <g id="Group_12125" data-name="Group 12125" transform="translate(0 0)">
        <path id="Path_79970" data-name="Path 79970" d="M225.844,232.479a2.607,2.607,0,0,0-.688-2.515l-6.522-6.452,2.753-2.783,6.524,6.454a2.6,2.6,0,0,0,2.519.661h0a4.117,4.117,0,0,1,4.033,1.1L251.3,246.226a.107.107,0,0,1,.049.02c.239.239-1.1,1.986-3,3.9s-3.627,3.275-3.869,3.037l-17.5-16.686A4.112,4.112,0,0,1,225.844,232.479Z" transform="translate(-218.214 -220.278)" fill="#2e0000"/>
        <rect id="Rectangle_3287" data-name="Rectangle 3287" width="3.914" height="7.54" transform="matrix(0.703, -0.711, 0.711, 0.703, 0.42, 3.233)" fill="#010e11"/>
        <rect id="Rectangle_3288" data-name="Rectangle 3288" width="4.45" height="2.332" rx="0.145" transform="translate(0 3.163) rotate(-45.304)" fill="#010e11"/>
        <rect id="Rectangle_3289" data-name="Rectangle 3289" width="8.236" height="15.563" transform="translate(10.475 16.223) rotate(-45.302)" fill="#e0e0d6"/>
        <rect id="Rectangle_3290" data-name="Rectangle 3290" width="8.236" height="3.437" transform="matrix(0.703, -0.711, 0.711, 0.703, 10.475, 16.223)" fill="#681d1a"/>
        <path id="Path_79971" data-name="Path 79971" d="M223.158,226.811c.383-.446.8.265,1.1.978a7.448,7.448,0,0,0,1.651,2.373l15.358,14.625c.425.419.54,1,.257,1.282l-.565.572c-.283.286-.862.176-1.285-.243l-15.259-14.515a5.041,5.041,0,0,1-1.582-3.152A3.124,3.124,0,0,1,223.158,226.811Z" transform="translate(-214.862 -215.522)" fill="#fff" opacity="0.2"/>
        <path id="Path_79972" data-name="Path 79972" d="M224.718,225.24a3.128,3.128,0,0,1,1.915-.346,5.026,5.026,0,0,1,3.167,1.55l14.677,15.1c.423.419.54,1,.257,1.282l-.567.574c-.281.284-.86.175-1.284-.245l-14.787-15.2a7.443,7.443,0,0,0-2.391-1.626C224.99,226.041,224.275,225.627,224.718,225.24Z" transform="translate(-213.455 -216.949)" fill="#fff" opacity="0.1"/>
        <path id="Rectangle_3291" data-name="Rectangle 3291" d="M1.607,0H4.356A1.608,1.608,0,0,1,5.963,1.608V26.067a1.607,1.607,0,0,1-1.607,1.607H1.608A1.608,1.608,0,0,1,0,26.066V1.607A1.607,1.607,0,0,1,1.607,0Z" transform="matrix(0.704, -0.711, 0.711, 0.704, 6.822, 13.128)" fill="#fff" style="mix-blend-mode: soft-light;isolation: isolate"/>
        <path id="Path_79973" data-name="Path 79973" d="M220.565,222.7l3.687,3.648-.885.894-3.949-3.907.27-.273Z" transform="translate(-217.587 -218.703)" fill="#fff" opacity="0.1"/>
        <path id="Path_79974" data-name="Path 79974" d="M218.5,222.774l1.305-1.32a.185.185,0,0,1,.261,0l1.4,1.381a.183.183,0,0,1,0,.261l-1.305,1.32a.185.185,0,0,1-.261,0l-1.4-1.381A.185.185,0,0,1,218.5,222.774Z" transform="translate(-218.367 -219.741)" fill="#fff" opacity="0.1"/>
      </g>
      <path id="Rectangle_3292" data-name="Rectangle 3292" d="M.6,0h2.89a0,0,0,0,1,0,0V15.271a0,0,0,0,1,0,0H0a0,0,0,0,1,0,0V.6A.6.6,0,0,1,.6,0Z" transform="translate(22.88 2.055)" fill="#c27938"/>
      <path id="Path_79975" data-name="Path 79975" d="M258.374,251.823h-32.8a1.8,1.8,0,0,1-1.786-1.622l-2.207-22.818h40.788L260.16,250.2A1.8,1.8,0,0,1,258.374,251.823Z" transform="translate(-215.858 -214.953)" fill="url(#linear-gradient)"/>
      <path id="Path_79976" data-name="Path 79976" d="M222.812,223.177l14.938,8.548v-2.1l-12.758-7.511a1.132,1.132,0,0,0-1.413.216Z" transform="translate(-214.871 -219.294)" fill="url(#linear-gradient)"/>
      <path id="Path_79977" data-name="Path 79977" d="M254.74,228.316v-.56a1.539,1.539,0,0,0-1.539-1.539H231.11v2.1Z" transform="translate(-208.231 -215.886)" fill="url(#linear-gradient-3)"/>
      <path id="Path_79978" data-name="Path 79978" d="M260.28,248.277l.115-1.179c-.409-.02-.815-.045-1.222-.061.061-.617.121-1.233.171-1.852l1.231.05.113-1.181L259.43,244c.02-.279.045-.558.063-.837l1.285-.038.115-1.185c-.443.011-.886.025-1.33.038q.062-1.08.117-2.166c.47.034.938.085,1.406.131l.113-1.163c-.484-.047-.969-.1-1.455-.13.018-.284.04-.567.059-.85l1.485.045.113-1.179q-.756-.022-1.512-.047.092-1.029.2-2.056.753.03,1.507.063l.113-1.176c-.5-.022-.992-.043-1.487-.063.061-.544.119-1.089.182-1.633h1.469l.115-1.183h-1.449c.041-.367.085-.735.124-1.1l1.44-.092.115-1.19-1.438.09c.029-.3.049-.6.074-.9h-1.192c-.029.326-.05.65-.083.976-.834.052-1.665.106-2.5.157.016-.378.031-.754.049-1.132h-1.183c-.018.4-.034.8-.05,1.2-.43.025-.862.045-1.294.07.02-.423.022-.844.027-1.267h-1.179c-.005.443-.007.888-.025,1.33-.767.04-1.534.083-2.3.119v-1.449h-1.183v1.494c-.666.029-1.33.052-2,.076q0-.783,0-1.57h-1.183q0,.807,0,1.617c-.828.025-1.654.04-2.482.058.025-.558.074-1.116.106-1.674h-1.181c-.034.564-.083,1.129-.108,1.692-.781.011-1.563.032-2.344.036-.049-.58-.086-1.152-.131-1.728h-1.183c.045.574.083,1.143.131,1.719q-1.347-.014-2.7-.07c-.031-.549-.063-1.1-.1-1.649H235.6q.049.8.094,1.6-.937-.046-1.874-.1-.1-.751-.2-1.5h-1.183l.189,1.438q-1.067-.057-2.131-.1c-.056-.445-.117-.891-.171-1.336h-1.183c.052.432.112.864.167,1.3-.569-.018-1.138-.038-1.707-.045,0-.182-.013-.364-.011-.547a.592.592,0,0,0-1.183,0c0,.187.011.371.011.558q-.923.005-1.845.045c-.031-.322-.054-.643-.086-.963a.6.6,0,0,0-.16-.344H223.4a.5.5,0,0,0-.088.344c.034.344.061.689.094,1.033q-.872.062-1.744.158l.113,1.165q.864-.105,1.735-.173c.045.545.07,1.093.11,1.638l-1.692.115.113,1.176,1.66-.115c.04.589.063,1.177.1,1.766-.531.02-1.062.034-1.593.054l.113,1.179c.515-.02,1.03-.034,1.545-.054.014.272.023.544.036.815l-1.5.061.115,1.177c.479-.018.96-.04,1.44-.058.022.481.032.961.052,1.444l-1.357.018.113,1.181,1.285-.018c.023.58.038,1.161.058,1.741q-.589-.016-1.179-.027l.115,1.185c.367.007.736.016,1.1.027.014.459.025.92.04,1.381-.335,0-.67,0-1.006.007l.115,1.181c.308,0,.617-.005.927-.007.016.571.032,1.14.05,1.71-.275-.032-.549-.079-.824-.115l.117,1.2c.247.032.493.077.742.106l.043,1.467q-.319-.024-.637-.043l.009.094a1.785,1.785,0,0,0,.558,1.127l.1.007,0,.074a1.771,1.771,0,0,0,1.12.414h.074l-.011-.409c.812.041,1.624.074,2.436.092,0,.106-.011.211-.014.317h1.183c0-.1.011-.2.014-.3.709.007,1.42.011,2.13,0,0,.1-.014.2-.018.3h1.181c.005-.1.016-.207.02-.308.608-.011,1.215-.027,1.824-.045,0,.117-.009.236-.013.353h1.183c0-.13.011-.259.011-.387.562-.02,1.123-.04,1.685-.063.011.149.023.3.032.45h1.183c-.011-.167-.023-.335-.036-.5q1.131-.051,2.265-.1c-.011.2-.029.4-.041.6h1.181c.014-.221.032-.439.045-.659q1.1-.051,2.207-.1c.025.254.058.506.083.76h1.183c-.027-.27-.061-.538-.088-.807q1.029-.04,2.058-.074c.009.293.02.587.027.88h1.183c-.009-.3-.02-.608-.029-.913q.748-.016,1.5-.027v.94h1.183v-.952c.446,0,.893,0,1.339,0-.013.317-.031.632-.047.949H253.6c.016-.313.036-.625.05-.938.241.005.482.014.724.02-.027.306-.056.612-.083.918h1.183c.025-.293.052-.585.079-.877.63.025,1.26.061,1.89.1-.045.259-.1.517-.146.776h1.012a1.806,1.806,0,0,0,.2-.038c.04-.22.086-.439.124-.659.329.025.657.065.987.1a1.757,1.757,0,0,0,.479-1.023l.011-.112c-.43-.045-.862-.092-1.294-.128q.127-.872.23-1.746C259.453,248.23,259.867,248.257,260.28,248.277Zm-20.6-18.011.049.546c-.913.025-1.824.047-2.736.077-.014-.243-.031-.482-.045-.724Q238.318,230.229,239.681,230.265Zm-3.919-.16c.016.275.036.549.052.825-.574.02-1.147.045-1.719.067-.041-.329-.081-.661-.124-.99Q234.868,230.057,235.762,230.1Zm-2.477,3.944q-1.023.057-2.043.11l-.259-1.854c.695-.032,1.39-.058,2.085-.086Q233.178,233.134,233.285,234.049Zm-.5-4.106c.047.367.092.733.137,1.1-.7.029-1.4.056-2.1.088-.058-.43-.119-.861-.176-1.289Q231.713,229.885,232.781,229.943Zm-2.715,4.274c-.72.038-1.44.07-2.16.1-.052-.614-.108-1.23-.149-1.845q1.026-.057,2.052-.11C229.9,232.984,229.982,233.6,230.066,234.217Zm-.607-4.411c.061.463.126.925.189,1.386-.648.032-1.3.068-1.946.1-.025-.508-.061-1.014-.072-1.523Q228.543,229.779,229.46,229.806Zm-4.774.036c.587-.029,1.174-.052,1.762-.061.013.527.049,1.053.074,1.579-.574.034-1.15.07-1.725.108C224.756,230.926,224.732,230.382,224.685,229.842Zm.191,2.8c.567-.036,1.134-.074,1.7-.106.041.614.1,1.228.151,1.84-.583.027-1.167.047-1.75.07C224.943,233.848,224.918,233.245,224.876,232.645Zm.167,2.985c.6-.023,1.194-.047,1.791-.074.027.272.056.544.085.814-.612.018-1.226.045-1.838.067C225.067,236.168,225.058,235.9,225.044,235.63Zm.092,1.987c.635-.023,1.271-.049,1.908-.068.054.506.112,1.01.167,1.514-.675.009-1.348.018-2.023.029C225.168,238.6,225.157,238.109,225.135,237.617Zm.1,2.655q1.056-.014,2.112-.031c.07.625.137,1.249.2,1.872-.753-.016-1.505-.032-2.257-.054C225.269,241.465,225.253,240.869,225.231,240.273Zm.1,2.97q1.169.032,2.337.058c.041.419.072.841.108,1.262-.8.013-1.6.018-2.405.025C225.353,244.14,225.342,243.691,225.328,243.243Zm.074,2.524c.825-.007,1.647-.014,2.472-.029q.073,1.029.115,2.059-1.269-.059-2.533-.18C225.438,247,225.422,246.385,225.4,245.767Zm.131,4.463c-.014-.481-.027-.96-.041-1.438q1.264.113,2.531.169c.009.454.005.909,0,1.365Q226.779,250.3,225.533,250.23Zm2.479-14.731c.738-.034,1.476-.068,2.214-.108.041.3.081.6.121.9q-1.123.024-2.247.052C228.072,236.062,228.039,235.781,228.012,235.5Zm.211,2.023q1.142-.03,2.281-.052c.067.515.13,1.028.191,1.543l-2.3.032C228.336,238.537,228.279,238.03,228.223,237.522Zm.3,2.7,2.306-.034c.076.67.133,1.338.2,2.007-.765-.014-1.53-.04-2.3-.056Q228.631,241.185,228.523,240.226Zm.328,3.1c.763.016,1.527.041,2.288.054.031.369.049.736.074,1.105q-1.129.027-2.259.049C228.92,244.134,228.889,243.731,228.851,243.33Zm.32,4.508c-.029-.709-.067-1.417-.119-2.124q1.121-.024,2.238-.05c.04.733.063,1.465.077,2.2Q230.269,247.868,229.172,247.837Zm2.182,2.506q-1.072.008-2.144-.005c0-.443.007-.888,0-1.33.722.018,1.446.022,2.169.018C231.377,249.465,231.362,249.9,231.354,250.343Zm.049-15.01c.673-.034,1.345-.072,2.018-.108.04.338.074.679.11,1.017-.668.007-1.336.011-2,.022C231.485,235.954,231.445,235.644,231.4,235.333Zm.281,2.11c.657-.011,1.316-.013,1.973-.02.052.515.09,1.03.137,1.545l-1.917.027C231.813,238.478,231.75,237.959,231.683,237.443Zm.328,2.733,1.889-.027c.059.7.1,1.4.153,2.094-.614-.007-1.228-.005-1.842-.014C232.146,241.544,232.088,240.86,232.011,240.175Zm.315,3.237c.6.009,1.21.005,1.813.013.02.326.032.652.05.976-.6.02-1.2.045-1.795.063C232.371,244.113,232.354,243.762,232.326,243.412Zm.146,2.223c.592-.018,1.185-.043,1.777-.063.032.743.034,1.489.05,2.234-.581.02-1.165.04-1.748.05Q232.529,246.745,232.471,245.636Zm1.852,4.654c-.6.016-1.192.032-1.788.041.009-.437.023-.877.023-1.316q.883-.014,1.766-.043C234.331,249.411,234.326,249.85,234.324,250.289Zm-.081-18.116c.547-.022,1.1-.047,1.644-.065.034.6.076,1.2.112,1.793q-.77.043-1.539.083C234.387,233.381,234.317,232.777,234.243,232.173Zm.353,2.987,1.476-.081c.023.382.05.761.074,1.143-.479,0-.956.007-1.435.011Q234.654,235.7,234.6,235.16Zm.241,2.254c.461,0,.924-.009,1.384-.011.031.509.067,1.019.1,1.527l-1.347.02C234.927,238.438,234.889,237.925,234.837,237.414Zm.243,2.717,1.316-.018c.047.715.1,1.429.144,2.144-.436,0-.87,0-1.305-.007C235.184,241.544,235.139,240.836,235.08,240.13Zm.241,3.3q.648.005,1.3.007c.02.292.043.581.063.871-.437.018-.875.032-1.312.049C235.352,244.05,235.341,243.74,235.321,243.432Zm.158,4.335c-.016-.745-.018-1.492-.052-2.238.446-.016.893-.031,1.338-.049.05.738.11,1.476.16,2.214C236.443,247.72,235.962,247.747,235.48,247.767Zm.027,2.486c0-.443.005-.886,0-1.327.5-.022,1-.041,1.5-.067.032.445.067.889.1,1.334Q236.306,250.226,235.507,250.253Zm1.671-16.415c-.036-.59-.077-1.181-.112-1.771.924-.029,1.847-.052,2.771-.077.052.567.1,1.136.155,1.7Q238.584,233.765,237.177,233.839Zm.072,1.177c.949-.05,1.9-.1,2.846-.146.041.452.077.9.117,1.356-.963-.005-1.924-.014-2.886-.013C237.3,235.814,237.274,235.416,237.249,235.016Zm.153,2.38c.97,0,1.941.007,2.909.013.04.488.076.976.112,1.462l-2.922.043C237.469,238.408,237.433,237.9,237.4,237.4Zm.175,2.7q1.466-.022,2.931-.041c.049.743.081,1.487.119,2.231-.969,0-1.935-.013-2.9-.018C237.674,241.542,237.624,240.818,237.577,240.094Zm.223,3.354c.963.005,1.928.016,2.891.018.007.218.009.434.016.654-.949.05-1.9.106-2.848.148C237.842,243.994,237.818,243.72,237.8,243.448Zm2.882,6.587-2.4.108c-.031-.448-.067-.9-.1-1.347q1.277-.067,2.549-.139C240.727,249.119,240.7,249.575,240.682,250.035Zm-2.58-2.4c-.05-.733-.108-1.465-.158-2.2.933-.041,1.863-.1,2.794-.142q.024,1.094.02,2.185Q239.435,247.559,238.1,247.636Zm5.581-.32-.31.014-1.433.083q0-1.088-.022-2.178c.488-.025.974-.045,1.46-.074.041,0,.081,0,.122-.005C243.555,245.875,243.624,246.6,243.683,247.315Zm-.275-3.339-.029,0c-.5.031-.994.05-1.491.079-.007-.194-.007-.389-.014-.583.5,0,1,0,1.494-.005C243.379,243.637,243.4,243.807,243.408,243.976Zm-2.544-13.691c.232,0,.464.013.695.013.5,0,1.006-.022,1.509-.027,0,.155,0,.306-.009.459l-2.15.049C240.895,230.614,240.88,230.449,240.864,230.285Zm.151,1.672q1.01-.024,2.02-.045c-.011.545-.009,1.089-.011,1.633q-.929.043-1.858.088Zm.257,2.853c.581-.029,1.161-.056,1.743-.083,0,.506.027,1.01.034,1.516-.551-.007-1.1-.007-1.654-.013C241.354,235.758,241.314,235.284,241.273,234.811Zm.221,2.6c.527.005,1.057.005,1.584.011.013.47.04.938.056,1.408l-1.53.022C241.568,238.373,241.534,237.895,241.494,237.414Zm.315,4.877c-.038-.752-.07-1.5-.122-2.256l.776-.011c.238,0,.481-.014.718-.018.032.76.079,1.521.124,2.281Q242.557,242.29,241.809,242.291Zm.058,7.689c.016-.463.045-.924.054-1.388l.311-.018,1.55-.081c.041.464.088.929.131,1.393Q242.89,249.932,241.867,249.98Zm2.385-19.729c.839-.014,1.678-.016,2.517-.041,0,.151,0,.3,0,.454-.844.013-1.687.031-2.531.047C244.247,230.557,244.247,230.4,244.252,230.251Zm-.034,1.642c.855-.016,1.708-.034,2.564-.047,0,.517.014,1.035.018,1.552-.864.029-1.728.065-2.594.1C244.209,232.964,244.207,232.429,244.218,231.893Zm-.02,2.79q1.307-.057,2.616-.1c.005.574.027,1.149.036,1.721q-1.307-.022-2.616-.04C244.225,235.734,244.2,235.209,244.2,234.683Zm.063,2.76q1.307.019,2.614.04c.007.425.022.85.031,1.275-.7.022-1.4.041-2.087.05l-.5.007C244.3,238.357,244.274,237.9,244.261,237.443Zm.1,2.533c.852-.027,1.708-.056,2.571-.092.016.787.041,1.573.059,2.362-.835.007-1.671.023-2.506.029C244.443,241.508,244.4,240.741,244.362,239.976Zm.187,3.48c.825-.005,1.649-.02,2.474-.029,0,.135.009.268.013.4q-1.223.032-2.448.092C244.576,243.765,244.56,243.61,244.549,243.456Zm.131,1.66q1.2-.054,2.393-.083c.02.706.047,1.41.067,2.115q-1.14.049-2.279.106C244.8,246.541,244.733,245.828,244.681,245.115Zm.412,4.722c-.045-.468-.092-.938-.133-1.406q1.11-.054,2.218-.1c.014.477.031.954.045,1.433C246.513,249.783,245.8,249.81,245.093,249.837Zm4.846-.137q-.767.011-1.536.029c-.013-.482-.031-.965-.045-1.449.527-.02,1.053-.04,1.581-.058Zm0-2.661c-.538.018-1.078.034-1.618.056-.02-.7-.047-1.4-.067-2.1.563-.009,1.125,0,1.687,0Zm0-3.251c-.574,0-1.149,0-1.725.011,0-.128-.009-.257-.013-.385.58-.007,1.159-.011,1.737-.02Zm0-1.577c-.59.009-1.179.013-1.768.02-.02-.8-.045-1.6-.061-2.394q.913-.038,1.829-.074Zm0-3.555q-.932.032-1.858.063c-.007-.4-.022-.812-.029-1.219.628.013,1.258.029,1.887.041Zm0-2.3c-.637-.014-1.275-.031-1.912-.043-.009-.594-.031-1.188-.038-1.78.65-.02,1.3-.023,1.951-.036Zm0-3.042c-.655.014-1.311.016-1.964.036-.005-.508-.016-1.015-.018-1.525l1.982-.02Zm0-2.691c-.662.007-1.327.013-1.991.022,0-.164,0-.326,0-.488.664-.023,1.33-.054,2-.083Zm2.547,19.065c-.457,0-.915-.005-1.374,0,0-.5,0-1,0-1.5.472-.013.945-.023,1.417-.031C252.531,248.671,252.508,249.182,252.494,249.692Zm.063-2.715c-.479.007-.956.013-1.435.025,0-.668,0-1.338,0-2.005.481,0,.963,0,1.446.005C252.567,245.661,252.562,246.318,252.557,246.977Zm.016-3.172c-.482-.007-.967-.016-1.449-.018v-.407c.484-.009.969-.007,1.451-.016Zm.016-1.624c-.488.011-.976.009-1.465.016l0-2.475c.5-.016,1-.031,1.494-.043C252.6,240.514,252.6,241.347,252.589,242.181Zm.083-3.611q-.775.022-1.546.045l0-1.046c.531.013,1.062.023,1.595.038C252.7,237.927,252.69,238.247,252.672,238.57Zm.13-2.144c-.558-.014-1.116-.025-1.674-.038V234.48c.614-.011,1.228-.031,1.842-.034C252.908,235.1,252.854,235.765,252.8,236.426Zm.277-3.165c-.65,0-1.3.025-1.95.036v-1.5c.695-.005,1.39-.013,2.085-.016C253.171,232.274,253.124,232.768,253.079,233.261Zm.229-2.662q-1.088.005-2.178.018v-.587c.745-.036,1.489-.072,2.232-.113C253.347,230.143,253.324,230.371,253.307,230.6Zm3.73-.891q1.21-.076,2.421-.155c-.038.342-.079.684-.119,1.024l-2.348.005C257.005,230.29,257.025,230,257.037,229.707Zm-2.5.142c.439-.025.879-.049,1.316-.076-.011.272-.029.542-.041.814l-1.334.005C254.494,230.344,254.519,230.1,254.535,229.849Zm-.157,1.926,1.372-.005c-.025.5-.058,1.008-.083,1.514-.477-.005-.952-.016-1.429-.016C254.287,232.771,254.334,232.272,254.379,231.776Zm.1,17.95c-.265-.007-.527-.016-.792-.022.016-.52.041-1.041.05-1.559.3,0,.589,0,.884,0C254.578,248.671,254.524,249.2,254.479,249.726Zm.238-2.769c-.32,0-.639,0-.96,0,.007-.648.014-1.294.016-1.942.365.007.731.022,1.1.031C254.821,245.682,254.767,246.32,254.717,246.957Zm.245-3.1q-.591-.016-1.183-.031c0-.164,0-.326,0-.49.409-.009.815-.027,1.224-.036C254.992,243.483,254.976,243.668,254.962,243.853Zm.13-1.741c-.434.011-.87.029-1.3.038,0-.83,0-1.662.016-2.492.49-.007.978-.009,1.467-.009C255.217,240.473,255.149,241.292,255.091,242.113Zm.259-3.583c-.5,0-1,.005-1.5.014.014-.3.022-.607.04-.911.508.014,1.014.031,1.521.043C255.392,237.961,255.369,238.246,255.351,238.53Zm.13-2.032c-.506-.014-1.012-.031-1.518-.043.05-.67.1-1.338.167-2.005.49,0,.981.013,1.473.016C255.565,235.142,255.52,235.819,255.48,236.5Zm2.146,13.379c-.655-.045-1.312-.083-1.968-.11.045-.544.1-1.086.146-1.629.682.005,1.365.022,2.045.038Q257.75,249.029,257.626,249.877Zm.355-2.879c-.693-.02-1.388-.036-2.083-.041.05-.625.1-1.251.151-1.878.7.022,1.4.038,2.1.061C258.1,245.762,258.044,246.379,257.981,247Zm.257-3.041c-.7-.027-1.4-.052-2.1-.074.016-.207.034-.414.049-.621.7-.018,1.4-.041,2.1-.061C258.278,243.454,258.256,243.7,258.238,243.958Zm.128-1.941-2.09.061c.058-.8.124-1.609.176-2.416.682.013,1.365.029,2.041.063Q258.432,240.873,258.366,242.017Zm.238-4.216c-.016.265-.031.527-.045.792-.675-.029-1.348-.052-2.027-.061.018-.274.041-.547.058-.821.673.018,1.345.036,2.018.056Zm.106-1.213-2.049-.058c.04-.684.085-1.368.122-2.051.7.011,1.4.007,2.106.029C258.816,235.2,258.766,235.895,258.71,236.588Zm-1.861-3.291c.027-.511.059-1.021.083-1.532l2.27-.005c-.061.524-.119,1.05-.178,1.573C258.3,233.311,257.574,233.309,256.848,233.3Z" transform="translate(-215.792 -214.953)" opacity="0.5" fill="url(#linear-gradient-4)"/>
      <path id="Path_79979" data-name="Path 79979" d="M259.052,227.383H225.723v.713h33.251Z" transform="translate(-212.542 -214.953)" fill="#dbcec4" style="mix-blend-mode: multiply;isolation: isolate"/>
      <path id="Path_79980" data-name="Path 79980" d="M221.579,227.916c.059.061,1.111,10.926,1.111,10.926s5-7.176,6.956-8.189,7.964-3.23,7.964-3.23Z" transform="translate(-215.858 -214.921)" fill="#dbcec4" style="mix-blend-mode: multiply;isolation: isolate"/>
      <path id="Path_79981" data-name="Path 79981" d="M239.271,228.012s-7.739,1.066-9.376,1.842c-4.236,2.009-7.782,8.4-7.782,8.4s-2.155-9.719-.689-11.185S239.271,228.012,239.271,228.012Z" transform="translate(-216.391 -215.582)" fill="url(#linear-gradient-5)"/>
      <path id="Path_79982" data-name="Path 79982" d="M225.347,223.177c.981.492,12.607,7.133,12.607,7.133h22.71a1.026,1.026,0,0,1,.621.38,1.523,1.523,0,0,0-1.444-1.064H237.75l-12.758-7.511a1.132,1.132,0,0,0-1.413.216l-.767.846A4.085,4.085,0,0,1,225.347,223.177Z" transform="translate(-214.871 -219.294)" fill="#fff" style="mix-blend-mode: soft-light;isolation: isolate"/>
      <path id="Path_79983" data-name="Path 79983" d="M236.093,236.891h0a1.747,1.747,0,0,1-1.746-1.748V225.024a.965.965,0,0,0-.954-.965l-1.159-.013a.635.635,0,0,0-.639.576l-.484,5.273v-7.188a1.089,1.089,0,0,1,1.089-1.087h4.461a1.181,1.181,0,0,1,1.181,1.181v12.342A1.749,1.749,0,0,1,236.093,236.891Z" transform="translate(-208.231 -219.565)" fill="url(#linear-gradient-6)"/>
      <path id="Path_79984" data-name="Path 79984" d="M234.974,229.573a.8.8,0,1,1-.8-.8A.8.8,0,0,1,234.974,229.573Z" transform="translate(-206.42 -213.842)" fill="#c27938"/>
    </g>
    <path id="Path_79985" data-name="Path 79985" d="M164.478,263.215c0,2.211,19.617-3.717,24.555-3.021s48.09.527,50.85-.331,5.512-5.325,9.458-5.325,10.639-3.894,12.414-3.894,15.007,5.993,19.819,7.178,47.042-1.185,47.042,0-1.237,3.048.727,4.015,18.645.934,20.316-.736,14.168-5.925,14.168-5.925l-13.8-18.393s-72.825,7.858-74.89,9.921-21.381,1.269-23.239,1.788-14.523,4.645-17.113,3.527-51.856.5-56.781,2.52S164.478,261.6,164.478,263.215Z" transform="translate(16.05 42.446)" fill="#dbcec4" style="mix-blend-mode: multiply;isolation: isolate"/>
    <g id="Group_12129" data-name="Group 12129" transform="translate(179.625 189.904)">
      <path id="Path_79986" data-name="Path 79986" d="M214.344,205.763s4.088-2.317,4.384-2.907,1.132-1.379,1.429-1.379.1-.888-.542-.888-2.07,1.57-2.956,1.57-3.4.943-3.4,1.928A2.364,2.364,0,0,0,214.344,205.763Z" transform="translate(-124.537 -176.421)" fill="url(#linear-gradient-7)"/>
      <path id="Path_79987" data-name="Path 79987" d="M220.4,264.3c-3.249-6.4-11.955-23.677-12.434-26.078-.592-2.956-2.113-26.644-3.525-29.063-1.9-3.257-6.378-1.892-7.559.621s2.068,25.862,3.546,30.444c1.179,3.658,12.621,18.7,17.189,24.62h0a25.98,25.98,0,0,0-.184,3.305c.223,2.241-1.716,5.487-1.354,5.581,1.478.38,2.956-4.166,3.916-3.851s5.626,3.66,7.759,4.231c.41.11,2.065-.113,1.734-.38A78.466,78.466,0,0,1,220.4,264.3Z" transform="translate(-137.848 -171.096)" fill="url(#linear-gradient-8)"/>
      <path id="Path_79988" data-name="Path 79988" d="M224.862,217.132c0-2.956-1.217-5.948-6.981-11.712s-11.972-6.058-14.778-3.251-13.511,33.137-17.65,40.527-12.119,11.217-13.694,20.658c-1.312,7.849,3.559,13.023,15.086,13.023s38.361,10.774,40.052,6.042c3.631-10.179-21.2-25.992-18.474-33.843.943-2.718,2.479-9.516,6.884-14.958,2.132-2.636,6.045-2.036,7.5-4.709C224.5,225.8,224.862,218.351,224.862,217.132Z" transform="translate(-157.915 -176.54)" fill="url(#linear-gradient-9)"/>
      <path id="Path_79989" data-name="Path 79989" d="M238.925,199.221a32.586,32.586,0,0,0-4.238.689c-.59.247-3.78,6.468-3.78,6.468l-21.4,17.486s-11.631-19.668-16.715-20.089c-2.357-.2-5.707,2.407-4.1,6.924s17.524,23.626,20.667,23.626c2.684,0,20.177-21.093,25.243-27.272h0c1.438-.789,1.665-1.773,2.157-3a7.98,7.98,0,0,1,2.414-3.2c.592-.247,2.218,1.069,2.315-.148C241.514,200.352,239.17,199.221,238.925,199.221Z" transform="translate(-144.537 -177.515)" fill="url(#linear-gradient-10)"/>
      <path id="Path_79990" data-name="Path 79990" d="M192.847,207.032a10.583,10.583,0,0,0,4.382-4.124c1.921-3.1,3.4-10.409,3.4-10.409l10.544,11.248s-4.009,2.135-5.455,5.073-.358,7.6-.358,7.6-.092,4.439-1.773,4.531C201.222,221.085,192.847,207.032,192.847,207.032Z" transform="translate(-140.872 -182.894)" fill="url(#linear-gradient-11)"/>
      <path id="Path_79991" data-name="Path 79991" d="M213.848,241.216c-5.5,0-17.707,7.223-24.989,7.534-1.867.079-4.745-1.482-6.022-1.84-2.589-.725-5.692,3.417-10.924,3.417-2.05,0-5.311,5.01-5.311,6.128s14.2-3.05,20-3.251c6.96-.243,31.11.722,34.761.722,4.108,0,9.491-1.626,9.491-4.139C230.855,241.511,220.657,241.216,213.848,241.216Z" transform="translate(-161.874 -143.909)" fill="url(#linear-gradient-12)"/>
      <path id="Path_79992" data-name="Path 79992" d="M223.674,240.966c-.589-3.408-5.748-6.439-11.525-5.827-3.928.416-17.48,9.237-25.751,14.841v0s-5.284,2.668-6.614,2.668-3.231-1.951-4.814-1.183-4.985,3.815-6.8,4.587a6.486,6.486,0,0,0-4.193,4.938c0,.745.344,3.046.9,3.606.9.9,7.125-5.354,18.654-8.827,8.634-2.6,30.9-6.042,33.7-7.388C220.178,246.962,224.261,244.375,223.674,240.966Z" transform="translate(-163.976 -148.836)" fill="url(#linear-gradient-13)"/>
      <path id="Path_79993" data-name="Path 79993" d="M196.507,189.493a2.589,2.589,0,0,0-3.392-.6c-2.225,1.08-2.585,7.719-1.694,8.992s3.316,1.192,3.474,1.032S196.507,189.493,196.507,189.493Z" transform="translate(-142.374 -186.069)" fill="#ec6d38"/>
      <path id="Path_79994" data-name="Path 79994" d="M210.247,197.112c2.492,6.393.826,12.713-1.528,13.7-2.461,1.028-9.941-2.493-13.451-8.389-3.957-6.643-.1-12.764,3.658-14.229S207.756,190.717,210.247,197.112Z" transform="translate(-140.268 -186.585)" fill="url(#linear-gradient-14)"/>
      <path id="Path_79995" data-name="Path 79995" d="M208.722,192.586c.27-1.977-2.068-5.15-6.526-5.41-5.491-.319-9.813,5.363-10.207,7.251-.5,2.418.733,12.269,7.07,11.709,0,0-2.488-6.214,2.375-11.075C205.248,191.245,208.722,192.586,208.722,192.586Z" transform="translate(-141.64 -187.164)" fill="#ec6d38"/>
      <g id="Group_12127" data-name="Group 12127" transform="translate(61.079 10.832)">
        <path id="Path_79996" data-name="Path 79996" d="M202.455,193.656a8.532,8.532,0,0,0,.689,3.406c.54,1.381,1.6,2.562,1.424,2.974a3.175,3.175,0,0,1-2.158.72c-.54-.376-.013-4.816-1.743-6.438C199.782,193.488,202.018,193.465,202.455,193.656Z" transform="translate(-195.857 -192.88)" fill="url(#linear-gradient-15)" style="mix-blend-mode: multiply;isolation: isolate"/>
        <path id="Path_79997" data-name="Path 79997" d="M200.652,199.214a5.644,5.644,0,0,0,2.807.09,2.45,2.45,0,0,0,1.588-1.4Z" transform="translate(-195.705 -189.397)" fill="#fff"/>
        <path id="Path_79998" data-name="Path 79998" d="M199.659,194.606A3.651,3.651,0,0,0,197.9,197.5l6.209-1.365A3.03,3.03,0,0,0,199.659,194.606Z" transform="translate(-197.904 -192.408)" fill="url(#linear-gradient-16)" style="mix-blend-mode: multiply;isolation: isolate"/>
        <path id="Path_79999" data-name="Path 79999" d="M203.92,193.181a18.152,18.152,0,0,1,.733,2.537l-2.963.839S201.123,193.338,203.92,193.181Z" transform="translate(-194.912 -193.181)" fill="url(#linear-gradient-17)" style="mix-blend-mode: multiply;isolation: isolate"/>
        <path id="Path_80000" data-name="Path 80000" d="M198.646,196.774a24.142,24.142,0,0,1,2.117-1.37,6.19,6.19,0,0,1,1.262-.473l-.171.592.248.383A16.2,16.2,0,0,0,198.646,196.774Z" transform="translate(-197.31 -191.781)" fill="#9f5c44"/>
        <path id="Path_80001" data-name="Path 80001" d="M202.148,195.529a5.964,5.964,0,0,1,1.071-.967,4.557,4.557,0,0,1,1.015-.589l-.09.646.184.328A8.8,8.8,0,0,0,202.148,195.529Z" transform="translate(-194.508 -192.546)" fill="#9f5c44"/>
      </g>
      <path id="Path_80002" data-name="Path 80002" d="M209.889,202.405l.007.014c-2.839-.621-5.3-.018-6.794,1.476-2.808,2.808-13.511,33.137-17.65,40.527s-12.119,11.217-13.694,20.658c-.7,4.178.373,7.586,3.249,9.871-.861-1.725-1.608-5.474-.565-10.074,1.7-7.5,11.6-13.966,13.819-17.956,5.21-9.379,16.526-37.589,18.249-39.312a11.717,11.717,0,0,1,4.738-2.99c1.7-.772,3.023-6.339,3.023-6.339A10.583,10.583,0,0,1,209.889,202.405Z" transform="translate(-157.914 -178.267)" fill="#fff" style="mix-blend-mode: soft-light;isolation: isolate"/>
      <path id="Path_80003" data-name="Path 80003" d="M221.868,237.95a12.71,12.71,0,0,0-9.719-2.812c-3.928.416-17.48,9.237-25.751,14.841v0s-5.284,2.668-6.614,2.668-3.231-1.951-4.814-1.183-4.985,3.815-6.8,4.587a6.486,6.486,0,0,0-4.193,4.938,9.96,9.96,0,0,0,.169,1.491A15.505,15.505,0,0,1,166.862,259c2.342-2.342,7.8-5.6,8.839-5.6s3.781-.3,5.087-.3,30.528-15.4,34.52-14.94C217.942,238.465,220.536,238.481,221.868,237.95Z" transform="translate(-163.976 -148.836)" fill="#fff" style="mix-blend-mode: soft-light;isolation: isolate"/>
      <g id="Group_12128" data-name="Group 12128" transform="translate(48.596 0)" style="mix-blend-mode: soft-light;isolation: isolate">
        <path id="Path_80004" data-name="Path 80004" d="M194.772,197.595c-.808-.808-2.265-2.621-2.364-2.744a7.9,7.9,0,0,0,3.5,4.634A5.627,5.627,0,0,0,194.772,197.595Z" transform="translate(-189.82 -181.012)" fill="#fff"/>
        <path id="Path_80005" data-name="Path 80005" d="M205.975,187.9a8.547,8.547,0,0,0-3.044-.727,9.933,9.933,0,0,0-7.062,2.844,2.658,2.658,0,0,0-2.753-.031c-2.225,1.08-2.585,7.719-1.694,8.992a1.816,1.816,0,0,0,.189.2c-.025-.247.124-6.621,2.391-8.148,1.145-.771.837,1.725.837,1.725a24.1,24.1,0,0,1,4.63-3.645A9.551,9.551,0,0,1,205.975,187.9Z" transform="translate(-190.97 -187.164)" fill="#fff"/>
      </g>
      <path id="Path_80006" data-name="Path 80006" d="M197.119,197.7a3.679,3.679,0,0,0-2.411,1.759,4.546,4.546,0,0,0-.191,3.179,15.844,15.844,0,0,1,1.2-3.021A18.86,18.86,0,0,1,197.119,197.7Z" transform="translate(-139.7 -178.73)" fill="#ec6d38"/>
      <path id="Path_80007" data-name="Path 80007" d="M201.876,231.966c-.96-1.771-4.3-12.544-4.4-13.244a103.789,103.789,0,0,0,2.275,12.315c1.163,3.608,12.292,18.267,16.982,24.35C216.694,255.332,202.836,233.738,201.876,231.966Z" transform="translate(-137.17 -161.91)" fill="#fff" style="mix-blend-mode: soft-light;isolation: isolate"/>
      <path id="Path_80008" data-name="Path 80008" d="M216.434,200.962l2.759.64-.135-.948-2-.53Z" transform="translate(-121.997 -176.793)" fill="#6d3b1b"/>
    </g>
    <g id="Group_12131" data-name="Group 12131" transform="translate(252.385 183.74)">
      <path id="Path_80009" data-name="Path 80009" d="M257.142,242.982s5.222-.689,6.9-.689,4.63,1.183,6.009,1.183,6.9-.987,8.868-.592,3.35,1.676,3.35,2.562-2.562,5.417-4.828,5.908-22.49.72-22.49.72Z" transform="translate(-163.937 -136.883)" fill="url(#linear-gradient-18)"/>
      <path id="Path_80010" data-name="Path 80010" d="M220.172,218.109l-8.164,45.841,2.562,1.084s12.02-28.276,13.2-32.217S231.5,218.2,231.5,218.2Z" transform="translate(-198.299 -156.236)" fill="url(#linear-gradient-11)"/>
      <path id="Path_80011" data-name="Path 80011" d="M265.461,198.169c-1.233-.816-17.081-.787-17.081-.787l-13,6.5s-13.117,5.451-14.4,7.782c-1.626,2.956-4.434,23.029-4.434,23.029a11.581,11.581,0,0,1,5.321.679,20.8,20.8,0,0,1,5.707,4.144l2.126-11.829L242.763,263s18.179-4.285,21.282-7.388,9.754-7.095,9.754-7.095L267,217.777l9.052,7.745,2.565-13.2S269.106,200.577,265.461,198.169Z" transform="translate(-194.67 -172.823)" fill="url(#linear-gradient-20)"/>
      <path id="Path_80012" data-name="Path 80012" d="M234.523,247.8s-7.683,12.562-7.683,14.188,40.05-.3,45.37-3.989,6.5-14.188,6.5-14.188l-4.285-27.428s-8,7.835-11.084,14.126a28.721,28.721,0,0,1-9.6,11.241C250.929,243.365,234.523,247.8,234.523,247.8Z" transform="translate(-186.43 -157.621)" fill="#5e745d"/>
      <path id="Path_80013" data-name="Path 80013" d="M226.122,249.743c.3,3.226,5.615,5.763,10.2,5.763s44.252-.432,44.252-.432l1.773-9.615s-29.472-6.947-37.3-6.947S225.234,240.284,226.122,249.743Z" transform="translate(-187.042 -139.91)" fill="url(#linear-gradient-21)"/>
      <path id="Path_80014" data-name="Path 80014" d="M257.7,215.367c3.816-.988,8.128,1.773,9.754,6.06S273.3,269.3,273.3,270.19s-9.314,1.6-10.35.569-9.689-39.9-10.722-45.046S253.705,216.4,257.7,215.367Z" transform="translate(-166.3 -158.591)" fill="url(#linear-gradient-21)"/>
      <path id="Path_80015" data-name="Path 80015" d="M242.068,204.3a25.215,25.215,0,0,1-5.912-5.124c-2.068-2.758-6.8-10.443-6.8-10.443L224.431,204.3s2.313,1.726,2.807,3.6.8,3.305.8,3.305,4.061,7.833,10.42,5.525C245.11,214.316,242.068,204.3,242.068,204.3Z" transform="translate(-188.358 -179.742)" fill="url(#linear-gradient-23)"/>
      <path id="Path_80016" data-name="Path 80016" d="M238.487,197.63c-.18,7.365-8.81,14.112-11.412,13.923-2.4-.176-5.183-4.952-5.847-12.7a21.825,21.825,0,0,1,.373-6.794c1.089-4.353,4.591-6.972,7.723-6.936C235.945,185.194,238.669,190.265,238.487,197.63Z" transform="translate(-191.003 -182.634)" fill="url(#linear-gradient-24)"/>
      <path id="Path_80017" data-name="Path 80017" d="M221.6,193.173c-.248.169-1.156-4.7.628-6.731,1.683-1.917,8.272-4.114,12.243-1.512s5.269,4.834,5.811,8.049c.841,4.99-1.17,10.519-1.17,10.519l-2.047.259a14.958,14.958,0,0,0-.338-3.39,1.485,1.485,0,0,0-2.808-.218,12.641,12.641,0,0,0-.725,1.824l-.958.331s.205-4.526-.482-6.385S224.767,191,221.6,193.173Z" transform="translate(-190.982 -183.74)" fill="url(#linear-gradient-25)"/>
      <path id="Path_80018" data-name="Path 80018" d="M255.595,255.333c1.676,1.044,16.749.43,17.932-.486.441-.342-2.225-8.223-2.956-8.953s-9.952-.286-10.35.569C260.022,246.892,254.3,254.523,255.595,255.333Z" transform="translate(-163.572 -134.296)" fill="url(#linear-gradient-13)"/>
      <path id="Path_80019" data-name="Path 80019" d="M257.634,262.589l-1.242-7.527c4.567-8.933,13.477-27.475,11.376-32.28,0-1.577-14.7-16.085-15.671-17.079s-2.41,12.4-2.41,12.4,5.392,4.321,8.3,6.76c-1.293,5.116-3.244,18.258-4.409,26.649h0s-3.887,8.35-3.887,8.942a25.212,25.212,0,0,0,2.41,4.655c.22.218,5.685-.306,5.685-.306a10.73,10.73,0,0,0,.888-1.626C258.669,262.96,257.634,262.589,257.634,262.589Z" transform="translate(-168.148 -166.206)" fill="url(#linear-gradient-8)"/>
      <path id="Path_80020" data-name="Path 80020" d="M218.6,242.036a43.329,43.329,0,0,1-4.792,2.483c-1.962.718-9.41,2.216-9.41,3,0,.394,17.243.441,17.736-.2.893-1.159,0-4.9,0-4.9Z" transform="translate(-204.393 -137.089)" fill="#ffbd95"/>
      <path id="Path_80021" data-name="Path 80021" d="M237.567,201.23c-3.086,1.325-12.33,5.419-13.4,7.358-1.626,2.956-4.434,23.029-4.434,23.029l-7.187,40.349h0s14.56-61.853,15.484-62.778S239.312,203.109,237.567,201.23Z" transform="translate(-197.865 -169.743)" fill="#fff" style="mix-blend-mode: soft-light;isolation: isolate"/>
      <path id="Path_80022" data-name="Path 80022" d="M254.6,243.6c.529-.529,9.016-27.387,7.685-27.967-.873-.382-4.511,1.122-4.308,1.293-1.293,5.116-3.244,18.258-4.409,26.649h0s-3.887,8.35-3.887,8.942c0,0,3.717-.617,4.157-1.057S254.075,244.132,254.6,243.6Z" transform="translate(-168.148 -158.266)" fill="#ffd6d3" style="mix-blend-mode: soft-light;isolation: isolate"/>
      <path id="Path_80023" data-name="Path 80023" d="M243.486,238.511c-4.538,0-10.461.6-14.472,2.938-1.2,1.8-1.635,3.62.517,4.52,3.046,1.271,35.83-1.813,42.622-2.468C262.813,241.447,248.578,238.511,243.486,238.511Z" transform="translate(-185.489 -139.91)" fill="#ffd6d3" style="mix-blend-mode: soft-light;isolation: isolate"/>
      <path id="Path_80024" data-name="Path 80024" d="M267.615,246.216a3.493,3.493,0,0,0-.076-.688c-2.97-.011-7.055.371-7.318.934-.2.428-5.923,8.06-4.627,8.87a1.132,1.132,0,0,0,.131.061c2.52-.211,6.022-.544,7.665-.884C266.114,253.946,267.615,251.084,267.615,246.216Z" transform="translate(-163.572 -134.294)" fill="#ffd6d3" style="mix-blend-mode: soft-light;isolation: isolate"/>
      <g id="Group_12130" data-name="Group 12130" transform="translate(29.814 13.789)">
        <path id="Path_80025" data-name="Path 80025" d="M222.531,192.815a9.257,9.257,0,0,1,.3,3.492c-.11,1.492-.743,2.943-.472,3.287s2.013.1,2.178-.124c.383-.52-1.341-4.465-.23-6.537C224.879,191.876,222.871,192.5,222.531,192.815Z" transform="translate(-219.881 -190.643)" fill="url(#linear-gradient-28)" style="mix-blend-mode: multiply;isolation: isolate"/>
        <path id="Path_80026" data-name="Path 80026" d="M228.239,192.211l-.854-.811-3.773.372.2,1.3Z" transform="translate(-218.827 -191.399)" fill="#c77c44"/>
        <path id="Path_80027" data-name="Path 80027" d="M221.191,192.9l-.237-1.321,2.315.1-.121,1.308Z" transform="translate(-220.954 -191.253)" fill="#c77c44"/>
        <path id="Path_80028" data-name="Path 80028" d="M226.757,196.876a4.221,4.221,0,0,1-2.169,1.687c-1.361.378-2.139-1.231-2.139-1.231Z" transform="translate(-219.758 -187.017)" fill="#fff"/>
        <path id="Path_80029" data-name="Path 80029" d="M227.5,193.047a17.39,17.39,0,0,1-2.317.187c-.614-.05-1.077-.1-1.077-.1l.376.437-.043.437A5.469,5.469,0,0,0,227.5,193.047Z" transform="translate(-218.429 -190.081)" fill="#9f5c44"/>
        <path id="Path_80030" data-name="Path 80030" d="M223.47,193.73c-.243-.04-.8-.124-1.442-.274a3.417,3.417,0,0,1-1.053-.454l.27.558-.054.358A4.533,4.533,0,0,0,223.47,193.73Z" transform="translate(-220.937 -190.116)" fill="#9f5c44"/>
      </g>
    </g>
    <g id="Group_12164" data-name="Group 12164" transform="translate(257.602 295.236)">
      <path id="Path_80031" data-name="Path 80031" d="M230.654,245.674l-23.363,5.32,14.891,10.593,21.36-6.84Z" transform="translate(-207.291 -245.674)" fill="url(#linear-gradient-29)"/>
      <g id="Group_12163" data-name="Group 12163" transform="translate(8.065 0.425)">
        <g id="Group_12156" data-name="Group 12156">
          <g id="Group_12154" data-name="Group 12154">
            <path id="Path_80032" data-name="Path 80032" d="M217.333,248.892l-2.391,1.267-2.056.491-.464.888a12.2,12.2,0,0,1,1.334-.3,3.732,3.732,0,0,1,.4.1s1.579-.342,1.762-.331,1.608.464,1.734.5,3.361,1.309,3.361,1.309l-.14-.727Z" transform="translate(-211.25 -243.524)" fill="#4f2510"/>
            <path id="Path_80033" data-name="Path 80033" d="M211.882,252.789l1.438.455a6.014,6.014,0,0,1,.974-.131,1.186,1.186,0,0,1,.32.043.881.881,0,0,1,.1-.023,6.6,6.6,0,0,1,1.609-.427,11.827,11.827,0,0,1,2.059.581,13.282,13.282,0,0,1,1.874.589,3.618,3.618,0,0,1,1.051.6l10.177-6.031-7.995-2.533Z" transform="translate(-211.682 -245.91)" fill="#613414"/>
            <g id="Group_12132" data-name="Group 12132" transform="translate(12.315 3.73)">
              <path id="Path_80034" data-name="Path 80034" d="M218.612,248.83l2.4.765,1.421-.848-2.4-.765Z" transform="translate(-218.612 -247.982)" fill="#804a24"/>
              <path id="Path_80035" data-name="Path 80035" d="M219.114,248.41l1.416.452.548-.327-1.416-.452Z" transform="translate(-218.21 -247.902)" fill="#8d5631"/>
              <path id="Path_80036" data-name="Path 80036" d="M219.888,248.663l.1.651,1.421-.848-.952-.132Z" transform="translate(-217.591 -247.701)" fill="#6d3b1b"/>
              <path id="Path_80037" data-name="Path 80037" d="M219.516,248.264l-.9.34,2.4.765-.1-.651Z" transform="translate(-218.612 -247.756)" fill="#4f2510"/>
              <path id="Path_80038" data-name="Path 80038" d="M221.48,248.393s-.549.315-.592.319-1.372-.452-1.372-.452l-.9.347s.8-.223.871-.216a12.065,12.065,0,0,1,1.287.414c.1.065.239.567.239.567a3.771,3.771,0,0,1,0-.639A4.714,4.714,0,0,1,221.48,248.393Z" transform="translate(-218.612 -247.76)" fill="#6d3b1b"/>
            </g>
            <g id="Group_12133" data-name="Group 12133" transform="translate(10.678 4.707)">
              <path id="Path_80039" data-name="Path 80039" d="M217.7,249.372l2.4.765,1.421-.848-2.4-.765Z" transform="translate(-217.702 -248.525)" fill="#804a24"/>
              <path id="Path_80040" data-name="Path 80040" d="M218.2,248.952l1.416.452.548-.327-1.416-.452Z" transform="translate(-217.301 -248.444)" fill="#8d5631"/>
              <path id="Path_80041" data-name="Path 80041" d="M218.978,249.206l.1.651,1.421-.848-.952-.132Z" transform="translate(-216.682 -248.243)" fill="#6d3b1b"/>
              <path id="Path_80042" data-name="Path 80042" d="M218.606,248.807l-.9.34,2.4.765-.1-.651Z" transform="translate(-217.702 -248.299)" fill="#4f2510"/>
              <path id="Path_80043" data-name="Path 80043" d="M220.569,248.937s-.549.313-.592.319-1.372-.454-1.372-.454l-.9.349s.8-.225.87-.218a12.641,12.641,0,0,1,1.289.414,1.925,1.925,0,0,1,.239.569,3.78,3.78,0,0,1,0-.641A5.214,5.214,0,0,1,220.569,248.937Z" transform="translate(-217.702 -248.303)" fill="#6d3b1b"/>
            </g>
            <g id="Group_12134" data-name="Group 12134" transform="translate(9.04 5.684)">
              <path id="Path_80044" data-name="Path 80044" d="M216.793,249.915l2.4.765,1.421-.848-2.4-.765Z" transform="translate(-216.793 -249.067)" fill="#804a24"/>
              <path id="Path_80045" data-name="Path 80045" d="M217.295,249.495l1.416.452.548-.327-1.416-.452Z" transform="translate(-216.391 -248.987)" fill="#8d5631"/>
              <path id="Path_80046" data-name="Path 80046" d="M218.069,249.748l.1.651,1.421-.848-.952-.132Z" transform="translate(-215.772 -248.786)" fill="#6d3b1b"/>
              <path id="Path_80047" data-name="Path 80047" d="M217.7,249.349l-.9.34,2.4.765-.1-.651Z" transform="translate(-216.793 -248.841)" fill="#4f2510"/>
              <path id="Path_80048" data-name="Path 80048" d="M219.661,249.478s-.549.315-.592.319-1.374-.452-1.374-.452l-.9.347s.8-.223.87-.216a12.226,12.226,0,0,1,1.289.414c.1.065.239.567.239.567a3.952,3.952,0,0,1,0-.639A4.931,4.931,0,0,1,219.661,249.478Z" transform="translate(-216.793 -248.845)" fill="#6d3b1b"/>
            </g>
            <g id="Group_12135" data-name="Group 12135" transform="translate(13.955 2.768)">
              <path id="Path_80049" data-name="Path 80049" d="M219.523,248.3l2.4.765,1.421-.848-2.4-.765Z" transform="translate(-219.523 -247.448)" fill="#804a24"/>
              <path id="Path_80050" data-name="Path 80050" d="M220.025,247.875l1.416.452.548-.327-1.416-.452Z" transform="translate(-219.121 -247.367)" fill="#8d5631"/>
              <path id="Path_80051" data-name="Path 80051" d="M220.8,248.129l.1.651,1.421-.848-.952-.132Z" transform="translate(-218.502 -247.166)" fill="#6d3b1b"/>
              <path id="Path_80052" data-name="Path 80052" d="M220.427,247.73l-.9.34,2.4.765-.1-.651Z" transform="translate(-219.523 -247.222)" fill="#4f2510"/>
              <path id="Path_80053" data-name="Path 80053" d="M222.391,247.858s-.549.315-.592.32-1.374-.454-1.374-.454l-.9.349s.8-.225.87-.218a12.641,12.641,0,0,1,1.289.414,1.925,1.925,0,0,1,.239.569,3.776,3.776,0,0,1,0-.641A5.265,5.265,0,0,1,222.391,247.858Z" transform="translate(-219.522 -247.226)" fill="#6d3b1b"/>
            </g>
            <g id="Group_12136" data-name="Group 12136" transform="translate(15.594 1.806)">
              <path id="Path_80054" data-name="Path 80054" d="M220.433,247.761l2.4.765,1.421-.848-2.4-.765Z" transform="translate(-220.433 -246.913)" fill="#804a24"/>
              <path id="Path_80055" data-name="Path 80055" d="M220.935,247.341l1.416.452.548-.327-1.416-.452Z" transform="translate(-220.031 -246.833)" fill="#8d5631"/>
              <path id="Path_80056" data-name="Path 80056" d="M221.709,247.594l.1.651,1.421-.848-.952-.132Z" transform="translate(-219.412 -246.632)" fill="#6d3b1b"/>
              <path id="Path_80057" data-name="Path 80057" d="M221.337,247.2l-.9.34,2.4.765-.1-.651Z" transform="translate(-220.433 -246.687)" fill="#4f2510"/>
              <path id="Path_80058" data-name="Path 80058" d="M223.3,247.324s-.549.315-.592.319-1.372-.452-1.372-.452l-.9.347s.8-.223.871-.216a12.06,12.06,0,0,1,1.287.414c.1.065.241.567.241.567a3.757,3.757,0,0,1,0-.639A4.709,4.709,0,0,1,223.3,247.324Z" transform="translate(-220.433 -246.691)" fill="#6d3b1b"/>
            </g>
            <g id="Group_12137" data-name="Group 12137" transform="translate(9.716 2.887)">
              <path id="Path_80059" data-name="Path 80059" d="M217.168,248.361l2.4.765,1.421-.848-2.4-.765Z" transform="translate(-217.168 -247.514)" fill="#804a24"/>
              <path id="Path_80060" data-name="Path 80060" d="M217.67,247.941l1.416.452.548-.327-1.416-.452Z" transform="translate(-216.766 -247.433)" fill="#8d5631"/>
              <path id="Path_80061" data-name="Path 80061" d="M218.444,248.194l.1.651,1.421-.848-.952-.132Z" transform="translate(-216.147 -247.232)" fill="#6d3b1b"/>
              <path id="Path_80062" data-name="Path 80062" d="M218.072,247.8l-.9.339,2.4.765-.1-.651Z" transform="translate(-217.168 -247.288)" fill="#4f2510"/>
              <path id="Path_80063" data-name="Path 80063" d="M220.036,247.924s-.549.315-.592.319-1.372-.452-1.372-.452l-.9.347s.8-.223.871-.216a12.624,12.624,0,0,1,1.287.414,1.925,1.925,0,0,1,.239.569,3.975,3.975,0,0,1,0-.641A5.268,5.268,0,0,1,220.036,247.924Z" transform="translate(-217.168 -247.292)" fill="#6d3b1b"/>
            </g>
            <g id="Group_12138" data-name="Group 12138" transform="translate(8.078 3.864)">
              <path id="Path_80064" data-name="Path 80064" d="M216.258,248.9l2.4.765,1.421-.848-2.4-.765Z" transform="translate(-216.258 -248.056)" fill="#804a24"/>
              <path id="Path_80065" data-name="Path 80065" d="M216.76,248.484l1.416.452.548-.327-1.416-.452Z" transform="translate(-215.856 -247.976)" fill="#8d5631"/>
              <path id="Path_80066" data-name="Path 80066" d="M217.534,248.737l.1.651,1.421-.848-.952-.132Z" transform="translate(-215.237 -247.775)" fill="#6d3b1b"/>
              <path id="Path_80067" data-name="Path 80067" d="M217.162,248.338l-.9.34,2.4.765-.1-.651Z" transform="translate(-216.258 -247.83)" fill="#4f2510"/>
              <path id="Path_80068" data-name="Path 80068" d="M219.126,248.467s-.549.315-.592.319-1.372-.452-1.372-.452l-.9.347s.8-.223.871-.218a13.11,13.11,0,0,1,1.289.414,1.924,1.924,0,0,1,.239.569,3.762,3.762,0,0,1,0-.639A4.711,4.711,0,0,1,219.126,248.467Z" transform="translate(-216.258 -247.834)" fill="#6d3b1b"/>
            </g>
            <g id="Group_12139" data-name="Group 12139" transform="translate(11.354 1.925)">
              <path id="Path_80069" data-name="Path 80069" d="M218.079,247.827l2.4.765,1.421-.848-2.4-.765Z" transform="translate(-218.078 -246.979)" fill="#804a24"/>
              <path id="Path_80070" data-name="Path 80070" d="M218.581,247.407l1.416.452.548-.327-1.416-.452Z" transform="translate(-217.676 -246.898)" fill="#8d5631"/>
              <path id="Path_80071" data-name="Path 80071" d="M219.354,247.66l.1.651,1.421-.848-.952-.132Z" transform="translate(-217.057 -246.698)" fill="#6d3b1b"/>
              <path id="Path_80072" data-name="Path 80072" d="M218.982,247.261l-.9.339,2.4.765-.1-.651Z" transform="translate(-218.078 -246.753)" fill="#4f2510"/>
              <path id="Path_80073" data-name="Path 80073" d="M220.946,247.391s-.549.315-.592.319-1.372-.454-1.372-.454l-.9.349s.8-.223.871-.218a12.642,12.642,0,0,1,1.289.414,1.925,1.925,0,0,1,.239.569,3.759,3.759,0,0,1,0-.639A4.935,4.935,0,0,1,220.946,247.391Z" transform="translate(-218.078 -246.758)" fill="#6d3b1b"/>
            </g>
            <g id="Group_12140" data-name="Group 12140" transform="translate(12.994 0.962)">
              <path id="Path_80074" data-name="Path 80074" d="M218.989,247.292l2.4.765,1.421-.848-2.4-.765Z" transform="translate(-218.989 -246.445)" fill="#804a24"/>
              <path id="Path_80075" data-name="Path 80075" d="M219.491,246.872l1.416.452.548-.327-1.416-.452Z" transform="translate(-218.587 -246.364)" fill="#8d5631"/>
              <path id="Path_80076" data-name="Path 80076" d="M220.265,247.125l.1.651,1.421-.848-.952-.132Z" transform="translate(-217.968 -246.163)" fill="#6d3b1b"/>
              <path id="Path_80077" data-name="Path 80077" d="M219.893,246.727l-.9.339,2.4.765-.1-.651Z" transform="translate(-218.989 -246.219)" fill="#4f2510"/>
              <path id="Path_80078" data-name="Path 80078" d="M221.857,246.855s-.549.315-.592.319-1.372-.452-1.372-.452l-.9.347s.8-.223.871-.216a12.622,12.622,0,0,1,1.287.414,1.925,1.925,0,0,1,.239.569,3.975,3.975,0,0,1,0-.641A5.271,5.271,0,0,1,221.857,246.855Z" transform="translate(-218.989 -246.223)" fill="#6d3b1b"/>
            </g>
            <g id="Group_12141" data-name="Group 12141" transform="translate(7.116 2.043)">
              <path id="Path_80079" data-name="Path 80079" d="M215.724,247.893l2.4.765,1.421-.848-2.4-.765Z" transform="translate(-215.724 -247.045)" fill="#804a24"/>
              <path id="Path_80080" data-name="Path 80080" d="M216.226,247.473l1.416.452.548-.327-1.416-.452Z" transform="translate(-215.322 -246.964)" fill="#8d5631"/>
              <path id="Path_80081" data-name="Path 80081" d="M217,247.726l.1.651,1.421-.848-.952-.132Z" transform="translate(-214.703 -246.764)" fill="#6d3b1b"/>
              <path id="Path_80082" data-name="Path 80082" d="M216.628,247.327l-.9.339,2.4.765-.1-.651Z" transform="translate(-215.724 -246.819)" fill="#4f2510"/>
              <path id="Path_80083" data-name="Path 80083" d="M218.592,247.457s-.549.315-.592.319-1.374-.454-1.374-.454l-.9.349s.8-.223.869-.218a12.651,12.651,0,0,1,1.289.414,1.925,1.925,0,0,1,.239.569,3.761,3.761,0,0,1,0-.639A4.944,4.944,0,0,1,218.592,247.457Z" transform="translate(-215.723 -246.823)" fill="#6d3b1b"/>
            </g>
            <g id="Group_12142" data-name="Group 12142" transform="translate(8.755 1.081)">
              <path id="Path_80084" data-name="Path 80084" d="M216.634,247.358l2.4.765,1.421-.848-2.4-.765Z" transform="translate(-216.634 -246.51)" fill="#804a24"/>
              <path id="Path_80085" data-name="Path 80085" d="M217.136,246.938l1.416.452.548-.327-1.416-.452Z" transform="translate(-216.232 -246.43)" fill="#8d5631"/>
              <path id="Path_80086" data-name="Path 80086" d="M217.91,247.191l.1.651,1.421-.848-.952-.132Z" transform="translate(-215.613 -246.229)" fill="#6d3b1b"/>
              <path id="Path_80087" data-name="Path 80087" d="M217.538,246.793l-.9.339,2.4.765-.1-.651Z" transform="translate(-216.634 -246.285)" fill="#4f2510"/>
              <path id="Path_80088" data-name="Path 80088" d="M219.5,246.921s-.549.315-.592.319-1.372-.452-1.372-.452l-.9.347s.8-.223.871-.216a12.224,12.224,0,0,1,1.289.414,1.918,1.918,0,0,1,.239.567,3.755,3.755,0,0,1,0-.639A5.022,5.022,0,0,1,219.5,246.921Z" transform="translate(-216.634 -246.288)" fill="#6d3b1b"/>
            </g>
            <g id="Group_12143" data-name="Group 12143" transform="translate(10.394 0.119)">
              <path id="Path_80089" data-name="Path 80089" d="M217.545,246.824l2.4.765,1.421-.848-2.4-.765Z" transform="translate(-217.545 -245.976)" fill="#804a24"/>
              <path id="Path_80090" data-name="Path 80090" d="M218.047,246.4l1.416.452.548-.327-1.416-.452Z" transform="translate(-217.143 -245.895)" fill="#8d5631"/>
              <path id="Path_80091" data-name="Path 80091" d="M218.821,246.657l.1.651,1.421-.848-.952-.132Z" transform="translate(-216.524 -245.694)" fill="#6d3b1b"/>
              <path id="Path_80092" data-name="Path 80092" d="M218.449,246.258l-.9.339,2.4.765-.1-.651Z" transform="translate(-217.545 -245.75)" fill="#4f2510"/>
              <path id="Path_80093" data-name="Path 80093" d="M220.413,246.388s-.549.315-.592.319-1.374-.454-1.374-.454l-.9.349s.8-.223.87-.218a12.633,12.633,0,0,1,1.289.414,1.924,1.924,0,0,1,.239.569,3.952,3.952,0,0,1,0-.639A4.931,4.931,0,0,1,220.413,246.388Z" transform="translate(-217.545 -245.754)" fill="#6d3b1b"/>
            </g>
            <g id="Group_12144" data-name="Group 12144" transform="translate(7.399 6.666)">
              <path id="Path_80094" data-name="Path 80094" d="M215.881,250.461l2.4.765,1.421-.848-2.4-.765Z" transform="translate(-215.881 -249.613)" fill="#804a24"/>
              <path id="Path_80095" data-name="Path 80095" d="M216.384,250.04l1.416.452.548-.327-1.416-.452Z" transform="translate(-215.479 -249.532)" fill="#8d5631"/>
              <path id="Path_80096" data-name="Path 80096" d="M217.157,250.294l.1.651,1.421-.848-.952-.132Z" transform="translate(-214.86 -249.332)" fill="#6d3b1b"/>
              <path id="Path_80097" data-name="Path 80097" d="M216.785,249.9l-.9.34,2.4.765-.1-.651Z" transform="translate(-215.881 -249.387)" fill="#4f2510"/>
              <path id="Path_80098" data-name="Path 80098" d="M218.749,250.025s-.549.315-.592.319-1.372-.454-1.372-.454l-.9.349s.8-.223.871-.218a12.65,12.65,0,0,1,1.289.414,1.926,1.926,0,0,1,.239.569,3.757,3.757,0,0,1,0-.639A4.928,4.928,0,0,1,218.749,250.025Z" transform="translate(-215.881 -249.392)" fill="#6d3b1b"/>
            </g>
            <g id="Group_12145" data-name="Group 12145" transform="translate(9.039 5.704)">
              <path id="Path_80099" data-name="Path 80099" d="M216.792,249.926l2.4.765,1.421-.848-2.4-.765Z" transform="translate(-216.792 -249.079)" fill="#804a24"/>
              <path id="Path_80100" data-name="Path 80100" d="M217.294,249.506l1.416.452.548-.327-1.416-.452Z" transform="translate(-216.39 -248.998)" fill="#8d5631"/>
              <path id="Path_80101" data-name="Path 80101" d="M218.068,249.759l.1.651,1.421-.848-.952-.132Z" transform="translate(-215.771 -248.797)" fill="#6d3b1b"/>
              <path id="Path_80102" data-name="Path 80102" d="M217.7,249.361l-.9.34,2.4.765-.1-.651Z" transform="translate(-216.792 -248.853)" fill="#4f2510"/>
              <path id="Path_80103" data-name="Path 80103" d="M219.66,249.489s-.549.315-.592.319-1.372-.452-1.372-.452l-.9.347s.8-.223.871-.216a12.616,12.616,0,0,1,1.287.414,1.925,1.925,0,0,1,.239.569,3.975,3.975,0,0,1,0-.641A5.27,5.27,0,0,1,219.66,249.489Z" transform="translate(-216.792 -248.857)" fill="#6d3b1b"/>
            </g>
            <g id="Group_12146" data-name="Group 12146" transform="translate(10.678 4.742)">
              <path id="Path_80104" data-name="Path 80104" d="M217.7,249.392l2.4.765,1.421-.848-2.4-.765Z" transform="translate(-217.702 -248.544)" fill="#804a24"/>
              <path id="Path_80105" data-name="Path 80105" d="M218.2,248.971l1.416.452.548-.327-1.416-.452Z" transform="translate(-217.301 -248.463)" fill="#8d5631"/>
              <path id="Path_80106" data-name="Path 80106" d="M218.978,249.225l.1.651,1.421-.848-.952-.132Z" transform="translate(-216.682 -248.263)" fill="#6d3b1b"/>
              <path id="Path_80107" data-name="Path 80107" d="M218.606,248.826l-.9.34,2.4.765-.1-.651Z" transform="translate(-217.702 -248.318)" fill="#4f2510"/>
              <path id="Path_80108" data-name="Path 80108" d="M220.569,248.956s-.549.315-.592.319-1.372-.454-1.372-.454l-.9.349s.8-.223.87-.218a12.655,12.655,0,0,1,1.289.414,1.926,1.926,0,0,1,.239.569,3.759,3.759,0,0,1,0-.639A4.919,4.919,0,0,1,220.569,248.956Z" transform="translate(-217.702 -248.323)" fill="#6d3b1b"/>
            </g>
            <g id="Group_12147" data-name="Group 12147" transform="translate(4.799 5.823)">
              <path id="Path_80109" data-name="Path 80109" d="M214.437,249.992l2.4.765,1.421-.848-2.4-.765Z" transform="translate(-214.437 -249.145)" fill="#804a24"/>
              <path id="Path_80110" data-name="Path 80110" d="M214.939,249.572l1.416.452.548-.327-1.416-.452Z" transform="translate(-214.035 -249.064)" fill="#8d5631"/>
              <path id="Path_80111" data-name="Path 80111" d="M215.713,249.825l.1.651,1.421-.848-.952-.132Z" transform="translate(-213.416 -248.863)" fill="#6d3b1b"/>
              <path id="Path_80112" data-name="Path 80112" d="M215.341,249.427l-.9.34,2.4.765-.1-.651Z" transform="translate(-214.437 -248.919)" fill="#4f2510"/>
              <path id="Path_80113" data-name="Path 80113" d="M217.3,249.555s-.549.315-.592.319-1.372-.452-1.372-.452l-.9.347s.8-.223.871-.216a12.073,12.073,0,0,1,1.287.414,1.931,1.931,0,0,1,.241.567,3.756,3.756,0,0,1,0-.639A4.711,4.711,0,0,1,217.3,249.555Z" transform="translate(-214.437 -248.922)" fill="#6d3b1b"/>
            </g>
            <g id="Group_12148" data-name="Group 12148" transform="translate(6.439 4.861)">
              <path id="Path_80114" data-name="Path 80114" d="M215.348,249.458l2.4.765,1.421-.848-2.4-.765Z" transform="translate(-215.348 -248.61)" fill="#804a24"/>
              <path id="Path_80115" data-name="Path 80115" d="M215.85,249.037l1.416.452.548-.327-1.416-.452Z" transform="translate(-214.946 -248.529)" fill="#8d5631"/>
              <path id="Path_80116" data-name="Path 80116" d="M216.624,249.291l.1.651,1.421-.848-.952-.132Z" transform="translate(-214.327 -248.329)" fill="#6d3b1b"/>
              <path id="Path_80117" data-name="Path 80117" d="M216.252,248.892l-.9.34,2.4.765-.1-.651Z" transform="translate(-215.348 -248.384)" fill="#4f2510"/>
              <path id="Path_80118" data-name="Path 80118" d="M218.216,249.022s-.549.315-.592.319-1.374-.454-1.374-.454l-.9.349s.8-.223.869-.218a12.629,12.629,0,0,1,1.289.414,1.924,1.924,0,0,1,.239.569,3.976,3.976,0,0,1,0-.641A5.228,5.228,0,0,1,218.216,249.022Z" transform="translate(-215.347 -248.388)" fill="#6d3b1b"/>
            </g>
            <g id="Group_12149" data-name="Group 12149" transform="translate(8.078 3.898)">
              <path id="Path_80119" data-name="Path 80119" d="M216.258,248.923l2.4.765,1.421-.848-2.4-.765Z" transform="translate(-216.258 -248.076)" fill="#804a24"/>
              <path id="Path_80120" data-name="Path 80120" d="M216.76,248.5l1.416.452.548-.327-1.416-.452Z" transform="translate(-215.856 -247.995)" fill="#8d5631"/>
              <path id="Path_80121" data-name="Path 80121" d="M217.534,248.756l.1.651,1.421-.848-.952-.132Z" transform="translate(-215.237 -247.794)" fill="#6d3b1b"/>
              <path id="Path_80122" data-name="Path 80122" d="M217.162,248.358l-.9.34,2.4.765-.1-.651Z" transform="translate(-216.258 -247.85)" fill="#4f2510"/>
              <path id="Path_80123" data-name="Path 80123" d="M219.126,248.486s-.549.315-.592.319-1.372-.452-1.372-.452l-.9.347s.8-.223.871-.216a12.223,12.223,0,0,1,1.289.414,1.917,1.917,0,0,1,.239.567,3.761,3.761,0,0,1,0-.639A4.713,4.713,0,0,1,219.126,248.486Z" transform="translate(-216.258 -247.853)" fill="#6d3b1b"/>
            </g>
            <g id="Group_12150" data-name="Group 12150" transform="translate(2.2 4.979)">
              <path id="Path_80124" data-name="Path 80124" d="M212.993,249.523l2.4.765,1.421-.848-2.4-.765Z" transform="translate(-212.993 -248.676)" fill="#804a24"/>
              <path id="Path_80125" data-name="Path 80125" d="M213.5,249.1l1.416.452.548-.327-1.416-.452Z" transform="translate(-212.591 -248.595)" fill="#8d5631"/>
              <path id="Path_80126" data-name="Path 80126" d="M214.269,249.357l.1.651,1.421-.848-.952-.132Z" transform="translate(-211.972 -248.394)" fill="#6d3b1b"/>
              <path id="Path_80127" data-name="Path 80127" d="M213.9,248.958l-.9.34,2.4.765-.1-.651Z" transform="translate(-212.993 -248.45)" fill="#4f2510"/>
              <path id="Path_80128" data-name="Path 80128" d="M215.861,249.088s-.549.313-.592.319-1.372-.454-1.372-.454l-.9.349s.8-.225.871-.218a12.6,12.6,0,0,1,1.287.414,1.925,1.925,0,0,1,.239.569,3.97,3.97,0,0,1,0-.641A5.209,5.209,0,0,1,215.861,249.088Z" transform="translate(-212.993 -248.454)" fill="#6d3b1b"/>
            </g>
            <g id="Group_12151" data-name="Group 12151" transform="translate(3.839 4.017)">
              <path id="Path_80129" data-name="Path 80129" d="M213.9,248.989l2.4.765,1.421-.848-2.4-.765Z" transform="translate(-213.904 -248.141)" fill="#804a24"/>
              <path id="Path_80130" data-name="Path 80130" d="M214.406,248.569l1.416.452.548-.327-1.416-.452Z" transform="translate(-213.502 -248.061)" fill="#8d5631"/>
              <path id="Path_80131" data-name="Path 80131" d="M215.179,248.822l.1.651,1.421-.848-.952-.132Z" transform="translate(-212.883 -247.86)" fill="#6d3b1b"/>
              <path id="Path_80132" data-name="Path 80132" d="M214.808,248.424l-.9.34,2.4.765-.1-.651Z" transform="translate(-213.904 -247.916)" fill="#4f2510"/>
              <path id="Path_80133" data-name="Path 80133" d="M216.77,248.552s-.549.315-.592.319-1.372-.452-1.372-.452l-.9.347s.8-.223.869-.216a12.219,12.219,0,0,1,1.289.414c.1.065.239.567.239.567a3.755,3.755,0,0,1,0-.639A4.928,4.928,0,0,1,216.77,248.552Z" transform="translate(-213.903 -247.919)" fill="#6d3b1b"/>
            </g>
            <g id="Group_12152" data-name="Group 12152" transform="translate(5.478 3.055)">
              <path id="Path_80134" data-name="Path 80134" d="M214.814,248.454l2.4.765,1.421-.848-2.4-.765Z" transform="translate(-214.814 -247.607)" fill="#804a24"/>
              <path id="Path_80135" data-name="Path 80135" d="M215.316,248.034l1.416.452.548-.327-1.416-.452Z" transform="translate(-214.412 -247.526)" fill="#8d5631"/>
              <path id="Path_80136" data-name="Path 80136" d="M216.09,248.288l.1.651,1.421-.848-.952-.132Z" transform="translate(-213.793 -247.326)" fill="#6d3b1b"/>
              <path id="Path_80137" data-name="Path 80137" d="M215.718,247.889l-.9.34,2.4.765-.1-.651Z" transform="translate(-214.814 -247.381)" fill="#4f2510"/>
              <path id="Path_80138" data-name="Path 80138" d="M217.682,248.019s-.549.313-.592.319-1.372-.454-1.372-.454l-.9.349s.8-.225.871-.218a12.619,12.619,0,0,1,1.287.414,1.925,1.925,0,0,1,.239.569,3.979,3.979,0,0,1,0-.641A5.215,5.215,0,0,1,217.682,248.019Z" transform="translate(-214.814 -247.385)" fill="#6d3b1b"/>
            </g>
            <g id="Group_12153" data-name="Group 12153" transform="translate(0.562 5.991)">
              <path id="Path_80139" data-name="Path 80139" d="M212.083,250.086l1.384.441a3.836,3.836,0,0,1,.666-.077,1.186,1.186,0,0,1,.32.043c.032-.009.065-.016.1-.023.389-.1.8-.292,1.2-.378L215.9,250l-2.4-.765Z" transform="translate(-212.083 -249.238)" fill="#804a24"/>
              <path id="Path_80140" data-name="Path 80140" d="M212.586,249.665l1.416.452.548-.327-1.416-.452Z" transform="translate(-211.681 -249.158)" fill="#8d5631"/>
              <path id="Path_80141" data-name="Path 80141" d="M213.359,249.918l.045.286.023.007c.034-.009.068-.016.1-.023.389-.1.8-.292,1.2-.378l.148-.088-.952-.133Z" transform="translate(-211.062 -248.957)" fill="#6d3b1b"/>
              <path id="Path_80142" data-name="Path 80142" d="M212.989,249.52l-.906.34,1.384.441a3.836,3.836,0,0,1,.666-.077,1.2,1.2,0,0,1,.292.036l-.045-.286Z" transform="translate(-212.083 -249.012)" fill="#4f2510"/>
              <path id="Path_80143" data-name="Path 80143" d="M212.987,249.515l-.9.349s.8-.225.871-.218a12.649,12.649,0,0,1,1.289.414.5.5,0,0,1,.11.189l.1.022.016,0a.943.943,0,0,1,.014-.279,5.026,5.026,0,0,1,.47-.34s-.549.315-.592.319S212.987,249.515,212.987,249.515Z" transform="translate(-212.083 -249.016)" fill="#6d3b1b"/>
            </g>
            <path id="Path_80144" data-name="Path 80144" d="M217.115,253.344c.034.194.1.529.14.727l10.326-6.119-.284-.635Z" transform="translate(-207.495 -244.784)" fill="#4f2510"/>
            <path id="Path_80145" data-name="Path 80145" d="M211.771,250.478l1.172.389a3.147,3.147,0,0,1,.464-.68l-1.437-.455Z" transform="translate(-211.771 -242.852)" fill="#6d3b1b"/>
          </g>
          <g id="Group_12155" data-name="Group 12155" transform="translate(7.147)">
            <path id="Path_80146" data-name="Path 80146" d="M220.4,245.91l-4.661,2.731,8.357,2.346.43.552,4.153-2.461-.283-.636Z" transform="translate(-215.741 -245.91)" fill="url(#linear-gradient-9)"/>
            <path id="Path_80147" data-name="Path 80147" d="M220.383,249.862l.43.552,4.153-2.461-.283-.636Z" transform="translate(-212.026 -244.784)" fill="#7c0000"/>
            <path id="Path_80148" data-name="Path 80148" d="M215.741,248.641l2.769.778c.2.007.4.011.6.011a14.139,14.139,0,0,0,7.021-1.7l-5.73-1.815Z" transform="translate(-215.741 -245.91)" fill="#fff" opacity="0.5" style="mix-blend-mode: soft-light;isolation: isolate"/>
            <path id="Path_80149" data-name="Path 80149" d="M223.968,249.74l-.22-.04-.113-.067-.137-.112-.191-.038-.3-.076-.324-.112-.133-.119-.41-.121-.092-.1h-.288l-.3-.068-.086-.1-.279-.063-.18-.036-.3-.063-.807-.193h-.346l-.3-.2-.079-.04-.2-.018-.164-.1-.452-.059h-.247l-.3-.169-.077-.072-.419-.045-.164-.063-.221-.038-.358-.034-.162-.085-.261-.117.016-.072-.322.189.117.119.167.034.072.067.135.031h.238l.247.122h.227l.27.063.07.1.045.119.148.009.1-.056.045.047.281.133.1-.061.209.079.2.088.443.031.218.074.07.094h.072l.1.005h.061l.135.083.708.167.191.2h.232a1.226,1.226,0,0,1,.328,0c.058.029.387.135.4.151a2.79,2.79,0,0,0,.349.034l.234.119.293.1.3.018.164.115.232.038.346.029.293.1.1.034.09.14.209.054.112.126v.153l.045.173.045.157.34-.194-.43-.553Z" transform="translate(-215.741 -244.78)" fill="#e0e0d6"/>
          </g>
        </g>
        <g id="Group_12158" data-name="Group 12158" transform="translate(3.003 5.893)">
          <g id="Group_12157" data-name="Group 12157" transform="translate(0.19)">
            <path id="Path_80150" data-name="Path 80150" d="M213.545,249.655l1.585,2.025,1.391-.471-1.585-2.025Z" transform="translate(-213.545 -249.183)" fill="#804a24"/>
            <path id="Path_80151" data-name="Path 80151" d="M214,249.5l.935,1.2.536-.182-.935-1.2Z" transform="translate(-213.182 -249.074)" fill="#8d5631"/>
            <path id="Path_80152" data-name="Path 80152" d="M214.573,250.159l-.148.88,1.391-.471-.689-.583Z" transform="translate(-212.84 -248.542)" fill="#6d3b1b"/>
            <path id="Path_80153" data-name="Path 80153" d="M213.545,249.464l1.585,2.025.148-.88-.917-1.189Z" transform="translate(-213.545 -248.993)" fill="#4f2510"/>
            <path id="Path_80154" data-name="Path 80154" d="M215.264,250.591c-.034-.013-.9-1.177-.9-1.177l-.817.056a5.875,5.875,0,0,1,.747.1,11.563,11.563,0,0,1,.85,1.093,4.1,4.1,0,0,1-.013.834,8.2,8.2,0,0,1,.221-.823,3.442,3.442,0,0,1,.481-.232A5.043,5.043,0,0,1,215.264,250.591Z" transform="translate(-213.545 -248.999)" fill="#6d3b1b"/>
          </g>
          <path id="Path_80155" data-name="Path 80155" d="M214.517,250.779l-.207.291.021.395,1.452-.452.114-.423.023-.085-.012-.2Z" transform="translate(-212.742 -248.283)" fill="#6d3b1b"/>
          <path id="Path_80156" data-name="Path 80156" d="M215.214,251.47l-1.584-2.025-.04.144-.052.119,0,.09-.094.1.032.117-.034.13,1.59,2.007.034-.214a.064.064,0,0,0,.041-.067c-.007-.049-.02-.117-.007-.131S215.214,251.47,215.214,251.47Z" transform="translate(-213.439 -248.974)" fill="#4f2510"/>
        </g>
        <g id="Group_12160" data-name="Group 12160" transform="translate(4.433 7.866)">
          <g id="Group_12159" data-name="Group 12159" transform="translate(0.053)">
            <path id="Path_80157" data-name="Path 80157" d="M214.263,251.4l1.533.622,2.255-1.12-1.533-.622Z" transform="translate(-214.263 -250.28)" fill="#804a24"/>
            <path id="Path_80158" data-name="Path 80158" d="M214.775,251.043l.591.24,1.331-.661-.591-.24Z" transform="translate(-213.853 -250.198)" fill="#8d5631"/>
            <path id="Path_80159" data-name="Path 80159" d="M214.263,251.024l1.533.622,0-.659-.614-.239Z" transform="translate(-214.263 -249.904)" fill="#6d3b1b"/>
            <path id="Path_80160" data-name="Path 80160" d="M215.117,251.175l0,.659,2.255-1.12-.945-.2Z" transform="translate(-213.581 -250.091)" fill="#4f2510"/>
            <path id="Path_80161" data-name="Path 80161" d="M215.409,251.165c-.045,0-.634-.225-.634-.225a5.088,5.088,0,0,1,.517.265,3.8,3.8,0,0,1,.1.632,1.9,1.9,0,0,1,.149-.6,13.094,13.094,0,0,1,1.212-.6c.07-.016.893.083.893.083l-.945-.207S215.452,251.162,215.409,251.165Z" transform="translate(-213.853 -250.095)" fill="#6d3b1b"/>
          </g>
          <path id="Path_80162" data-name="Path 80162" d="M214.286,250.9l-.053.138.01.066.05.326,1.607.621.1-.278-.184-.25Z" transform="translate(-214.233 -249.782)" fill="#6d3b1b"/>
          <path id="Path_80163" data-name="Path 80163" d="M217.41,250.9l.014-.065-.038-.1-.018-.112-2.254,1.12s.068.207.081.22-.016.059-.034.094.036.056.036.056l0,.158,2.258-1.105-.014-.1.063-.077Z" transform="translate(-213.528 -250.003)" fill="#4f2510"/>
        </g>
        <g id="Group_12162" data-name="Group 12162" transform="translate(11.52 7.735)">
          <g id="Group_12161" data-name="Group 12161" transform="translate(0.091)">
            <path id="Path_80164" data-name="Path 80164" d="M218.221,250.989l2.362.872,1.458-.783-2.362-.872Z" transform="translate(-218.221 -250.206)" fill="#804a24"/>
            <path id="Path_80165" data-name="Path 80165" d="M218.731,250.61l1.394.515.562-.3-1.394-.515Z" transform="translate(-217.812 -250.125)" fill="#8d5631"/>
            <path id="Path_80166" data-name="Path 80166" d="M219.492,250.9l.073.655,1.458-.783-.945-.175Z" transform="translate(-217.203 -249.896)" fill="#4f2510"/>
            <path id="Path_80167" data-name="Path 80167" d="M219.139,250.475l-.918.3,2.362.872-.073-.655Z" transform="translate(-218.221 -249.991)" fill="#6d3b1b"/>
            <path id="Path_80168" data-name="Path 80168" d="M219.137,250.47l-.916.308s.807-.187.879-.178a12.605,12.605,0,0,1,1.269.473,1.919,1.919,0,0,1,.212.578,3.819,3.819,0,0,1,.027-.639,4.892,4.892,0,0,1,.486-.319s-.562.29-.607.292S219.137,250.47,219.137,250.47Z" transform="translate(-218.22 -249.995)" fill="#6d3b1b"/>
          </g>
          <path id="Path_80169" data-name="Path 80169" d="M219.6,251.474l-.156.268.132.265,1.532-.789.015-.329,0-.066-.068-.131Z" transform="translate(-217.149 -249.819)" fill="#4f2510"/>
          <path id="Path_80170" data-name="Path 80170" d="M220.622,251.514l-2.36-.873-.005.113-.029.1.022.063-.079.1.07.068,0,.1,2.362.859-.02-.158s.05-.029.031-.059-.056-.074-.045-.088S220.622,251.514,220.622,251.514Z" transform="translate(-218.17 -249.859)" fill="#6d3b1b"/>
        </g>
      </g>
    </g>
  </g>
</svg>
