<svg xmlns="http://www.w3.org/2000/svg" width="20.434" height="19" viewBox="0 0 20.434 19">
  <g id="Group_12591" data-name="Group 12591" transform="translate(-68 -239)">
    <circle id="Ellipse_1100" data-name="Ellipse 1100" cx="8" cy="8" r="8" transform="translate(69 242)" fill="#fff"/>
    <g id="_6-Check" data-name="6-Check" transform="translate(36 179.842)">
      <path id="Path_74406" data-name="Path 74406" d="M41.32,77.158a.448.448,0,0,1-.329-.144l-8.872-9.6a.448.448,0,0,1,.329-.752h4.27a.448.448,0,0,1,.338.154l2.965,3.411a16.988,16.988,0,0,1,2.029-3.215,30.187,30.187,0,0,1,9.724-7.8.448.448,0,0,1,.486.749,29.308,29.308,0,0,0-4.267,4.418,32.949,32.949,0,0,0-6.24,12.44.448.448,0,0,1-.435.341Z" transform="translate(0 0)" fill="#f36"/>
    </g>
  </g>
</svg>
