<svg xmlns="http://www.w3.org/2000/svg" width="89.844" height="40" viewBox="0 0 89.844 40">
  <g id="Group_6368" data-name="Group 6368" transform="translate(-314 -218)">
    <path id="Path_74204" data-name="Path 74204" d="M-53.623-23.3l-1.519,1.932L-56.683-23.3l1.541-1.867Zm3.733,10.94a11.739,11.739,0,0,1-2.54,2.865,4.02,4.02,0,0,1-2.344,1q-1.172,0-1.476-.629a5.616,5.616,0,0,1-.3-2.214v-3.951a13.243,13.243,0,0,1-1.954,3.343l-.673-.543a15.3,15.3,0,0,0,2.626-5.427l2.171-1.15v6.881a7.51,7.51,0,0,0,.119,1.693.552.552,0,0,0,.6.412q.977,0,3.147-2.843Zm14.847,0q-2.626,3.864-5.014,3.864A1.446,1.446,0,0,1-41.25-9a4.22,4.22,0,0,1-.412-2.333v-4.971q0-1.15-.716-1.15a1.3,1.3,0,0,0-.727.26,4.343,4.343,0,0,0-.814.771,20.207,20.207,0,0,0-1.226,1.693,7.169,7.169,0,0,0-.792,1.313v3.907L-48.11-8.124v-7.293a14.1,14.1,0,0,1-2.04,3.473l-.673-.543a16.173,16.173,0,0,0,2.757-5.557l2.127-1.02v4.037a15.41,15.41,0,0,1,2.561-3.082A3.152,3.152,0,0,1-41.4-18.89a1.674,1.674,0,0,1,1.411.651,6.312,6.312,0,0,1,.5,3.213v2.909a8.65,8.65,0,0,0,.1,1.606.5.5,0,0,0,.532.434q1.064,0,3.147-2.843ZM-33-26.27a2.772,2.772,0,0,1,.781-2.084,2.774,2.774,0,0,1,2.019-.76A5.933,5.933,0,0,1-25.459-26.4a11.118,11.118,0,0,1,2.073,6.946,13.164,13.164,0,0,1-2.236,7.8q-2.236,3.158-5.1,3.158a3.544,3.544,0,0,1-2.6-.988,3.223,3.223,0,0,1-1-2.377v-.76a4.62,4.62,0,0,1,.043-.8l-1.02,1.433-.716-.5q4.276-6.62,8.053-6.62a3.475,3.475,0,0,1,3.1,1.693,13.511,13.511,0,0,0,.13-1.823,8.587,8.587,0,0,0-1.8-5.3,5.191,5.191,0,0,0-4.189-2.388A4.29,4.29,0,0,0-33-26.27Zm3.43,16.193a3.817,3.817,0,0,0,2.985-1.661,5.676,5.676,0,0,0,1.335-3.636A2.772,2.772,0,0,0-26-17.425a2.713,2.713,0,0,0-2.008-.749,3.768,3.768,0,0,0-2.952,1.541,5.181,5.181,0,0,0-1.281,3.386,3.442,3.442,0,0,0,.738,2.29A2.4,2.4,0,0,0-29.573-10.077Zm7.944-2.279a8.446,8.446,0,0,1-6.338,4.233l-.2-.5a9.442,9.442,0,0,0,5.839-4.254Zm15.259,0q-2.618,3.864-5,3.864a1.468,1.468,0,0,1-1.222-.532,4.15,4.15,0,0,1-.422-2.312v-1.823A21.006,21.006,0,0,1-16.31-9a3.085,3.085,0,0,1-1.8.705,1.667,1.667,0,0,1-1.378-.608,5.166,5.166,0,0,1-.488-2.822v-3.56a15.3,15.3,0,0,1-1.91,3.3l-.716-.5a16.918,16.918,0,0,0,2.626-5.6l2.171-1.107v7.858a4.289,4.289,0,0,0,.1,1.14q.1.293.532.293a2.128,2.128,0,0,0,1.248-.738,14.35,14.35,0,0,0,1.845-2.366,11.158,11.158,0,0,0,1.074-1.78v-3.3l2.192-1.107V-12.4a11.23,11.23,0,0,0,.1,1.834.525.525,0,0,0,.55.488q1.057,0,3.151-2.843Zm-.933-.13q.412-.586.749-1.1t.684-1.172A18.245,18.245,0,0,0-5.1-16.491a5.159,5.159,0,0,0,.423-1.422v-8.4a8.946,8.946,0,0,1,1.954-5.622q1.954-2.518,4.081-2.518a2.162,2.162,0,0,1,1.769.781,3.186,3.186,0,0,1,.64,2.084A11.6,11.6,0,0,1,2.335-26.91a87.337,87.337,0,0,1-4.84,8.237V-12.4A10.072,10.072,0,0,0-2.4-10.566a.541.541,0,0,0,.564.488q.977,0,3.147-2.843l.673.564Q-.595-8.493-3.135-8.493A1.36,1.36,0,0,1-4.285-9a4.419,4.419,0,0,1-.391-2.333v-3.951a13.242,13.242,0,0,1-1.954,3.343Zm4.8-7.771a63.534,63.534,0,0,0,3.831-6.935,9.8,9.8,0,0,0,.923-3.744q0-2.431-1.5-2.431a2.716,2.716,0,0,0-2.312,1.541,7.985,7.985,0,0,0-.944,4.189Zm20.534,7.51Q15.6-8.862,13.623-8.623v6.859A5.971,5.971,0,0,1,11.886,2.7,5.842,5.842,0,0,1,7.632,4.4a6.369,6.369,0,0,1-3.1-.771A3.291,3.291,0,0,1,2.791,1.753L4.615.016l.3.3a1.982,1.982,0,0,0-.087.586A2.637,2.637,0,0,0,5.711,2.86a2.968,2.968,0,0,0,2.138.847A3.092,3.092,0,0,0,10.5,2.393a6.164,6.164,0,0,0,.955-3.679v-9.768q-2.105,2.67-4.537,2.67a3.728,3.728,0,0,1-2.941-1.3,4.335,4.335,0,0,1-1.14-2.93v-.89L1.771-11.987l-.716-.5a26.591,26.591,0,0,1,4.254-5.042,5.239,5.239,0,0,1,3.3-1.34,3.889,3.889,0,0,1,2.843,1.02l2.171-1.324V-9.9q1.519-.13,3.755-3.386Zm-6.577.217v-4.1a3.05,3.05,0,0,0-2.67-1.541,3.3,3.3,0,0,0-2.626,1.266A4.624,4.624,0,0,0,5.092-13.83a4.106,4.106,0,0,0,.781,2.663,2.62,2.62,0,0,0,2.149.96,3.307,3.307,0,0,0,2.453-.988Q11.452-12.183,11.452-12.53Zm17.864.174a9.022,9.022,0,0,1-2.8,3.028,7.485,7.485,0,0,1-3.994.944,3.813,3.813,0,0,1-2.854-1.074,4.144,4.144,0,0,1-1.053-3.028,7.57,7.57,0,0,1,.087-1.107q-.781,1-1.194,1.606l-.716-.5a29.607,29.607,0,0,1,4.341-5.242,4.889,4.889,0,0,1,3.126-1.248,2.1,2.1,0,0,1,1.465.521A1.732,1.732,0,0,1,26.3-17.11q0,2.822-4.971,5.557a2.726,2.726,0,0,0,2.8,1.563,4.548,4.548,0,0,0,2.268-.738,7.629,7.629,0,0,0,2.268-2.149Zm-8.4-.043q3.6-1.758,3.6-3.907a1.564,1.564,0,0,0-.358-1.064,1.214,1.214,0,0,0-.966-.412,2.26,2.26,0,0,0-1.867,1.02,3.991,3.991,0,0,0-.76,2.453,4.385,4.385,0,0,0,.174,1.324A4.256,4.256,0,0,1,20.916-12.4Z" transform="translate(374.528 253.599)" fill="#4a148c"/>
    <g id="heart" transform="translate(314 218)">
      <path id="Path_74111" data-name="Path 74111" d="M61.84,20.452c.417.425.312,1.2-.648,1.776a.294.294,0,0,1-.208.036c-1.1-.22-1.455-.916-1.2-1.457a.65.65,0,0,1,1.03-.169A.653.653,0,0,1,61.84,20.452Z" transform="translate(-54.412 -20.28)" fill="#f36"/>
      <path id="Path_74112" data-name="Path 74112" d="M44.839,39.346c.553.663.31,1.769-1.144,2.485a.424.424,0,0,1-.3.028c-1.558-.448-1.993-1.493-1.566-2.244a.944.944,0,0,1,1.509-.122.941.941,0,0,1,1.505-.146Z" transform="translate(-39.337 -35.962)" fill="#f36"/>
      <path id="Path_74113" data-name="Path 74113" d="M76.869,34.82c.494,1.114-.263,2.522-2.516,2.931a.592.592,0,0,1-.424-.081c-1.941-1.211-2.125-2.8-1.257-3.653a1.332,1.332,0,0,1,2.1.418,1.329,1.329,0,0,1,2.1.384Z" transform="translate(-64.839 -31.484)" fill="#f36"/>
      <path id="Path_74114" data-name="Path 74114" d="M36.594,60.636c1.679,1.872,1.094,5.121-3.066,7.367a1.236,1.236,0,0,1-.886.112c-4.588-1.137-5.966-4.139-4.8-6.369.739-1.421,3.32-2.04,4.382-.521.649-1.737,3.3-1.781,4.373-.589Z" transform="translate(-27.448 -53.333)" fill="#f36"/>
    </g>
  </g>
</svg>
