<svg xmlns="http://www.w3.org/2000/svg" xmlns:xlink="http://www.w3.org/1999/xlink" width="173.045" height="239.73" viewBox="0 0 173.045 239.73">
  <defs>
    <radialGradient id="radial-gradient" cx="0.5" cy="0.5" r="0.5" gradientUnits="objectBoundingBox">
      <stop offset="0.312" stop-color="#ff8c9e"/>
      <stop offset="0.377" stop-color="#ff9bab"/>
      <stop offset="0.572" stop-color="#ffc6cf"/>
      <stop offset="0.747" stop-color="#ffe5e9"/>
      <stop offset="0.896" stop-color="#fff8f9"/>
      <stop offset="1" stop-color="#fff"/>
    </radialGradient>
    <radialGradient id="radial-gradient-5" cx="0.5" cy="0.5" r="0.5" xlink:href="#radial-gradient"/>
  </defs>
  <g id="Group_5788" data-name="Group 5788" transform="translate(-181.586 -74.768)" opacity="0.8">
    <g id="Group_5780" data-name="Group 5780">
      <g id="Group_5773" data-name="Group 5773">
        <path id="Path_73834" data-name="Path 73834" d="M270.342,306.73l-.254-.068A164.434,164.434,0,0,0,253.2,182.122l.228-.132a165.633,165.633,0,0,1,16.912,124.74Z" fill="#ff4774"/>
      </g>
      <g id="Group_5774" data-name="Group 5774">
        <path id="Path_73835" data-name="Path 73835" d="M265.886,314.5l-.238-.112A473.706,473.706,0,0,0,302.28,198.739l.259.047A473.977,473.977,0,0,1,265.886,314.5Z" fill="#ff4774"/>
      </g>
      <g id="Group_5775" data-name="Group 5775">
        <path id="Path_73836" data-name="Path 73836" d="M266.952,310.861l-.263,0c.478-30.727,9.765-60.82,18.746-89.923,9.068-29.385,18.445-59.769,18.737-90.782l.263,0c-.292,31.052-9.675,61.455-18.748,90.858C276.711,250.1,267.43,280.172,266.952,310.861Z" fill="#ff4774"/>
      </g>
      <g id="Group_5776" data-name="Group 5776">
        <path id="Path_73837" data-name="Path 73837" d="M272.911,296.266l-.256.061c-4.572-19.023-.6-40.557,12.5-67.769,15.247-31.666,36.04-60.667,56.149-88.714l.213.154c-20.1,28.037-40.888,57.029-56.125,88.674C272.321,255.827,268.354,277.3,272.911,296.266Z" fill="#ff4774"/>
      </g>
      <g id="Group_5777" data-name="Group 5777">
        <path id="Path_73838" data-name="Path 73838" d="M271.4,299.539l-.26.041c-4.325-27.089-.989-54.967,2.238-81.928.625-5.218,1.271-10.615,1.849-15.91,3.354-30.712,4.945-66.2-8.682-96.574l.24-.107c6.167,13.745,9.673,29.238,10.717,47.364.806,14,.185,29.215-2.014,49.346-.578,5.3-1.224,10.693-1.849,15.913C270.415,244.626,267.08,272.486,271.4,299.539Z" fill="#ff4774"/>
      </g>
      <g id="Group_5778" data-name="Group 5778">
        <path id="Path_73839" data-name="Path 73839" d="M279.105,293.5l-.261.033a288.829,288.829,0,0,0-77.055-161.7l.19-.181A289.087,289.087,0,0,1,279.105,293.5Z" fill="#ff4774"/>
      </g>
      <g id="Group_5779" data-name="Group 5779">
        <path id="Path_73840" data-name="Path 73840" d="M277.59,299.827l-.256.055a143.34,143.34,0,0,0-61.941-89.536l.143-.221a144.317,144.317,0,0,1,62.054,89.7Z" fill="#ff4774"/>
      </g>
    </g>
    <g id="Group_5781" data-name="Group 5781">
      <circle id="Ellipse_1064" data-name="Ellipse 1064" cx="33.126" cy="33.126" r="33.126" transform="matrix(0.957, -0.29, 0.29, 0.957, 204.785, 147.72)" fill="url(#radial-gradient)" style="mix-blend-mode: multiply;isolation: isolate"/>
      <path id="Path_73841" data-name="Path 73841" d="M228.82,146.65s-.01-9.453,6.449-14.36c8.088-6.143,17.819-4.047,22.846,2.4,4.968,6.374,4.4,15.587,3.421,22.259a104.283,104.283,0,0,1-7.956,25.769,104.216,104.216,0,0,1-26.906-1.839c-6.579-1.483-15.38-4.267-19.542-11.194-4.213-7.008-2.669-16.844,5.969-22.182C220,143.242,228.82,146.65,228.82,146.65Z" fill="#ff4774"/>
      <path id="Path_73842" data-name="Path 73842" d="M213.1,147.506c-8.638,5.338-10.182,15.174-5.969,22.182,4.162,6.927,12.963,9.711,19.542,11.194a104.216,104.216,0,0,0,26.906,1.839L228.82,146.65S220,143.242,213.1,147.506Z" fill="#d62d56"/>
    </g>
    <g id="Group_5782" data-name="Group 5782">
      <circle id="Ellipse_1065" data-name="Ellipse 1065" cx="33.126" cy="33.126" r="33.126" transform="matrix(0.922, -0.388, 0.388, 0.922, 261.217, 167.864)" fill="url(#radial-gradient)" style="mix-blend-mode: multiply;isolation: isolate"/>
      <path id="Path_73843" data-name="Path 73843" d="M305.516,156.652s5.878-7.4,13.988-7.22c10.154.229,16.463,7.929,16.38,16.106-.082,8.081-6.261,14.937-11.184,19.546a104.276,104.276,0,0,1-22.271,15.21A104.2,104.2,0,0,1,282.521,182.1c-4.225-5.257-9.377-12.916-8.321-20.927,1.068-8.107,8.4-14.842,18.483-13.64C300.739,148.5,305.516,156.652,305.516,156.652Z" fill="#ff4774"/>
      <path id="Path_73844" data-name="Path 73844" d="M292.683,147.534c-10.083-1.2-17.415,5.533-18.483,13.64-1.056,8.011,4.1,15.67,8.321,20.927a104.2,104.2,0,0,0,19.908,18.193l3.087-43.642S300.739,148.5,292.683,147.534Z" fill="#d62d56"/>
    </g>
    <g id="Group_5783" data-name="Group 5783">
      <path id="Path_73845" data-name="Path 73845" d="M258.532,82.739s1.5-5.4,5.97-7.183a9.537,9.537,0,0,1,12.678,5.008c1.827,4.434.038,9.61-1.585,13.268a61.814,61.814,0,0,1-8.647,13.466,61.779,61.779,0,0,1-15.088-5.331c-3.526-1.894-8.114-4.886-9.391-9.507a9.536,9.536,0,0,1,6.941-11.731C254.033,79.389,258.532,82.739,258.532,82.739Z" fill="#ff4774"/>
      <path id="Path_73846" data-name="Path 73846" d="M249.41,80.729a9.536,9.536,0,0,0-6.941,11.731c1.277,4.621,5.865,7.613,9.391,9.507a61.779,61.779,0,0,0,15.088,5.331l-8.416-24.559S254.033,79.389,249.41,80.729Z" fill="#d62d56"/>
    </g>
    <g id="Group_5784" data-name="Group 5784">
      <path id="Path_73847" data-name="Path 73847" d="M318.253,125.164a13.369,13.369,0,1,1-13.092-13.641A13.369,13.369,0,0,1,318.253,125.164Z" fill="url(#radial-gradient)" style="mix-blend-mode: multiply;isolation: isolate"/>
      <path id="Path_73848" data-name="Path 73848" d="M304.756,113.227s2.242-3.087,5.515-3.153a6.487,6.487,0,0,1,6.883,6.211c.107,3.26-2.266,6.131-4.172,8.075a42.08,42.08,0,0,1-8.717,6.518,42.046,42.046,0,0,1-8.342-6.992c-1.794-2.047-4-5.046-3.716-8.295a6.486,6.486,0,0,1,7.217-5.819C302.689,110.02,304.756,113.227,304.756,113.227Z" fill="#ff4774"/>
      <path id="Path_73849" data-name="Path 73849" d="M299.424,109.772a6.486,6.486,0,0,0-7.217,5.819c-.288,3.249,1.922,6.248,3.716,8.295a42.046,42.046,0,0,0,8.342,6.992l.491-17.651S302.689,110.02,299.424,109.772Z" fill="#d62d56"/>
    </g>
    <g id="Group_5785" data-name="Group 5785">
      <path id="Path_73850" data-name="Path 73850" d="M208.442,118.493a13.369,13.369,0,1,1-18.887-.868A13.369,13.369,0,0,1,208.442,118.493Z" fill="url(#radial-gradient)" style="mix-blend-mode: multiply;isolation: isolate"/>
      <path id="Path_73851" data-name="Path 73851" d="M190.435,119.139s-.5-3.782,1.826-6.085a6.486,6.486,0,0,1,9.268-.24c2.323,2.289,2.581,6,2.539,8.727a42.056,42.056,0,0,1-1.829,10.73,42.037,42.037,0,0,1-10.863.679c-2.71-.247-6.378-.9-8.408-3.452a6.487,6.487,0,0,1,1.222-9.19C186.728,118.239,190.435,119.139,190.435,119.139Z" fill="#ff4774"/>
      <path id="Path_73852" data-name="Path 73852" d="M184.19,120.308a6.487,6.487,0,0,0-1.222,9.19c2.03,2.553,5.7,3.205,8.408,3.452a42.037,42.037,0,0,0,10.863-.679l-11.8-13.132S186.728,118.239,184.19,120.308Z" fill="#d62d56"/>
    </g>
    <g id="Group_5786" data-name="Group 5786">
      <path id="Path_73853" data-name="Path 73853" d="M217.511,198.408a10.906,10.906,0,1,1-14.831,4.231A10.907,10.907,0,0,1,217.511,198.408Z" fill="url(#radial-gradient-5)" style="mix-blend-mode: multiply;isolation: isolate"/>
      <path id="Path_73854" data-name="Path 73854" d="M203.753,203.581s-1.369-2.795-.167-5.18a5.291,5.291,0,0,1,7.1-2.59c2.391,1.168,3.554,3.974,4.228,6.09a34.281,34.281,0,0,1,1.37,8.772,34.313,34.313,0,0,1-8.224,3.344c-2.161.512-5.166.96-7.4-.487a5.291,5.291,0,0,1-1.44-7.424C200.653,203.847,203.753,203.581,203.753,203.581Z" fill="#ff4774"/>
      <path id="Path_73855" data-name="Path 73855" d="M199.227,206.106a5.291,5.291,0,0,0,1.44,7.424c2.232,1.447,5.237,1,7.4.487a34.313,34.313,0,0,0,8.224-3.344l-12.536-7.092S200.653,203.847,199.227,206.106Z" fill="#d62d56"/>
    </g>
    <g id="Group_5787" data-name="Group 5787">
      <path id="Path_73856" data-name="Path 73856" d="M352.245,142.131a10.906,10.906,0,1,1-5.429-14.436A10.905,10.905,0,0,1,352.245,142.131Z" fill="url(#radial-gradient-5)" style="mix-blend-mode: multiply;isolation: isolate"/>
      <path id="Path_73857" data-name="Path 73857" d="M345.965,128.842s2.673-1.593,5.148-.59a5.291,5.291,0,0,1,3.163,6.869c-.968,2.478-3.67,3.868-5.724,4.712a34.337,34.337,0,0,1-8.63,2.084,34.285,34.285,0,0,1-4.006-7.924c-.687-2.111-1.38-5.07-.119-7.413a5.29,5.29,0,0,1,7.281-2.042C345.446,125.774,345.965,128.842,345.965,128.842Z" fill="#ff4774"/>
      <path id="Path_73858" data-name="Path 73858" d="M343.078,124.538a5.29,5.29,0,0,0-7.281,2.042c-1.26,2.343-.568,5.3.119,7.413a34.285,34.285,0,0,0,4.006,7.924l6.043-13.075S345.446,125.774,343.078,124.538Z" fill="#d62d56"/>
    </g>
  </g>
</svg>
