<svg xmlns="http://www.w3.org/2000/svg" width="209.171" height="85.556" viewBox="0 0 209.171 85.556">
  <g id="Group_12370" data-name="Group 12370" transform="translate(67.307 -5.972)" opacity="0.3">
    <g id="Group_12364" data-name="Group 12364" transform="translate(105.863 5.972)">
      <g id="Group_7142" data-name="Group 7142" transform="translate(8.63 1.938)">
        <path id="Path_74498" data-name="Path 74498" d="M29.612,8.937a5.016,5.016,0,0,1,7.167-2.458,4.479,4.479,0,0,1,2.043,4.527,6.131,6.131,0,0,1-1.238,2.476,29.006,29.006,0,0,1-2.06,2.32c-1.7,1.792-3.48,3.506-5.323,5.142a.263.263,0,0,1-.312.043,42.377,42.377,0,0,1-4.83-4.233c-.744-.762-1.463-1.549-2.138-2.372a14.147,14.147,0,0,1-1.74-2.493A6.416,6.416,0,0,1,20.393,9.2a4.756,4.756,0,0,1,.528-2.363,3.549,3.549,0,0,1,1.636-1.627,4.091,4.091,0,0,1,3,0,7.562,7.562,0,0,1,4.406,4.025c.13.286-.312.537-.433.251a6.972,6.972,0,0,0-3.488-3.549,4.288,4.288,0,0,0-2.882-.4A2.891,2.891,0,0,0,21.5,6.85a4.765,4.765,0,0,0,.026,4.631,12.712,12.712,0,0,0,1.558,2.328c.632.77,1.3,1.515,1.982,2.233a40.46,40.46,0,0,0,5.081,4.5l-.312.043c1.549-1.376,3.056-2.8,4.5-4.276.718-.727,1.42-1.463,2.1-2.225A9.847,9.847,0,0,0,38,11.932a3.777,3.777,0,0,0,.346-2.458,4.078,4.078,0,0,0-1.212-2.112,4.257,4.257,0,0,0-3.817-.978,4.792,4.792,0,0,0-3.428,2.666c-.069.156-.329.043-.277-.113Z" transform="translate(-20.389 -4.919)" fill="#fff"/>
      </g>
      <g id="Group_7143" data-name="Group 7143">
        <path id="Path_74499" data-name="Path 74499" d="M30.784,11.4a12.09,12.09,0,0,1-3.722-2.129,12.868,12.868,0,0,1-1.549-1.523c-.441-.511-.814-1.082-1.255-1.593A2.772,2.772,0,0,0,22.5,5.042l.164-.216a6.838,6.838,0,0,0,2.328,3.921.168.168,0,0,1-.026.26,1.191,1.191,0,0,1-1.125-.1c-.173-.078-.874-.268-.814.138.026.2.26.4.39.537.156.156.32.312.485.459a6.079,6.079,0,0,0,1.177.762c.2.087.052.346-.13.32a7.794,7.794,0,0,0-2.614.017l.1-.268a3.231,3.231,0,0,0,2.969,1.558.186.186,0,0,1,.043.364c-.485.147-.969.286-1.454.433-.164.052-.39.113-.467.286a.306.306,0,0,0,.121.372,1.871,1.871,0,0,0,1,.372c.519.1,1.03.19,1.549.277l-.138.346a.411.411,0,0,0-.537.26.537.537,0,0,0,.242.632c.528.372,1.186.087,1.688-.164l.2.338a.76.76,0,0,0-.216,1.195.8.8,0,0,0,1.195-.312l.312.19A.959.959,0,0,0,29.3,18.32a.941.941,0,0,0,1.264-.554.2.2,0,0,1,.39,0c.113.355.286.805.667.935.251.087.744-.182.563-.485l.355-.147c.078.225.2.589.467.667s.433-.19.5-.407c.182-.528.026-1.134.5-1.549.208-.19.519.113.312.312-.268.251-.26.667-.312,1a1.431,1.431,0,0,1-.433.883.728.728,0,0,1-.857.052,1.58,1.58,0,0,1-.554-.857c-.078-.216.242-.338.355-.156.32.511-.225,1.082-.744,1.1-.667.009-1.03-.71-1.212-1.246h.39a1.284,1.284,0,1,1-2.311-1.047.187.187,0,0,1,.338.147,1.139,1.139,0,0,1-1.783.45A1.154,1.154,0,0,1,27.46,15.6c.225-.113.424.225.2.338a2.7,2.7,0,0,1-1.4.39,1.32,1.32,0,0,1-.987-.545A.845.845,0,0,1,25.3,14.8a.741.741,0,0,1,.944-.242c.208.1.061.372-.139.338-.623-.113-1.264-.19-1.878-.338a1.527,1.527,0,0,1-1.013-.632.686.686,0,0,1,.39-.944,6.115,6.115,0,0,1,.8-.26l.952-.286.052.364a3.591,3.591,0,0,1-3.281-1.749.18.18,0,0,1,.1-.26,8.3,8.3,0,0,1,2.813-.009l-.138.32a6.234,6.234,0,0,1-1.324-.892,5.086,5.086,0,0,1-.571-.571,1.028,1.028,0,0,1-.329-.615c-.009-.407.381-.589.727-.58a1.537,1.537,0,0,1,.545.138c.251.113.571.3.84.138l-.035.26a7.236,7.236,0,0,1-2.432-4.068A.177.177,0,0,1,22.5,4.7c1.342.1,2.121,1.333,2.856,2.3a12.96,12.96,0,0,0,3.263,3,14,14,0,0,0,2.233,1.16c.147.061.087.294-.069.242Z" transform="translate(-22.106 -4.695)" fill="#fff"/>
      </g>
      <g id="Group_7144" data-name="Group 7144" transform="translate(23.822 0.487)">
        <path id="Path_74500" data-name="Path 74500" d="M23.083,11.276A24.659,24.659,0,0,0,25.749,9.4a19.067,19.067,0,0,0,2.3-2.277c.364-.424.7-.866,1.021-1.324a2.378,2.378,0,0,1,1-.987.809.809,0,0,1,1.047.433,1.7,1.7,0,0,1,.017,1.2A4.014,4.014,0,0,1,29.039,8.87V8.506c.493.277,1.1-.017,1.627.087a1.025,1.025,0,0,1,.874.788c.052.485-.372.762-.779.909a13.063,13.063,0,0,1-1.9.485v-.381a5.2,5.2,0,0,1,1.515.684,5.4,5.4,0,0,1,.623.476,1.106,1.106,0,0,1,.433.632c.061.467-.433.675-.822.71a4.634,4.634,0,0,1-1.818-.225.211.211,0,0,1,.113-.407,3.321,3.321,0,0,1,1.411.744,2.354,2.354,0,0,1,.822,1.272c.078.58-.372.866-.9.805a10.6,10.6,0,0,1-1.939-.415l.173-.4c.9.467,2.121,1.281,1.619,2.467a1.1,1.1,0,0,1-1.056.753,1.175,1.175,0,0,1-.667-.338,2.4,2.4,0,0,0-.623-.519l.216-.364a4.635,4.635,0,0,1,.926,1.238c.208.415.459.969.164,1.4a1.03,1.03,0,0,1-1.039.372,2.068,2.068,0,0,1-1.134-.874l.355-.277a3.113,3.113,0,0,1,.26,1.281c-.009.346-.069.77-.476.857-.364.078-.7-.2-.987-.39-.407-.286-.814-.571-1.229-.857a.215.215,0,0,1,.216-.372c.58.26.294,1.056-.147,1.3-.7.4-1.368-.407-1.714-.909l.329.043a1.248,1.248,0,0,1-1.446.277A2.936,2.936,0,0,1,20.8,18.028l.372-.156a.477.477,0,0,1-.208.537.608.608,0,0,1-.649-.017,2.639,2.639,0,0,1-.935-1.281c-.087-.216.286-.372.381-.156a3.471,3.471,0,0,0,.45.753,1.362,1.362,0,0,0,.286.3c.052.035.338.138.286-.035a.2.2,0,0,1,.372-.156,2.7,2.7,0,0,0,.944,1.117.864.864,0,0,0,1.091-.147c.087-.121.26-.061.329.035.208.312.623.918,1.082.8.208-.052.485-.476.2-.6l.216-.372c.294.2.58.4.874.6a5.629,5.629,0,0,0,.8.545c.087.035.225.1.3.026.1-.087.069-.372.069-.476a2.594,2.594,0,0,0-.216-.987c-.1-.208.173-.485.355-.268a2.029,2.029,0,0,0,.805.727c.234.087.615.052.718-.208.13-.329-.173-.814-.329-1.091a4.315,4.315,0,0,0-.744-.935c-.147-.147,0-.459.216-.372a1.458,1.458,0,0,1,.528.355,2.8,2.8,0,0,0,.476.433c.364.19.692-.1.831-.424.39-.952-.77-1.575-1.454-1.93a.22.22,0,0,1,.173-.4,9.881,9.881,0,0,0,1.515.355,1.425,1.425,0,0,0,.632.043c.208-.069.156-.312.1-.467a2.742,2.742,0,0,0-1.87-1.506l.113-.407a4.637,4.637,0,0,0,1.376.234c.268,0,1.013-.035.632-.459a4.579,4.579,0,0,0-2.164-1.264c-.182-.052-.2-.346,0-.381.537-.113,1.073-.242,1.6-.39.26-.078.935-.242.762-.649-.138-.329-.632-.372-.935-.346a2.387,2.387,0,0,1-1.35-.138c-.121-.078-.147-.3,0-.364a3.484,3.484,0,0,0,1.835-1.9,1.545,1.545,0,0,0,.1-1.16c-.2-.45-.649-.208-.892.061a13.706,13.706,0,0,0-.84,1.134c-.286.381-.6.753-.909,1.108a17.082,17.082,0,0,1-2.112,2,14.5,14.5,0,0,1-2.77,1.774.146.146,0,0,1-.147-.251Z" transform="translate(-19.366 -4.751)" fill="#fff"/>
      </g>
      <g id="Group_7145" data-name="Group 7145" transform="translate(27.471 8.177)">
        <path id="Path_74501" data-name="Path 74501" d="M21.989,6.015a1.526,1.526,0,0,1,1.186-.346.775.775,0,0,1,.537.641.527.527,0,0,1-.476.554c-.329.043-.718-.173-1.021.009l-.026-.251a7.789,7.789,0,0,1,1.238.519c.26.138.511.381.372.692a.835.835,0,0,1-.675.433c-.39.043-.831-.242-1.2-.026V7.971c.424.2,1.809.909,1.255,1.541a1.057,1.057,0,0,1-.848.225,4.645,4.645,0,0,1-1.368-.286l.113-.26c.493.225,1.238.77.77,1.385-.493.667-1.342.26-1.87-.121-.182-.121-.009-.424.173-.294.372.277,1,.727,1.437.286s-.329-.866-.658-1.013c-.147-.069-.043-.32.113-.26a4.053,4.053,0,0,0,.9.234,1.865,1.865,0,0,0,.874,0c.667-.242-.762-1.047-1-1.151a.16.16,0,0,1-.043-.286,1.105,1.105,0,0,1,.814-.087,1.054,1.054,0,0,0,.8-.017c.1-.069.2-.164.138-.286s-.242-.19-.372-.251a8.38,8.38,0,0,0-1.03-.441.142.142,0,0,1-.035-.251.95.95,0,0,1,.615-.078c.208.026.554.13.7-.061s-.069-.485-.26-.563c-.338-.13-.736.13-1.021.286a.12.12,0,0,1-.121-.208Z" transform="translate(-19.895 -5.64)" fill="#fff"/>
      </g>
      <g id="Group_7146" data-name="Group 7146" transform="translate(4.726 7.79)">
        <path id="Path_74502" data-name="Path 74502" d="M23.3,6.038c-.009-.182-.216-.242-.372-.208a.318.318,0,0,0-.216.441c.164.537.822.511,1.272.45.173-.026.251.242.078.268a.885.885,0,0,0-.658.467V7.319a.779.779,0,0,0,1,.355c.1-.052.26.026.208.156a.66.66,0,0,0,1.056.727c.13-.113.329.078.2.2-.182.156-.043.45.147.528.329.138.623-.156.866-.32.173-.1.372.147.216.286a1.127,1.127,0,0,1-1.316.216.6.6,0,0,1-.113-.909l.2.2a.966.966,0,0,1-1.186.1.978.978,0,0,1-.346-1.1l.216.164a1.06,1.06,0,0,1-1.272-.268.465.465,0,0,1-.147-.26.569.569,0,0,1,.173-.3,1.09,1.09,0,0,1,.675-.364L24.021,7a1.725,1.725,0,0,1-1.212-.164.845.845,0,0,1-.355-.857c.139-.511,1.047-.528,1.03.061a.091.091,0,0,1-.182,0Z" transform="translate(-22.433 -5.595)" fill="#fff"/>
      </g>
      <g id="Group_7148" data-name="Group 7148" transform="translate(1.882 10.424)">
        <path id="Path_74504" data-name="Path 74504" d="M22.859,6a1.506,1.506,0,0,0-.312.26.577.577,0,0,0-.078.476c.121.4.623.485.987.511a.185.185,0,0,1,.182.19,1.132,1.132,0,0,0,1.558.935.2.2,0,0,1,.3.173c-.035.355-.087.84.355.952a4.9,4.9,0,0,0,.623.078,6.737,6.737,0,0,1,.7.147c.684.19,1.74.519,2.233-.225a.2.2,0,0,1,.346,0,.72.72,0,0,0,.9.234,2.021,2.021,0,0,0,.866-.918.21.21,0,0,1,.364.208,2.234,2.234,0,0,1-1.221,1.134,1.121,1.121,0,0,1-1.255-.45h.346c-.606.918-1.8.675-2.692.424a4.528,4.528,0,0,0-.892-.182,1.509,1.509,0,0,1-.7-.182,1.222,1.222,0,0,1-.381-1.221l.3.173a1.531,1.531,0,0,1-2.129-1.281l.19.19c-.511-.043-1.177-.312-1.264-.883a.85.85,0,0,1,.164-.641c.121-.156.312-.286.493-.147L22.859,6Z" transform="translate(-22.183 -5.899)" fill="#fff"/>
      </g>
      <g id="Group_7149" data-name="Group 7149" transform="translate(2.228 8.931)">
        <path id="Path_74505" data-name="Path 74505" d="M23.775,7.123a.812.812,0,0,1-.58-.658c-.052-.268.1-.822.476-.727a.146.146,0,0,1,.1.173c-.026.1-.1.156-.156.234a.648.648,0,0,0-.087.277.454.454,0,0,0,.294.519.1.1,0,0,1-.052.182Z" transform="translate(-23.185 -5.727)" fill="#fff"/>
      </g>
      <g id="Group_7150" data-name="Group 7150" transform="translate(26.573 10.427)">
        <path id="Path_74506" data-name="Path 74506" d="M25.473,5.9a.714.714,0,0,1,.71.918.807.807,0,0,1-1.108.467L25.248,7a.941.941,0,0,1,.2,1.316.959.959,0,0,1-1.35.1l.32-.087-.234.788a.188.188,0,0,1-.19.138,3.194,3.194,0,0,1-1.913-.329l.294-.225c.156.537-.4.909-.883.848a3.7,3.7,0,0,1-.866-.26,2.257,2.257,0,0,1-.892-.433c-.052-.061-.043-.182.052-.2a1.255,1.255,0,0,1,.589.113c.225.069.45.164.667.242a1.6,1.6,0,0,0,.6.147c.173-.009.407-.147.355-.355a.2.2,0,0,1,.294-.225,2.835,2.835,0,0,0,1.705.286l-.182.147.234-.788a.2.2,0,0,1,.32-.078.586.586,0,0,0,.814-.078.609.609,0,0,0-.138-.814c-.156-.121.043-.338.208-.26a.491.491,0,0,0,.649-.286.6.6,0,0,0-.441-.675.073.073,0,0,1,.017-.138Z" transform="translate(-19.703 -5.9)" fill="#fff"/>
      </g>
      <g id="Group_7151" data-name="Group 7151" transform="translate(24.348 12.342)">
        <path id="Path_74507" data-name="Path 74507" d="M21.978,7.222a4.411,4.411,0,0,1-.77-.415,2.274,2.274,0,0,1-.658-.485c-.078-.1.052-.216.156-.2a2.465,2.465,0,0,1,.727.39,4.741,4.741,0,0,1,.667.493c.1.078,0,.268-.121.216Z" transform="translate(-20.526 -6.121)" fill="#fff"/>
      </g>
      <g id="Group_7152" data-name="Group 7152" transform="translate(1.009 9.064)">
        <path id="Path_74508" data-name="Path 74508" d="M24.872,7.256a1.175,1.175,0,0,1-1.177-.225,1.194,1.194,0,0,1-.45-1.169.179.179,0,0,1,.346.043,1.317,1.317,0,0,0,.355.874,1.225,1.225,0,0,0,.909.346c.087-.009.087.1.017.13Z" transform="translate(-23.21 -5.742)" fill="#fff"/>
      </g>
    </g>
    <g id="Group_12365" data-name="Group 12365" transform="translate(-67.307 20.806)">
      <path id="Path_76017" data-name="Path 76017" d="M32.039,32.081a2.41,2.41,0,0,1,2.145,3.444,2.6,2.6,0,0,1-4.035.571.451.451,0,0,1-.059-.492,9.011,9.011,0,0,0-.02-8.266A6.369,6.369,0,0,0,26.9,24.169c-.866-.276-1.85.217-1.515,1.24a10.725,10.725,0,0,0,1.319,2.3,22.1,22.1,0,0,0,4.015,4.448c.374.315-.118.964-.531.669a12.463,12.463,0,0,0-4.625-2.3,4.177,4.177,0,0,0-3.916,1.2l.059-.531a8.414,8.414,0,0,0,7.715,3.129c.453-.059.59.649.216.846-1.948,1.082-2.618,4.054-.335,5.2a1.95,1.95,0,0,0,2.519-.512,1.924,1.924,0,0,0,.039-2.4l.748-.571A6.265,6.265,0,0,0,34.971,39.8a1.869,1.869,0,0,0,2.814-1.023c.531-2.224-2.027-4.172-4.094-3.621l-.118-.846c2.106.138,5.215-.59,4.92-3.306A1.732,1.732,0,0,0,36.31,29.4c-1.476.335-2.2,1.693-2.893,2.913l-.728-.433c1.181-1.811,2.736-4.212,1.515-6.4-.216-.374-.748-1.142-1.22-.787a4.1,4.1,0,0,0-.964,1.456,8.209,8.209,0,0,0-.768,3.759c.02.512-.768.512-.787,0a8.62,8.62,0,0,1,1.063-4.625,3.093,3.093,0,0,1,1.26-1.476,1.552,1.552,0,0,1,1.712.59,4.407,4.407,0,0,1,.964,3.641,10.868,10.868,0,0,1-2.047,4.271c-.315.433-1.023.039-.728-.433a6.974,6.974,0,0,1,2.677-3.011,2.859,2.859,0,0,1,3.188.276,3.021,3.021,0,0,1,.807,2.7,3.583,3.583,0,0,1-1.712,2.519,7.246,7.246,0,0,1-4.074.807.434.434,0,0,1-.118-.846,4.3,4.3,0,0,1,5.137,2.834,3.025,3.025,0,0,1-.827,3.287,3.108,3.108,0,0,1-3.149.2A6.971,6.971,0,0,1,31.8,37.355c-.256-.453.354-.964.728-.571a2.929,2.929,0,0,1-1.555,4.684A3.5,3.5,0,0,1,27,37.513a4.49,4.49,0,0,1,2.185-3.129l.354.827a9.2,9.2,0,0,1-8.6-3.562.476.476,0,0,1,.079-.551,4.9,4.9,0,0,1,4.389-1.476,12.5,12.5,0,0,1,5.235,2.48l-.531.669a22.694,22.694,0,0,1-4.133-4.645c-.3-.433-.59-.886-.866-1.358a5.079,5.079,0,0,1-.649-1.456,1.748,1.748,0,0,1,1.181-1.988c1.752-.669,3.543,1.1,4.487,2.4a9.5,9.5,0,0,1,1.811,4.763A8.675,8.675,0,0,1,30.8,36l-.079-.492a1.825,1.825,0,0,0,2.795-.315,1.982,1.982,0,0,0-1.535-2.637c-.276-.039-.2-.453.059-.472Z" transform="translate(-20.881 -23.177)" fill="#fff"/>
    </g>
    <g id="Group_12366" data-name="Group 12366" transform="translate(26.159 78.678)">
      <path id="Path_76021" data-name="Path 76021" d="M23.183,24.48a2.189,2.189,0,0,1-.059,1.948,2.4,2.4,0,0,1-.689.787.767.767,0,0,1-.886.059,1.641,1.641,0,0,1-1-1.732,1.394,1.394,0,0,1,1.515-1.22.2.2,0,0,1,.059.354,1.659,1.659,0,0,0-.886,1,1.029,1.029,0,0,0,.669,1.161c.413.1.846-.492,1-.827a1.91,1.91,0,0,0,.039-1.437c-.059-.138.177-.236.236-.1Z" transform="translate(-20.527 -24.304)" fill="#fff"/>
    </g>
    <g id="Group_12367" data-name="Group 12367" transform="translate(27.587 14.992)">
      <g id="Group_9907" data-name="Group 9907" transform="translate(0 0)">
        <g id="Group_9896" data-name="Group 9896" transform="translate(12.827 29.592)">
          <path id="Path_77233" data-name="Path 77233" d="M98.208,100.4A2.379,2.379,0,1,0,96.27,98.06,2.167,2.167,0,0,0,98.208,100.4Zm0-3.719c.532,0,.983.633.983,1.382s-.451,1.38-.983,1.38-.981-.633-.981-1.38S97.675,96.677,98.208,96.677Z" transform="translate(-96.27 -95.721)" fill="#fff"/>
        </g>
        <g id="Group_9905" data-name="Group 9905" transform="translate(14.287)">
          <g id="Group_9897" data-name="Group 9897" transform="translate(0 4.196)">
            <path id="Path_77234" data-name="Path 77234" d="M97.648,109.372h.015a.482.482,0,0,0,.361-.182c6.726-8.461,12.13-10.747,12.184-10.77a.479.479,0,0,0-.058-.9L103.34,95.7l.152-7.751a.479.479,0,0,0-.192-.395.485.485,0,0,0-.432-.071L95.337,89.92l-3.786-6.135a.478.478,0,0,0-.86.1L85.433,99.579a.482.482,0,0,0,.244.583c6.212,3.028,11.562,8.989,11.614,9.05A.48.48,0,0,0,97.648,109.372Zm11.044-11.255c-1.934,1.09-6.1,3.9-11.067,10.044A44.563,44.563,0,0,0,86.471,99.49l4.8-14.333,3.447,5.584a.479.479,0,0,0,.553.2l7.25-2.343-.146,7.454a.477.477,0,0,0,.355.472Z" transform="translate(-85.409 -83.559)" fill="#fff"/>
          </g>
          <g id="Group_9898" data-name="Group 9898" transform="translate(0.704 17.788)">
            <path id="Path_77235" data-name="Path 77235" d="M103.8,100.153a.477.477,0,0,0,.368-.781c-.238-.29-5.932-7.145-13.067-9.284a.477.477,0,1,0-.274.915c6.851,2.053,12.545,8.908,12.6,8.977A.473.473,0,0,0,103.8,100.153Z" transform="translate(-90.484 -90.068)" fill="#fff"/>
          </g>
          <g id="Group_9899" data-name="Group 9899" transform="translate(3.186)">
            <path id="Path_77236" data-name="Path 77236" d="M96.019,86.7a2.585,2.585,0,1,0-2.8-2.575A2.7,2.7,0,0,0,96.019,86.7Zm0-4.195a1.634,1.634,0,1,1-1.846,1.62A1.747,1.747,0,0,1,96.019,82.505Z" transform="translate(-93.217 -81.549)" fill="#fff"/>
          </g>
          <g id="Group_9900" data-name="Group 9900" transform="translate(16.378 4.197)">
            <path id="Path_77237" data-name="Path 77237" d="M89.7,88.71a2.585,2.585,0,1,0-2.8-2.577A2.7,2.7,0,0,0,89.7,88.71Zm0-4.2a1.634,1.634,0,1,1-1.846,1.62A1.748,1.748,0,0,1,89.7,84.513Z" transform="translate(-86.899 -83.559)" fill="#fff"/>
          </g>
          <g id="Group_9901" data-name="Group 9901" transform="translate(24.14 15.126)">
            <path id="Path_77238" data-name="Path 77238" d="M85.985,93.944a2.585,2.585,0,1,0-2.8-2.577A2.7,2.7,0,0,0,85.985,93.944Zm0-4.195a1.633,1.633,0,1,1-1.846,1.618A1.746,1.746,0,0,1,85.985,89.749Z" transform="translate(-83.183 -88.793)" fill="#fff"/>
          </g>
          <g id="Group_9902" data-name="Group 9902" transform="translate(8.658 13.183)">
            <path id="Path_77239" data-name="Path 77239" d="M92,95.268a2.453,2.453,0,0,0,1.391-.539,7.584,7.584,0,0,0,2.744-4.755,1.872,1.872,0,0,0-.7-1.948c-1.032-.6-2.687.476-3.853,2.491h0c-1.163,2.015-1.261,3.986-.23,4.581A1.267,1.267,0,0,0,92,95.268Zm2.779-6.454a.355.355,0,0,1,.182.042c.188.109.276.51.223,1.021a6.637,6.637,0,0,1-2.355,4.078c-.416.3-.808.426-1,.317-.4-.232-.374-1.622.58-3.276h0C93.249,89.544,94.27,88.814,94.777,88.814Z" transform="translate(-90.64 -87.863)" fill="#fff"/>
          </g>
          <g id="Group_9903" data-name="Group 9903" transform="translate(11.846 19.471)">
            <path id="Path_77240" data-name="Path 77240" d="M91.595,95.518a2.158,2.158,0,0,0,.725-.129,2.581,2.581,0,0,0,1.338-1.146,2.26,2.26,0,0,0-.616-3.115,1.95,1.95,0,0,0-1.67-.121,2.573,2.573,0,0,0-1.336,1.144h0a2.58,2.58,0,0,0-.324,1.731,1.961,1.961,0,0,0,.94,1.386A1.878,1.878,0,0,0,91.595,95.518Zm.5-3.685a.93.93,0,0,1,.468.121,1.312,1.312,0,0,1,.265,1.81,1.618,1.618,0,0,1-.833.725.966.966,0,0,1-1.343-.775,1.6,1.6,0,0,1,.211-1.086h0A1.618,1.618,0,0,1,91.7,91.9,1.183,1.183,0,0,1,92.1,91.833Z" transform="translate(-89.675 -90.874)" fill="#fff"/>
          </g>
          <g id="Group_9904" data-name="Group 9904" transform="translate(3.48 13.536)">
            <path id="Path_77241" data-name="Path 77241" d="M95.6,92.672A2.447,2.447,0,0,0,97.663,91.4a2.26,2.26,0,0,0-.614-3.118,1.965,1.965,0,0,0-1.67-.121,2.577,2.577,0,0,0-1.336,1.146h0a2.556,2.556,0,0,0-.324,1.731,1.951,1.951,0,0,0,.94,1.384A1.862,1.862,0,0,0,95.6,92.672Zm.5-3.683a.934.934,0,0,1,.47.123A1.475,1.475,0,0,1,95.134,91.6a1.02,1.02,0,0,1-.476-.727,1.621,1.621,0,0,1,.211-1.084h0a1.612,1.612,0,0,1,.835-.725A1.175,1.175,0,0,1,96.1,88.989Z" transform="translate(-93.681 -88.032)" fill="#fff"/>
          </g>
        </g>
        <g id="Group_9906" data-name="Group 9906" transform="translate(0 7.448)">
          <path id="Path_77242" data-name="Path 77242" d="M104.393,90.969a2.926,2.926,0,1,0-2.928-2.925A2.931,2.931,0,0,0,104.393,90.969Zm0-4.9a1.97,1.97,0,1,1-1.971,1.971A1.973,1.973,0,0,1,104.393,86.072Z" transform="translate(-101.465 -85.116)" fill="#fff"/>
        </g>
      </g>
    </g>
    <g id="Group_12369" data-name="Group 12369" transform="translate(71.616 65.828)">
      <g id="Group_9281" data-name="Group 9281" transform="translate(8.864 16.162)">
        <path id="Path_76637" data-name="Path 76637" d="M9.361,2.5c2.047.877,2.7,3.456,2.091,5.449A4.784,4.784,0,0,1,7,11.405,4.865,4.865,0,0,1,2.233,8.328,4.938,4.938,0,0,1,3.761,2.8,4.8,4.8,0,0,1,7,1.883,3.689,3.689,0,0,1,9.925,3.356a.144.144,0,0,1-.195.195c-.39-.227-.758-.487-1.159-.672a4.46,4.46,0,0,0-3.922.043A4.251,4.251,0,0,0,2.6,7.527a4.181,4.181,0,0,0,3.77,3.3,4.251,4.251,0,0,0,4.366-2.448A4.782,4.782,0,0,0,11.116,5.4,4.855,4.855,0,0,0,9.307,2.565c-.043-.032.011-.087.054-.065Z" transform="translate(-1.943 -1.869)" fill="#fff"/>
      </g>
      <g id="Group_9282" data-name="Group 9282" transform="translate(9.813 17.323)">
        <path id="Path_76638" data-name="Path 76638" d="M8.209,2.465a3.278,3.278,0,0,1,1.2,1.982,4.712,4.712,0,0,1-.076,2.362,4.024,4.024,0,0,1-3.9,2.827,3.594,3.594,0,0,1-3.3-3A3.882,3.882,0,0,1,4.158,2.53,4.443,4.443,0,0,1,6.92,2.021c.834.141,1.972.682,2,1.657a.193.193,0,0,1-.357.1,2.9,2.9,0,0,0-.693-.8,2.738,2.738,0,0,0-1-.39,3.683,3.683,0,0,0-2.1.271,3.422,3.422,0,0,0-2.188,3.3,3.2,3.2,0,0,0,2.4,2.936A3.493,3.493,0,0,0,8.751,7.058a4.479,4.479,0,0,0-.639-4.5c-.043-.054.043-.141.1-.1Z" transform="translate(-2.064 -1.976)" fill="#fff"/>
      </g>
      <g id="Group_9283" data-name="Group 9283" transform="translate(0 10.113)">
        <path id="Path_76639" data-name="Path 76639" d="M12.9,9.15a24.786,24.786,0,0,1-2.4-1.842c-.8-.628-1.6-1.257-2.394-1.874C6.464,4.166,4.828,2.91,3.17,1.675h.195a.648.648,0,0,0-.141.856,2.592,2.592,0,0,0,.942.8C4.893,3.809,5.6,4.3,6.3,4.806q2.1,1.527,4.052,3.25c.747.661,1.473,1.332,2.177,2.037.217.195-.108.52-.314.314A55.485,55.485,0,0,0,7.894,6.593c-.758-.607-1.538-1.181-2.34-1.755-.39-.282-.78-.552-1.181-.823-.357-.249-.747-.466-1.083-.747A1.486,1.486,0,0,1,2.7,2.216a.951.951,0,0,1,.466-.877.181.181,0,0,1,.195,0C5,2.574,6.615,3.82,8.229,5.076c.812.639,1.625,1.278,2.427,1.917a23.2,23.2,0,0,1,2.362,1.993c.087.076-.022.227-.119.162Z" transform="translate(-2.704 -1.31)" fill="#fff"/>
      </g>
      <g id="Group_9284" data-name="Group 9284" transform="translate(4.238 10.552)">
        <path id="Path_76640" data-name="Path 76640" d="M4.939,1.45A4.048,4.048,0,0,1,3.455,3.887c-.195.162-.487-.119-.292-.292a4.949,4.949,0,0,0,.932-1.029c.249-.368.433-.78.65-1.17.054-.076.206-.054.195.054Z" transform="translate(-3.098 -1.351)" fill="#fff"/>
      </g>
      <g id="Group_9285" data-name="Group 9285" transform="translate(3.489 9.92)">
        <path id="Path_76641" data-name="Path 76641" d="M5.337,2.056A2.106,2.106,0,0,0,4.416,1.6l.206-.108a10.037,10.037,0,0,1-.531,1.213,3.149,3.149,0,0,1-.769,1.062c-.076.065-.249.011-.195-.108a10.253,10.253,0,0,1,.617-1.051,6.768,6.768,0,0,0,.563-1.2A.16.16,0,0,1,4.5,1.3a1.288,1.288,0,0,1,.986.607c.054.1-.054.227-.152.152Z" transform="translate(-3.117 -1.292)" fill="#fff"/>
      </g>
      <g id="Group_9286" data-name="Group 9286" transform="translate(0.97 13.144)">
        <path id="Path_76642" data-name="Path 76642" d="M6.287,2.1A16.192,16.192,0,0,1,4.868,4.3c-.087.108-.184.325-.336.368a.829.829,0,0,1-.455-.054,1.654,1.654,0,0,1-.758-.574.182.182,0,0,1,.032-.227C3.937,3.149,4.381,2.4,4.89,1.7a.226.226,0,0,1,.39.227A8.613,8.613,0,0,1,3.623,4.081l.032-.238a1.11,1.11,0,0,0,.823.412l-.152.054c.607-.758,1.148-1.56,1.69-2.362a.156.156,0,0,1,.271.152Z" transform="translate(-3.291 -1.59)" fill="#fff"/>
      </g>
      <g id="Group_9287" data-name="Group 9287" transform="translate(17.431 10.703)">
        <path id="Path_76643" data-name="Path 76643" d="M8.216,2.689A3.741,3.741,0,0,1,10.144,4.5a3.948,3.948,0,0,1,.3,2.654,4.133,4.133,0,0,1-4.2,3.012A5.776,5.776,0,0,1,1.4,6.784,4.157,4.157,0,0,1,3.157,2.017a4.64,4.64,0,0,1,5.872.953.2.2,0,0,1-.282.282A4.727,4.727,0,0,0,4.023,2.18,3.74,3.74,0,0,0,1.738,5.993C1.976,7.8,3.752,9.037,5.377,9.514A3.664,3.664,0,0,0,8.086,9.34,3.813,3.813,0,0,0,9.819,7.618,3.865,3.865,0,0,0,8.162,2.776c-.065-.032-.011-.119.054-.087Z" transform="translate(-1.185 -1.365)" fill="#fff"/>
      </g>
      <g id="Group_9288" data-name="Group 9288" transform="translate(18.556 11.718)">
        <path id="Path_76644" data-name="Path 76644" d="M6.961,2.71A2.863,2.863,0,0,1,7.98,6.36,3.5,3.5,0,0,1,4.1,8.061,3.376,3.376,0,0,1,1.317,4.5,3.387,3.387,0,0,1,4.545,1.464,3.518,3.518,0,0,1,8.185,4.8a.183.183,0,0,1-.357.043,3.44,3.44,0,0,0-2.7-2.827,2.951,2.951,0,0,0-3.25,1.961,2.877,2.877,0,0,0,.141,2.058A2.955,2.955,0,0,0,3.679,7.509a3.3,3.3,0,0,0,3.694-.867A2.783,2.783,0,0,0,6.9,2.818a.063.063,0,0,1,.065-.108Z" transform="translate(-1.305 -1.459)" fill="#fff"/>
      </g>
      <g id="Group_9289" data-name="Group 9289" transform="translate(20.156 0.09)">
        <path id="Path_76645" data-name="Path 76645" d="M3.889,11.185a33.889,33.889,0,0,1-.271-8.634A.221.221,0,0,1,4.051,2.5a6.882,6.882,0,0,0,2,3.217L5.73,5.9A32.081,32.081,0,0,0,3.683.655l.282.032A9.508,9.508,0,0,0,1.8,4.078L1.43,3.873c.39-.347.78-.693,1.181-1.029a.224.224,0,0,1,.379.162c-.108,1.387-.173,2.773-.184,4.171,0,.672.022,1.354.043,2.026.022.715.1,1.43.087,2.145,0,.195-.314.249-.347.043a18.2,18.2,0,0,1-.152-2.026c-.022-.715-.043-1.43-.043-2.145,0-1.408.043-2.817.141-4.214l.39.152c-.39.347-.791.682-1.181,1.018-.152.13-.455.011-.368-.206A10.292,10.292,0,0,1,3.7.438a.179.179,0,0,1,.282.032A31.368,31.368,0,0,1,6.1,5.8c.054.184-.184.3-.325.184A7.53,7.53,0,0,1,3.618,2.616l.444-.065a61.606,61.606,0,0,0,.054,8.6c.011.13-.206.162-.227.032Z" transform="translate(-1.36 -0.385)" fill="#fff"/>
      </g>
      <g id="Group_9290" data-name="Group 9290" transform="translate(8.583 16.621)">
        <path id="Path_76646" data-name="Path 76646" d="M3.584,4.152c-.13-.357-.227-.726-.368-1.083s-.3-.682-.433-1.04c-.043-.087.1-.162.152-.087A3.9,3.9,0,0,1,3.779,4.12c.011.13-.162.13-.195.033Z" transform="translate(-2.774 -1.911)" fill="#fff"/>
      </g>
      <g id="Group_9291" data-name="Group 9291" transform="translate(7.692 16.179)">
        <path id="Path_76647" data-name="Path 76647" d="M3.53,3.525l-.379-.812A2.4,2.4,0,0,1,2.869,2a.126.126,0,0,1,.217-.087,2.261,2.261,0,0,1,.325.693l.325.834c.043.119-.152.195-.206.087Z" transform="translate(-2.868 -1.87)" fill="#fff"/>
      </g>
      <g id="Group_9292" data-name="Group 9292" transform="translate(6.422 14.913)">
        <path id="Path_76648" data-name="Path 76648" d="M3.831,3.471A3.167,3.167,0,0,1,3.224,2.7a1.355,1.355,0,0,1-.249-.845.129.129,0,0,1,.217-.065,4.43,4.43,0,0,1,.314.737,2.952,2.952,0,0,0,.542.726c.141.13-.076.347-.217.217Z" transform="translate(-2.962 -1.753)" fill="#fff"/>
      </g>
      <g id="Group_9293" data-name="Group 9293" transform="translate(5.417 14.296)">
        <path id="Path_76649" data-name="Path 76649" d="M3.517,3.143A4.895,4.895,0,0,1,3.1,1.81c-.011-.119.162-.152.217-.065a4.776,4.776,0,0,1,.477,1.278c.043.162-.195.282-.271.119Z" transform="translate(-3.095 -1.696)" fill="#fff"/>
      </g>
      <g id="Group_9294" data-name="Group 9294" transform="translate(4.121 13.269)">
        <path id="Path_76650" data-name="Path 76650" d="M3.9,3.209A11.368,11.368,0,0,1,3.2,1.736c-.043-.119.13-.184.195-.087A11.742,11.742,0,0,1,4.09,3.09c.054.13-.13.238-.195.119Z" transform="translate(-3.195 -1.602)" fill="#fff"/>
      </g>
      <g id="Group_9295" data-name="Group 9295" transform="translate(3.061 12.407)">
        <path id="Path_76651" data-name="Path 76651" d="M3.752,2.9A2.084,2.084,0,0,0,3.6,2.215a5.134,5.134,0,0,1-.282-.542.122.122,0,0,1,.184-.13A1.587,1.587,0,0,1,3.991,2.9a.119.119,0,1,1-.238,0Z" transform="translate(-3.314 -1.522)" fill="#fff"/>
      </g>
      <g id="Group_9296" data-name="Group 9296" transform="translate(2.052 11.789)">
        <path id="Path_76652" data-name="Path 76652" d="M4.038,2.873A10.823,10.823,0,0,1,3.4,1.594c-.043-.119.119-.173.184-.087a11.414,11.414,0,0,1,.639,1.257c.054.13-.119.238-.184.108Z" transform="translate(-3.392 -1.465)" fill="#fff"/>
      </g>
      <g id="Group_9297" data-name="Group 9297" transform="translate(0.824 10.727)">
        <path id="Path_76653" data-name="Path 76653" d="M4.1,2.591c-.13-.195-.249-.39-.368-.6A1.277,1.277,0,0,1,3.5,1.465a.1.1,0,0,1,.141-.087,1.266,1.266,0,0,1,.368.455c.119.195.238.4.357.6.1.173-.173.336-.271.162Z" transform="translate(-3.501 -1.367)" fill="#fff"/>
      </g>
      <g id="Group_9298" data-name="Group 9298" transform="translate(2.687 13.495)">
        <path id="Path_76654" data-name="Path 76654" d="M3.743,2.819l-.249-.6a1.287,1.287,0,0,1-.141-.52.081.081,0,0,1,.141-.054,1.041,1.041,0,0,1,.26.466l.227.607c.054.13-.173.238-.238.1Z" transform="translate(-3.352 -1.623)" fill="#fff"/>
      </g>
      <g id="Group_9299" data-name="Group 9299" transform="translate(2.059 13.685)">
        <path id="Path_76655" data-name="Path 76655" d="M4,3.07l-.368-.715a1.664,1.664,0,0,1-.238-.617.106.106,0,0,1,.173-.076,1.585,1.585,0,0,1,.347.585l.336.672c.076.173-.173.314-.249.152Z" transform="translate(-3.389 -1.64)" fill="#fff"/>
      </g>
      <g id="Group_9300" data-name="Group 9300" transform="translate(1.879 14.773)">
        <path id="Path_76656" data-name="Path 76656" d="M3.8,2.7c-.13-.292-.26-.585-.368-.888-.032-.065.076-.1.108-.043.173.26.325.542.477.812.087.141-.152.271-.217.119Z" transform="translate(-3.429 -1.74)" fill="#fff"/>
      </g>
      <g id="Group_9301" data-name="Group 9301" transform="translate(3.912 11.342)">
        <path id="Path_76657" data-name="Path 76657" d="M3.667,2.888a3.7,3.7,0,0,1-.433-1.332.138.138,0,0,1,.249-.076,3.434,3.434,0,0,1,.444,1.3c.022.141-.184.26-.26.108Z" transform="translate(-3.234 -1.424)" fill="#fff"/>
      </g>
      <g id="Group_9302" data-name="Group 9302" transform="translate(4.304 10.751)">
        <path id="Path_76658" data-name="Path 76658" d="M3.432,2.472A1.019,1.019,0,0,0,3.4,1.963c-.043-.162-.141-.292-.184-.444-.043-.108.087-.173.173-.141.412.184.466.823.379,1.192-.054.217-.39.119-.336-.1Z" transform="translate(-3.207 -1.369)" fill="#fff"/>
      </g>
      <g id="Group_9303" data-name="Group 9303" transform="translate(4.712 10.294)">
        <path id="Path_76659" data-name="Path 76659" d="M3.195,2.085V1.728a.583.583,0,0,1,.054-.336.123.123,0,0,1,.217,0,.583.583,0,0,1,.054.336v.357a.162.162,0,1,1-.325,0Z" transform="translate(-3.194 -1.327)" fill="#fff"/>
      </g>
      <g id="Group_9304" data-name="Group 9304" transform="translate(16.119 17.411)">
        <path id="Path_76660" data-name="Path 76660" d="M3.775,4.877C3.19,3.988,2.584,3.1,2.02,2.19c-.1-.152.141-.292.238-.141C2.811,2.97,3.331,3.9,3.873,4.822a.056.056,0,1,1-.1.054Z" transform="translate(-1.997 -1.984)" fill="#fff"/>
      </g>
      <g id="Group_9305" data-name="Group 9305" transform="translate(16.787 19.347)">
        <path id="Path_76661" data-name="Path 76661" d="M3.2,4.44A12.076,12.076,0,0,1,1.983,2.285c-.032-.087.1-.162.162-.1A12.438,12.438,0,0,1,3.391,4.332.112.112,0,0,1,3.2,4.44Z" transform="translate(-1.978 -2.163)" fill="#fff"/>
      </g>
      <g id="Group_9306" data-name="Group 9306" transform="translate(16.814 20.813)">
        <path id="Path_76662" data-name="Path 76662" d="M2.977,3.955A11.779,11.779,0,0,1,2,2.428c-.043-.076.065-.184.141-.1A11.247,11.247,0,0,1,3.215,3.814c.1.152-.141.282-.238.141Z" transform="translate(-1.992 -2.298)" fill="#fff"/>
      </g>
      <g id="Group_9307" data-name="Group 9307" transform="translate(17.149 22.299)">
        <path id="Path_76663" data-name="Path 76663" d="M2.488,3.452a1.265,1.265,0,0,1-.477-.91.112.112,0,0,1,.217-.032,1.85,1.85,0,0,0,.444.758c.13.108-.054.292-.184.184Z" transform="translate(-2.011 -2.435)" fill="#fff"/>
      </g>
      <g id="Group_9308" data-name="Group 9308" transform="translate(16.188 22.536)">
        <path id="Path_76664" data-name="Path 76664" d="M3.055,4.059a9.062,9.062,0,0,1-1-1.506.062.062,0,0,1,.1-.076,10.261,10.261,0,0,1,1.1,1.452c.1.13-.119.249-.206.13Z" transform="translate(-2.051 -2.457)" fill="#fff"/>
      </g>
      <g id="Group_9309" data-name="Group 9309" transform="translate(15.509 23.369)">
        <path id="Path_76665" data-name="Path 76665" d="M2.957,3.563a7.083,7.083,0,0,1-.812-.9c-.054-.065.043-.162.119-.119a7.9,7.9,0,0,1,.888.812c.13.13-.065.336-.195.206Z" transform="translate(-2.129 -2.534)" fill="#fff"/>
      </g>
      <g id="Group_9310" data-name="Group 9310" transform="translate(14.889 23.595)">
        <path id="Path_76666" data-name="Path 76666" d="M3.206,3.77a8.291,8.291,0,0,1-1.029-1.1.076.076,0,0,1,.108-.1,7.559,7.559,0,0,1,1.1,1.018.131.131,0,0,1-.184.184Z" transform="translate(-2.169 -2.555)" fill="#fff"/>
      </g>
      <g id="Group_9311" data-name="Group 9311" transform="translate(14.062 24.189)">
        <path id="Path_76667" data-name="Path 76667" d="M3.405,3.859A16.061,16.061,0,0,0,2.246,2.743a.078.078,0,0,1,.076-.13A2.565,2.565,0,0,1,3.676,3.7c.119.162-.152.314-.271.162Z" transform="translate(-2.224 -2.61)" fill="#fff"/>
      </g>
      <g id="Group_9312" data-name="Group 9312" transform="translate(13.588 24.622)">
        <path id="Path_76668" data-name="Path 76668" d="M3.136,3.618a1.5,1.5,0,0,0-.78-.769c-.108-.054-.032-.227.087-.195a1.521,1.521,0,0,1,.942.9c.065.152-.184.217-.249.065Z" transform="translate(-2.304 -2.65)" fill="#fff"/>
      </g>
      <g id="Group_9313" data-name="Group 9313" transform="translate(16.755 17.837)">
        <path id="Path_76669" data-name="Path 76669" d="M3.1,4.1c-.206-.325-.412-.639-.607-.964a3.929,3.929,0,0,1-.5-.942.136.136,0,0,1,.227-.13,3.691,3.691,0,0,1,.563.9c.195.336.357.672.531,1.007A.127.127,0,0,1,3.1,4.1Z" transform="translate(-1.989 -2.023)" fill="#fff"/>
      </g>
      <g id="Group_9314" data-name="Group 9314" transform="translate(14.655 16.818)">
        <path id="Path_76670" data-name="Path 76670" d="M3.262,3.183c-.195-.184-.39-.357-.574-.542l-.26-.26A1.931,1.931,0,0,1,2.2,2.089c-.054-.087.065-.206.152-.141a1.126,1.126,0,0,1,.26.184l.3.282c.173.195.357.39.531.574.119.13-.065.314-.184.195Z" transform="translate(-2.186 -1.929)" fill="#fff"/>
      </g>
      <g id="Group_9315" data-name="Group 9315" transform="translate(12.995 16.195)">
        <path id="Path_76671" data-name="Path 76671" d="M3.408,3.315q-.325-.325-.617-.682a2.185,2.185,0,0,1-.444-.639.1.1,0,0,1,.141-.108,2.227,2.227,0,0,1,.6.6c.184.217.357.444.531.672.087.13-.108.271-.206.162Z" transform="translate(-2.34 -1.872)" fill="#fff"/>
      </g>
      <g id="Group_9316" data-name="Group 9316" transform="translate(11.943 16.36)">
        <path id="Path_76672" data-name="Path 76672" d="M3.46,2.992a4.889,4.889,0,0,1-1.007-.942c-.065-.1.065-.195.162-.152a2.371,2.371,0,0,1,.542.39c.184.152.357.314.542.466.152.141-.076.368-.238.238Z" transform="translate(-2.435 -1.887)" fill="#fff"/>
      </g>
      <g id="Group_9317" data-name="Group 9317" transform="translate(11.08 16.627)">
        <path id="Path_76673" data-name="Path 76673" d="M3.373,2.966,2.9,2.5a1.308,1.308,0,0,1-.357-.455.108.108,0,0,1,.13-.13,1.308,1.308,0,0,1,.455.357l.466.477a.153.153,0,0,1-.217.217Z" transform="translate(-2.535 -1.912)" fill="#fff"/>
      </g>
      <g id="Group_9318" data-name="Group 9318" transform="translate(10.664 17.034)">
        <path id="Path_76674" data-name="Path 76674" d="M3.216,3.182A5.77,5.77,0,0,1,2.6,2.088c-.043-.108.108-.184.184-.108a6.3,6.3,0,0,1,.693,1.051c.1.162-.162.314-.26.152Z" transform="translate(-2.591 -1.949)" fill="#fff"/>
      </g>
      <g id="Group_9319" data-name="Group 9319" transform="translate(9.981 17.735)">
        <path id="Path_76675" data-name="Path 76675" d="M3.747,3.38,3.14,2.773a2.5,2.5,0,0,1-.52-.607c-.032-.1.043-.184.13-.141a2.184,2.184,0,0,1,.6.542l.585.628a.13.13,0,0,1-.184.184Z" transform="translate(-2.612 -2.014)" fill="#fff"/>
      </g>
      <g id="Group_9320" data-name="Group 9320" transform="translate(9.592 18.293)">
        <path id="Path_76676" data-name="Path 76676" d="M3.326,2.928,2.99,2.6a2.915,2.915,0,0,1-.282-.357.12.12,0,0,1,.162-.162,2.915,2.915,0,0,1,.357.282l.314.336a.157.157,0,0,1-.217.227Z" transform="translate(-2.691 -2.065)" fill="#fff"/>
      </g>
      <g id="Group_9321" data-name="Group 9321" transform="translate(9.179 18.69)">
        <path id="Path_76677" data-name="Path 76677" d="M3.561,3.4l-.477-.585a1.7,1.7,0,0,1-.368-.552A.123.123,0,0,1,2.9,2.123a1.9,1.9,0,0,1,.455.477l.444.563c.13.162-.108.4-.238.238Z" transform="translate(-2.708 -2.102)" fill="#fff"/>
      </g>
      <g id="Group_9322" data-name="Group 9322" transform="translate(9.371 19.984)">
        <path id="Path_76678" data-name="Path 76678" d="M3.437,3.082a.9.9,0,0,1-.726-.747.116.116,0,0,1,.217-.054.791.791,0,0,0,.585.52c.173.043.1.314-.076.282Z" transform="translate(-2.711 -2.222)" fill="#fff"/>
      </g>
      <g id="Group_9323" data-name="Group 9323" transform="translate(9.71 21.132)">
        <path id="Path_76679" data-name="Path 76679" d="M2.763,2.351v0Z" transform="translate(-2.763 -2.327)" fill="#fff"/>
      </g>
      <g id="Group_9324" data-name="Group 9324" transform="translate(21.562 8.786)">
        <path id="Path_76680" data-name="Path 76680" d="M2.423,2.435a1.546,1.546,0,0,0-.314-.607c-.141-.173-.357-.249-.5-.4a.142.142,0,0,1,.1-.238c.26-.022.531.238.682.433a1.118,1.118,0,0,1,.238.78.105.105,0,0,1-.206.032Z" transform="translate(-1.571 -1.188)" fill="#fff"/>
      </g>
      <g id="Group_9325" data-name="Group 9325" transform="translate(21.544 7.77)">
        <path id="Path_76681" data-name="Path 76681" d="M2.411,2.567A8.259,8.259,0,0,1,1.577,1.3a.137.137,0,0,1,.217-.162A9.521,9.521,0,0,1,2.7,2.394c.13.184-.173.357-.292.173Z" transform="translate(-1.562 -1.094)" fill="#fff"/>
      </g>
      <g id="Group_9326" data-name="Group 9326" transform="translate(21.541 6.751)">
        <path id="Path_76682" data-name="Path 76682" d="M2.248,2.213C2.129,2.04,2,1.856,1.88,1.671a2.062,2.062,0,0,1-.292-.52c-.043-.13.119-.195.206-.119a2.368,2.368,0,0,1,.379.477c.119.173.238.357.357.542s-.162.336-.282.162Z" transform="translate(-1.58 -1)" fill="#fff"/>
      </g>
      <g id="Group_9327" data-name="Group 9327" transform="translate(21.374 5.047)">
        <path id="Path_76683" data-name="Path 76683" d="M2.177,2.265a2.24,2.24,0,0,0-.227-.672c-.1-.195-.249-.368-.336-.574C1.571.911,1.657.8,1.777.857A1.893,1.893,0,0,1,2.5,2.179c.032.217-.292.3-.325.087Z" transform="translate(-1.603 -0.843)" fill="#fff"/>
      </g>
      <g id="Group_9328" data-name="Group 9328" transform="translate(21.601 4.019)">
        <path id="Path_76684" data-name="Path 76684" d="M1.751,1.519,1.665,1.2C1.643,1.1,1.643.977,1.621.869S1.741.7,1.795.793s.119.195.162.3l.13.336c.087.206-.282.314-.336.087Z" transform="translate(-1.621 -0.748)" fill="#fff"/>
      </g>
      <g id="Group_9329" data-name="Group 9329" transform="translate(21.377 2.555)">
        <path id="Path_76685" data-name="Path 76685" d="M2.2,2.046c-.217-.422-.4-.856-.585-1.289-.043-.108.1-.206.162-.1.238.412.466.812.682,1.235.087.173-.173.336-.26.152Z" transform="translate(-1.605 -0.613)" fill="#fff"/>
      </g>
      <g id="Group_9330" data-name="Group 9330" transform="translate(21.481 2.642)">
        <path id="Path_76686" data-name="Path 76686" d="M1.676.627v0Z" transform="translate(-1.676 -0.621)" fill="#fff"/>
      </g>
      <g id="Group_9331" data-name="Group 9331" transform="translate(21.234 1.47)">
        <path id="Path_76687" data-name="Path 76687" d="M2.033,1.753c.022.076.108-.022.141-.065l-.032.152c-.033-.108.032-.173-.033-.282s-.206-.195-.292-.3A.583.583,0,0,1,1.676.561a.12.12,0,0,1,.217.065c-.022.282.379.444.531.639a.508.508,0,0,1,.065.607.221.221,0,0,1-.217.087H2.25l.119-.022c-.173.087-.422.076-.477-.141a.074.074,0,0,1,.141-.043Z" transform="translate(-1.611 -0.512)" fill="#fff"/>
      </g>
      <g id="Group_9332" data-name="Group 9332" transform="translate(21.422 1.05)">
        <path id="Path_76688" data-name="Path 76688" d="M2.539,1.939A6.3,6.3,0,0,0,1.6.628.089.089,0,0,1,1.7.487a2.382,2.382,0,0,1,.672.552,2.785,2.785,0,0,1,.422.791c.054.152-.184.249-.26.108Z" transform="translate(-1.567 -0.474)" fill="#fff"/>
      </g>
      <g id="Group_9333" data-name="Group 9333" transform="translate(21.728 0)">
        <path id="Path_76689" data-name="Path 76689" d="M3.85,4.517C3.417,3.856,2.995,3.2,2.572,2.535c-.217-.325-.412-.65-.607-.986a3.6,3.6,0,0,1-.552-1A.151.151,0,0,1,1.662.411a3.479,3.479,0,0,1,.6.91c.206.336.422.682.617,1.029.39.682.78,1.376,1.17,2.058a.112.112,0,0,1-.195.108Z" transform="translate(-1.409 -0.377)" fill="#fff"/>
      </g>
      <g id="Group_9334" data-name="Group 9334" transform="translate(21.747 9.43)">
        <path id="Path_76690" data-name="Path 76690" d="M2.429,2.565a5.011,5.011,0,0,1-.867-1.094.157.157,0,0,1,.249-.184A4.65,4.65,0,0,1,2.678,2.37c.108.152-.13.325-.249.195Z" transform="translate(-1.544 -1.247)" fill="#fff"/>
      </g>
      <g id="Group_9335" data-name="Group 9335" transform="translate(23.678 11.503)">
        <path id="Path_76691" data-name="Path 76691" d="M3.9,4.746c-.9-1-1.787-2-2.643-3.044-.119-.152.087-.357.217-.217.867,1.04,1.7,2.112,2.524,3.185.043.054-.054.13-.1.076Z" transform="translate(-1.216 -1.439)" fill="#fff"/>
      </g>
      <g id="Group_9336" data-name="Group 9336" transform="translate(25.573 14.716)">
        <path id="Path_76692" data-name="Path 76692" d="M2.233,3.6,1.669,2.73a3.168,3.168,0,0,1-.487-.845.124.124,0,0,1,.206-.119,3.163,3.163,0,0,1,.542.8l.542.9c.087.141-.141.271-.238.13Z" transform="translate(-1.177 -1.735)" fill="#fff"/>
      </g>
      <g id="Group_9337" data-name="Group 9337" transform="translate(25.346 15.746)">
        <path id="Path_76693" data-name="Path 76693" d="M2.1,3.495l-.487-.758A2.669,2.669,0,0,1,1.222,2a.136.136,0,0,1,.227-.13,2.5,2.5,0,0,1,.444.7l.412.8a.119.119,0,1,1-.206.119Z" transform="translate(-1.217 -1.83)" fill="#fff"/>
      </g>
      <g id="Group_9338" data-name="Group 9338" transform="translate(24.75 16.421)">
        <path id="Path_76694" data-name="Path 76694" d="M2.113,2.936a4.982,4.982,0,0,1-.823-.9c-.054-.076.054-.184.13-.13a5.34,5.34,0,0,1,.888.823.142.142,0,0,1-.195.206Z" transform="translate(-1.275 -1.893)" fill="#fff"/>
      </g>
      <g id="Group_9339" data-name="Group 9339" transform="translate(24.299 16.826)">
        <path id="Path_76695" data-name="Path 76695" d="M2.366,3.4l-.574-.65A2.777,2.777,0,0,1,1.3,2.114c-.043-.1.054-.238.162-.162A5.85,5.85,0,0,1,2.583,3.2c.119.141-.087.357-.217.206Z" transform="translate(-1.294 -1.93)" fill="#fff"/>
      </g>
      <g id="Group_9340" data-name="Group 9340" transform="translate(23.722 17.657)">
        <path id="Path_76696" data-name="Path 76696" d="M2.56,3.288a8.464,8.464,0,0,0-1.2-1.127c-.065-.054.011-.173.087-.152a3.031,3.031,0,0,1,1.343,1.1c.087.13-.13.3-.227.173Z" transform="translate(-1.333 -2.007)" fill="#fff"/>
      </g>
      <g id="Group_9341" data-name="Group 9341" transform="translate(23.253 18.098)">
        <path id="Path_76697" data-name="Path 76697" d="M2.262,3.31l-.477-.585a1.845,1.845,0,0,1-.368-.542.109.109,0,0,1,.162-.119,1.863,1.863,0,0,1,.444.477l.444.563c.119.141-.087.357-.206.206Z" transform="translate(-1.412 -2.047)" fill="#fff"/>
      </g>
      <g id="Group_9342" data-name="Group 9342" transform="translate(22.867 18.741)">
        <path id="Path_76698" data-name="Path 76698" d="M2.1,2.911c-.206-.206-.412-.433-.607-.65a.092.092,0,0,1,.13-.13c.217.206.433.4.65.617.108.108-.065.271-.173.162Z" transform="translate(-1.471 -2.107)" fill="#fff"/>
      </g>
      <g id="Group_9343" data-name="Group 9343" transform="translate(22.877 11.204)">
        <path id="Path_76699" data-name="Path 76699" d="M1.921,2.548A8.02,8.02,0,0,1,1.5,1.487c-.022-.065.087-.108.119-.043A9.082,9.082,0,0,1,2.051,2.5c.032.087-.1.119-.13.043Z" transform="translate(-1.496 -1.411)" fill="#fff"/>
      </g>
      <g id="Group_9344" data-name="Group 9344" transform="translate(22.585 10.473)">
        <path id="Path_76700" data-name="Path 76700" d="M2.358,2.876a7.157,7.157,0,0,1-.477-.65,2.21,2.21,0,0,1-.412-.682c-.022-.119.119-.26.238-.173a2.423,2.423,0,0,1,.455.585c.152.238.3.477.444.726.076.152-.13.347-.249.195Z" transform="translate(-1.467 -1.344)" fill="#fff"/>
      </g>
      <g id="Group_9345" data-name="Group 9345" transform="translate(22.001 10.523)">
        <path id="Path_76701" data-name="Path 76701" d="M2.306,2.766a2.853,2.853,0,0,0-.336-.682c-.141-.195-.3-.368-.433-.574-.043-.076.032-.195.13-.152a1.952,1.952,0,0,1,.975,1.322c.065.217-.271.3-.336.087Z" transform="translate(-1.524 -1.348)" fill="#fff"/>
      </g>
      <g id="Group_9346" data-name="Group 9346" transform="translate(21.345 10.48)">
        <path id="Path_76702" data-name="Path 76702" d="M2.456,2.664,1.968,2.09a2.146,2.146,0,0,1-.379-.563.147.147,0,0,1,.217-.162,1.737,1.737,0,0,1,.455.477L2.7,2.4c.13.184-.108.433-.249.26Z" transform="translate(-1.582 -1.344)" fill="#fff"/>
      </g>
      <g id="Group_9347" data-name="Group 9347" transform="translate(20.714 10.532)">
        <path id="Path_76703" data-name="Path 76703" d="M2.313,2.41a3.128,3.128,0,0,1-.639-.921c-.054-.119.119-.173.195-.119a3.051,3.051,0,0,1,.682.856c.087.141-.119.314-.238.184Z" transform="translate(-1.663 -1.349)" fill="#fff"/>
      </g>
      <g id="Group_9348" data-name="Group 9348" transform="translate(19.899 10.293)">
        <path id="Path_76704" data-name="Path 76704" d="M2.59,3.191,2.1,2.324a2.972,2.972,0,0,1-.379-.845.125.125,0,0,1,.206-.119,2.56,2.56,0,0,1,.455.8l.422.9c.076.152-.141.282-.217.13Z" transform="translate(-1.721 -1.327)" fill="#fff"/>
      </g>
      <g id="Group_9349" data-name="Group 9349" transform="translate(19.496 10.694)">
        <path id="Path_76705" data-name="Path 76705" d="M2.364,2.643a4.766,4.766,0,0,1-.585-1.116A.134.134,0,0,1,2,1.4,4.965,4.965,0,0,1,2.667,2.47a.175.175,0,0,1-.3.173Z" transform="translate(-1.775 -1.364)" fill="#fff"/>
      </g>
      <g id="Group_9350" data-name="Group 9350" transform="translate(18.814 11.345)">
        <path id="Path_76706" data-name="Path 76706" d="M2.7,3.3l-.477-.867a3.479,3.479,0,0,1-.4-.834c-.032-.119.13-.238.217-.13a3.446,3.446,0,0,1,.466.791l.444.888c.087.173-.162.314-.249.152Z" transform="translate(-1.816 -1.424)" fill="#fff"/>
      </g>
      <g id="Group_9351" data-name="Group 9351" transform="translate(18.604 12.199)">
        <path id="Path_76707" data-name="Path 76707" d="M2.49,2.924a3.263,3.263,0,0,0-.271-.7,3.807,3.807,0,0,1-.357-.563c-.043-.108.108-.184.195-.141A2,2,0,0,1,2.8,2.837c.043.206-.271.292-.314.087Z" transform="translate(-1.854 -1.503)" fill="#fff"/>
      </g>
      <g id="Group_9352" data-name="Group 9352" transform="translate(18.252 13.001)">
        <path id="Path_76708" data-name="Path 76708" d="M2.647,3.289,2.224,2.5a3.2,3.2,0,0,1-.347-.758.134.134,0,0,1,.217-.13,3.36,3.36,0,0,1,.422.715l.412.791c.1.195-.184.357-.282.173Z" transform="translate(-1.875 -1.577)" fill="#fff"/>
      </g>
      <g id="Group_9353" data-name="Group 9353" transform="translate(17.602 13.057)">
        <path id="Path_76709" data-name="Path 76709" d="M2.923,3.65,2.37,2.664A4.611,4.611,0,0,1,1.915,1.7a.1.1,0,0,1,.162-.087,4.271,4.271,0,0,1,.585.877l.542,1c.108.184-.184.357-.282.162Z" transform="translate(-1.913 -1.582)" fill="#fff"/>
      </g>
      <g id="Group_9354" data-name="Group 9354" transform="translate(17.804 14.679)">
        <path id="Path_76710" data-name="Path 76710" d="M2.742,3.218,2.3,2.546a2.761,2.761,0,0,1-.379-.639.139.139,0,0,1,.227-.141,3.514,3.514,0,0,1,.433.617L3,3.066c.119.162-.152.325-.26.152Z" transform="translate(-1.912 -1.732)" fill="#fff"/>
      </g>
      <g id="Group_9355" data-name="Group 9355" transform="translate(19.054 10.536)">
        <path id="Path_76711" data-name="Path 76711" d="M3.953,1.53a5.913,5.913,0,0,0-1.072.628c-.357.249-.661.563-1,.834-.087.076-.26-.022-.173-.13A5.334,5.334,0,0,1,3.877,1.356c.1-.043.162.13.076.173Z" transform="translate(-1.687 -1.349)" fill="#fff"/>
      </g>
      <g id="Group_9356" data-name="Group 9356" transform="translate(18.449 10.033)">
        <path id="Path_76712" data-name="Path 76712" d="M4.722,1.52A3.44,3.44,0,0,0,3,2.278a3.538,3.538,0,0,0-.65.682,8.386,8.386,0,0,1-.455.737.137.137,0,0,1-.227-.1,1.833,1.833,0,0,1,.444-.877A3.5,3.5,0,0,1,2.8,2.029,3.743,3.743,0,0,1,4.69,1.3c.119-.011.152.195.033.217Z" transform="translate(-1.667 -1.303)" fill="#fff"/>
      </g>
      <g id="Group_9357" data-name="Group 9357" transform="translate(18.39 10.301)">
        <path id="Path_76713" data-name="Path 76713" d="M4.594,1.558A4.488,4.488,0,0,0,1.95,4.039a.143.143,0,0,1-.26-.108,4.03,4.03,0,0,1,2.849-2.6.117.117,0,0,1,.054.227Z" transform="translate(-1.685 -1.328)" fill="#fff"/>
      </g>
    </g>
  </g>
</svg>
