<svg xmlns="http://www.w3.org/2000/svg" xmlns:xlink="http://www.w3.org/1999/xlink" width="121" height="166.001" viewBox="0 0 121 166.001">
  <defs>
    <clipPath id="clip-path">
      <path id="heart" d="M79.092,0A30.055,30.055,0,0,0,54.546,12.778,30.055,30.055,0,0,0,30,0C14.018,0,0,14.87,0,31.818c0,16.518,9.327,33.531,26.975,49.2A145.115,145.115,0,0,0,53.712,99.8a1.822,1.822,0,0,0,1.669,0A145.13,145.13,0,0,0,82.109,81.019c17.656-15.67,26.984-32.682,26.984-49.2C109.092,14.87,95.074,0,79.092,0Z" transform="translate(68 259)" fill="#f36"/>
    </clipPath>
  </defs>
  <g id="Group_6275" data-name="Group 6275" transform="translate(-127 -259)">
    <text id="indulge" transform="translate(188 407)" fill="#07d3df" font-size="60" font-family="FrenchScriptMT, French Script MT"><tspan x="-59" y="0">indulge</tspan></text>
    <g id="heart-2" data-name="heart" transform="translate(99.553 350.72)">
      <path id="Path_74111" data-name="Path 74111" d="M62.587,20.512c.563.574.421,1.62-.874,2.4a.4.4,0,0,1-.281.049c-1.481-.3-1.964-1.237-1.625-1.967a.878.878,0,0,1,1.39-.228A.881.881,0,0,1,62.587,20.512Z" transform="translate(-25.115)" fill="#f36"/>
      <path id="Path_74112" data-name="Path 74112" d="M45.947,39.454c.746.895.418,2.387-1.544,3.354a.572.572,0,0,1-.411.037c-2.1-.6-2.69-2.015-2.113-3.029a1.274,1.274,0,0,1,2.037-.165,1.27,1.27,0,0,1,2.031-.2Z" transform="translate(-11.074 -14.606)" fill="#f36"/>
      <path id="Path_74113" data-name="Path 74113" d="M78.51,35.218c.667,1.5-.356,3.4-3.4,3.957a.8.8,0,0,1-.572-.109c-2.62-1.634-2.869-3.778-1.7-4.931a1.8,1.8,0,0,1,2.829.565,1.794,1.794,0,0,1,2.835.519Z" transform="translate(-34.825 -10.435)" fill="#f36"/>
      <path id="Path_74114" data-name="Path 74114" d="M39.793,60.922c2.267,2.527,1.476,6.911-4.138,9.943a1.668,1.668,0,0,1-1.2.151c-6.193-1.534-8.053-5.586-6.484-8.6,1-1.918,4.48-2.753,5.915-.7.876-2.344,4.456-2.4,5.9-.794Z" transform="translate(0 -30.785)" fill="#f36"/>
    </g>
    <g id="Group_6274" data-name="Group 6274">
      <path id="Path_74110" data-name="Path 74110" d="M106.4,60.3a50,50,0,1,1-50,50A50.024,50.024,0,0,1,106.4,60.3Z" transform="translate(81.6 198.697)" fill="none" fill-rule="evenodd"/>
      <g id="Mask_Group_267" data-name="Mask Group 267" transform="translate(64.953)" clip-path="url(#clip-path)">
        <g id="Group_6273" data-name="Group 6273" transform="translate(-65.023 -13)">
          <path id="Path_74106" data-name="Path 74106" d="M158.843,128.145a7.059,7.059,0,1,1-7.059,7.059A7.062,7.062,0,0,1,158.843,128.145Z" transform="translate(44.733 172.475)" fill="#11cbd7" fill-rule="evenodd"/>
          <path id="Path_74107" data-name="Path 74107" d="M108.953,153.115a5.832,5.832,0,1,1-5.832,5.832A5.835,5.835,0,0,1,108.953,153.115Z" transform="translate(63.542 162.824)" fill="#f36" fill-rule="evenodd"/>
          <path id="Path_74108" data-name="Path 74108" d="M84.411,189.148c-5.07-8.7-8.928-30.4-9.824-36.1-1.149-7.318-3.648-11.658.26-12.946,4.191-1.382,7.3,10.124,15.574,19.218,8.91,9.791,20.778,3.336,23.119,9.492,1.2,3.163-6.952,6.018-10.361,10.463-5.541,7.224-5.046,11.855-4.759,18.629" transform="translate(75.286 167.898)" fill="#f36" fill-rule="evenodd"/>
          <path id="Path_74109" data-name="Path 74109" d="M148.956,197.1c-.828-3.671-.279-7.744-.591-11.478-.5-5.934-2.3-12.148-5.933-16.945a22.732,22.732,0,0,0-5.854-5.663c-2.346-1.467-4.98-2.439-7.161-4.173-1.761-1.4-4.046-4.02-3.67-6.5.441-2.912,4.225-2.608,6.332-2.422,6.664.587,13.365,1.458,19.912-.521,6.064-1.834,10.351-6.409,14.14-11.224.64-.814,2.943-3.914,4.437-3.105,2.425,1.312,2.126,5.934,2.214,8.174a71.983,71.983,0,0,1-3.68,26.614c-2.279,6.6-5.338,13.728-10.233,18.833" transform="translate(54.813 169.85)" fill="#11cbd7" fill-rule="evenodd"/>
        </g>
      </g>
      <path id="heart-3" data-name="heart" d="M79.092,0A30.055,30.055,0,0,0,54.546,12.778,30.055,30.055,0,0,0,30,0C14.018,0,0,14.87,0,31.818c0,16.518,9.327,33.531,26.975,49.2A145.115,145.115,0,0,0,53.712,99.8a1.822,1.822,0,0,0,1.669,0A145.13,145.13,0,0,0,82.109,81.019c17.656-15.67,26.984-32.682,26.984-49.2C109.092,14.87,95.074,0,79.092,0ZM54.546,96.115c-6.678-3.685-50.91-29.431-50.91-64.3C3.636,16.806,15.955,3.636,30,3.636A26.417,26.417,0,0,1,52.962,17.075a1.893,1.893,0,0,0,3.168,0A26.417,26.417,0,0,1,79.092,3.636c14.046,0,26.364,13.17,26.364,28.182,0,34.865-44.232,60.612-50.91,64.3Zm0,0" transform="translate(133 259)" fill="#f36"/>
    </g>
  </g>
</svg>
