<svg xmlns="http://www.w3.org/2000/svg" xmlns:xlink="http://www.w3.org/1999/xlink" width="81.64" height="200" viewBox="0 0 81.64 200">
  <defs>
    <linearGradient id="linear-gradient" x1="1722.479" y1="-71.797" x2="1722.073" y2="-72.037" gradientUnits="objectBoundingBox">
      <stop offset="0.008" stop-color="#f17954"/>
      <stop offset="0.992" stop-color="#f17954"/>
    </linearGradient>
    <linearGradient id="linear-gradient-2" x1="47.321" y1="0.5" x2="48.321" y2="0.5" gradientUnits="objectBoundingBox">
      <stop offset="0.008" stop-color="#f17954"/>
      <stop offset="0.579" stop-color="#ff9a6a"/>
      <stop offset="0.992" stop-color="#ffbd95"/>
    </linearGradient>
    <linearGradient id="linear-gradient-3" x1="66.516" y1="0.5" x2="67.516" y2="0.5" gradientUnits="objectBoundingBox">
      <stop offset="0" stop-color="#ff9a67"/>
      <stop offset="0.992" stop-color="#ffbd95"/>
    </linearGradient>
    <linearGradient id="linear-gradient-4" x1="48.549" y1="0.5" x2="49.549" y2="0.5" gradientUnits="objectBoundingBox">
      <stop offset="0.008" stop-color="#d6ba9f"/>
      <stop offset="0.498" stop-color="#f4e5d6"/>
      <stop offset="0.992" stop-color="#faf2e0"/>
    </linearGradient>
    <linearGradient id="linear-gradient-5" x1="27.663" y1="0.5" x2="28.663" y2="0.5" gradientUnits="objectBoundingBox">
      <stop offset="0" stop-color="#f39200"/>
      <stop offset="0.659" stop-color="#ffe527"/>
    </linearGradient>
    <linearGradient id="linear-gradient-6" x1="77.451" y1="0.5" x2="78.451" y2="0.5" gradientUnits="objectBoundingBox">
      <stop offset="0.008" stop-color="#f17954"/>
      <stop offset="0.441" stop-color="#ff9a6a"/>
      <stop offset="0.992" stop-color="#ffbd95"/>
    </linearGradient>
    <linearGradient id="linear-gradient-7" x1="79.127" y1="0.5" x2="80.127" y2="0.5" xlink:href="#linear-gradient-6"/>
    <linearGradient id="linear-gradient-8" x1="117.007" y1="0.5" x2="118.007" y2="0.5" gradientUnits="objectBoundingBox">
      <stop offset="0.008" stop-color="#efd9cd"/>
      <stop offset="0.333" stop-color="#f6e9e0"/>
      <stop offset="0.685" stop-color="#fbf5ee"/>
      <stop offset="0.992" stop-color="#fdfaf3"/>
    </linearGradient>
    <linearGradient id="linear-gradient-9" x1="68.774" y1="0.5" x2="69.738" y2="0.5" xlink:href="#linear-gradient-6"/>
    <linearGradient id="linear-gradient-10" x1="0.832" y1="0.712" x2="0.549" y2="0.556" xlink:href="#linear-gradient-6"/>
    <linearGradient id="linear-gradient-11" x1="40.021" y1="0.511" x2="40.095" y2="0.24" gradientUnits="objectBoundingBox">
      <stop offset="0.162" stop-color="#5e566d"/>
      <stop offset="0.538" stop-color="#595064"/>
      <stop offset="0.989" stop-color="#514754"/>
    </linearGradient>
    <linearGradient id="linear-gradient-12" x1="32.537" y1="0.991" x2="32.689" y2="0.033" gradientUnits="objectBoundingBox">
      <stop offset="0.011" stop-color="#6a87af"/>
      <stop offset="0.225" stop-color="#6881a8"/>
      <stop offset="0.532" stop-color="#657395"/>
      <stop offset="0.893" stop-color="#5f5c76"/>
      <stop offset="0.989" stop-color="#5e566d"/>
    </linearGradient>
    <linearGradient id="linear-gradient-13" x1="75.587" y1="0.5" x2="76.587" y2="0.5" xlink:href="#linear-gradient-6"/>
    <linearGradient id="linear-gradient-14" x1="68.97" y1="0.5" x2="69.885" y2="0.5" xlink:href="#linear-gradient-3"/>
    <linearGradient id="linear-gradient-15" y1="0.5" x2="1" y2="0.5" gradientUnits="objectBoundingBox">
      <stop offset="0.004" stop-color="#ec6d38"/>
      <stop offset="0.247" stop-color="#d35e2b"/>
      <stop offset="0.739" stop-color="#a74413"/>
      <stop offset="0.989" stop-color="#973b0b"/>
    </linearGradient>
    <linearGradient id="linear-gradient-16" x1="3873.6" y1="47.922" x2="3872.846" y2="47.747" xlink:href="#linear-gradient-6"/>
    <linearGradient id="linear-gradient-17" x1="0.836" y1="0.725" x2="0.436" y2="0.328" gradientUnits="objectBoundingBox">
      <stop offset="0.008" stop-color="#f17954"/>
      <stop offset="1" stop-color="#ff9a6a"/>
    </linearGradient>
    <linearGradient id="linear-gradient-18" x1="64.849" y1="0.079" x2="65.655" y2="0.784" gradientUnits="objectBoundingBox">
      <stop offset="0.008" stop-color="#6e9054"/>
      <stop offset="0.098" stop-color="#759359"/>
      <stop offset="0.391" stop-color="#899b68"/>
      <stop offset="0.687" stop-color="#95a072"/>
      <stop offset="0.989" stop-color="#99a275"/>
    </linearGradient>
    <linearGradient id="linear-gradient-19" x1="78.015" y1="0.5" x2="79.015" y2="0.5" xlink:href="#linear-gradient-6"/>
  </defs>
  <g id="Group_12052" data-name="Group 12052" transform="translate(-463.851 -41.924)">
    <g id="Group_12049" data-name="Group 12049" transform="translate(463.851 42.852)">
      <path id="Path_79416" data-name="Path 79416" d="M484.2,50.166c.593.419.9,1.16,2.282,2.344.944.805,2.194,1.257,2.224,1.631s-1.071,1.409-1.308,1.382c-.546-.065-1.91-3.546-3.825-4.059C482.592,51.2,482.933,49.271,484.2,50.166Z" transform="translate(-451.001 -37.48)" fill="url(#linear-gradient)"/>
      <path id="Path_79417" data-name="Path 79417" d="M494.8,102.207c-.68.68-10.206,41.732-10.206,44.454s-10.206,32.886-10.206,35.155v5.669l-4.991-4.309s2.5-2.495,2.5-4.989-.374-17.559.461-22.291c.9-5.106,3.848-10.6,3.848-13.317s-2.949-28.124.907-37.65S494.8,102.207,494.8,102.207Z" transform="translate(-460.127 -3.988)" fill="url(#linear-gradient-2)"/>
      <path id="Path_79418" data-name="Path 79418" d="M492.614,104.791s-5.9,36.515-5.9,39.01S484,179.638,484,181.451a74.582,74.582,0,0,0,1.133,7.713l-4.082-3.176a56.851,56.851,0,0,1-.907-6.577c0-1.815-5.444-26.99-5.444-30.166s2.042-12.473,2.042-14.515-.907-29.939-.907-29.939Z" transform="translate(-456.575 -0.676)" fill="url(#linear-gradient-3)"/>
      <path id="Path_79419" data-name="Path 79419" d="M475.449,70.254c-.513,5.709,4.693,23.563,3.7,28.164a93.781,93.781,0,0,1-3.875,11.765s12.767,5.434,15.484,5.434H496.2V94.376c0-3.952,3.459-13.339,3.459-15.561S492,62.331,484.095,63.534,475.62,68.361,475.449,70.254Z" transform="translate(-456.184 -28.402)" fill="url(#linear-gradient-4)"/>
      <path id="Path_79420" data-name="Path 79420" d="M482.946,91.424s-6,8.892-8.72,15.561-10.374,31.122-10.374,31.122l43.471,7.9-3.459-49.152Z" transform="translate(-463.851 -9.643)" fill="url(#linear-gradient-5)"/>
      <path id="Path_79421" data-name="Path 79421" d="M491.324,73.565s-3.9-4.446-4.311-7.41.454-8.521.454-8.521l-6.792-4.568s-.987,10.125-1.853,14.077a24.154,24.154,0,0,1-2.866,7.069s6.45-2.005,7.683-2.005S490.348,74.539,491.324,73.565Z" transform="translate(-455.729 -35.377)" fill="url(#linear-gradient-6)"/>
      <path id="Path_79422" data-name="Path 79422" d="M484,68.142c-2.558,0-4.114,3.83-3.373,8.029s2.794,20.5,3.373,22.6,9.223,31.245,9.223,31.245l2.077-1.606s-5.536-27.663-5.536-31.491S487.6,76.672,487.141,73.7,486.511,68.142,484,68.142Z" transform="translate(-452.719 -25.262)" fill="url(#linear-gradient-7)"/>
      <path id="Path_79423" data-name="Path 79423" d="M476.183,150.938s3.96,12.258,4.687,12.986,3.9,1.345,4.612,2.438c.247.379,0,1.815,0,1.815s-8.694.227-8.921,0-4.914-7.938-6.351-10.094-3.024-3.136-3.024-3.818,4.8-5.343,4.8-5.343Z" transform="translate(-461.614 28.93)" fill="#e0e0d6"/>
      <path id="Path_79424" data-name="Path 79424" d="M484.072,151.512s3.96,13.165,4.688,13.892,3.9,1.347,4.612,2.438c.247.381,0,1.815,0,1.815s-8.7.227-8.922,0-4.914-8.846-6.349-11-3.024-3.138-3.024-3.818,4.8-5.343,4.8-5.343Z" transform="translate(-456.32 29.315)" fill="#e0e0d6"/>
      <path id="Path_79425" data-name="Path 79425" d="M488.173,75.485s0-3.828-2.1-3.828c-3.706,0-4.446,5.681-4.446,5.681a6.714,6.714,0,0,1-2.593-6.3,5.245,5.245,0,0,1,7.532-4.075C489.284,68.446,489.778,72.15,488.173,75.485Z" transform="translate(-453.718 -26.43)" fill="url(#linear-gradient-8)"/>
      <path id="Path_79426" data-name="Path 79426" d="M489.081,167.624c-1.883,0-3.546-.087-3.911-.371-.586-.451-2.177-3.27-4.535-7.521-1.016-1.828-1.891-3.407-2.256-3.955a19.664,19.664,0,0,0-3.006-3.178.454.454,0,1,1,.585-.693,20.119,20.119,0,0,1,3.175,3.368c.388.58,1.27,2.172,2.294,4.017,1.425,2.566,3.808,6.859,4.3,7.245.473.224,4.266.221,7.646.077a.443.443,0,0,1,.473.433.455.455,0,0,1-.434.473C492.178,167.572,490.561,167.624,489.081,167.624Z" transform="translate(-456.23 30.861)" fill="#bd6859"/>
      <path id="Path_79427" data-name="Path 79427" d="M484.9,166.205c-2.924,0-7.273-.082-7.882-.55-.58-.448-2.042-2.966-4.206-6.755-.922-1.616-1.793-3.14-2.169-3.689a14.188,14.188,0,0,0-3.131-3.161.454.454,0,0,1,.52-.744,14.939,14.939,0,0,1,3.36,3.392c.4.58,1.237,2.05,2.209,3.751a60.455,60.455,0,0,0,3.972,6.488,49.046,49.046,0,0,0,7.92.359h0a.454.454,0,0,1,0,.907C485.31,166.205,485.109,166.205,484.9,166.205Z" transform="translate(-461.522 30.475)" fill="#bd6859"/>
      <path id="Path_79428" data-name="Path 79428" d="M474.225,128.579c2.717-6.668,8.72-15.561,8.72-15.561a93.884,93.884,0,0,0,3.875-11.765c.989-4.6-4.217-22.455-3.7-28.164a6.165,6.165,0,0,1,.962-3.018h0A24.154,24.154,0,0,0,486.944,63c.2-.9.4-2.122.6-3.472.252-1.736,1.36,4.692-.1,7.33s-1.853,8.4-1.853,11.2,3.372,17.629,2.861,22.482-.1,9.628-3.6,14.732c-3.258,4.754-11.332,40.656-12.43,45.987l-8.565-1.557S471.509,135.247,474.225,128.579Z" transform="translate(-463.851 -31.237)" fill="#fff" style="mix-blend-mode: soft-light;isolation: isolate"/>
      <path id="Path_79429" data-name="Path 79429" d="M490.4,53.033c3.176,4.568,3.335,8.356,2.59,9.1-2.393,2.393-9.84,4.809-14.176.466a9.535,9.535,0,0,1-.257-13.118C481.165,46.879,486.9,47.994,490.4,53.033Z" transform="translate(-455.657 -38.692)" fill="url(#linear-gradient-9)"/>
      <path id="Path_79430" data-name="Path 79430" d="M486.76,48.462a6.734,6.734,0,0,1-.82,5.557c-1.512,2.082-4.774,4.2-4.774,5.5a10.828,10.828,0,0,1-.4,3.938c-.531,1.764-3.081,2.072-3.638.837s0-4.343,0-5.516S486.76,48.462,486.76,48.462Z" transform="translate(-455.107 -38.465)" fill="#9f5c44"/>
      <path id="Path_79431" data-name="Path 79431" d="M489.373,50.119s-8.851-4.541-9.813-3.731a25.042,25.042,0,0,0-4.287,4.259,14.2,14.2,0,0,0-2.571,5.116c-.239,1.056,6.341,8.8,6.341,8.8s3.714-4.044,6.034-7.1A47.144,47.144,0,0,0,489.373,50.119Z" transform="translate(-457.918 -39.922)" fill="#d56235"/>
      <path id="Path_79432" data-name="Path 79432" d="M480.764,55.25s-.227,2.655.884,3.355,1.915-.022,1.915.267-2.1,2.358-5.146,1.611S480.764,55.25,480.764,55.25Z" transform="translate(-454.705 -33.911)" fill="#9f5c44"/>
      <path id="Path_79433" data-name="Path 79433" d="M480.7,73.83l8.814,40.413h0c-2.461-8.311-5.355-18.106-5.681-19.29C483.306,93.052,481.571,79.483,480.7,73.83Z" transform="translate(-452.548 -21.446)" fill="#fff" style="mix-blend-mode: soft-light;isolation: isolate"/>
      <path id="Path_79434" data-name="Path 79434" d="M475.342,55.021c-.17,1.965,4.577,5.549,4.411,7.449a2.072,2.072,0,0,1-1.221,1.444C477,62.082,472.5,56.6,472.7,55.724a14.2,14.2,0,0,1,2.571-5.116,25.042,25.042,0,0,1,4.287-4.259C480.066,46.952,475.514,53.056,475.342,55.021Z" transform="translate(-457.918 -39.883)" fill="#fff" style="mix-blend-mode: soft-light;isolation: isolate"/>
      <path id="Path_79435" data-name="Path 79435" d="M472.578,72.251a.629.629,0,0,0,.314-.053c.251-.115,6.192-2.906,13.138-11.8,6.984-8.943,6.981-16.964,6.978-17.3a.626.626,0,0,0-1.252.013c0,.079-.013,7.942-6.712,16.52-6.739,8.627-12.615,11.4-12.674,11.429a.625.625,0,0,0,.207,1.191Z" transform="translate(-458.38 -42.479)" fill="#d56235"/>
      <path id="Path_79436" data-name="Path 79436" d="M486.672,140.8,485.615,96.81l-4.089,43.053Z" transform="translate(-451.993 -6.03)" fill="#ec9a39"/>
      <path id="Path_79437" data-name="Path 79437" d="M478.044,138.61l7.523-42.047-10.474,41.51Z" transform="translate(-456.309 -6.195)" fill="#ec9a39"/>
      <path id="Path_79438" data-name="Path 79438" d="M486.677,54a3.615,3.615,0,0,1-.618.961,7.581,7.581,0,0,1-.75.648,4.355,4.355,0,0,0,.977-.495,3.253,3.253,0,0,0,.553-.551Z" transform="translate(-449.455 -34.753)" fill="url(#linear-gradient-10)"/>
      <path id="Path_79439" data-name="Path 79439" d="M483.3,53.518a8.991,8.991,0,0,0,1.32-.85,2.46,2.46,0,0,0,.466-.7v.465l.167.207A3.8,3.8,0,0,1,483.3,53.518Z" transform="translate(-450.801 -36.116)" fill="#9f5c44"/>
    </g>
    <g id="Group_12050" data-name="Group 12050" transform="translate(499.857 41.924)">
      <path id="Path_79440" data-name="Path 79440" d="M499.648,157.042s-8.643,1.871-9.507,2.737-1.855,2.217-1.405,2.667,24.2-.919,24.2-.919V155.78Z" transform="translate(-483.238 34.46)" fill="#583225"/>
      <path id="Path_79441" data-name="Path 79441" d="M493.41,164.334c0-.757,1.838-3.546,3.566-3.546,1.251,0,7.886-1.028,7.886-1.028S515.357,156.88,516,156.88s5.213,4.827,5.213,4.827v1.87Z" transform="translate(-480.026 35.198)" fill="#773c34"/>
      <path id="Path_79442" data-name="Path 79442" d="M506.558,99.612s4.294,2.127,5.405,3.98,8.152,24.328,6.794,26.552-15.314,2.839-15.314,2.839Z" transform="translate(-473.296 -3.222)" fill="#5e2c2d"/>
      <path id="Path_79443" data-name="Path 79443" d="M498.865,197.022s4.034-8.067,2.017-16.423-9.507-25.579-9.507-30.8-1.586-53.618-1.586-53.618l13.686,7.491,14.953,97.831-7.462-1.317-3.674.289A13.262,13.262,0,0,0,498.865,197.022Z" transform="translate(-482.456 -5.521)" fill="url(#linear-gradient-11)"/>
      <path id="Path_79444" data-name="Path 79444" d="M513.27,94.676s4.61,8.124,2.881,20.161-1.44,25.289-1.44,32.2,5.763,18.151,5.763,23.624,4.321,21.031,4.321,24.2a54.76,54.76,0,0,1-1.153,8.573l-16.35-1.947s1.945-8.932-.936-21.031c-1.586-6.663-9.507-25.066-9.507-30.251s-1.729-29.387-3.17-34.141-3.89-18.871-3.89-18.871Z" transform="translate(-482.456 -6.533)" fill="url(#linear-gradient-12)"/>
      <path id="Path_79445" data-name="Path 79445" d="M517.464,127.748s-3.345-11.758-3.345-15.875,1.933-35.431.453-41.688-9.058-12.513-10.045-12.513-10.867,6.177-12.679,9.674-3.459,12.719-3.459,16.836,2.7,43,2.7,43Z" transform="translate(-483.395 -31.358)" fill="#6e9054"/>
      <path id="Path_79446" data-name="Path 79446" d="M492.1,62.738s-2.722,3.3-2.81,5.835c-.1,2.747,2.277,16.184,11.258,31.61a340.852,340.852,0,0,1,16.6,33.458v-8.709s-9.115-19.193-14.162-28.711C492.538,76.531,492.1,62.738,492.1,62.738Z" transform="translate(-482.796 -27.96)" fill="#5e2c2d"/>
      <path id="Path_79447" data-name="Path 79447" d="M491.405,71.632s1.622-4.678,1.622-7.272-2.717-8.891-2.717-8.891l9.14-5.99s1.029,6.587,2.3,9.242c.576,1.2,3.671,5.853,3.671,5.853S495.462,70.383,491.405,71.632Z" transform="translate(-482.105 -36.854)" fill="url(#linear-gradient-13)"/>
      <path id="Path_79448" data-name="Path 79448" d="M486.989,57c2.633,6.055,5.5,8.834,7.4,8.4,3.865-.877,9.928-8.727,7.835-14.989s-7.656-8.684-11.414-7.427S484.259,50.715,486.989,57Z" transform="translate(-485.069 -41.428)" fill="url(#linear-gradient-14)"/>
      <path id="Path_79449" data-name="Path 79449" d="M488.854,77.9c.224-1.292.485-2.6.777-3.851a10.234,10.234,0,0,1-.058-1.218c.065-1.855,1.531-4.107,2.318-5.19.074-.1.154-.211.236-.317.159-.209.257-.327.257-.327v.01l.01-.013-.01,0s1.622-4.678,1.622-7.272a13.211,13.211,0,0,0-.67-3.342h0a17.171,17.171,0,0,1,2.852,5.634C496.66,64.458,491.275,77.329,488.854,77.9Z" transform="translate(-483.083 -32.221)" fill="#fff" style="mix-blend-mode: soft-light;isolation: isolate"/>
      <path id="Path_79450" data-name="Path 79450" d="M503.8,59.881s.927-7.469-.172-11.312-4.3-7.823-11.745-6.321c-4.789.967-8.107,3.79-5.661,8.476.306.586,4.647-1.083,6.114.384,1.524,1.524,1.937,4.58,2.513,4.58s.658-.906.658-.906-.294-1.651.3-2.242c.742-.742,2.553-.329,3.211,2.551a15.64,15.64,0,0,0,3.016,5.629Z" transform="translate(-485.4 -41.924)" fill="url(#linear-gradient-15)"/>
      <path id="Path_79451" data-name="Path 79451" d="M512.09,130.308C510.628,129.2,509.866,110.8,509,106.72a17.418,17.418,0,0,0-3.046-6.76c1.348.759,3.567,2.14,4.321,3.4,1.113,1.851,8.152,24.328,6.794,26.552-.333.543-1.42.989-2.87,1.355A5.648,5.648,0,0,1,512.09,130.308Z" transform="translate(-471.61 -2.988)" fill="#63474a"/>
      <path id="Path_79452" data-name="Path 79452" d="M486.018,49.451c.008.727.448,2.262.635,4.075.129,1.235-.211,2.52.082,2.757a3.859,3.859,0,0,0,2.277-.292c.257-.488-1.236-3.838-1.569-5.452C487.238,49.545,486,47.9,486.018,49.451Z" transform="translate(-484.986 -37.3)" fill="url(#linear-gradient-16)"/>
      <path id="Path_79453" data-name="Path 79453" d="M487.966,54.2s2.291-.52,2.394-.622a1.828,1.828,0,0,1-1.19,1.009c-.581.19-.677.391-.677.391Z" transform="translate(-483.679 -34.113)" fill="url(#linear-gradient-17)"/>
      <path id="Path_79454" data-name="Path 79454" d="M489.792,50.293a16.363,16.363,0,0,1-1.729,1.064,5.758,5.758,0,0,1-.964.3l.548.222.167.3A4.861,4.861,0,0,0,489.792,50.293Z" transform="translate(-484.26 -36.309)" fill="#9f5c44"/>
      <path id="Path_79455" data-name="Path 79455" d="M486.627,51.1a12.012,12.012,0,0,0,2.179-.814,5.607,5.607,0,0,1,1.374-.317s-.632-.535-.8-.535-3.033.76-3.14.852S486.627,51.1,486.627,51.1Z" transform="translate(-484.846 -36.887)" fill="#ec6d38"/>
    </g>
    <g id="Group_12051" data-name="Group 12051" transform="translate(501.308 73.7)">
      <path id="Path_79456" data-name="Path 79456" d="M503.325,61.023c-3.42-.707-6.874,3.335-7.985,6.916s-2.388,26.214-2.388,28.189-1.977,11.115-1.977,11.115l6.67,3.335s3.457-8.645,5.31-13.091,5.6-24.238,5.6-28.066S506.908,61.764,503.325,61.023Z" transform="translate(-483.111 -60.941)" fill="url(#linear-gradient-18)"/>
      <path id="Path_79457" data-name="Path 79457" d="M490.522,111.544l-.077.463,3.893-23.538,6.752,3.1-7.673,21.536s-.5,8.239-1.135,8.816c-1.116,1.023-6.176-1.606-6.01-3.417C486.344,117.706,490.522,111.544,490.522,111.544Z" transform="translate(-486.269 -42.474)" fill="url(#linear-gradient-19)"/>
      <path id="Path_79458" data-name="Path 79458" d="M503.979,90a29.277,29.277,0,0,0-2.717,4.693,22.257,22.257,0,0,0-1.111,3.21L490,92.718s1.627-4.448,1.627-6.054V83.331s4.57,0,7.658,1.729A12.967,12.967,0,0,1,503.979,90Z" transform="translate(-483.764 -45.921)" fill="#5eb884"/>
      <path id="Path_79459" data-name="Path 79459" d="M497.135,91.927c0,2.346-8.281,33.633-8.281,33.635l3.484-21.068-1.566-.8s1.627-4.448,1.627-6.054V94.306s.688,0,1.706.1a18.379,18.379,0,0,0,.271-2.324c0-1.656.9-17.812,1.841-25.112C496.221,67.048,497.135,89.585,497.135,91.927Z" transform="translate(-484.534 -56.896)" fill="#fff" style="mix-blend-mode: soft-light;isolation: isolate"/>
    </g>
  </g>
</svg>
