<svg xmlns="http://www.w3.org/2000/svg" width="305.255" height="192.766" viewBox="0 0 305.255 192.766">
  <g id="Group_12590" data-name="Group 12590" transform="translate(-95.238 -296.234)">
    <g id="Icons" transform="translate(144 385.857)">
      <g id="Group_12344" data-name="Group 12344" transform="translate(4 6)">
        <path id="Path_81024" data-name="Path 81024" d="M83.163,21.409l-8.571-8.571a2.857,2.857,0,0,0-4.877,2.02v5.714H6.857a2.857,2.857,0,1,0,0,5.714H69.714V32a2.858,2.858,0,0,0,4.879,2.02l8.571-8.571a2.858,2.858,0,0,0,0-4.04Z" transform="translate(-4 -3.429)" fill="#6136c1"/>
        <g id="Group_12312" data-name="Group 12312" transform="translate(18.571 17.143)">
          <path id="Path_81025" data-name="Path 81025" d="M57,20.857A20.26,20.26,0,0,0,56.8,18H17.2a20.222,20.222,0,0,0,0,5.714H56.8A20.26,20.26,0,0,0,57,20.857Z" transform="translate(-17 -18)" fill="#0082aa"/>
        </g>
        <g id="Group_12313" data-name="Group 12313" transform="translate(0 37.143)">
          <path id="Path_81026" data-name="Path 81026" d="M49.714,44.857a12.853,12.853,0,0,0-22.857-8.073A12.853,12.853,0,1,0,7.731,53.91h0l17.1,17.244h0a2.852,2.852,0,0,0,4.054,0h0l17.1-17.244h0A12.816,12.816,0,0,0,49.714,44.857Z" transform="translate(-4 -32)" fill="#07d3df"/>
        </g>
        <g id="Group_12314" data-name="Group 12314" transform="translate(34.286 37.143)">
          <path id="Path_81027" data-name="Path 81027" d="M73.714,44.857a12.853,12.853,0,0,0-22.857-8.073A12.853,12.853,0,1,0,31.731,53.91h0l17.1,17.244h0a2.852,2.852,0,0,0,4.054,0h0l17.1-17.244h0a12.816,12.816,0,0,0,3.73-9.053Z" transform="translate(-28 -32)" fill="#f36"/>
        </g>
        <g id="Group_12315" data-name="Group 12315" transform="translate(34.286 39.309)">
          <path id="Path_81028" data-name="Path 81028" d="M35.7,53.26a12.854,12.854,0,0,0-1.983-19.744A12.854,12.854,0,0,0,31.731,53.26h0l1.986,2,1.987-2Z" transform="translate(-28 -33.516)" fill="#fab400"/>
        </g>
        <g id="Group_12324" data-name="Group 12324" transform="translate(11.441 45.714)">
          <g id="Group_12323" data-name="Group 12323">
            <g id="Group_12316" data-name="Group 12316" transform="translate(0 17.143)">
              <path id="Path_81029" data-name="Path 81029" d="M25.453,63.44l9.387-9.466A4.285,4.285,0,0,0,30.568,50H16.282a4.285,4.285,0,0,0-4.273,3.974L21.4,63.44h0a2.852,2.852,0,0,0,4.054,0Z" transform="translate(-12.009 -50)" fill="#fab400"/>
            </g>
            <g id="Group_12318" data-name="Group 12318" transform="translate(8.559 12.857)">
              <g id="Group_12317" data-name="Group 12317">
                <path id="Path_81030" data-name="Path 81030" d="M20.857,54.143A2.856,2.856,0,0,1,18,51.286V47h5.714v4.286A2.856,2.856,0,0,1,20.857,54.143Z" transform="translate(-18 -47)" fill="#d2aa82"/>
              </g>
            </g>
            <g id="Group_12320" data-name="Group 12320" transform="translate(5.701 2.857)">
              <g id="Group_12319" data-name="Group 12319">
                <path id="Path_81031" data-name="Path 81031" d="M23.143,51.429H20.286A4.285,4.285,0,0,1,16,47.143V42.857A2.856,2.856,0,0,1,18.857,40h5.714a2.856,2.856,0,0,1,2.857,2.857v4.286A4.285,4.285,0,0,1,23.143,51.429Z" transform="translate(-16 -40)" fill="#f0c8a0"/>
              </g>
            </g>
            <g id="Group_12322" data-name="Group 12322" transform="translate(5.701)">
              <g id="Group_12321" data-name="Group 12321">
                <path id="Path_81032" data-name="Path 81032" d="M24.571,40.857H18.857A2.856,2.856,0,0,0,16,43.714V40.857A2.856,2.856,0,0,1,18.857,38h5.714a2.856,2.856,0,0,1,2.857,2.857v2.857A2.856,2.856,0,0,0,24.571,40.857Z" transform="translate(-16 -38)" fill="#c80a50"/>
              </g>
            </g>
          </g>
        </g>
        <g id="Group_12333" data-name="Group 12333" transform="translate(45.924 45.714)">
          <g id="Group_12332" data-name="Group 12332">
            <g id="Group_12326" data-name="Group 12326" transform="translate(2.647)">
              <g id="Group_12325" data-name="Group 12325">
                <path id="Path_81033" data-name="Path 81033" d="M49.429,38H43.714A5.715,5.715,0,0,0,38,43.714v7.143a1.429,1.429,0,0,0,1.429,1.429H53.714a1.429,1.429,0,0,0,1.429-1.429V43.714A5.715,5.715,0,0,0,49.429,38Z" transform="translate(-38 -38)" fill="#0a5078"/>
              </g>
            </g>
            <g id="Group_12327" data-name="Group 12327" transform="translate(0 17.143)">
              <path id="Path_81034" data-name="Path 81034" d="M49.394,63.44l9.19-9.267A5.718,5.718,0,0,0,53.08,50H41.651a5.717,5.717,0,0,0-5.5,4.174l9.19,9.267h0a2.854,2.854,0,0,0,4.054,0Z" transform="translate(-36.147 -50)" fill="#00a0c8"/>
            </g>
            <g id="Group_12329" data-name="Group 12329" transform="translate(5.504 12.857)">
              <g id="Group_12328" data-name="Group 12328">
                <path id="Path_81035" data-name="Path 81035" d="M48.571,51.286V47H42.857v4.286H40a5.714,5.714,0,1,0,11.429,0Z" transform="translate(-40 -47)" fill="#d2aa82"/>
              </g>
            </g>
            <g id="Group_12331" data-name="Group 12331" transform="translate(5.504 2.857)">
              <g id="Group_12330" data-name="Group 12330">
                <path id="Path_81036" data-name="Path 81036" d="M47.143,51.429H44.286A4.285,4.285,0,0,1,40,47.143V42.857A2.856,2.856,0,0,1,42.857,40h1.429a2.856,2.856,0,0,0,2.857,2.857h4.286v4.286A4.285,4.285,0,0,1,47.143,51.429Z" transform="translate(-40 -40)" fill="#f0c8a0"/>
              </g>
            </g>
          </g>
        </g>
        <g id="Group_12343" data-name="Group 12343" transform="translate(20)">
          <g id="Group_12334" data-name="Group 12334">
            <circle id="Ellipse_1929" data-name="Ellipse 1929" cx="20" cy="20" r="20" fill="#4a148c"/>
          </g>
          <g id="Group_12335" data-name="Group 12335" transform="translate(2.857 2.857)">
            <circle id="Ellipse_1930" data-name="Ellipse 1930" cx="17.143" cy="17.143" r="17.143" fill="#f0f0f0"/>
          </g>
          <g id="Group_12340" data-name="Group 12340" transform="translate(4.286 4.286)">
            <g id="Group_12336" data-name="Group 12336" transform="translate(14.286)">
              <path id="Path_81037" data-name="Path 81037" d="M32.429,14.714A1.428,1.428,0,0,1,31,13.286V10.429a1.429,1.429,0,1,1,2.857,0v2.857A1.428,1.428,0,0,1,32.429,14.714Z" transform="translate(-31 -9)" fill="#d2d2d2"/>
            </g>
            <g id="Group_12337" data-name="Group 12337" transform="translate(14.286 25.714)">
              <path id="Path_81038" data-name="Path 81038" d="M32.429,32.714A1.428,1.428,0,0,1,31,31.286V28.429a1.429,1.429,0,0,1,2.857,0v2.857A1.428,1.428,0,0,1,32.429,32.714Z" transform="translate(-31 -27)" fill="#d2d2d2"/>
            </g>
            <g id="Group_12338" data-name="Group 12338" transform="translate(0 14.286)">
              <path id="Path_81039" data-name="Path 81039" d="M25.286,21.857H22.429a1.429,1.429,0,1,1,0-2.857h2.857a1.429,1.429,0,1,1,0,2.857Z" transform="translate(-21 -19)" fill="#d2d2d2"/>
            </g>
            <g id="Group_12339" data-name="Group 12339" transform="translate(25.714 14.286)">
              <path id="Path_81040" data-name="Path 81040" d="M43.286,21.857H40.429a1.429,1.429,0,1,1,0-2.857h2.857a1.429,1.429,0,1,1,0,2.857Z" transform="translate(-39 -19)" fill="#d2d2d2"/>
            </g>
          </g>
          <g id="Group_12341" data-name="Group 12341" transform="translate(18.571 4.286)">
            <path id="Path_81041" data-name="Path 81041" d="M43.857,26.143H31V10.429a1.429,1.429,0,1,1,2.857,0V23.286h10a1.429,1.429,0,0,1,0,2.857Z" transform="translate(-31 -9)" fill="#fab400"/>
          </g>
          <g id="Group_12342" data-name="Group 12342" transform="translate(17.143 17.143)">
            <circle id="Ellipse_1931" data-name="Ellipse 1931" cx="2.857" cy="2.857" r="2.857" fill="#c80a50"/>
          </g>
        </g>
      </g>
    </g>
    <g id="Group_12297" data-name="Group 12297" transform="matrix(0.985, -0.174, 0.174, 0.985, -80.718, 258.302)">
      <path id="Path_80984" data-name="Path 80984" d="M389.706,174.222a6.869,6.869,0,0,1,7.329-3.331c5.029,1,6.767,4.558,5.7,8.983-1.638,6.772-14.013,13.178-14.013,13.178Z" transform="translate(-9.497 -1.509)" fill="#07d3df" opacity="0.4" style="mix-blend-mode: multiply;isolation: isolate"/>
      <path id="Path_80985" data-name="Path 80985" d="M374.98,175.478a6.87,6.87,0,0,0-7.8-2.009c-4.779,1.861-5.873,5.663-4.051,9.835,2.789,6.385,16.087,10.547,16.087,10.547Z" transform="translate(0 -2.308)" fill="#07d3df" opacity="0.4" style="mix-blend-mode: multiply;isolation: isolate"/>
      <path id="Path_80986" data-name="Path 80986" d="M379.7,191.543s12.289-8.723,13.024-16.223c.48-4.9-1.914-8.444-7.452-8.762a7.429,7.429,0,0,0-7.348,4.67,7.429,7.429,0,0,0-8.046-3.325c-5.4,1.275-7.142,5.181-5.819,9.923C366.085,185.085,379.7,191.543,379.7,191.543Z" transform="translate(-0.48)" fill="#07d3df"/>
      <path id="Path_80987" data-name="Path 80987" d="M377.925,171.867a7.429,7.429,0,0,0-8.046-3.325c-5.4,1.275-7.142,5.181-5.819,9.923,2.025,7.258,15.641,13.717,15.641,13.717Z" transform="translate(-0.48 -0.638)" fill="#07d3df"/>
    </g>
    <g id="layer1" transform="matrix(-0.391, -0.921, 0.921, -0.391, 217.895, 386.995)" opacity="0.2">
      <path id="path11821" d="M11.975,30a.5.5,0,0,1-.384-.214l-11.5-16.5A.5.5,0,0,1,.5,12.5H8.458L7.5.538A.5.5,0,0,1,8.41.213l11.5,16.5a.5.5,0,0,1-.409.786H11.544L12.5,29.46a.5.5,0,0,1-.524.539Z" transform="translate(0 0)" fill="#763fc8"/>
    </g>
    <g id="layer1-2" data-name="layer1" transform="matrix(0.391, -0.921, 0.921, 0.391, -160.293, 239.511)" opacity="0.2">
      <path id="path11821-2" data-name="path11821" d="M13.154,280.6a.415.415,0,0,0-.32.178L3.25,294.524a.417.417,0,0,0,.342.655h6.631l-.8,9.968a.417.417,0,0,0,.756.271l9.584-13.748a.417.417,0,0,0-.341-.655H12.795l.8-9.969a.417.417,0,0,0-.437-.449Z" transform="translate(0 0)" fill="#9110fd"/>
    </g>
    <g id="layer1-3" data-name="layer1" transform="matrix(-0.391, -0.921, 0.921, -0.391, 101.75, 476.439)" opacity="0.2">
      <path id="path11821-3" data-name="path11821" d="M9.98,25a.415.415,0,0,1-.32-.178L.076,11.072a.417.417,0,0,1,.342-.655H7.048L6.252.449A.417.417,0,0,1,7.008.178l9.584,13.748a.417.417,0,0,1-.341.655H9.62l.8,9.969A.417.417,0,0,1,9.98,25Z" transform="translate(0 0)" fill="#cc00bf"/>
    </g>
    <g id="layer1-4" data-name="layer1" transform="translate(246.36 482.251) rotate(-77)" opacity="0.2">
      <path id="path11821-4" data-name="path11821" d="M11.976,0a.5.5,0,0,0-.384.214l-11.5,16.5A.5.5,0,0,0,.5,17.5H8.458L7.5,29.462a.5.5,0,0,0,.907.325l11.5-16.5A.5.5,0,0,0,19.5,12.5H11.544L12.5.54A.5.5,0,0,0,11.976,0Z" transform="translate(0 0)" fill="#f206ac"/>
    </g>
    <g id="layer1-5" data-name="layer1" transform="translate(250.864 323.212)" opacity="0.2">
      <path id="path11821-5" data-name="path11821" d="M5.988,0A.249.249,0,0,0,5.8.107L.045,8.357A.25.25,0,0,0,.25,8.75H4.229l-.478,5.981a.25.25,0,0,0,.454.163L9.956,6.644a.25.25,0,0,0-.2-.393H5.772L6.25.27A.25.25,0,0,0,5.988,0Z" transform="translate(0 0)" fill="#f206ac"/>
    </g>
  </g>
</svg>
