<svg xmlns="http://www.w3.org/2000/svg" xmlns:xlink="http://www.w3.org/1999/xlink" width="329" height="83" viewBox="0 0 329 83">
  <defs>
    <linearGradient id="linear-gradient" x1="-0.975" y1="-2.129" x2="0.641" y2="1.186" gradientUnits="objectBoundingBox">
      <stop offset="0" stop-color="#aad5e9"/>
      <stop offset="1" stop-color="#6136c1"/>
    </linearGradient>
    <filter id="Rectangle_2843" x="0" y="0" width="329" height="83" filterUnits="userSpaceOnUse">
      <feOffset dx="3" dy="3" input="SourceAlpha"/>
      <feGaussianBlur result="blur"/>
      <feFlood flood-opacity="0.161"/>
      <feComposite operator="in" in2="blur"/>
      <feComposite in="SourceGraphic"/>
    </filter>
  </defs>
  <g id="Group_12023" data-name="Group 12023" transform="translate(-25 -1224)">
    <g transform="matrix(1, 0, 0, 1, 25, 1224)" filter="url(#Rectangle_2843)">
      <rect id="Rectangle_2843-2" data-name="Rectangle 2843" width="326" height="80" rx="15" fill="url(#linear-gradient)"/>
    </g>
    <rect id="Rectangle_3168" data-name="Rectangle 3168" width="326" height="3" transform="translate(25 1263)" fill="#fff" opacity="0.5"/>
    <rect id="Rectangle_3169" data-name="Rectangle 3169" width="3" height="80" transform="translate(187 1224)" fill="#fff" opacity="0.5"/>
    <g id="ribbon" transform="translate(161.11 1188.018)">
      <path id="Path_74420" data-name="Path 74420" d="M309.572,61.983c-4.5,0-12.493,4.084-16.473,8.06a4.157,4.157,0,0,1,1.231,2.951c-.044,5.312.1,5.516-.143,6.43,10.528,3.04,13.158,10.582,18.345,4.175C318.45,76.286,315.139,61.983,309.572,61.983Z" transform="translate(-262.885 -0.001)" fill="#f96989"/>
      <path id="Path_74421" data-name="Path 74421" d="M80.944,230.292a27.723,27.723,0,0,0-3.589,1.32A78.814,78.814,0,0,0,66.47,247.066a.862.862,0,0,0,.9,1.269l5.089-.894a1.755,1.755,0,0,1,1.84.88l2.292,4.151a.91.91,0,0,0,1.681-.225c.994-4.092,3.273-12.928,6.035-18.887A4.234,4.234,0,0,1,80.944,230.292Z" transform="translate(-59.519 -150.96)" fill="#ed5a81"/>
      <path id="Path_74422" data-name="Path 74422" d="M69.772,249.813a83.344,83.344,0,0,1,10.32-16.959,27.927,27.927,0,0,0-2.736,1.056,78.813,78.813,0,0,0-10.885,15.454.862.862,0,0,0,.9,1.269l2.312-.406A.9.9,0,0,1,69.772,249.813Z" transform="translate(-59.52 -153.258)" fill="#dd4a78"/>
      <path id="Path_74423" data-name="Path 74423" d="M278.512,231.659a26.188,26.188,0,0,0-3.634-1.368,4.234,4.234,0,0,1-3.365,3.067c2.762,5.959,5.042,14.795,6.035,18.887a.91.91,0,0,0,1.681.225l2.292-4.151a1.755,1.755,0,0,1,1.84-.88l5.089.894a.862.862,0,0,0,.9-1.269A78.983,78.983,0,0,0,278.512,231.659Z" transform="translate(-243.524 -150.959)" fill="#f96989"/>
      <path id="Path_74424" data-name="Path 74424" d="M274.316,242.3a4.228,4.228,0,0,1-2.8,1.83c2.762,5.959,5.042,14.795,6.035,18.887a.91.91,0,0,0,1.681.225l2.292-4.151a1.752,1.752,0,0,1,.789-.739A117.11,117.11,0,0,0,274.316,242.3Z" transform="translate(-243.525 -161.726)" fill="#ed5a81"/>
      <path id="Path_74425" data-name="Path 74425" d="M273.014,254.517a4.183,4.183,0,0,1-1.5.57c2.762,5.959,5.042,14.795,6.035,18.887a.91.91,0,0,0,1.681.225l1.186-2.148A124.8,124.8,0,0,0,273.014,254.517Z" transform="translate(-243.525 -172.688)" fill="#dd4a78"/>
      <path id="Path_74426" data-name="Path 74426" d="M143.734,242.3a4.228,4.228,0,0,0,2.8,1.83c-2.762,5.959-5.042,14.795-6.035,18.887a.91.91,0,0,1-1.681.225l-2.292-4.151a1.752,1.752,0,0,0-.789-.739A117.119,117.119,0,0,1,143.734,242.3Z" transform="translate(-121.745 -161.726)" fill="#f96989"/>
      <path id="Path_74427" data-name="Path 74427" d="M303.8,199.351a7.032,7.032,0,0,1-.143,1.927c10.654,3.077,14.74,12.276,19.718,1.979a14.731,14.731,0,0,0,.584-1.39C325.613,194.824,304.907,199.116,303.8,199.351Z" transform="translate(-272.35 -121.855)" fill="#ed5a81"/>
      <path id="Path_74428" data-name="Path 74428" d="M21.335,72.993a4.157,4.157,0,0,1,1.231-2.951c-3.98-3.976-11.97-8.06-16.473-8.06-5.567,0-8.878,14.3-2.959,21.615,5.186,6.408,7.817-1.134,18.345-4.175C21.231,78.506,21.378,78.245,21.335,72.993Z" transform="translate(-0.001 0)" fill="#f96989"/>
      <g id="Group_6454" data-name="Group 6454" transform="translate(0 61.982)">
        <path id="Path_74429" data-name="Path 74429" d="M8.443,83.6c-5.221-6.451-3.259-18.339,1.1-21.052a13.034,13.034,0,0,0-3.448-.563c-5.567,0-8.878,14.3-2.959,21.615,2.5,3.094,4.413,2.935,6.9,1.6A9.544,9.544,0,0,1,8.443,83.6Z" transform="translate(0 -61.982)" fill="#ed5a81"/>
        <path id="Path_74430" data-name="Path 74430" d="M30.741,199.35c-1.112-.235-21.818-4.527-20.158,2.516a13.252,13.252,0,0,0,1.4,2.822c.858,1.288,2.246,2.806,3.765,3.173,3.546.857,6.977-4.228,15.139-6.584A13.08,13.08,0,0,1,30.741,199.35Z" transform="translate(-9.407 -183.837)" fill="#ed5a81"/>
      </g>
      <path id="Path_74431" data-name="Path 74431" d="M20.045,207.054c-1.519-.367-2.907-1.885-3.765-3.173a13.248,13.248,0,0,1-1.4-2.822,2.8,2.8,0,0,1,0-1.454c-2.9.392-4.86,1.479-4.3,3.843a13.252,13.252,0,0,0,1.4,2.822c.858,1.288,2.246,2.806,3.765,3.173,1.964.475,3.894-.874,6.611-2.572A4.012,4.012,0,0,1,20.045,207.054Z" transform="translate(-9.406 -123.437)" fill="#dd4a78"/>
      <path id="Path_74432" data-name="Path 74432" d="M211.975,127.321H210.2a4.28,4.28,0,0,0-4.276,4.275v5.352a4.28,4.28,0,0,0,4.276,4.276h1.772a4.28,4.28,0,0,0,4.276-4.276V131.6A4.28,4.28,0,0,0,211.975,127.321Z" transform="translate(-184.699 -58.604)" fill="#ed5a81"/>
      <path id="Path_74433" data-name="Path 74433" d="M211.09,136.923v-5.352a4.281,4.281,0,0,1,2.581-3.924c-1.216-.527-2.085-.292-3.467-.351a4.28,4.28,0,0,0-4.276,4.275v5.352A4.28,4.28,0,0,0,210.2,141.2h1.772a4.25,4.25,0,0,0,1.695-.351A4.282,4.282,0,0,1,211.09,136.923Z" transform="translate(-184.7 -58.578)" fill="#dd4a78"/>
    </g>
  </g>
</svg>
