<svg id="Group_5721" data-name="Group 5721" xmlns="http://www.w3.org/2000/svg" width="120" height="120" viewBox="0 0 120 120">
  <g id="Rectangle_2860" data-name="Rectangle 2860" fill="#fff" stroke="#6136c1" stroke-width="1" stroke-dasharray="5 5">
    <rect width="120" height="120" rx="10" stroke="none"/>
    <rect x="0.5" y="0.5" width="119" height="119" rx="9.5" fill="none"/>
  </g>
  <g id="photo" transform="translate(34 37)">
    <g id="Group_5720" data-name="Group 5720">
      <g id="Group_5719" data-name="Group 5719">
        <circle id="Ellipse_1046" data-name="Ellipse 1046" cx="3.605" cy="3.605" r="3.605" transform="translate(16.174 11.467)" fill="#c8c8c8"/>
        <path id="Path_73793" data-name="Path 73793" d="M49.372,52.341a11.1,11.1,0,0,0-6.209-2.954V31.06a7.209,7.209,0,0,0-2.053-5.007A7,7,0,0,0,36.1,24H7.06a7.209,7.209,0,0,0-5.007,2.053A7,7,0,0,0,0,31.06V60.954a7.209,7.209,0,0,0,2.053,5.007A7,7,0,0,0,7.06,68.014H35.151A10.594,10.594,0,0,0,49.372,52.341ZM2.654,31.06a4.191,4.191,0,0,1,1.3-3.054,4.394,4.394,0,0,1,3.1-1.3H36.1a4.446,4.446,0,0,1,4.406,4.406V46.733L33.1,39.322a1.345,1.345,0,0,0-1.9,0L20.029,50.539l-7.561-7.611a1.345,1.345,0,0,0-1.9,0L2.654,50.939ZM7.01,65.46v-.1a4.394,4.394,0,0,1-3.1-1.3,4.57,4.57,0,0,1-1.252-3.1V54.745l8.863-8.913,7.561,7.561a1.393,1.393,0,0,0,1.9,0L32.147,42.176l7.311,7.361-.451.15a4.65,4.65,0,0,0-.651.2c-.2.05-.4.15-.6.2a1.5,1.5,0,0,0-.4.2,4.652,4.652,0,0,0-.5.25l-.751.451c-.15.1-.25.15-.4.25-.1.05-.15.1-.25.15a6.041,6.041,0,0,0-1.2,1.052,10.593,10.593,0,0,0-3.1,7.511,11.008,11.008,0,0,0,.25,2.2c.05.2.1.351.15.551.15.5.3,1,.5,1.5v.05a9.185,9.185,0,0,0,.651,1.2Zm40.409,0a7.921,7.921,0,0,1-11.066.1c-.2-.2-.4-.451-.6-.651-.15-.15-.3-.351-.451-.5a4.755,4.755,0,0,1-.5-.851c-.1-.2-.2-.351-.3-.551a4.229,4.229,0,0,1-.25-.851c-.05-.2-.15-.451-.2-.651a8.288,8.288,0,0,1-.15-1.6,8.037,8.037,0,0,1,2.3-5.608,7.742,7.742,0,0,1,5.608-2.3,8.037,8.037,0,0,1,5.608,2.3,7.826,7.826,0,0,1,2.3,5.608A8.008,8.008,0,0,1,47.419,65.46Z" transform="translate(0 -24)" fill="#c8c8c8"/>
        <path id="Path_73794" data-name="Path 73794" d="M303.983,264.8a1.749,1.749,0,0,0-.451-.3,1.463,1.463,0,0,0-.451-.1h-.1a1.463,1.463,0,0,0-.451.1,1.182,1.182,0,0,0-.451.3l-3.1,3.1a1.345,1.345,0,1,0,1.9,1.9l.8-.8v5.508a1.352,1.352,0,0,0,2.7,0v-5.508l.8.8a1.345,1.345,0,1,0,1.9-1.9Z" transform="translate(-261.221 -234.306)" fill="#c8c8c8"/>
      </g>
    </g>
  </g>
</svg>
