<svg xmlns="http://www.w3.org/2000/svg" xmlns:xlink="http://www.w3.org/1999/xlink" width="97.88" height="172.596" viewBox="0 0 97.88 172.596">
  <defs>
    <linearGradient id="linear-gradient" y1="0.5" x2="1" y2="0.5" gradientUnits="objectBoundingBox">
      <stop offset="0.008" stop-color="#75c4ae"/>
      <stop offset="0.319" stop-color="#72c0aa"/>
      <stop offset="0.589" stop-color="#69b59f"/>
      <stop offset="0.842" stop-color="#5ba48e"/>
      <stop offset="1" stop-color="#4f957f"/>
    </linearGradient>
    <linearGradient id="linear-gradient-2" y1="0.5" x2="1" y2="0.5" gradientUnits="objectBoundingBox">
      <stop offset="0.008" stop-color="#ade0cd"/>
      <stop offset="1" stop-color="#759586"/>
    </linearGradient>
    <linearGradient id="linear-gradient-3" y1="0.5" x2="1" y2="0.5" gradientUnits="objectBoundingBox">
      <stop offset="0.015" stop-color="#846f71"/>
      <stop offset="0.104" stop-color="#826d6f"/>
      <stop offset="0.769" stop-color="#7b6567"/>
    </linearGradient>
    <linearGradient id="linear-gradient-4" y1="0.5" x2="1" y2="0.5" gradientUnits="objectBoundingBox">
      <stop offset="0.162" stop-color="#7b6567"/>
      <stop offset="0.28" stop-color="#6c5a60"/>
      <stop offset="0.47" stop-color="#5d4f59"/>
      <stop offset="0.687" stop-color="#534955"/>
      <stop offset="0.989" stop-color="#514754"/>
    </linearGradient>
    <linearGradient id="linear-gradient-5" y1="0.5" x2="1" y2="0.5" gradientUnits="objectBoundingBox">
      <stop offset="0.004" stop-color="#d16a00"/>
      <stop offset="1" stop-color="#ecb365"/>
    </linearGradient>
    <linearGradient id="linear-gradient-6" y1="0.5" x2="1" y2="0.5" gradientUnits="objectBoundingBox">
      <stop offset="0" stop-color="#ff9a6a"/>
      <stop offset="0.992" stop-color="#f17954"/>
    </linearGradient>
    <linearGradient id="linear-gradient-7" y1="0.5" x2="1" y2="0.5" gradientUnits="objectBoundingBox">
      <stop offset="0.008" stop-color="#fde3cd"/>
      <stop offset="0.517" stop-color="#fcd9bb"/>
      <stop offset="0.996" stop-color="#b0a090"/>
    </linearGradient>
    <linearGradient id="linear-gradient-8" y1="0.5" x2="1" y2="0.5" gradientUnits="objectBoundingBox">
      <stop offset="0.008" stop-color="#d8a49a"/>
      <stop offset="0.992" stop-color="#ffd1bb"/>
    </linearGradient>
    <linearGradient id="linear-gradient-9" x1="0.5" y1="0.056" x2="0.5" y2="0.994" xlink:href="#linear-gradient-4"/>
    <linearGradient id="linear-gradient-11" y1="0.5" x2="1" y2="0.5" gradientUnits="objectBoundingBox">
      <stop offset="0.008" stop-color="#ffd1bb"/>
      <stop offset="0.517" stop-color="#fbb89d"/>
      <stop offset="0.992" stop-color="#d68d74"/>
    </linearGradient>
    <linearGradient id="linear-gradient-13" x1="0" y1="0.5" x2="1" y2="0.5" xlink:href="#linear-gradient-11"/>
    <linearGradient id="linear-gradient-14" y1="0.5" x2="1" y2="0.5" gradientUnits="objectBoundingBox">
      <stop offset="0.008" stop-color="#fde3cd"/>
      <stop offset="0.517" stop-color="#fcd9bb"/>
      <stop offset="0.996" stop-color="#e8bb9a"/>
    </linearGradient>
    <linearGradient id="linear-gradient-16" y1="0.5" x2="1" y2="0.5" gradientUnits="objectBoundingBox">
      <stop offset="0.008" stop-color="#ffbd95"/>
      <stop offset="1" stop-color="#ff9a6a"/>
    </linearGradient>
    <linearGradient id="linear-gradient-17" x1="0.022" y1="0.523" x2="0.996" y2="0.467" gradientUnits="objectBoundingBox">
      <stop offset="0" stop-color="#f8e5ca"/>
      <stop offset="0.517" stop-color="#ecb365"/>
      <stop offset="1" stop-color="#db9736"/>
    </linearGradient>
    <linearGradient id="linear-gradient-18" y1="0.5" x2="1" y2="0.5" gradientUnits="objectBoundingBox">
      <stop offset="0.517" stop-color="#ecb365"/>
      <stop offset="1" stop-color="#db9736"/>
    </linearGradient>
    <linearGradient id="linear-gradient-19" x1="1.124" y1="0.812" x2="0.439" y2="0.471" gradientUnits="objectBoundingBox">
      <stop offset="0" stop-color="#ffcab0"/>
      <stop offset="0.273" stop-color="#ffdfd0"/>
      <stop offset="0.55" stop-color="#fff0e9"/>
      <stop offset="0.801" stop-color="#fffbf9"/>
      <stop offset="1" stop-color="#fff"/>
    </linearGradient>
    <linearGradient id="linear-gradient-20" x1="0.338" y1="-0.058" x2="0.526" y2="0.699" xlink:href="#linear-gradient-19"/>
    <linearGradient id="linear-gradient-21" x1="0.142" y1="0.731" x2="0.968" y2="0.049" gradientUnits="objectBoundingBox">
      <stop offset="0" stop-color="#fff"/>
      <stop offset="0.199" stop-color="#fffbf9"/>
      <stop offset="0.45" stop-color="#fff0e9"/>
      <stop offset="0.727" stop-color="#ffdfd0"/>
      <stop offset="1" stop-color="#ffcab0"/>
    </linearGradient>
    <linearGradient id="linear-gradient-22" y1="0.5" x2="1" y2="0.5" gradientUnits="objectBoundingBox">
      <stop offset="0.008" stop-color="#ffbd95"/>
      <stop offset="1" stop-color="#ff9a67"/>
    </linearGradient>
    <linearGradient id="linear-gradient-23" x1="0" y1="0.5" x2="1" y2="0.5" xlink:href="#linear-gradient-22"/>
    <linearGradient id="linear-gradient-24" x1="0" y1="0.5" x2="1" y2="0.5" xlink:href="#linear-gradient-3"/>
    <linearGradient id="linear-gradient-25" x1="0.001" y1="0.5" x2="1" y2="0.5" xlink:href="#linear-gradient-3"/>
    <linearGradient id="linear-gradient-26" x1="0" y1="0.5" x2="1" y2="0.5" xlink:href="#linear-gradient-3"/>
    <linearGradient id="linear-gradient-27" x1="0" y1="0.5" x2="1" y2="0.5" xlink:href="#linear-gradient-3"/>
    <linearGradient id="linear-gradient-28" x1="0" y1="0.5" x2="1" y2="0.5" xlink:href="#linear-gradient-3"/>
    <linearGradient id="linear-gradient-29" x1="0" y1="0.5" x2="1" y2="0.5" xlink:href="#linear-gradient-3"/>
    <linearGradient id="linear-gradient-30" x1="0.891" y1="0.949" x2="0.324" y2="0.025" gradientUnits="objectBoundingBox">
      <stop offset="0.011" stop-color="#6a87af"/>
      <stop offset="0.225" stop-color="#6881a8"/>
      <stop offset="0.532" stop-color="#657395"/>
      <stop offset="0.893" stop-color="#5f5c76"/>
      <stop offset="0.989" stop-color="#5e566d"/>
    </linearGradient>
    <linearGradient id="linear-gradient-31" y1="0.5" x2="1" y2="0.5" gradientUnits="objectBoundingBox">
      <stop offset="0.004" stop-color="#ed5f5b"/>
      <stop offset="1" stop-color="#c24242"/>
    </linearGradient>
    <linearGradient id="linear-gradient-33" x1="-0.049" y1="0.777" x2="0.946" y2="0.777" gradientUnits="objectBoundingBox">
      <stop offset="0.008" stop-color="#f17954"/>
      <stop offset="0.441" stop-color="#ff9a6a"/>
      <stop offset="0.992" stop-color="#ffbd95"/>
    </linearGradient>
    <linearGradient id="linear-gradient-34" y1="0.5" x2="1" y2="0.5" gradientUnits="objectBoundingBox">
      <stop offset="0.004" stop-color="#ee6c68"/>
      <stop offset="1" stop-color="#c24242"/>
    </linearGradient>
    <linearGradient id="linear-gradient-35" y1="0.5" x2="1" y2="0.5" gradientUnits="objectBoundingBox">
      <stop offset="0.004" stop-color="#a44042"/>
      <stop offset="0.996" stop-color="#b53336"/>
    </linearGradient>
    <linearGradient id="linear-gradient-36" y1="0.5" x2="1" y2="0.5" gradientUnits="objectBoundingBox">
      <stop offset="0.011" stop-color="#6a87af"/>
      <stop offset="0.112" stop-color="#667a9e"/>
      <stop offset="0.281" stop-color="#626a88"/>
      <stop offset="0.468" stop-color="#605e78"/>
      <stop offset="0.682" stop-color="#5e586f"/>
      <stop offset="0.989" stop-color="#5e566d"/>
    </linearGradient>
    <linearGradient id="linear-gradient-37" x1="0" y1="0.5" x2="1" y2="0.5" xlink:href="#linear-gradient-6"/>
  </defs>
  <g id="Group_12193" data-name="Group 12193" transform="translate(-363.746 -15.917)">
    <g id="Group_12189" data-name="Group 12189" transform="translate(381.695 15.917)">
      <path id="Path_80303" data-name="Path 80303" d="M415.773,27.456c-22.022,4.974-38.711,14.16-37.275,20.517s20.452,7.479,42.473,2.505,38.711-14.159,37.276-20.516S437.8,22.482,415.773,27.456Z" transform="translate(-378.403 -14.025)" fill="url(#linear-gradient)"/>
      <path id="Path_80304" data-name="Path 80304" d="M440.8,24.355a117.469,117.469,0,0,0-25.031,3.1c-22.022,4.974-38.711,14.16-37.275,20.517s20.452,7.479,42.473,2.505c3.443-.777,6.755-1.658,9.888-2.614-5.8-.371-17.063-1.977-15.427-8.9C416.967,32.475,431.738,27.258,440.8,24.355Z" transform="translate(-378.403 -14.024)" fill="#c4d6d1" style="mix-blend-mode: multiply;isolation: isolate"/>
      <path id="Path_80305" data-name="Path 80305" d="M410.327,20.79c-.141.076-14.092,7.619-18.163,17.44-4.027,9.712-4.12,16.729-4.12,16.8a.173.173,0,0,0,.174.175h0a.174.174,0,0,0,.174-.174c0-.069.1-7.023,4.093-16.667,4.022-9.706,17.865-17.192,18-17.267a.174.174,0,0,0,.072-.236A.176.176,0,0,0,410.327,20.79Z" transform="translate(-376.242 -14.828)" fill="#726f6b"/>
      <path id="Path_80306" data-name="Path 80306" d="M407.379,22.386a51.67,51.67,0,0,0-4.029,14.444,76.507,76.507,0,0,0-.042,17.238.175.175,0,0,0,.174.153l.021,0a.174.174,0,0,0,.152-.195,76.2,76.2,0,0,1,.042-17.148,51.3,51.3,0,0,1,4-14.335.176.176,0,0,0-.078-.235A.178.178,0,0,0,407.379,22.386Z" transform="translate(-372.924 -14.488)" fill="#726f6b"/>
      <path id="Path_80307" data-name="Path 80307" d="M419.6,33.32c-4.577-6.214-12.853-11.529-12.935-11.583a.176.176,0,0,0-.19.3c.083.053,8.305,5.334,12.843,11.493a124.452,124.452,0,0,1,8.6,14.359.174.174,0,0,0,.156.1.186.186,0,0,0,.08-.02.175.175,0,0,0,.076-.235A124.4,124.4,0,0,0,419.6,33.32Z" transform="translate(-372.125 -14.617)" fill="#726f6b"/>
      <path id="Path_80308" data-name="Path 80308" d="M432.588,27.023c-7.992-5.386-21.628-6.246-21.765-6.253a.169.169,0,0,0-.185.164.176.176,0,0,0,.164.185c.136.007,13.679.862,21.59,6.194a37.347,37.347,0,0,1,11.594,12.538.179.179,0,0,0,.157.1.17.17,0,0,0,.08-.02.174.174,0,0,0,.077-.234A37.729,37.729,0,0,0,432.588,27.023Z" transform="translate(-371.172 -14.829)" fill="#726f6b"/>
      <path id="Path_80309" data-name="Path 80309" d="M406.06,16.456a.7.7,0,1,0-1.36.326l14.426,60.254a.7.7,0,0,0,.681.538.671.671,0,0,0,.162-.02.7.7,0,0,0,.518-.844Z" transform="translate(-372.509 -15.917)" fill="#72411a"/>
      <path id="Path_80310" data-name="Path 80310" d="M413.985,20.9c-22.022,4.974-36.921,21.815-35.484,28.172-1.436-6.357,15.252-15.544,37.275-20.517s41.038-3.852,42.475,2.506C456.813,24.706,436.007,15.929,413.985,20.9Z" transform="translate(-378.405 -15.127)" fill="url(#linear-gradient-2)"/>
    </g>
    <g id="Group_12191" data-name="Group 12191" transform="translate(363.746 51.074)">
      <path id="Path_80311" data-name="Path 80311" d="M365.483,123.148c-1.526.818-2.119,5.407-1.489,5.937,1.309,1.1,2.014-2.155,3.879-2.847,1.159-.431,6.353-3.09,6.353-3.09l.467-2.8a19.072,19.072,0,0,0-4.314-1.748C369,118.376,368.58,121.489,365.483,123.148Z" transform="translate(-363.746 -28.034)" fill="url(#linear-gradient-3)"/>
      <path id="Path_80312" data-name="Path 80312" d="M394.828,147.793l-2.8-.7a18.513,18.513,0,0,0-1.982,3.032c-.583,1.516,1.251,3.36,2.429,8.267.2.818,5.663.834,6.082.414.764-.764-1.362-2.079-1.864-3.561C396.144,153.615,394.828,147.793,394.828,147.793Z" transform="translate(-357.868 -21.638)" fill="url(#linear-gradient-4)"/>
      <path id="Path_80313" data-name="Path 80313" d="M391.31,45.514l-4.053,3.847L388.3,68.83l8.754-6.994s-2.079-15.273-2.079-15.486Z" transform="translate(-358.47 -44.433)" fill="url(#linear-gradient-5)"/>
      <path id="Path_80314" data-name="Path 80314" d="M400.056,58.143s-.948-.752-1.73-1.534-3.078-6.548-3.078-6.548l-4.9,2.01s1.136,3.76,2,5.762a5.428,5.428,0,0,1-.426,4.274l-.583,1.048,6.529,4.654,5.685-2.186-2.187-8.53Z" transform="translate(-357.775 -43.412)" fill="url(#linear-gradient-6)"/>
      <path id="Path_80315" data-name="Path 80315" d="M401.319,55.8l-1.762.678s1.883,3.258,0,5.141c-1.807,1.807-7.682-.806-7.682-.806l-.583,1.048s-1.632,7,0,10.377,3.5,21.684,3.5,21.684l10.027,4.08,3.731-5.245s-.234-19.819-1.632-26.232A24.361,24.361,0,0,0,401.319,55.8Z" transform="translate(-357.727 -42.123)" fill="url(#linear-gradient-7)"/>
      <path id="Path_80316" data-name="Path 80316" d="M399.348,56.061c3.316,4.627,7.607,37.889,7.607,37.889s-.809-37.292-2.313-38.8S399.348,56.061,399.348,56.061Z" transform="translate(-355.756 -42.38)" fill="url(#linear-gradient-8)"/>
      <path id="Path_80317" data-name="Path 80317" d="M388,72.092s.135,7.222.951,10.72,3.147,7.228,4.779,7.228c2.1,0,2.216-6.295,1.516-8.347S388,72.092,388,72.092Z" transform="translate(-358.303 -38.468)" fill="#ed5f5b"/>
      <path id="Path_80318" data-name="Path 80318" d="M403.66,88.088c-3.264,1.166-8.861-.933-8.861-.933a70.913,70.913,0,0,0-3.963,12.707c-1.282,6.529,1.748,31.595,1.748,36.491s-.465,24.015-.465,24.015l2.8.7s4.78-19,6.178-23.316,7.694-28.213,8.277-32.993-.815-18.769-.815-18.769A33.868,33.868,0,0,1,403.66,88.088Z" transform="translate(-357.738 -35.35)" fill="url(#linear-gradient-9)"/>
      <path id="Path_80319" data-name="Path 80319" d="M394.522,100.716c-.166,2.13.782,25.415.782,26.114s-6.529-2.1-10.492-2.1-11.659.815-11.659.815l-.467,2.8s2.215.7,5.013,1.451,17.837,6.71,20.286,6.71,4.78-5.363,6.034-10.259,4.052-26.486,4.052-26.486C407.606,92.3,394.687,98.585,394.522,100.716Z" transform="translate(-361.739 -33.056)" fill="url(#linear-gradient-3)"/>
      <path id="Path_80320" data-name="Path 80320" d="M392.091,60.756c-.583,0-4.081,4.314-5.013,7.462s7.461,19.12,7.461,21.684c0,4.081-5.48,14.689-5.48,15.856s6.18,2.8,9.547,1.453,4.443-16.144,4.443-19.235-3.381-20.924-4.326-23.264S392.915,60.756,392.091,60.756Z" transform="translate(-358.526 -41.012)" fill="url(#linear-gradient-11)"/>
      <path id="Path_80321" data-name="Path 80321" d="M392.672,66.564c-1.282-1.282-5.165-1.681-5.6.583-.933,4.9,8.45,24.023,10.025,23.434s1.516-7.462,1.516-8.511S393.954,67.848,392.672,66.564Z" transform="translate(-358.525 -39.942)" fill="url(#linear-gradient-11)"/>
      <path id="Path_80322" data-name="Path 80322" d="M395.218,65.518c-2.724,4.174-1.316,25.431.365,25.486s4.239-6.325,4.638-7.3,1.093-14.928.4-16.6S396.478,63.588,395.218,65.518Z" transform="translate(-357.027 -40.129)" fill="url(#linear-gradient-13)"/>
      <path id="Path_80323" data-name="Path 80323" d="M387.077,66.914c-.678,3.557,4.086,14.614,7.348,20.178.926,1.027,1.609,1.469,1.781,1.031.77-1.963-2.891-15.156-5.106-19S387.077,66.914,387.077,66.914Z" transform="translate(-358.525 -39.708)" fill="#e5d9c9" style="mix-blend-mode: soft-light;isolation: isolate"/>
      <path id="Path_80324" data-name="Path 80324" d="M395.007,147.435l-2.8-.7a18.515,18.515,0,0,0-1.982,3.032c-.583,1.516,1.251,3.36,2.428,8.267.2.818,5.663.833,6.083.414.764-.764-1.363-2.079-1.863-3.561C396.323,153.258,395.007,147.435,395.007,147.435Z" transform="translate(-357.828 -21.718)" fill="url(#linear-gradient-14)"/>
      <path id="Path_80325" data-name="Path 80325" d="M365.861,123.289c-1.526.818-2.072,5.354-1.489,5.937s2.013-2.156,3.879-2.848c1.16-.43,6.353-3.089,6.353-3.089l.467-2.8s-2.69-1.748-4.314-1.748C369.358,118.743,368.957,121.63,365.861,123.289Z" transform="translate(-363.656 -28)" fill="url(#linear-gradient-14)"/>
      <path id="Path_80326" data-name="Path 80326" d="M389,45.675c-3.039,2.164-2.839,6.455.092,9.916,3.457,4.081,8.21,3.389,9.8,2.37,1.512-.971,1.1-4.948-1.33-8.783S391.156,44.137,389,45.675Z" transform="translate(-358.571 -44.542)" fill="url(#linear-gradient-16)"/>
      <path id="Path_80327" data-name="Path 80327" d="M386.293,48.374c-.525,2.012,2.233,20.373,2.233,20.373l2.75-3.831s-1.282-13.063-.933-14.9a4.188,4.188,0,0,1,1.457-2.6l-3.174-1.529A3.536,3.536,0,0,0,386.293,48.374Z" transform="translate(-358.701 -44.35)" fill="url(#linear-gradient-17)"/>
      <path id="Path_80328" data-name="Path 80328" d="M388.187,46.165l3.174,1.529S392.322,46,392.978,46a5.706,5.706,0,0,1,1.784.545s-2.048-1.731-3.4-1.886C388.8,44.371,388.187,46.165,388.187,46.165Z" transform="translate(-358.261 -44.631)" fill="url(#linear-gradient-18)"/>
      <g id="Group_12190" data-name="Group 12190" transform="translate(33.359 4.578)">
        <path id="Path_80329" data-name="Path 80329" d="M395.228,51.571a5.878,5.878,0,0,1-1.182-2.077c-.326-.032-1.781.463-1.025.815,1.477.689,2.084,3.7,2.517,3.832.189.056,1.227-.626,1.256-.933S395.877,52.358,395.228,51.571Z" transform="translate(-390.584 -48.118)" fill="url(#linear-gradient-19)" style="mix-blend-mode: multiply;isolation: isolate"/>
        <path id="Path_80330" data-name="Path 80330" d="M396.373,54.393a1.685,1.685,0,0,0,.738-1.251l-2.591,1.794A3.88,3.88,0,0,0,396.373,54.393Z" transform="translate(-390.199 -47.299)" fill="#ed5f5b"/>
        <path id="Path_80331" data-name="Path 80331" d="M391.595,51.24a2.513,2.513,0,0,0-.528,2.264l3.765-2.221A2.084,2.084,0,0,0,391.595,51.24Z" transform="translate(-390.991 -47.898)" fill="url(#linear-gradient-20)" style="mix-blend-mode: multiply;isolation: isolate"/>
        <path id="Path_80332" data-name="Path 80332" d="M394.77,51.053l1.756-1.183a12.539,12.539,0,0,0-1.021-1.5C393.71,49.072,394.77,51.053,394.77,51.053Z" transform="translate(-390.213 -48.37)" fill="url(#linear-gradient-21)" style="mix-blend-mode: multiply;isolation: isolate"/>
        <path id="Path_80333" data-name="Path 80333" d="M396.262,53.976c.245-.192.85-.834.85-.834l-2.591,1.794S396.018,54.167,396.262,53.976Z" transform="translate(-390.199 -47.299)" fill="#d1595b"/>
        <path id="Path_80334" data-name="Path 80334" d="M393.141,51.168s.055.1-.257.452a14.475,14.475,0,0,1-1.368,1.147,5.055,5.055,0,0,0,2.284-1.215l-.362-.133Z" transform="translate(-390.873 -47.742)" fill="#9f5c44"/>
        <path id="Path_80335" data-name="Path 80335" d="M392.822,50.994c-.539.094-1.281,1.773-1.281,1.773s.721-.377,1.12-.635a4.479,4.479,0,0,0,.77-.672S393.176,50.931,392.822,50.994Z" transform="translate(-390.868 -47.782)" fill="url(#linear-gradient-22)"/>
        <path id="Path_80336" data-name="Path 80336" d="M395.619,49.439s.056.1-.257.452-.781.806-.781.806c1.413-.327,1.7-.873,1.7-.873l-.362-.133Z" transform="translate(-390.185 -48.13)" fill="#9f5c44"/>
        <path id="Path_80337" data-name="Path 80337" d="M395.307,49.265c-.539.1-.726,1.472-.726,1.472a5.353,5.353,0,0,0,.564-.334,4.513,4.513,0,0,0,.771-.672S395.661,49.2,395.307,49.265Z" transform="translate(-390.185 -48.17)" fill="url(#linear-gradient-23)"/>
      </g>
      <path id="Path_80338" data-name="Path 80338" d="M373.068,120.32s11.369.108,14.05.923c2.091.637,6.386,1.351,7.391.408-1.793-.355-6.607-2.146-9.782-2.146C380.762,119.5,373.068,120.32,373.068,120.32Z" transform="translate(-361.654 -27.829)" fill="#e5d9c9" style="mix-blend-mode: soft-light;isolation: isolate"/>
      <path id="Path_80339" data-name="Path 80339" d="M390.505,100.455c-.027,4.421.8,24.77.8,25.422,0,0,2.216-7.411,1.633-11.085S390.509,100.476,390.505,100.455Z" transform="translate(-357.741 -32.104)" fill="#e5d9c9" style="mix-blend-mode: soft-light;isolation: isolate"/>
      <path id="Path_80340" data-name="Path 80340" d="M392.867,88.906c-1.62,4.522-4.184,9.736-4.184,10.535,0,.648,1.911,1.437,4.185,1.783,1.713-.629,0-12.318,0-12.318Z" transform="translate(-358.15 -34.695)" fill="#e5d9c9" style="mix-blend-mode: soft-light;isolation: isolate"/>
      <path id="Path_80341" data-name="Path 80341" d="M371.213,122.082c.015.448.01.9-.015,1.343s.675.449.7,0,.029-.9.015-1.343S371.2,121.631,371.213,122.082Z" transform="translate(-362.074 -27.326)" fill="url(#linear-gradient-24)"/>
      <path id="Path_80342" data-name="Path 80342" d="M370.86,122.653a.35.35,0,0,0-.7,0,5.421,5.421,0,0,0,.211,1.429.35.35,0,0,0,.675-.186A4.64,4.64,0,0,1,370.86,122.653Z" transform="translate(-362.306 -27.198)" fill="url(#linear-gradient-25)"/>
      <path id="Path_80343" data-name="Path 80343" d="M369.81,123.318c-.027-.448-.727-.451-.7,0a3.224,3.224,0,0,0,.347,1.242c.2.405.8.05.6-.354A2.324,2.324,0,0,1,369.81,123.318Z" transform="translate(-362.542 -27.049)" fill="url(#linear-gradient-26)"/>
      <path id="Path_80344" data-name="Path 80344" d="M394.838,148.938a2.1,2.1,0,0,1-1.659.147c-.431-.135-.615.54-.185.675a2.821,2.821,0,0,0,2.2-.218C395.59,149.329,395.236,148.725,394.838,148.938Z" transform="translate(-357.237 -21.234)" fill="url(#linear-gradient-27)"/>
      <path id="Path_80345" data-name="Path 80345" d="M395.218,150.031a4.164,4.164,0,0,1-1.758.328.35.35,0,0,0,0,.7,4.965,4.965,0,0,0,2.111-.422C395.985,150.457,395.628,149.855,395.218,150.031Z" transform="translate(-357.154 -20.986)" fill="url(#linear-gradient-28)"/>
      <path id="Path_80346" data-name="Path 80346" d="M395.239,151.286a1.745,1.745,0,0,1-1.2.124c-.438-.105-.624.569-.186.675a2.521,2.521,0,0,0,1.741-.195C396,151.691,395.643,151.089,395.239,151.286Z" transform="translate(-357.046 -20.706)" fill="url(#linear-gradient-29)"/>
    </g>
    <g id="Group_12192" data-name="Group 12192" transform="translate(394.311 43.363)">
      <path id="Path_80347" data-name="Path 80347" d="M406.714,157.367c.705.017,12.709.08,12.709.08v-2.219L407.415,151.5S406.009,157.35,406.714,157.367Z" transform="translate(-384.713 -12.938)" fill="#583225"/>
      <path id="Path_80348" data-name="Path 80348" d="M405.958,94.6s-2.04,32.41-2.04,35.907S408,164.787,408,164.787a16.506,16.506,0,0,0,2.449,3.731c1.282,1.282,9.56,0,9.56,0a84.924,84.924,0,0,0,1.166-11.659c0-4.9-1.4-17.953-1.4-23.316s4.9-18.186,6.762-26.581A49.521,49.521,0,0,0,427.7,92.273Z" transform="translate(-385.296 -26.228)" fill="#5e566d"/>
      <path id="Path_80349" data-name="Path 80349" d="M423.5,98.921c.224-4.464-11.9,0-17.879,0-.579,9.362-1.707,27.945-1.707,30.544,0,3.5,4.08,34.276,4.08,34.276a16.506,16.506,0,0,0,2.449,3.731c.792.792,4.251.6,6.782.348.132-1.519.912-10.639.912-15.97,0-5.829-2.483-12.439-.618-25.029S423.134,106.315,423.5,98.921Z" transform="translate(-385.296 -25.182)" fill="url(#linear-gradient-30)"/>
      <path id="Path_80350" data-name="Path 80350" d="M398.871,157.446c0,1.048,18.537,0,19,0s.486-1.867.486-1.867-7.948-4.079-9.231-4.079S398.871,156.4,398.871,157.446Z" transform="translate(-386.429 -12.938)" fill="#773c34"/>
      <path id="Path_80351" data-name="Path 80351" d="M408.965,53.888c-3.965,2.1-10.5,10.242-11.088,12.7-.432,1.815-4.8,14.874-5.64,16.554a10.738,10.738,0,0,0-1.458,4.322c0,1.4.932,7,2.33,7,1.632,0,9.444-13.173,11.192-11.425s2.1,21.452,2.1,21.452,9.094,1.166,15.389,0,8.86-3.264,8.86-3.264-1.866-32.876-6.762-41.738S412.928,51.79,408.965,53.888Z" transform="translate(-388.245 -35.176)" fill="url(#linear-gradient-31)"/>
      <path id="Path_80352" data-name="Path 80352" d="M395.732,40.556C393.141,42.663,393.5,47.4,397,51.7c3.389,4.161,5.2,5.232,6.683,3.973,2.548-2.159,5.141-6.835,2.7-11.6C404.007,39.423,398.323,38.449,395.732,40.556Z" transform="translate(-387.513 -38.071)" fill="url(#linear-gradient-6)"/>
      <path id="Path_80353" data-name="Path 80353" d="M399.434,51.5a17.667,17.667,0,0,1,2.508,3.744A12.141,12.141,0,0,1,403,58.961a35.131,35.131,0,0,1,6.274-2.535c3.449-1,4.083-2.757,4.083-2.757l-6.768-6.908Z" transform="translate(-386.302 -36.441)" fill="url(#linear-gradient-33)"/>
      <path id="Path_80354" data-name="Path 80354" d="M407.508,42.605c-2.375-4.644-8.151-5.685-11.624-2.217-3.972,3.967-2.16,7.2,1.677,10.731,2.565,2.362,6.162,3.852,8.076,3.782,1.032-.038,4.452-2.744,4.175-3.978C409.378,48.976,408.936,45.4,407.508,42.605Z" transform="translate(-387.6 -38.333)" fill="#904133"/>
      <path id="Path_80355" data-name="Path 80355" d="M414.416,52.7c-2.361-.455-13.122,5.652-13.122,5.652s11.945,14,18.312,12.489C425.9,69.341,424.226,54.59,414.416,52.7Z" transform="translate(-385.885 -35.115)" fill="url(#linear-gradient-34)"/>
      <path id="Path_80356" data-name="Path 80356" d="M414.416,52.693l-13.122,5.652S415.7,65.3,419.809,60.488C423.235,56.479,414.416,52.693,414.416,52.693Z" transform="translate(-385.885 -35.11)" fill="url(#linear-gradient-35)"/>
      <path id="Path_80357" data-name="Path 80357" d="M411.324,51.168a4.308,4.308,0,0,1-.812,2.6c-.828.828-8.549,1.779-8.549,1.779l-.67,3.139s9.626-.86,11.615-1.842,1.507-3.81,1.507-3.81Z" transform="translate(-385.885 -35.452)" fill="url(#linear-gradient-36)"/>
      <path id="Path_80358" data-name="Path 80358" d="M398.327,64.035c-.495,1.99-4.791,14.831-5.625,16.5a19.3,19.3,0,0,0-1.138,2.583c-.193.591-2.855-6.493-2.855-5.936,0,.284,1.486,7.389,2.534,8.767.246.323.894.127,1.19-.168,1.358-1.358,10.16-18.932,7.99-21.1A2.631,2.631,0,0,0,398.327,64.035Z" transform="translate(-388.709 -32.567)" fill="#e5d9c9" style="mix-blend-mode: soft-light;isolation: isolate"/>
      <path id="Path_80359" data-name="Path 80359" d="M396.784,48.287c-.372.245-.2,1.157.375,2.036s1.351,1.393,1.723,1.148.206-1.157-.373-2.036S397.158,48.041,396.784,48.287Z" transform="translate(-386.941 -36.113)" fill="url(#linear-gradient-37)"/>
    </g>
    <path id="Path_80360" data-name="Path 80360" d="M399.219,62.9c.119-.337,1.035-.25,1.123-.524.191-.593-3.028-.567-3.421-.29-1.485,1.046-2.4,5.169-2.4,5.169s3.878-.109,4.473-.852c.351-.44-1.017-.628-1.017-.628.137-.236,1.469-.158,1.832-.7.378-.561-1.211-.564-1.107-.814.088-.214,1.575.056,1.828-.355C400.889,63.328,399.137,63.134,399.219,62.9Z" transform="translate(6.906 10.318)" fill="#ffbd95"/>
  </g>
</svg>
