<svg xmlns="http://www.w3.org/2000/svg" xmlns:xlink="http://www.w3.org/1999/xlink" width="76.397" height="70" viewBox="0 0 76.397 70">
  <defs>
    <clipPath id="clip-path">
      <path id="heart" d="M55.364,0A21.039,21.039,0,0,0,38.182,8.945,21.039,21.039,0,0,0,21,0C9.813,0,0,10.409,0,22.273c0,11.563,6.529,23.472,18.882,34.44A101.581,101.581,0,0,0,37.6,69.858a1.275,1.275,0,0,0,1.168,0,101.59,101.59,0,0,0,18.71-13.145c12.36-10.969,18.889-22.878,18.889-34.44C76.365,10.409,66.552,0,55.364,0Z" transform="translate(0 0)" fill="#f36"/>
    </clipPath>
  </defs>
  <g id="Group_6274" data-name="Group 6274" transform="translate(-132.953 -259)">
    <path id="Path_74110" data-name="Path 74110" d="M91.4,60.3a35,35,0,1,1-35,35A35.017,35.017,0,0,1,91.4,60.3Z" transform="translate(80.086 198.697)" fill="none" fill-rule="evenodd"/>
    <g id="Mask_Group_267" data-name="Mask Group 267" transform="translate(132.953 259)" clip-path="url(#clip-path)">
      <g id="Group_6273" data-name="Group 6273" transform="translate(10.499 20.034)">
        <path id="Path_74106" data-name="Path 74106" d="M156.725,128.145a4.941,4.941,0,1,1-4.941,4.941A4.943,4.943,0,0,1,156.725,128.145Z" transform="translate(-117.837 -128.145)" fill="#11cbd7" fill-rule="evenodd"/>
        <path id="Path_74107" data-name="Path 74107" d="M107.2,153.115a4.082,4.082,0,1,1-4.082,4.083A4.085,4.085,0,0,1,107.2,153.115Z" transform="translate(-90.072 -142.392)" fill="#f36" fill-rule="evenodd"/>
        <path id="Path_74108" data-name="Path 74108" d="M80.908,174.4c-3.549-6.09-6.249-21.277-6.877-25.271-.8-5.123-2.553-8.16.182-9.062,2.934-.968,5.108,7.087,10.9,13.452,6.237,6.854,14.544,2.335,16.183,6.644.843,2.214-4.866,4.213-7.253,7.324-3.879,5.057-3.532,8.3-3.332,13.04" transform="translate(-72.736 -134.902)" fill="#f36" fill-rule="evenodd"/>
        <path id="Path_74109" data-name="Path 74109" d="M141.981,178.449c-.579-2.569-.2-5.421-.414-8.035a22.974,22.974,0,0,0-4.153-11.861,15.912,15.912,0,0,0-4.1-3.964,51.089,51.089,0,0,1-5.012-2.921c-1.233-.981-2.832-2.814-2.569-4.547.309-2.038,2.957-1.826,4.432-1.7,4.665.411,9.355,1.021,13.939-.365,4.245-1.284,7.246-4.486,9.9-7.857.448-.57,2.06-2.74,3.106-2.174,1.7.919,1.488,4.154,1.55,5.722a50.388,50.388,0,0,1-2.576,18.63c-1.595,4.622-3.737,9.609-7.163,13.183" transform="translate(-102.959 -132.02)" fill="#11cbd7" fill-rule="evenodd"/>
      </g>
    </g>
    <path id="heart-2" data-name="heart" d="M55.364,0A21.039,21.039,0,0,0,38.182,8.945,21.039,21.039,0,0,0,21,0C9.813,0,0,10.409,0,22.273c0,11.563,6.529,23.472,18.882,34.44A101.581,101.581,0,0,0,37.6,69.858a1.275,1.275,0,0,0,1.168,0,101.59,101.59,0,0,0,18.71-13.145c12.36-10.969,18.889-22.878,18.889-34.44C76.365,10.409,66.552,0,55.364,0ZM38.182,67.281C33.508,64.7,2.545,46.679,2.545,22.273,2.545,11.764,11.168,2.545,21,2.545a18.492,18.492,0,0,1,16.073,9.407,1.325,1.325,0,0,0,2.217,0A18.492,18.492,0,0,1,55.364,2.545c9.832,0,18.455,9.219,18.455,19.727,0,24.406-30.962,42.428-35.637,45.008Zm0,0" transform="translate(132.986 259)" fill="#f36"/>
  </g>
</svg>
