<svg xmlns="http://www.w3.org/2000/svg" width="151" height="151" viewBox="0 0 151 151">
  <g id="Group_12029" data-name="Group 12029" transform="translate(-112 -208)">
    <circle id="Ellipse_1106" data-name="Ellipse 1106" cx="33.5" cy="33.5" r="33.5" transform="translate(154 250)" fill="#fff"/>
    <g id="Group_9969" data-name="Group 9969" transform="translate(6)">
      <g id="checked" transform="translate(142 215.575)">
        <g id="Group_9968" data-name="Group 9968" transform="translate(0 27.425)">
          <path id="Path_77271" data-name="Path 77271" d="M4.842,48.342A39.2,39.2,0,0,0,1.9,55.106a29.593,29.593,0,0,0-.961,3.548,29.376,29.376,0,0,0-.628,3.715l-.129.943-.055.462L.111,64.2.055,65.917l-.037.85L0,67.192v.591l.111,1.83.129,1.83c.074.61.185,1.2.3,1.811l.3,1.811c.092.61.3,1.183.444,1.774A35.732,35.732,0,0,0,5.969,89.2a38.251,38.251,0,0,0,8.963,10.016A38.906,38.906,0,0,0,26.945,105.6l3.327.887c1.127.259,2.347.407,3.53.591l.887.129.776.055,1.552.092.776.037.388.018.2.018h.407l1.719-.074A39.557,39.557,0,0,0,65.384,96.965a39.991,39.991,0,0,0,8.353-10.811,39.361,39.361,0,0,0,2.7-6.339l.517-1.719.259-.869c.074-.277.111-.517.166-.776l.333-1.515.166-.758.037-.185.074-.37.074-.425a9.994,9.994,0,0,0-.7-4.99c-.444-.758-.869-.628-1.238.018a18.194,18.194,0,0,0-1.183,3.234A49.261,49.261,0,0,1,68.4,84.878,39.987,39.987,0,0,1,57.013,95.69a33.032,33.032,0,0,1-18.129,5.082h-.2l-.277-.018-.647-.037-1.294-.092-1.294-.092c-.407-.055-.758-.129-1.127-.2-.739-.148-1.478-.259-2.218-.407l-2.273-.628A33.4,33.4,0,0,1,14.045,89.129,32.19,32.19,0,0,1,9,81.275a33.476,33.476,0,0,1-2.661-8.982l-.2-1.164c-.055-.388-.055-.776-.092-1.164l-.074-1.183-.037-.591-.018-.3L5.9,67.747v-.129l.074-2.458c.018-.425,0-.906.055-1.275l.148-1.109c.148-.739.2-1.441.425-2.2l.628-2.236c.185-.758.554-1.46.795-2.181l.425-1.09c.148-.37.351-.7.5-1.053a34.027,34.027,0,0,1,9-11.458,33.738,33.738,0,0,1,40.935-.924c2.883,2.051,5.23,4.269,6.875,5.285L67.9,44.646a8.241,8.241,0,0,0-.554-1.294,19.875,19.875,0,0,0-5.267-6.32,38.318,38.318,0,0,0-16.411-7.817l-2.255-.333-2.384-.259-2.144-.111h-.37l-.3.018-.573.018-1.164.037c-.776.055-1.552.018-2.31.148l-2.292.333-1.146.166-1.127.277-2.236.573A38.811,38.811,0,0,0,4.842,48.342Z" transform="translate(0 -27.425)" fill="#f36"/>
        </g>
      </g>
      <path id="Path_77272" data-name="Path 77272" d="M65.754,46.919c-3.53,3.715-7.041,7.485-10.571,11.2A155.567,155.567,0,0,0,39.512,71.887c-4.066-4.047-8.168-8.076-12.086-12.271a3.157,3.157,0,0,0-2.218-.7c-1.109.166-1.035,1.312-.554,2.624a39.812,39.812,0,0,0,8.168,12.419l4.657,5.119a2.725,2.725,0,0,0,3.862.185l.185-.185C49.14,72.182,56.735,65.271,63.7,57.638l3.474-3.16a274.622,274.622,0,0,0,20.809-21.2c1.83-2.125,2.883-4.38,1.552-5.415-1.22-.943-3.419-.351-5.581,1.552-3.9,3.419-7.836,6.856-11.495,10.534-1.534,1.552-3.049,3.123-4.565,4.694C67.768,44.24,65.754,46.919,65.754,46.919Z" transform="translate(142 215.575)" fill="#07d3df"/>
    </g>
  </g>
</svg>
