<svg xmlns="http://www.w3.org/2000/svg" width="322.883" height="217.716" viewBox="0 0 322.883 217.716">
  <g id="Group_12261" data-name="Group 12261" transform="translate(-26.082 -438.936)">
    <circle id="Ellipse_1081" data-name="Ellipse 1081" cx="14.909" cy="14.909" r="14.909" transform="translate(80.568 475.983)" fill="#9672c2"/>
    <path id="Path_74403" data-name="Path 74403" d="M-15379.4,851.041H-15334V839.018s-4.393-7.013-14.257,4.7a5.152,5.152,0,0,1-4.547,1.85c-2.105-.493-3.19-4.689-8.709-3.391-3.387.8-5.743,3.226-9.172,5.087A65.178,65.178,0,0,1-15379.4,851.041Z" transform="translate(15682.968 -398)" fill="#8359b6"/>
    <path id="Path_74404" data-name="Path 74404" d="M-15379.4,847.706h34.663v-9.181s-3.354-5.355-10.887,3.59a3.936,3.936,0,0,1-3.473,1.412c-1.606-.376-2.435-3.58-6.649-2.589-2.587.608-4.386,2.463-7,3.884A49.8,49.8,0,0,1-15379.4,847.706Z" transform="translate(15409.783 -297.301)" fill="#cebde3"/>
    <circle id="Ellipse_1083" data-name="Ellipse 1083" cx="2.182" cy="2.182" r="2.182" transform="translate(203.479 502.165)" fill="#9672c2"/>
    <rect id="Rectangle_3136" data-name="Rectangle 3136" width="13.818" height="1.455" transform="translate(258.753 491.983)" fill="#f36"/>
    <circle id="Ellipse_1086" data-name="Ellipse 1086" cx="1.455" cy="1.455" r="1.455" transform="translate(159.842 574.893)" fill="#9672c2"/>
    <rect id="Rectangle_3137" data-name="Rectangle 3137" width="7.273" height="1.455" transform="translate(156.933 564.711)" fill="#f36"/>
    <g id="Group_6428" data-name="Group 6428" transform="translate(26.082 562.988)">
      <g id="Group_6427" data-name="Group 6427" transform="translate(0 0)">
        <g id="Group_6424" data-name="Group 6424" transform="translate(0 18.907)">
          <path id="Path_74327" data-name="Path 74327" d="M63.021,176.632c-1.649,5.242-.029,12.344.991,17.621,1.844,9.542,6.118,18.32,7.991,27.772.119.6,1.153.473,1.079-.146-1.767-14.946-12.649-29.321-9.723-45.153a.176.176,0,0,0-.338-.094Z" transform="translate(-59.165 -172.842)" fill="#7378c0"/>
          <g id="Group_6423" data-name="Group 6423">
            <path id="Path_74328" data-name="Path 74328" d="M62.908,177.323c1.988-1.429,2.482-5.545,1.589-5.834S61.9,173.9,62.908,177.323Z" transform="translate(-59.243 -171.468)" fill="#7378c0"/>
            <path id="Path_74329" data-name="Path 74329" d="M58.157,180.539c-.548.682.111,4.6,3.371,6.279C61.195,181.443,58.617,179.966,58.157,180.539Z" transform="translate(-57.984 -173.91)" fill="#7378c0"/>
            <path id="Path_74330" data-name="Path 74330" d="M66.886,188c-1.017.167-3.71,3.892-2.395,7.644C68.655,190.951,67.74,187.859,66.886,188Z" transform="translate(-59.662 -175.975)" fill="#7378c0"/>
            <path id="Path_74331" data-name="Path 74331" d="M59.078,200.763c-.47.932,1.539,5.173,6.079,6.114C63.108,200.9,59.472,199.981,59.078,200.763Z" transform="translate(-58.264 -179.392)" fill="#7378c0"/>
            <path id="Path_74332" data-name="Path 74332" d="M71.211,204.282c-1.136.217-3.691,4.482-1.674,8.668C73.635,207.555,72.165,204.1,71.211,204.282Z" transform="translate(-60.93 -180.415)" fill="#7378c0"/>
            <path id="Path_74333" data-name="Path 74333" d="M64.119,219.823c-.4,1.019,2.117,5.3,6.976,5.906C68.365,219.621,64.457,218.969,64.119,219.823Z" transform="translate(-59.646 -184.572)" fill="#7378c0"/>
            <path id="Path_74334" data-name="Path 74334" d="M62.353,189.065a.391.391,0,0,0,.31.079Z" transform="translate(-59.176 -176.267)" fill="#7378c0"/>
            <path id="Path_74335" data-name="Path 74335" d="M62.33,189.052c-.1-.06-.06-.028,0,0Z" transform="translate(-59.153 -176.254)" fill="#7378c0"/>
          </g>
        </g>
        <g id="Group_6425" data-name="Group 6425" transform="translate(21.69 28.251)">
          <path id="Path_74336" data-name="Path 74336" d="M98.3,190.143c-3.3,13.426-12.762,27.919-9.994,42.094.113.577,1.116.455,1.041-.141-1.9-15.111,7.85-27.353,9.364-41.9.025-.237-.356-.282-.412-.056Z" transform="translate(-87.807 -185.865)" fill="#7378c0"/>
          <path id="Path_74337" data-name="Path 74337" d="M101.884,190.337c1.6-1.809,1.1-5.924.16-6.019S100.091,187.212,101.884,190.337Z" transform="translate(-91.376 -184.316)" fill="#7378c0"/>
          <path id="Path_74338" data-name="Path 74338" d="M102.129,203.782c.649.833-.971,4.826-5.85,5.909C97.7,204.1,101.583,203.083,102.129,203.782Z" transform="translate(-90.117 -189.572)" fill="#7378c0"/>
          <path id="Path_74339" data-name="Path 74339" d="M95.342,221.951c.857.823-.257,5.466-5.455,7.383C90.51,222.957,94.623,221.261,95.342,221.951Z" transform="translate(-88.374 -194.541)" fill="#7378c0"/>
          <path id="Path_74340" data-name="Path 74340" d="M97.425,193.8c.955.149,2.812,3.625.764,7.157C95.1,196.586,96.624,193.675,97.425,193.8Z" transform="translate(-90.133 -186.902)" fill="#7378c0"/>
          <path id="Path_74341" data-name="Path 74341" d="M91.271,208.492c1.209.144,3.4,4.4.612,8.895C88.171,212.069,90.257,208.371,91.271,208.492Z" transform="translate(-88.341 -190.908)" fill="#7378c0"/>
        </g>
        <g id="Group_6426" data-name="Group 6426" transform="translate(10.277)">
          <path id="Path_74342" data-name="Path 74342" d="M82.517,151.743c-2.147,9.924-3.9,19.794-3.438,30.037.514,11.314,3.011,22.344,2.964,33.737a.756.756,0,0,0,1.511,0c.078-10.977-2.548-21.376-3.418-32.244-.868-10.835,2.208-20.866,2.891-31.462a.261.261,0,0,0-.51-.068Z" transform="translate(-73.993 -147.131)" fill="#7378c0"/>
          <path id="Path_74343" data-name="Path 74343" d="M83.541,151.493c1.751-1.844,1.069-5.947.006-6.02S81.426,148.409,83.541,151.493Z" transform="translate(-74.898 -145.471)" fill="#7378c0"/>
          <path id="Path_74344" data-name="Path 74344" d="M87.168,156.681c.679.708-.384,4.594-4.719,6.114C83.162,157.44,86.6,156.087,87.168,156.681Z" transform="translate(-74.933 -148.493)" fill="#7378c0"/>
          <path id="Path_74345" data-name="Path 74345" d="M76.437,164.391c1.231.012,4.284,3.579,2.444,7.839C74.093,167.865,75.4,164.381,76.437,164.391Z" transform="translate(-73.026 -150.631)" fill="#7378c0"/>
          <path id="Path_74346" data-name="Path 74346" d="M72.814,185.567c1.383-.237,5.808,3.149,4.943,8.313C71.164,189.949,71.654,185.767,72.814,185.567Z" transform="translate(-72.115 -156.403)" fill="#7378c0"/>
          <path id="Path_74347" data-name="Path 74347" d="M74.563,212.136c1.5-.2,6.538,3.527,5.878,8.912C73,216.672,73.3,212.3,74.563,212.136Z" transform="translate(-72.593 -163.65)" fill="#7378c0"/>
          <path id="Path_74348" data-name="Path 74348" d="M84.486,174.936c-1.287-.135-5.283,3.187-4.332,7.811C86.139,178.806,85.565,175.048,84.486,174.936Z" transform="translate(-74.268 -153.506)" fill="#7378c0"/>
          <path id="Path_74349" data-name="Path 74349" d="M84.045,195.129c-1.433.346-4.807,5.436-2.448,10.034C86.95,198.651,85.247,194.839,84.045,195.129Z" transform="translate(-74.479 -159.01)" fill="#7378c0"/>
        </g>
      </g>
      <path id="Path_74350" data-name="Path 74350" d="M86.066,263.865H70.2a110.837,110.837,0,0,1-5.257-27.712h26.38A105.339,105.339,0,0,1,86.066,263.865Z" transform="translate(-59.882 -170.202)" fill="#ff75c0"/>
      <path id="Path_74351" data-name="Path 74351" d="M85.515,236.153c-.945,29.044-12.137,25.314-15.046,23.715.39,1.357.8,2.7,1.238,4H87.573a105.339,105.339,0,0,0,5.257-27.712Z" transform="translate(-61.389 -170.202)" fill="#65529d" opacity="0.35" style="mix-blend-mode: multiply;isolation: isolate"/>
    </g>
    <g id="Group_6441" data-name="Group 6441" transform="translate(40.999 494.174)">
      <g id="Group_6438" data-name="Group 6438" transform="translate(84.807 0)">
        <path id="Path_74399" data-name="Path 74399" d="M232.893,146.408c-1.661.324-3.617,1.71-4.485,4.8-1.927-2.567-3.671-3.26-5.337-2.961-5.691,1.022-8.678,11.623,7.743,15.57C244.875,153.354,237.561,145.5,232.893,146.408Z" transform="translate(-218.551 -93.202)" fill="#f74c64"/>
        <path id="Path_74400" data-name="Path 74400" d="M277.083,127.689c-1.162-.813-3.135-1.185-5.5.088.426-2.656-.171-4.11-1.321-4.94-3.929-2.836-12.059,1.534-4.88,13.731C279.871,138.956,280.35,129.972,277.083,127.689Z" transform="translate(-222.13 -91.222)" fill="#f74c64"/>
        <path id="Path_74401" data-name="Path 74401" d="M246.518,89.456a4.241,4.241,0,0,0-3.975,2.168c-.7-2.1-1.7-2.929-2.851-3.094-3.946-.564-8.2,5.727,1.694,11.869C252.855,96.6,249.771,89.87,246.518,89.456Z" transform="translate(-219.915 -88.495)" fill="#f74c64"/>
      </g>
    </g>
    <circle id="Ellipse_1087" data-name="Ellipse 1087" cx="1.455" cy="1.455" r="1.455" transform="translate(204.207 568.348)" fill="#f11"/>
  </g>
</svg>
