<svg xmlns="http://www.w3.org/2000/svg" xmlns:xlink="http://www.w3.org/1999/xlink" width="338.933" height="304.064" viewBox="0 0 338.933 304.064">
  <defs>
    <linearGradient id="linear-gradient" x1="-0.238" y1="2.192" x2="-0.366" y2="1.147" gradientUnits="objectBoundingBox">
      <stop offset="0" stop-color="#ffb8a8"/>
      <stop offset="1" stop-color="#ff9696"/>
    </linearGradient>
    <linearGradient id="linear-gradient-2" x1="0.28" y1="1.983" x2="-0.011" y2="0.447" xlink:href="#linear-gradient"/>
    <linearGradient id="linear-gradient-3" x1="-5.413" y1="-12.864" x2="-5.413" y2="-11.003" xlink:href="#linear-gradient"/>
    <linearGradient id="linear-gradient-4" x1="-19.148" y1="-58.17" x2="-19.148" y2="-49.222" xlink:href="#linear-gradient"/>
    <linearGradient id="linear-gradient-5" x1="7.941" y1="-5.694" x2="9.455" y2="-5.025" xlink:href="#linear-gradient"/>
    <linearGradient id="linear-gradient-6" x1="8.185" y1="-5.149" x2="9.885" y2="-4.412" xlink:href="#linear-gradient"/>
    <linearGradient id="linear-gradient-7" x1="20.404" y1="0.548" x2="22.937" y2="1.56" xlink:href="#linear-gradient"/>
    <linearGradient id="linear-gradient-8" x1="7.08" y1="-4.589" x2="8.567" y2="-3.937" xlink:href="#linear-gradient"/>
    <linearGradient id="linear-gradient-9" x1="0.747" y1="-0.217" x2="2.4" y2="0.578" xlink:href="#linear-gradient"/>
    <linearGradient id="linear-gradient-10" x1="-0.111" y1="-0.978" x2="2.859" y2="-0.02" xlink:href="#linear-gradient"/>
    <linearGradient id="linear-gradient-11" x1="0.687" y1="0.863" x2="0.687" y2="-0.137" xlink:href="#linear-gradient"/>
    <linearGradient id="linear-gradient-12" x1="1.201" y1="0.26" x2="1.201" y2="-1.087" xlink:href="#linear-gradient"/>
    <linearGradient id="linear-gradient-13" x1="0.495" y1="-0.987" x2="0.495" y2="1.842" xlink:href="#linear-gradient"/>
  </defs>
  <g id="Group_12016" data-name="Group 12016" transform="translate(-26.082 -435.936)">
    <circle id="Ellipse_1081" data-name="Ellipse 1081" cx="20.5" cy="20.5" r="20.5" transform="translate(101 491)" fill="#9672c2"/>
    <path id="Path_74403" data-name="Path 74403" d="M-15379.4,856.33h62.415V839.8s-6.04-9.643-19.6,6.464a7.084,7.084,0,0,1-6.252,2.543c-2.894-.678-4.386-6.447-11.975-4.663-4.656,1.095-7.9,4.435-12.61,6.994A89.616,89.616,0,0,1-15379.4,856.33Z" transform="translate(15681.995 -401)" fill="#8359b6" opacity="0.55"/>
    <path id="Path_74404" data-name="Path 74404" d="M-15379.4,851.745h47.66V839.122s-4.612-7.364-14.969,4.936a5.41,5.41,0,0,1-4.774,1.942c-2.209-.517-3.349-4.923-9.144-3.56-3.556.836-6.03,3.387-9.629,5.341A68.453,68.453,0,0,1-15379.4,851.745Z" transform="translate(15411.396 -258.415)" fill="#cebde3"/>
    <circle id="Ellipse_1083" data-name="Ellipse 1083" cx="3" cy="3" r="3" transform="translate(270 527)" fill="#9672c2"/>
    <rect id="Rectangle_3136" data-name="Rectangle 3136" width="19" height="2" transform="translate(346 513)" fill="#f36"/>
    <circle id="Ellipse_1086" data-name="Ellipse 1086" cx="2" cy="2" r="2" transform="translate(210 627)" fill="#9672c2"/>
    <rect id="Rectangle_3137" data-name="Rectangle 3137" width="10" height="2" transform="translate(206 613)" fill="#f36"/>
    <g id="Group_6428" data-name="Group 6428" transform="translate(-31.902 465.16)">
      <g id="Group_6427" data-name="Group 6427">
        <g id="Group_6424" data-name="Group 6424">
          <path id="Path_74327" data-name="Path 74327" d="M63.286,176.679c-2.267,7.208-.04,16.973,1.363,24.229,2.536,13.12,8.412,25.189,10.987,38.186.163.823,1.585.65,1.484-.2-2.43-20.551-17.392-40.316-13.369-62.085a.241.241,0,0,0-.465-.129Z" fill="#7378c0"/>
          <g id="Group_6423" data-name="Group 6423">
            <path id="Path_74328" data-name="Path 74328" d="M63.023,179.518c2.733-1.965,3.413-7.624,2.185-8.021S61.644,174.814,63.023,179.518Z" fill="#7378c0"/>
            <path id="Path_74329" data-name="Path 74329" d="M58.222,180.582c-.754.938.152,6.329,4.635,8.634C62.4,181.825,58.854,179.794,58.222,180.582Z" fill="#7378c0"/>
            <path id="Path_74330" data-name="Path 74330" d="M67.917,188c-1.4.23-5.1,5.352-3.293,10.511C70.349,192.06,69.091,187.808,67.917,188Z" fill="#7378c0"/>
            <path id="Path_74331" data-name="Path 74331" d="M59.1,200.853c-.646,1.281,2.116,7.113,8.358,8.407C64.644,201.036,59.645,199.777,59.1,200.853Z" fill="#7378c0"/>
            <path id="Path_74332" data-name="Path 74332" d="M72.121,204.285c-1.562.3-5.075,6.163-2.3,11.919C75.453,208.785,73.432,204.035,72.121,204.285Z" fill="#7378c0"/>
            <path id="Path_74333" data-name="Path 74333" d="M64.135,219.937c-.554,1.4,2.911,7.291,9.592,8.12C69.973,219.659,64.6,218.762,64.135,219.937Z" fill="#7378c0"/>
            <path id="Path_74334" data-name="Path 74334" d="M62.353,189.065a.537.537,0,0,0,.426.108Z" fill="#7378c0"/>
            <path id="Path_74335" data-name="Path 74335" d="M62.353,189.065c-.136-.083-.082-.038,0,0Z" fill="#7378c0"/>
          </g>
        </g>
        <g id="Group_6425" data-name="Group 6425">
          <path id="Path_74336" data-name="Path 74336" d="M102.236,190.2c-4.531,18.461-17.547,38.388-13.741,57.878.155.794,1.535.626,1.432-.194-2.613-20.777,10.794-37.61,12.876-57.607.034-.326-.49-.388-.567-.077Z" fill="#7378c0"/>
          <path id="Path_74337" data-name="Path 74337" d="M102.255,192.6c2.2-2.487,1.512-8.145.22-8.276S99.79,188.3,102.255,192.6Z" fill="#7378c0"/>
          <path id="Path_74338" data-name="Path 74338" d="M104.322,203.855c.893,1.146-1.335,6.636-8.043,8.125C98.23,204.292,103.572,202.894,104.322,203.855Z" fill="#7378c0"/>
          <path id="Path_74339" data-name="Path 74339" d="M97.387,222.005c1.179,1.132-.353,7.515-7.5,10.151C90.743,223.388,96.4,221.056,97.387,222.005Z" fill="#7378c0"/>
          <path id="Path_74340" data-name="Path 74340" d="M97.834,193.8c1.313.205,3.866,4.984,1.05,9.841C94.637,197.632,96.732,193.63,97.834,193.8Z" fill="#7378c0"/>
          <path id="Path_74341" data-name="Path 74341" d="M91.836,208.493c1.662.2,4.67,6.046.841,12.23C87.574,213.412,90.442,208.327,91.836,208.493Z" fill="#7378c0"/>
        </g>
        <g id="Group_6426" data-name="Group 6426">
          <path id="Path_74342" data-name="Path 74342" d="M83.834,151.812c-2.952,13.645-5.367,27.216-4.727,41.3.707,15.556,4.14,30.723,4.076,46.388a1.039,1.039,0,0,0,2.077,0c.107-15.093-3.5-29.391-4.7-44.335-1.193-14.9,3.036-28.691,3.975-43.259a.358.358,0,0,0-.7-.094Z" fill="#7378c0"/>
          <path id="Path_74343" data-name="Path 74343" d="M84,153.751c2.407-2.536,1.47-8.177.008-8.278S81.091,149.511,84,153.751Z" fill="#7378c0"/>
          <path id="Path_74344" data-name="Path 74344" d="M88.937,156.729c.933.973-.528,6.317-6.488,8.406C83.43,157.773,88.154,155.913,88.937,156.729Z" fill="#7378c0"/>
          <path id="Path_74345" data-name="Path 74345" d="M76.805,164.391c1.693.017,5.89,4.921,3.36,10.778C73.583,169.167,75.385,164.377,76.805,164.391Z" fill="#7378c0"/>
          <path id="Path_74346" data-name="Path 74346" d="M73.076,185.571c1.9-.326,7.986,4.33,6.8,11.43C70.808,191.6,71.481,185.846,73.076,185.571Z" fill="#7378c0"/>
          <path id="Path_74347" data-name="Path 74347" d="M74.823,212.139c2.066-.271,8.99,4.849,8.082,12.254C72.673,218.375,73.091,212.365,74.823,212.139Z" fill="#7378c0"/>
          <path id="Path_74348" data-name="Path 74348" d="M86.165,174.937c-1.77-.186-7.264,4.382-5.957,10.74C88.438,180.259,87.649,175.092,86.165,174.937Z" fill="#7378c0"/>
          <path id="Path_74349" data-name="Path 74349" d="M85.268,195.135c-1.97.476-6.609,7.474-3.366,13.8C89.262,199.978,86.921,194.736,85.268,195.135Z" fill="#7378c0"/>
        </g>
      </g>
      <path id="Path_74350" data-name="Path 74350" d="M93.987,274.256H72.171a152.4,152.4,0,0,1-7.228-38.1h36.272A144.839,144.839,0,0,1,93.987,274.256Z" fill="#ff75c0"/>
      <path id="Path_74351" data-name="Path 74351" d="M91.157,236.153c-1.3,39.935-16.688,34.806-20.688,32.607.536,1.866,1.1,3.708,1.7,5.5H93.987a144.839,144.839,0,0,0,7.228-38.1Z" fill="#65529d" opacity="0.35" style="mix-blend-mode: multiply;isolation: isolate"/>
    </g>
    <g id="Group_6441" data-name="Group 6441" transform="translate(-33.629 -38.642)">
      <g id="Group_6421" data-name="Group 6421" transform="translate(80.222 581.573)">
        <path id="Path_74281" data-name="Path 74281" d="M139.626,125.644c.117-15.662,13.51-20.4,27.262-16.079,6.472,2.034,12.952,5.431,19.906,3.538.856-.232.489-1.466-.361-1.311-13.092,2.4-25.034-9.7-38.164-3.521-6.033,2.837-12.137,10.456-9.242,17.456a.307.307,0,0,0,.6-.082Z" transform="translate(-109.085 -106.493)" fill="#936466"/>
        <path id="Path_74282" data-name="Path 74282" d="M135.4,114.267c-.515,2.055.522,4.265,1.723,5.889a10.445,10.445,0,0,0,2.889,2.981.683.683,0,0,0,.824-1.067c-.7-.806-1.607-1.454-2.323-2.266a10.267,10.267,0,0,1-2.805-5.536c-.021-.16-.27-.143-.307,0Z" transform="translate(-109.88 -104.478)" fill="#936466"/>
        <path id="Path_74283" data-name="Path 74283" d="M188.607,126.738s5.522.842,8.9,2.938c-.2-5.266-5.892-12.387-9.961-11.844,0,0,6.041-4.414,5.084-9.012-2.01,1.969-9.514,2.855-14.882,2.378-6.324-.561-16.483-4.287-25.542-1.44-6.848,2.152-11.648,7.563-11.612,13.424l.042.063c-8.474,4.317-9.425,14.945-3.817,29.962,6.658,17.83,18.8,20.881,18.8,20.881l10.327-28.027s19.669-11.071,19.518-14.023c.83,4.961,1.527,9.972,5.213,13.951C189.439,137.443,194.729,133.011,188.607,126.738Z" transform="translate(-110.397 -105.913)" fill="#936466"/>
        <path id="Path_74284" data-name="Path 74284" d="M188.594,124.393a29.706,29.706,0,0,1,8.585,2.765c-4.732-9.04-22.611-13.662-36.085-4.766a8.576,8.576,0,0,0-4.325,7.312,5.816,5.816,0,0,0-4.048,2.37c-1.831,2.093-5.167,9.289-13.115,7.914a7.464,7.464,0,0,1-6.257-5.03,48.208,48.208,0,0,0,3.462,15.9c6.658,17.83,18.8,20.881,18.8,20.881l5.186-14.072-2.342-25.4,13.509,7.9s13.5-10.313,13.492-10.479c.83,4.961,1.527,9.972,5.213,13.951C189.426,135.1,194.716,130.667,188.594,124.393Z" transform="translate(-110.384 -103.569)" fill="#65436d" opacity="0.2" style="mix-blend-mode: multiply;isolation: isolate"/>
        <path id="Path_74285" data-name="Path 74285" d="M201.1,286.038H120.72c3.428-32.425-7.1-84.775,10.95-101.259,9.154-8.359,35.383-12.8,41.989-12.9,7.438-.112,13.838,5.517,18.74,8.974,5.985,4.219,11.048,12.68,9.948,27.473C201.373,221.4,197.352,252.675,201.1,286.038Z" transform="translate(-113.709 -89.291)" fill="#e7dffa"/>
        <path id="Path_74286" data-name="Path 74286" d="M201.547,210.633c-8.657,5.091-20.269,8.232-33.074,8.232-21.467,0-39.643-8.77-45.981-20.9-4.21,23.274.733,57.747-1.773,81.453h80.377C198.052,252.309,200.136,226.339,201.547,210.633Z" transform="translate(-113.708 -82.429)" fill="#c2bed3"/>
        <path id="Path_74287" data-name="Path 74287" d="M148.78,153.423s2.88,9.39,2.354,16.485a13.261,13.261,0,0,1-8.276,11.725s4.09,11.3,21.882,11.3c13.867,0,16.879-11.655,16.879-11.655-3.246-1.133-8.7-2.951-9.525-7.589-.917-5.182,2.385-6.8,2.385-6.8L158.723,151.33Z" transform="translate(-107.882 -94.697)" fill="url(#linear-gradient)"/>
        <path id="Path_74288" data-name="Path 74288" d="M154.474,191.151c12.357-3.708,16.765-12.578,18.079-16.242a6.292,6.292,0,0,1-.458-1.442c-.8-4.5,1.586-6.309,2.227-6.707l.04-.207-4.038-3.989-16.69-10.385L148.78,153.2s2.88,9.39,2.354,16.485a13.261,13.261,0,0,1-8.276,11.725S145.3,188.057,154.474,191.151Z" transform="translate(-107.882 -94.474)" fill="#d37a85"/>
        <path id="Path_74289" data-name="Path 74289" d="M147.37,149.912c1.608.9,2.512,4.254,4.758,3.634,2.771-.767-1.594-10.084.855-19.017.973-3.547,3.2-10.866,13.664-12.368,8.552-1.229,15.326,1.581,18.526,9.512,1.09,2.7,1.876,10.689,1.84,20.989-.035,10.611-4.334,22.4-9.079,24.594a14.728,14.728,0,0,1-10.251.893c-5.409-1.738-11.134-5.555-16.462-15.667-5.8,1.149-9.238-2.607-9.714-6.381C141.015,152.2,143.127,148.325,147.37,149.912Z" transform="translate(-108.257 -102.444)" fill="url(#linear-gradient-2)"/>
        <path id="Path_74290" data-name="Path 74290" d="M148.473,148.82c.9,1.874.616,3.881-.635,4.483s-3-.429-3.9-2.3-.616-3.88.635-4.483S147.572,146.946,148.473,148.82Z" transform="translate(-107.736 -96.009)" fill="#d37a85"/>
        <g id="Group_6409" data-name="Group 6409" transform="translate(69.911 32.242)">
          <path id="Path_74291" data-name="Path 74291" d="M170.527,134.2c-.2,1.369,2.632,1.184,5.124,2.243,2.516,1.07,3.355,2.784,3.812,1.97.387-.69.82-3.863-3.1-5.791C173.81,131.367,170.821,132.16,170.527,134.2Z" transform="translate(-170.517 -132.02)" fill="#936466"/>
        </g>
        <g id="Group_6410" data-name="Group 6410" transform="translate(47.485 32.388)">
          <path id="Path_74292" data-name="Path 74292" d="M165.431,134.055c.135,1.388-3.047,1.376-6.454,2.875-3.442,1.513-4.844,3.489-5.717,2.911-.93-.615-1.071-3.96,4.262-6.578C160.99,131.559,165.207,131.756,165.431,134.055Z" transform="translate(-152.762 -132.135)" fill="#936466"/>
        </g>
        <path id="Path_74293" data-name="Path 74293" d="M169.171,136.433a7.459,7.459,0,0,0-1.312,1.912,9.158,9.158,0,0,0-.729,2.189,9.642,9.642,0,0,0-.187,2.287,6.763,6.763,0,0,0,.123,1.072c.1.387.184.82.309,1.168a8.3,8.3,0,0,0,2.453,3.628,11.12,11.12,0,0,0,1.813,1.285,14.848,14.848,0,0,0,1.936.939l.051.018a1.159,1.159,0,0,1,.709,1.478,1.21,1.21,0,0,1-.1.212,8.284,8.284,0,0,1-1.262,1.58,8.615,8.615,0,0,1-1.557,1.244,5.478,5.478,0,0,1-3.878.8.381.381,0,0,1-.03-.735l.023-.008a6.535,6.535,0,0,0,2.719-1.627,12.237,12.237,0,0,0,1.066-1.173,14.46,14.46,0,0,0,.893-1.266l.658,1.708a9.474,9.474,0,0,1-2.455-1.242,11.057,11.057,0,0,1-2.025-1.768,11.22,11.22,0,0,1-2.539-4.711c-.116-.433-.155-.815-.236-1.225a7.907,7.907,0,0,1-.072-1.374,10.98,10.98,0,0,1,.39-2.58,10.269,10.269,0,0,1,.986-2.4,8.579,8.579,0,0,1,1.6-2.025l.028-.025a.448.448,0,0,1,.628.638Z" transform="translate(-101.916 -98.815)" fill="#d37a85"/>
        <g id="Group_6412" data-name="Group 6412" transform="translate(50.96 42.143)">
          <g id="Group_6411" data-name="Group 6411">
            <path id="Path_74294" data-name="Path 74294" d="M162.2,142.614a2.131,2.131,0,1,1-2.207-2.471A2.379,2.379,0,0,1,162.2,142.614Z" transform="translate(-154.85 -139.783)" fill="#634a64"/>
            <path id="Path_74295" data-name="Path 74295" d="M155.513,144.54a5.988,5.988,0,0,1,5.049-4.647c1.665-.317,3.21,1.559,2.929,2.669a3.45,3.45,0,0,0-2.973-.874C158.776,142.057,155.513,144.54,155.513,144.54Z" transform="translate(-155.513 -139.858)" fill="#634a64"/>
          </g>
        </g>
        <g id="Group_6414" data-name="Group 6414" transform="translate(69.287 41.342)">
          <g id="Group_6413" data-name="Group 6413">
            <path id="Path_74296" data-name="Path 74296" d="M175.914,141.867a2,2,0,1,1-2.063-2.381A2.273,2.273,0,0,1,175.914,141.867Z" transform="translate(-169.496 -139.155)" fill="#634a64"/>
            <path id="Path_74297" data-name="Path 74297" d="M170.023,143.685a4.764,4.764,0,0,1,4.224-4.446,2.965,2.965,0,0,1,3.01,3.059,3.425,3.425,0,0,0-3.05-1.331C172.062,141.255,170.023,143.685,170.023,143.685Z" transform="translate(-170.023 -139.224)" fill="#634a64"/>
          </g>
        </g>
        <path id="Path_74298" data-name="Path 74298" d="M150.681,173.547s8.418,7,9.544,36.828-.28,75.464-.28,75.464H120.718s.941-15.809.452-39.356-.8-47.8,7.984-60.965C134.785,177.079,150.681,173.547,150.681,173.547Z" transform="translate(-113.707 -88.852)" fill="#65529d"/>
        <path id="Path_74299" data-name="Path 74299" d="M169.061,173.1s14.212,7.566,12.574,43.674-.514,69.268-.514,69.268h7.29s-.682-17.2.241-45.2,4.012-46.878-3.692-56.876A30.333,30.333,0,0,0,169.061,173.1Z" transform="translate(-100.989 -88.97)" fill="#65529d"/>
        <g id="Group_6415" data-name="Group 6415" transform="translate(57.245 59.587)">
          <path id="Path_74300" data-name="Path 74300" d="M175.42,155.247s-6.069,1.619-14.931-1.578c0,0,2.26,6.152,6.686,6.67C172.942,161.015,175.42,155.247,175.42,155.247Z" transform="translate(-160.489 -153.669)" fill="#634a64"/>
          <path id="Path_74301" data-name="Path 74301" d="M172.462,156.076a43.03,43.03,0,0,1-10.831-1.319s1.891,3.485,5.177,3.98A5.469,5.469,0,0,0,172.462,156.076Z" transform="translate(-160.189 -153.383)" fill="#fff4e9"/>
        </g>
        <path id="Path_74302" data-name="Path 74302" d="M135.116,119.6a6.6,6.6,0,0,0,5.439,2.721.645.645,0,0,0,0-1.29,10.679,10.679,0,0,1-5.215-1.655c-.131-.068-.331.083-.224.224Z" transform="translate(-109.927 -103.109)" fill="#936466"/>
        <g id="Group_6416" data-name="Group 6416" transform="translate(69.288 104.476)">
          <path id="Path_74303" data-name="Path 74303" d="M193.187,203.649s-5.815-2.435-4.2-4.84,6.326,2.8,6.326,2.8-2.409-7.414,1.066-8.194,3.246,8.488,3.246,8.488,2.764-6.922,5.51-6.146-1.732,7.126-1.732,7.126,5.942-2.636,6.731.36-5.859,3.307-5.859,3.307Z" transform="translate(-166.24 -192.621)" fill="#d34089"/>
          <path id="Path_74304" data-name="Path 74304" d="M202.45,206.341s.925-4.471,7.969-9.087a38.96,38.96,0,0,1-4.854,12.822Z" transform="translate(-162.624 -191.599)" fill="#7378c0"/>
          <path id="Path_74305" data-name="Path 74305" d="M204.443,207.294s2.953-4.5,12.7-7.894a54.5,54.5,0,0,1-10.89,12.446Z" transform="translate(-162.099 -191.034)" fill="#7378c0"/>
          <path id="Path_74306" data-name="Path 74306" d="M176.288,205.638s-3.956-3.241-4.932-12.769A43.566,43.566,0,0,1,181.578,204.4Z" transform="translate(-170.804 -192.752)" fill="#7378c0"/>
          <path id="Path_74307" data-name="Path 74307" d="M183.555,202.757s2.106-4.576,10.836-7.757a42.805,42.805,0,0,1-8.411,12.565Z" transform="translate(-167.595 -192.192)" fill="#7378c0"/>
          <path id="Path_74308" data-name="Path 74308" d="M219.564,218.395s4.811-.729,9.544-8.309a37.828,37.828,0,0,0-13.712,4.56Z" transform="translate(-159.218 -188.223)" fill="#7378c0"/>
          <path id="Path_74309" data-name="Path 74309" d="M177.812,201.566s-5.011-.811-4.19-3,5.479,1,5.479,1-3.26-5.366-.678-6.635,4.116,6.049,4.116,6.049.887-5.958,3.184-5.87-.04,5.924-.04,5.924,4.173-3.194,5.347-.992-5.372,3.594-5.372,3.594Z" transform="translate(-170.232 -192.777)" fill="#e25998"/>
          <path id="Path_74310" data-name="Path 74310" d="M211.288,209.672s-4.1-3.8-2.044-5.3,4.418,4.258,4.418,4.258.212-6.886,3.331-6.468.164,8.032.164,8.032,4.361-4.894,6.41-3.41S220,212.162,220,212.162s5.722-.366,5.484,2.359-7.056,0-7.056,0Z" transform="translate(-160.988 -190.312)" fill="#e25998"/>
          <path id="Path_74311" data-name="Path 74311" d="M171.734,198.955s-.22,42.606,9.2,64.76a76.365,76.365,0,0,0-10.019,12.895s7.174,10.922,22.075,5.217c0,0,.9-3.8-.618-16.1,0,0,28.587-15.259,44.245-44.254C236.621,221.475,217.927,196.227,171.734,198.955Z" transform="translate(-170.919 -191.206)" fill="#ff75c0"/>
          <path id="Path_74312" data-name="Path 74312" d="M234.571,224.7c.633-1.069,1.282-2.117,1.881-3.226,0,0-18.694-25.248-64.887-22.52,0,0-.006,1.434.039,3.893C212.436,200.906,231.313,220.83,234.571,224.7Z" transform="translate(-170.749 -191.206)" fill="#fac2f0"/>
          <path id="Path_74313" data-name="Path 74313" d="M192.378,262.245s28.586-15.258,44.243-44.252a40.368,40.368,0,0,0-6.045-6.011c.8,12.107-24.131,40.441-39.782,37.189-12.268-2.549-16.693-21.983-18.082-30.765,1.088,13.635,3.379,30.433,8.225,41.826a76.448,76.448,0,0,0-10.018,12.9,10.366,10.366,0,0,0,.762.971s4.06-5.151,9.959-4.918c5.265.208,8.171,5.393,9.956,9.62.465-.15.917-.272,1.4-.456C192.994,278.345,193.9,274.546,192.378,262.245Z" transform="translate(-170.919 -187.724)" fill="#65529d" opacity="0.3" style="mix-blend-mode: multiply;isolation: isolate"/>
        </g>
        <g id="Group_6417" data-name="Group 6417" transform="translate(50.293 169.029)">
          <path id="Path_74314" data-name="Path 74314" d="M186.043,246.315c10.825,1.036,16.767,5.321,15.965,6.658-1.031,1.717-2.551-1.325-5.986-1.031,3.76,1.176,5.92,2.759,5,3.924-.539.687-1.115.61-3.091-.344-2.049-.988-3.068-1.432-3.288-1.112-.107.235.7.239,2.468,1.191,1.662.9,3.351,1.83,2.532,2.988-.536.759-1.969.04-3.677-.74-1.79-.818-2.626-.909-2.711-.711s1.423.507,2.712,1.13c1.522.736,2.319,1.639,1.714,2.252-.7.711-2.842-.666-5.465-1.182,0,0-6.272-1.053-10.348-3.582-6.219-2.289-27.092.619-26.887-7.837.117-4.841,4.62-7.409,9.015-7.591C171.53,240.016,175.693,245.323,186.043,246.315Z" transform="translate(-154.985 -240.315)" fill="url(#linear-gradient-3)"/>
          <path id="Path_74315" data-name="Path 74315" d="M176.495,245.6c.842.1,4.311-1.593,7.453-2.335s6.687-.6,7.059.217c.615,1.344-5.82,1.528-6.893,3.366S176.495,245.6,176.495,245.6Z" transform="translate(-149.326 -239.668)" fill="url(#linear-gradient-4)"/>
        </g>
        <path id="Path_74316" data-name="Path 74316" d="M176.937,244.341c-1.018-.3-1.97-.624-2.879-.968-1.621,2.536-4.725,7.408-6.549,10.337,4.488.261,8.776.4,11.07,1.243,4.076,2.529,10.348,3.581,10.348,3.581,2.623.518,4.764,1.895,5.465,1.183.067-.067.054-.147.088-.22-.608.157-2.065-.529-4.255-1.345-2.5-.932-6.427-1.226-10.547-3.778s-2.748-10.007-2.748-10.007Z" transform="translate(-101.397 -70.482)" fill="#d37a85"/>
        <path id="Path_74317" data-name="Path 74317" d="M138.52,178.919c-18.821,2.406-30.73,61.709-18.17,82.51,10.155,16.821,62.8,14.915,62.8,14.915,3.42-4.053,6.348-11.835,6.28-16.876,0,0-27.2-11.433-44.434-18.231C144.992,241.236,150.689,177.364,138.52,178.919Z" transform="translate(-115.168 -87.446)" fill="#65529d"/>
        <g id="Group_6418" data-name="Group 6418" transform="translate(69.911 32.242)" opacity="0.2" style="mix-blend-mode: multiply;isolation: isolate">
          <path id="Path_74318" data-name="Path 74318" d="M170.527,134.2c-.2,1.369,2.632,1.184,5.124,2.243,2.516,1.07,3.355,2.784,3.812,1.97.387-.69.82-3.863-3.1-5.791C173.81,131.367,170.821,132.16,170.527,134.2Z" transform="translate(-170.517 -132.02)" fill="#65436d"/>
        </g>
        <g id="Group_6419" data-name="Group 6419" transform="translate(47.485 32.388)" opacity="0.2" style="mix-blend-mode: multiply;isolation: isolate">
          <path id="Path_74319" data-name="Path 74319" d="M165.431,134.055c.135,1.388-3.047,1.376-6.454,2.875-3.442,1.513-4.844,3.489-5.717,2.911-.93-.615-1.071-3.96,4.262-6.578C160.99,131.559,165.207,131.756,165.431,134.055Z" transform="translate(-152.762 -132.135)" fill="#65436d"/>
        </g>
        <path id="Path_74320" data-name="Path 74320" d="M147.355,127.494s.916-9.159,9.289-11.906,15.176.654,21.848.523c6.332-.124,7.719-3.663,7.719-3.663s-2.224,2.356-7.457,2.486c-7.342.184-14-5.1-24.463-1.57S147.355,127.494,147.355,127.494Z" transform="translate(-106.85 -105.006)" fill="#65436d" opacity="0.2" style="mix-blend-mode: multiply;isolation: isolate"/>
        <path id="Path_74321" data-name="Path 74321" d="M142.527,125.609a14.122,14.122,0,0,1,5.363-14.259S136.508,115.274,142.527,125.609Z" transform="translate(-108.432 -105.215)" fill="#65436d" opacity="0.2" style="mix-blend-mode: multiply;isolation: isolate"/>
        <path id="Path_74322" data-name="Path 74322" d="M122.836,259.8c-9.291-15.387-3.746-57.318,6.634-76.225-13.153,15.909-19.507,59.414-9.119,76.616,10.155,16.821,62.8,14.915,62.8,14.915a25.712,25.712,0,0,0,3.543-5.876C182.127,269.363,132.509,275.823,122.836,259.8Z" transform="translate(-115.167 -86.213)" fill="#4e477a" opacity="0.3" style="mix-blend-mode: multiply;isolation: isolate"/>
        <g id="Group_6420" data-name="Group 6420" transform="translate(115.281 151.423)">
          <path id="Path_74323" data-name="Path 74323" d="M217.468,231.555c-.951,1.18-2.324.008-4.145-1-1.954-1.082-3.871-2.325-3.474-3.5.418-1.237,3.081-.614,5.19.62C216.819,228.709,218.372,230.433,217.468,231.555Z" transform="translate(-205.554 -226.376)" fill="url(#linear-gradient-5)"/>
          <path id="Path_74324" data-name="Path 74324" d="M213.8,236.055c-.893,1.045-2.088.321-3.695-.6-1.738-.994-3.428-2.482-3.044-3.534.4-1.1,2.74-.133,4.589,1.026C213.211,233.924,214.639,235.075,213.8,236.055Z" transform="translate(-206.287 -225.044)" fill="url(#linear-gradient-6)"/>
          <path id="Path_74325" data-name="Path 74325" d="M210.964,237.255c-.849,1.069-1.789.561-2.871-.057-1.109-.632-1.967-1.728-1.547-2.593.45-.928,1.936-.307,3.131.461C210.258,235.44,211.683,236.349,210.964,237.255Z" transform="translate(-206.437 -224.334)" fill="url(#linear-gradient-7)"/>
          <path id="Path_74326" data-name="Path 74326" d="M215.936,234.164c-1.019,1.287-2.209.006-3.994-.949-2.078-1.114-4.187-2.484-3.761-3.713s3.2-.457,5.4.916C215.431,231.575,216.831,233.034,215.936,234.164Z" transform="translate(-205.993 -225.717)" fill="url(#linear-gradient-8)"/>
        </g>
      </g>
      <g id="Group_6437" data-name="Group 6437" transform="translate(208.4 605.75)">
        <g id="Group_6429" data-name="Group 6429" transform="translate(0 100.093)">
          <path id="Path_74352" data-name="Path 74352" d="M271.072,227.891c-1.762-1.85-6.991-9.25-8.077-8.967-1.843.48,3.388,5.3,1.651,5.559-.88.131-5.1-2.781-7.757-4.953-2.328-1.9-4.053-3.345-4.643-2.79-.519.484,1.191,2.069,2.836,3.692,1.4,1.378,2.769,2.354,2.549,2.64-.4.513-1.838-.762-3.561-1.838-2.08-1.3-4.063-3.055-4.473-2.479-.595.837,1.218,2.724,3.193,4.215,1.637,1.234,3.333,2.367,3.322,2.834s-1.506-.4-3.033-1.407c-1.8-1.192-3.623-2.766-4.158-2.073s1.321,2.479,3.331,3.846c1.691,1.151,3.516,1.507,3.27,2.289s-5.036-2.724-5.4-1.873,3.9,3.347,7.738,5.1c4.965,2.275,7.292,2.058,8.838,3.389Z" transform="translate(-248.828 -216.62)" fill="url(#linear-gradient-9)"/>
          <path id="Path_74353" data-name="Path 74353" d="M262.975,232.731c2.353,2.352,3.481,5.726,6.209,7.858s6.175-9.117,6.175-9.117-6.187-3.679-8.009-5.929Z" transform="translate(-245.106 -214.272)" fill="url(#linear-gradient-10)"/>
        </g>
        <path id="Path_74354" data-name="Path 74354" d="M325.208,243.283s-7.747,28.92-18.154,30.823c-16.721,3.06-42.9-29.03-42.9-29.03s-.15-7.38,8.549-12.718l26.963,15.3s9.579-27.878,18.577-39.614Z" transform="translate(-244.795 -118.784)" fill="#e25998"/>
        <path id="Path_74355" data-name="Path 74355" d="M323.34,228.456c-1.641,8.34-7.647,35.7-16.282,38.071-14.106,3.879-37.631-24.83-42.137-30.533a11.548,11.548,0,0,0-.767,3.711s26.179,32.09,42.9,29.03c10.408-1.9,18.154-30.824,18.154-30.824Z" transform="translate(-244.795 -113.413)" fill="#78539b" opacity="0.3" style="mix-blend-mode: multiply;isolation: isolate"/>
        <path id="Path_74356" data-name="Path 74356" d="M325.484,138.849c-11.317,3.415-23.213,11.841-28.84,22.41a26.163,26.163,0,0,0-3,15.029c1.407,11.308,9.741,15.407,13.859,25.31a.446.446,0,0,0,.86-.237c-.781-5.281-4.425-7.453-7.427-11.426-6.108-8.082-7.8-17.931-3.486-27.112,5.753-12.248,17.144-17.461,28.181-23.635a.186.186,0,0,0-.143-.339Z" transform="translate(-237.08 -136.99)" fill="#a15ba3"/>
        <path id="Path_74357" data-name="Path 74357" d="M301.7,184.117c3.628,8.123.37,14.226-.538,22.137-.772,6.722,1.238,12.815,7.692,15.306.647.25,1.01-.744.457-1.085-15.725-9.728,2.2-24.567-7.051-36.686a.325.325,0,0,0-.561.328Z" transform="translate(-235.1 -125.204)" fill="#a15ba3"/>
        <path id="Path_74358" data-name="Path 74358" d="M312.154,228.456c-1.376-.845-2.877-.586-4.3-1.4a7.877,7.877,0,0,1-3.4-4.361c-1.934-5.5.855-10.46,1.4-15.806.49-4.785-1.346-8.208-3.664-12.1a40.364,40.364,0,0,1-5.664-15.29c-1.05-8.133,2.751-20.136,7.678-26.608,6.358-8.354,19.112-15.489,29.693-14.873,7.155.417,15.934,1.535,20.021,8.336.37-1.789,5.342.278,6.669,1.243a21.9,21.9,0,0,1,7.225,9.953c2.982,7.837,2.661,16.473,2.327,24.745-.435,10.744-.032,20.489,5.558,30.072,2.9,4.971,7.294,9.032,10.692,13.651,3.092,4.2,6.526,11.1,5.367,17.088-1.945,10.04-6.309,22.686-28.566,24.2-17.9,1.219-36.825-6.1-45.786-22.8C314.815,239.676,313.239,233.693,312.154,228.456Z" transform="translate(-236.324 -137.217)" fill="#a15ba3"/>
        <path id="Path_74359" data-name="Path 74359" d="M329.727,156.084s-21.179-4.6-25.147,7.652c-3.163,9.762,6.752,19.612,6.752,19.612Z" transform="translate(-234.323 -132.676)" fill="#65529d" opacity="0.2" style="mix-blend-mode: multiply;isolation: isolate"/>
        <path id="Path_74360" data-name="Path 74360" d="M324.722,155.611s1.651,18.975,27.914,15.813A16.1,16.1,0,0,1,345.348,175c-4.125.687-7.563,8.25-7.563,8.25S318.947,168.261,324.722,155.611Z" transform="translate(-229.15 -132.578)" fill="#65529d" opacity="0.2" style="mix-blend-mode: multiply;isolation: isolate"/>
        <path id="Path_74361" data-name="Path 74361" d="M309.828,195.373s-1.253,9.981,5.9,17.006C315.727,212.379,304.435,206.414,309.828,195.373Z" transform="translate(-233.163 -122.117)" fill="#65529d" opacity="0.2" style="mix-blend-mode: multiply;isolation: isolate"/>
        <path id="Path_74362" data-name="Path 74362" d="M325.468,138.849c-11.339,3.422-23.264,11.882-28.882,22.478a25.48,25.48,0,0,0-2.267,18.339c1.394,5.636,4.625,9.407,7.768,13.423.274.5.573.975.844,1.469,4.181,7.645,2.17,12.9.186,23.483-.748,6.644,1.219,12.87,7.7,15.32.666.251,1.031-.759.469-1.112-5.449-3.422-6.775-7.5-6.616-11.867a11.67,11.67,0,0,0,.524,2.085,7.877,7.877,0,0,0,3.4,4.361,6.992,6.992,0,0,0,2.231.7l.083-.13c-3.3-2.474-5.225-4.95-5.363-9.625s5.088-11.551,3.988-17.739-10.038-13.75-10.587-25.575,4.4-19.251,4.4-19.251l-.418.507c-3.89,6.739-6.563,16.57-5.662,23.55a35.237,35.237,0,0,0,2.454,8.943c-5.1-7.734-6.281-16.843-2.281-25.384,5.741-12.256,17.135-17.466,28.171-23.639A.186.186,0,0,0,325.468,138.849Z" transform="translate(-237.064 -136.99)" fill="#65529d" opacity="0.2" style="mix-blend-mode: multiply;isolation: isolate"/>
        <path id="Path_74363" data-name="Path 74363" d="M344.093,170.852s5.348,3.35,2.338,9.9a8.109,8.109,0,0,1-7.418,4.839s-3.033,3.961-3.307,6.024.962,15.125,4.95,16.776l-10.175.687V185.427Z" transform="translate(-227.346 -128.568)" fill="#65529d" opacity="0.2" style="mix-blend-mode: multiply;isolation: isolate"/>
        <path id="Path_74364" data-name="Path 74364" d="M339.034,181.306s-11.7,8.785-14.015,15.556c1.691,6.35-7.327,6.607-15.23,16.44,0,0,5.76,5.689,19.813,6.259s24.88-8.3,24.88-8.3c-6.638-7.2-15.12-8.329-16.645-14.49C336.58,191.692,337.3,186.308,339.034,181.306Z" transform="translate(-232.789 -125.818)" fill="url(#linear-gradient-11)"/>
        <path id="Path_74365" data-name="Path 74365" d="M335.135,196.77c-1.257-5.078-.533-10.462,1.2-15.464,0,0-11.7,8.785-14.015,15.556.64,2.4-.29,4.024-2.257,5.526,1.629,3.048,8.1,13.091,21.814,11.068a22.51,22.51,0,0,0,8.919-3.137C344.325,204,336.586,202.634,335.135,196.77Z" transform="translate(-230.087 -125.818)" fill="#d37a85"/>
        <path id="Path_74366" data-name="Path 74366" d="M346.779,173.74c-2.251.92-4.2,6.478-4.2,6.478a8.73,8.73,0,0,1-2.7-7.243c-11.137-3.3-10.719-17.068-10.719-17.068-19.188-.052-21.971,9.263-21.971,9.263-5.045,27.026,8.777,39.153,12.943,39.613,8.3.917,16.072-4.022,23.669-17.748a8.762,8.762,0,0,0,8.513-5.5C353.452,178.138,351.23,172.989,346.779,173.74Z" transform="translate(-233.76 -132.5)" fill="url(#linear-gradient-12)"/>
        <path id="Path_74367" data-name="Path 74367" d="M341.488,176.814c-.563,1.638-2.028,2.621-3.271,2.193s-1.794-2.1-1.23-3.741,2.029-2.62,3.271-2.193S342.051,175.176,341.488,176.814Z" transform="translate(-225.692 -128.01)" fill="#d37a85"/>
        <g id="Group_6430" data-name="Group 6430" transform="translate(80.013 57.733)">
          <path id="Path_74368" data-name="Path 74368" d="M312.175,183.62a35.186,35.186,0,0,0,14.561-.537s-1.669,7.075-7.273,7.188C314.529,190.372,312.175,183.62,312.175,183.62Z" transform="translate(-312.175 -183.083)" fill="#4e3a5e"/>
          <path id="Path_74369" data-name="Path 74369" d="M314.209,184.531a29.665,29.665,0,0,0,10.379-.657,6.784,6.784,0,0,1-5.415,2.81C315.5,186.956,314.209,184.531,314.209,184.531Z" transform="translate(-311.64 -182.875)" fill="#fff4e9"/>
        </g>
        <path id="Path_74370" data-name="Path 74370" d="M317.832,174.725a9.544,9.544,0,0,0-1.561-8.211,8.561,8.561,0,0,1,2.628,3.856A8.445,8.445,0,0,1,319.27,175a11.555,11.555,0,0,1-5.2,6.86A9.18,9.18,0,0,0,318.421,185c-3.247-.245-5.136-1.633-7.227-3.567C314.287,179.914,317.011,177.844,317.832,174.725Z" transform="translate(-232.42 -129.709)" fill="#d37a85"/>
        <path id="Path_74371" data-name="Path 74371" d="M322.093,164.189c-.45,1.554,2.083.759,6.466,2.908,2.647,1.3,4.737,3.444,5.228,3.151s-.634-2.151-4.4-4.579C326.342,163.711,322.422,163.049,322.093,164.189Z" transform="translate(-229.566 -130.468)" fill="#a15ba3"/>
        <path id="Path_74372" data-name="Path 74372" d="M315.353,164.147c.278,1.466-2.214.849-5.353,2.09-2.25.89-3.8,2.306-4.292,2.1s.336-1.89,3.117-3.429C311.389,163.485,315.178,163.234,315.353,164.147Z" transform="translate(-233.898 -130.473)" fill="#a15ba3"/>
        <g id="Group_6433" data-name="Group 6433" transform="translate(92.991 40.346)">
          <g id="Group_6431" data-name="Group 6431">
            <path id="Path_74373" data-name="Path 74373" d="M323.013,172.292a2.273,2.273,0,1,0,2.33-2.671A2.537,2.537,0,0,0,323.013,172.292Z" transform="translate(-322.302 -169.239)" fill="#4e3a5e"/>
            <path id="Path_74374" data-name="Path 74374" d="M331,174.273a6.368,6.368,0,0,0-5.416-4.921c-1.777-.322-3.407,1.705-3.1,2.89a3.678,3.678,0,0,1,3.161-.969C327.506,171.65,331,174.273,331,174.273Z" transform="translate(-322.449 -169.318)" fill="#4e3a5e"/>
          </g>
          <g id="Group_6432" data-name="Group 6432" transform="translate(6.546 1.141)">
            <path id="Path_74375" data-name="Path 74375" d="M327.632,171.031s1.765-.974,1.9-.786-1.261,1.47-1.261,1.47Z" transform="translate(-327.632 -170.221)" fill="#4e3a5e"/>
            <path id="Path_74376" data-name="Path 74376" d="M328.264,171.6a9.983,9.983,0,0,1,2.147-.322c.063.152-1.7,1.147-1.7,1.147Z" transform="translate(-327.466 -169.949)" fill="#4e3a5e"/>
          </g>
        </g>
        <g id="Group_6436" data-name="Group 6436" transform="translate(72.446 39.635)">
          <g id="Group_6434" data-name="Group 6434" transform="translate(1.463)">
            <path id="Path_74377" data-name="Path 74377" d="M308.059,171.608a2.137,2.137,0,1,0,2.179-2.573A2.423,2.423,0,0,0,308.059,171.608Z" transform="translate(-307.155 -168.682)" fill="#4e3a5e"/>
            <path id="Path_74378" data-name="Path 74378" d="M315.1,173.485a5.073,5.073,0,0,0-4.536-4.716,3.181,3.181,0,0,0-3.183,3.311,3.657,3.657,0,0,1,3.24-1.46C312.906,170.9,315.1,173.485,315.1,173.485Z" transform="translate(-307.343 -168.755)" fill="#4e3a5e"/>
          </g>
          <g id="Group_6435" data-name="Group 6435" transform="translate(0 0.726)">
            <path id="Path_74379" data-name="Path 74379" d="M308.928,170.286s-1.68-1.113-1.831-.937,1.138,1.568,1.138,1.568Z" transform="translate(-305.947 -169.33)" fill="#4e3a5e"/>
            <path id="Path_74380" data-name="Path 74380" d="M308.3,170.811a9.95,9.95,0,0,0-2.114-.5c-.075.147,1.6,1.281,1.6,1.281Z" transform="translate(-306.184 -169.077)" fill="#4e3a5e"/>
          </g>
        </g>
        <path id="Path_74381" data-name="Path 74381" d="M300.738,293.707h64.914c-3.184-22.7-12.31-29.411-12.852-38.436-.606-10.107,12.137-30.642,11.524-43.424-3.031-4.955-8.935-9.53-13.9-11.692,0,0-8.478,13.015-23.905,11.725-10.39-.869-9.029-8.954-9.029-8.954-9.088,6.926-14.143,14.447-14.158,21.6-.023,10.519,8.242,21.747,8.65,29.5C312.332,260.738,304.22,275.219,300.738,293.707Z" transform="translate(-235.171 -120.859)" fill="#e25998"/>
        <path id="Path_74382" data-name="Path 74382" d="M359.71,223.261l.011-.03.3-.753.01-.027a41.9,41.9,0,0,1-35.6,16.022c-13.51-.619-18.272-7.04-21.256-15.41.442,2,.965,3.923,1.5,5.76,2.467,7.177,6.384,14.062,6.66,19.338a22.147,22.147,0,0,1-1.3,7.042,21.72,21.72,0,0,1,14.388-5.8c21.315-.325,25.5,26.69,28.992,38.477h11.6c-3.3-25.344-12.435-29.441-12.851-38.48C351.828,242.185,355.692,235.2,359.71,223.261Z" transform="translate(-234.53 -114.993)" fill="#78539b" opacity="0.3" style="mix-blend-mode: multiply;isolation: isolate"/>
        <path id="Path_74383" data-name="Path 74383" d="M341.369,145.37c8.719-3.117,15.511,5.96,16.279,13.608.625,6.228-1.281,12.092-1.507,18.211a.536.536,0,0,0,1.048.141c2.52-8.336,4.156-19.409-1.04-27.006-3.319-4.857-9.376-9.308-15.091-5.693-.37.234-.139.9.311.738Z" transform="translate(-224.611 -135.813)" fill="#a15ba3"/>
        <path id="Path_74384" data-name="Path 74384" d="M354.067,173.747c-1.339,9.319,1.725,18.206,6.6,26.105,5.131,8.319,18.013,17.851,14.811,28.983a.6.6,0,0,0,1.085.457c3.668-7.073-1.461-12.891-5.655-18.4-9.145-12.009-15.3-21.262-16.281-37.073-.018-.3-.508-.409-.556-.075Z" transform="translate(-221.224 -127.86)" fill="#a15ba3"/>
        <path id="Path_74385" data-name="Path 74385" d="M339.459,138.081c2.118,2.367,2.428,6.419,1.363,9.322-.235.643.6.928,1.024.6,1.646-1.292,1.182-4.388.981-6.207a6.461,6.461,0,0,0-2.879-4.345c-.392-.275-.781.309-.49.634Z" transform="translate(-225.01 -137.375)" fill="#a15ba3"/>
        <path id="Path_74386" data-name="Path 74386" d="M366.184,238.735c11.982-2.324,9.066-22.088,1.259-27.519-.479-.333-.993.389-.608.787,6.272,6.477,10.244,21.932-.815,26.141a.307.307,0,0,0,.163.591Z" transform="translate(-218.052 -117.971)" fill="#a15ba3"/>
        <path id="Path_74387" data-name="Path 74387" d="M380.108,236.958c3.393-6.939-1.669-12.693-5.8-18.122-8.469-11.121-14.394-19.9-16-33.707.018-1.4.061-2.809.119-4.24.121-2.988.239-6.024.2-9.051,1.517-7.289,1.629-15.536-2.462-21.519-3.331-4.873-9.386-9.317-15.108-5.684-.369.234-.139.9.311.738.269-.1.537-.179.8-.253,9.808,1.71,13.7,11.287,13.9,19.092.206,7.837-5.982,25.988-2.682,38.157,2.591,9.555,13.953,18.6,20.515,26.639,2.173,2.582,5.013,9.257,5.53,14.307,0,.442,0,.878-.024,1.3.033-.135.063-.269.095-.4.277,5.031-1.535,9.725-6.926,11.776a.307.307,0,0,0,.163.591c7.394-1.435,9.133-9.573,7.518-16.845A15.8,15.8,0,0,0,380.108,236.958Zm-31.232-90.767a12.979,12.979,0,0,0-2.789-1.359c6.347.834,10.921,7.962,11.542,14.152a25.883,25.883,0,0,1,.117,3.057,35.037,35.037,0,0,0-1.646-5.9A21.9,21.9,0,0,0,348.875,146.191Zm10.3,51.568a50.886,50.886,0,0,0,4.857,10.054c4.641,7.525,15.578,16.01,15.3,25.793a32.012,32.012,0,0,0-4.66-8.994c-3.4-4.619-7.792-8.68-10.692-13.651A39.669,39.669,0,0,1,359.177,197.759Z" transform="translate(-224.611 -135.815)" fill="#65529d" opacity="0.2" style="mix-blend-mode: multiply;isolation: isolate"/>
        <path id="Path_74388" data-name="Path 74388" d="M322.093,164.189c-.45,1.554,2.083.759,6.466,2.908,2.647,1.3,4.737,3.444,5.228,3.151s-.634-2.151-4.4-4.579C326.342,163.711,322.422,163.049,322.093,164.189Z" transform="translate(-229.566 -130.468)" fill="#65529d" opacity="0.2" style="mix-blend-mode: multiply;isolation: isolate"/>
        <path id="Path_74389" data-name="Path 74389" d="M315.353,164.147c.278,1.466-2.214.849-5.353,2.09-2.25.89-3.8,2.306-4.292,2.1s.336-1.89,3.117-3.429C311.389,163.485,315.178,163.234,315.353,164.147Z" transform="translate(-233.898 -130.473)" fill="#65529d" opacity="0.2" style="mix-blend-mode: multiply;isolation: isolate"/>
        <path id="Path_74390" data-name="Path 74390" d="M342.2,185.139s-.11,10.617,5.621,18.724C356.137,215.632,369.2,218.658,372,242c0,0,1.931-16.953-11.327-27.468C341.519,199.341,342.2,185.139,342.2,185.139Z" transform="translate(-224.264 -124.809)" fill="#65529d" opacity="0.2" style="mix-blend-mode: multiply;isolation: isolate"/>
        <path id="Path_74391" data-name="Path 74391" d="M347.581,175.751s-3.025,13.2,2.75,24.476C350.33,200.227,340.293,189.363,347.581,175.751Z" transform="translate(-223.545 -127.279)" fill="#65529d" opacity="0.2" style="mix-blend-mode: multiply;isolation: isolate"/>
        <path id="Path_74392" data-name="Path 74392" d="M331,151.771s6.9,11.653,18.854,15.848C349.856,167.619,335.1,166.659,331,151.771Z" transform="translate(-227.209 -133.588)" fill="#65529d" opacity="0.2" style="mix-blend-mode: multiply;isolation: isolate"/>
        <path id="Path_74393" data-name="Path 74393" d="M340.5,148.861s13.751,3.576,11.689,22.551C352.185,171.412,350.4,155.874,340.5,148.861Z" transform="translate(-224.711 -134.354)" fill="#65529d" opacity="0.2" style="mix-blend-mode: multiply;isolation: isolate"/>
        <path id="Path_74394" data-name="Path 74394" d="M333.173,153.923s-18.977-8.251-31.215,4.124c0,0,4.125-7.7,15.538-9.349S333.173,153.923,333.173,153.923Z" transform="translate(-234.85 -134.464)" fill="#65529d" opacity="0.2" style="mix-blend-mode: multiply;isolation: isolate"/>
        <path id="Path_74395" data-name="Path 74395" d="M321.506,140.776s9.356,1.027,13.174,9.712C334.68,150.488,335.9,140.547,321.506,140.776Z" transform="translate(-229.707 -136.482)" fill="#65529d" opacity="0.2" style="mix-blend-mode: multiply;isolation: isolate"/>
        <path id="Path_74396" data-name="Path 74396" d="M352.173,240.728c-3.226-6.754-7-12.29-13.658-20.7-1.787-2.258-4.346-4.121-5.06-3.756-1.034.529,2.146,3.159,2.762,5.134-7.244-3.941-14.437-5.532-14.6-4.34-.28,2.084,5.3,2.051,9.771,5.118-4.883-1.151-12.174-3.809-12.513-1.984-.182,1.062,3.63,1.948,6.2,2.724,2.712.822,5.52,2.074,5.5,2.335-.11.448-11.48-3.6-11.667-1.4-.1,1.122,3.71,1.783,5.414,2.2,2.543.621,5.4,1.473,5.383,1.8s-2.054-.306-3.775-.567c-2.233-.339-4.492-.136-4.62.446-.191.854,1.667.985,4.385,1.58,3.558.779,10.4,1.349,11.473,2.831a54.356,54.356,0,0,1,3.923,13.328Z" transform="translate(-230.4 -116.632)" fill="url(#linear-gradient-13)"/>
        <path id="Path_74397" data-name="Path 74397" d="M354.883,208.832c4.171,5.33,8.314,14.893,10.314,20.511,6.568,18.439,8.954,46.084-3.414,50.229-11.72,3.928-21.507-16.786-27.837-37.135,0,0,1.538-6.595,10.509-10.634C344.455,231.8,346.881,198.6,354.883,208.832Z" transform="translate(-226.434 -119.091)" fill="#e25998"/>
        <path id="Path_74398" data-name="Path 74398" d="M342.258,227.377l14.159,24.109a57.852,57.852,0,0,0-11.3-26.745Z" transform="translate(-224.247 -114.391)" fill="#78539b" opacity="0.3" style="mix-blend-mode: multiply;isolation: isolate"/>
      </g>
      <g id="Group_6438" data-name="Group 6438" transform="translate(196.83 554.654)">
        <path id="Path_74399" data-name="Path 74399" d="M238.27,146.435c-2.284.446-4.973,2.351-6.166,6.6-2.65-3.529-5.047-4.483-7.339-4.071-7.825,1.406-11.932,15.982,10.647,21.408C254.746,155.986,244.689,145.18,238.27,146.435Z" transform="translate(-218.551 -73.277)" fill="#f74c64"/>
        <path id="Path_74400" data-name="Path 74400" d="M282.544,129.821c-1.6-1.118-4.311-1.629-7.566.121.586-3.652-.235-5.651-1.816-6.793-5.4-3.9-16.581,2.109-6.71,18.879C286.377,145.313,287.036,132.96,282.544,129.821Z" transform="translate(-206.984 -79.678)" fill="#f74c64"/>
        <path id="Path_74401" data-name="Path 74401" d="M250.722,89.816c-1.59-.2-3.764.461-5.465,2.981-.969-2.885-2.332-4.028-3.921-4.254-5.426-.776-11.273,7.874,2.329,16.319C259.436,99.638,255.2,90.386,250.722,89.816Z" transform="translate(-214.144 -88.495)" fill="#f74c64"/>
      </g>
    </g>
    <circle id="Ellipse_1087" data-name="Ellipse 1087" cx="2" cy="2" r="2" transform="translate(271 618)" fill="#f11"/>
  </g>
</svg>
