<svg xmlns="http://www.w3.org/2000/svg" xmlns:xlink="http://www.w3.org/1999/xlink" width="178.479" height="160" viewBox="0 0 178.479 160">
  <defs>
    <linearGradient id="linear-gradient" x1="0.5" y1="0.037" x2="0.5" y2="2.133" gradientUnits="objectBoundingBox">
      <stop offset="0" stop-color="#fcd9bb"/>
      <stop offset="0.992" stop-color="#f17954"/>
    </linearGradient>
    <linearGradient id="linear-gradient-2" x1="0.061" y1="0.845" x2="0.96" y2="0.139" gradientUnits="objectBoundingBox">
      <stop offset="0" stop-color="#c9887c"/>
      <stop offset="0.187" stop-color="#ca8b7f"/>
      <stop offset="0.359" stop-color="#cf958a"/>
      <stop offset="0.526" stop-color="#d6a69d"/>
      <stop offset="0.688" stop-color="#e1beb7"/>
      <stop offset="0.847" stop-color="#efdcd9"/>
      <stop offset="0.992" stop-color="#fff"/>
    </linearGradient>
    <linearGradient id="linear-gradient-3" x1="0.076" y1="0.971" x2="0.944" y2="0.007" gradientUnits="objectBoundingBox">
      <stop offset="0" stop-color="#c9887c"/>
      <stop offset="0.139" stop-color="#cd9085"/>
      <stop offset="0.374" stop-color="#d7a89f"/>
      <stop offset="0.675" stop-color="#e9cfca"/>
      <stop offset="0.992" stop-color="#fff"/>
    </linearGradient>
    <linearGradient id="linear-gradient-4" x1="0.039" y1="0.756" x2="0.982" y2="0.232" gradientUnits="objectBoundingBox">
      <stop offset="0" stop-color="#97889a"/>
      <stop offset="0.116" stop-color="#b0a4b2"/>
      <stop offset="0.275" stop-color="#ccc5cd"/>
      <stop offset="0.44" stop-color="#e2dee3"/>
      <stop offset="0.611" stop-color="#f2f0f2"/>
      <stop offset="0.79" stop-color="#fbfbfc"/>
      <stop offset="0.992" stop-color="#fff"/>
    </linearGradient>
    <linearGradient id="linear-gradient-5" x1="0.01" y1="0.702" x2="0.963" y2="0.309" gradientUnits="objectBoundingBox">
      <stop offset="0" stop-color="#c9887c"/>
      <stop offset="0.047" stop-color="#cc8f84"/>
      <stop offset="0.362" stop-color="#e2bfb8"/>
      <stop offset="0.636" stop-color="#f1e1df"/>
      <stop offset="0.856" stop-color="#fbf7f6"/>
      <stop offset="0.992" stop-color="#fff"/>
    </linearGradient>
    <linearGradient id="linear-gradient-6" y1="0.5" x2="1" y2="0.5" gradientUnits="objectBoundingBox">
      <stop offset="0" stop-color="#b1a4a6"/>
      <stop offset="0.507" stop-color="#938183"/>
      <stop offset="1" stop-color="#7b6567"/>
    </linearGradient>
    <linearGradient id="linear-gradient-7" y1="0.5" x2="1" y2="0.5" gradientUnits="objectBoundingBox">
      <stop offset="0.004" stop-color="#ec6d38"/>
      <stop offset="0.247" stop-color="#d35e2b"/>
      <stop offset="0.739" stop-color="#a74413"/>
      <stop offset="0.989" stop-color="#973b0b"/>
    </linearGradient>
    <linearGradient id="linear-gradient-8" y1="0.5" x2="1" y2="0.5" gradientUnits="objectBoundingBox">
      <stop offset="0" stop-color="#ff9a6a"/>
      <stop offset="0.992" stop-color="#f17954"/>
    </linearGradient>
    <linearGradient id="linear-gradient-9" y1="0.5" x2="1" y2="0.5" gradientUnits="objectBoundingBox">
      <stop offset="0.004" stop-color="#ed5f5b"/>
      <stop offset="1" stop-color="#c24242"/>
    </linearGradient>
    <linearGradient id="linear-gradient-10" y1="0.5" x2="1" y2="0.5" gradientUnits="objectBoundingBox">
      <stop offset="0.008" stop-color="#ffbd95"/>
      <stop offset="1" stop-color="#ff9a67"/>
    </linearGradient>
    <linearGradient id="linear-gradient-12" x1="0" y1="0.5" x2="1" y2="0.5" xlink:href="#linear-gradient-8"/>
    <linearGradient id="linear-gradient-13" x1="94.732" y1="0.5" x2="95.732" y2="0.5" gradientUnits="objectBoundingBox">
      <stop offset="0.008" stop-color="#f17954"/>
      <stop offset="1" stop-color="#ff9a6a"/>
    </linearGradient>
    <linearGradient id="linear-gradient-15" x1="203.706" y1="0.5" x2="204.706" y2="0.5" xlink:href="#linear-gradient-8"/>
    <linearGradient id="linear-gradient-18" x1="4434.009" y1="-5.482" x2="4432.932" y2="-5.688" gradientUnits="objectBoundingBox">
      <stop offset="0" stop-color="#ffcab0"/>
      <stop offset="0.273" stop-color="#ffdfd0"/>
      <stop offset="0.55" stop-color="#fff0e9"/>
      <stop offset="0.801" stop-color="#fffbf9"/>
      <stop offset="1" stop-color="#fff"/>
    </linearGradient>
    <linearGradient id="linear-gradient-19" x1="2592.819" y1="-1120.858" x2="2592.97" y2="-1119.779" xlink:href="#linear-gradient-18"/>
    <linearGradient id="linear-gradient-20" x1="985.389" y1="124.999" x2="985.433" y2="123.944" gradientUnits="objectBoundingBox">
      <stop offset="0" stop-color="#fff"/>
      <stop offset="0.199" stop-color="#fffbf9"/>
      <stop offset="0.45" stop-color="#fff0e9"/>
      <stop offset="0.727" stop-color="#ffdfd0"/>
      <stop offset="1" stop-color="#ffcab0"/>
    </linearGradient>
    <linearGradient id="linear-gradient-21" y1="0.5" x2="1" y2="0.5" gradientUnits="objectBoundingBox">
      <stop offset="0.008" stop-color="#fde3cd"/>
      <stop offset="0.517" stop-color="#fcd9bb"/>
      <stop offset="0.992" stop-color="#efd1bb"/>
    </linearGradient>
    <linearGradient id="linear-gradient-23" x1="0" y1="0.5" x2="1" y2="0.5" xlink:href="#linear-gradient-9"/>
    <linearGradient id="linear-gradient-24" x1="0" y1="0.5" x2="1" y2="0.5" xlink:href="#linear-gradient"/>
    <linearGradient id="linear-gradient-25" x1="0" y1="0.5" x2="1" y2="0.5" xlink:href="#linear-gradient"/>
    <linearGradient id="linear-gradient-26" y1="0.5" x2="1" y2="0.5" gradientUnits="objectBoundingBox">
      <stop offset="0.008" stop-color="#feebdb"/>
      <stop offset="0.437" stop-color="#fcd9bb"/>
      <stop offset="0.828" stop-color="#efd1bb"/>
    </linearGradient>
    <linearGradient id="linear-gradient-27" y1="0.5" x2="1" y2="0.5" gradientUnits="objectBoundingBox">
      <stop offset="0.162" stop-color="#7b6567"/>
      <stop offset="0.28" stop-color="#6c5a60"/>
      <stop offset="0.47" stop-color="#5d4f59"/>
      <stop offset="0.687" stop-color="#534955"/>
      <stop offset="0.989" stop-color="#514754"/>
    </linearGradient>
    <linearGradient id="linear-gradient-30" x1="0.5" y1="0.847" x2="0.5" y2="0.059" gradientUnits="objectBoundingBox">
      <stop offset="0" stop-color="#759586"/>
      <stop offset="0.992" stop-color="#75c4ae"/>
    </linearGradient>
    <linearGradient id="linear-gradient-31" x1="971.215" y1="-72.921" x2="971.788" y2="-73.286" gradientUnits="objectBoundingBox">
      <stop offset="0" stop-color="#ff9a67"/>
      <stop offset="0.374" stop-color="#ffad7f"/>
      <stop offset="0.719" stop-color="#ffb88f"/>
      <stop offset="0.992" stop-color="#ffbd95"/>
    </linearGradient>
    <linearGradient id="linear-gradient-32" x1="889.252" y1="-86.211" x2="890.138" y2="-86.211" gradientUnits="objectBoundingBox">
      <stop offset="0.011" stop-color="#684024"/>
      <stop offset="0.144" stop-color="#734328"/>
      <stop offset="0.424" stop-color="#874a2f"/>
      <stop offset="0.708" stop-color="#934d33"/>
      <stop offset="1" stop-color="#974f35"/>
    </linearGradient>
    <linearGradient id="linear-gradient-33" x1="4688.572" y1="631.619" x2="4687.479" y2="631.407" gradientUnits="objectBoundingBox">
      <stop offset="0" stop-color="#ff9a67"/>
      <stop offset="0.992" stop-color="#ffbd95"/>
    </linearGradient>
    <linearGradient id="linear-gradient-34" x1="0.5" y1="0.04" x2="0.5" y2="0.869" gradientUnits="objectBoundingBox">
      <stop offset="0.008" stop-color="#75c4ae"/>
      <stop offset="1" stop-color="#759586"/>
    </linearGradient>
    <linearGradient id="linear-gradient-35" x1="404.567" y1="0.5" x2="405.567" y2="0.5" gradientUnits="objectBoundingBox">
      <stop offset="0.008" stop-color="#f17954"/>
      <stop offset="1" stop-color="#fcd9bb"/>
    </linearGradient>
    <linearGradient id="linear-gradient-36" x1="476.316" y1="0.5" x2="477.316" y2="0.5" xlink:href="#linear-gradient-35"/>
    <linearGradient id="linear-gradient-37" x1="320.194" y1="0.5" x2="321.194" y2="0.5" xlink:href="#linear-gradient-35"/>
    <linearGradient id="linear-gradient-38" x1="0" y1="0.5" x2="1" y2="0.5" xlink:href="#linear-gradient"/>
    <linearGradient id="linear-gradient-39" x1="564.88" y1="-39.157" x2="567.753" y2="-39.157" xlink:href="#linear-gradient-6"/>
    <linearGradient id="linear-gradient-40" x1="-1.925" y1="-2.418" x2="-0.955" y2="-2.418" gradientUnits="objectBoundingBox">
      <stop offset="0.008" stop-color="#ffbd95"/>
      <stop offset="0.559" stop-color="#ff9a6a"/>
      <stop offset="0.992" stop-color="#f17954"/>
    </linearGradient>
  </defs>
  <g id="Group_12188" data-name="Group 12188" transform="translate(-425.477 -176.613)">
    <g id="Group_12167" data-name="Group 12167" transform="translate(425.477 243.401)">
      <g id="Group_12166" data-name="Group 12166" transform="translate(0 0.146)">
        <path id="Rectangle_3293" data-name="Rectangle 3293" d="M4.456,0H157.641A4.456,4.456,0,0,1,162.1,4.456V40.524a0,0,0,0,1,0,0H0a0,0,0,0,1,0,0V4.456A4.456,4.456,0,0,1,4.456,0Z" transform="translate(8.191)" fill="url(#linear-gradient)"/>
        <rect id="Rectangle_3294" data-name="Rectangle 3294" width="3.449" height="40.351" transform="translate(10.347 50.224)" fill="#8d6a54"/>
        <rect id="Rectangle_3295" data-name="Rectangle 3295" width="3.449" height="40.351" transform="translate(165.977 50.224)" fill="#8d6a54"/>
        <rect id="Rectangle_3296" data-name="Rectangle 3296" width="178.479" height="16.382" rx="2.847" transform="translate(0 38.8)" fill="#fcd9bb"/>
      </g>
      <rect id="Rectangle_3297" data-name="Rectangle 3297" width="39.733" height="16.382" transform="translate(52.778 38.946)" fill="url(#linear-gradient-2)" style="mix-blend-mode: multiply;isolation: isolate"/>
      <rect id="Rectangle_3298" data-name="Rectangle 3298" width="56.084" height="16.382" transform="translate(102.619 38.946)" fill="url(#linear-gradient-3)" style="mix-blend-mode: multiply;isolation: isolate"/>
      <rect id="Rectangle_3299" data-name="Rectangle 3299" width="66.515" height="38.704" transform="translate(45.068 0.242)" fill="url(#linear-gradient-4)" style="mix-blend-mode: multiply;isolation: isolate"/>
      <path id="Rectangle_3300" data-name="Rectangle 3300" d="M0,0H44.144A5.554,5.554,0,0,1,49.7,5.554V38.946a0,0,0,0,1,0,0H0a0,0,0,0,1,0,0V0A0,0,0,0,1,0,0Z" transform="translate(120.732)" fill="url(#linear-gradient-5)" style="mix-blend-mode: multiply;isolation: isolate"/>
    </g>
    <g id="Group_12170" data-name="Group 12170" transform="translate(446.874 181.9)">
      <path id="Path_80171" data-name="Path 80171" d="M477.667,195.508c.132.374,10.965-2.3,11.59-2.14a9.708,9.708,0,0,0,2.224.507c.742,0,2.359-1.639,2.359-1.639L492.533,192s-.662.949-1.363.949a19.436,19.436,0,0,0-2.342,0C488.018,193.046,477.472,194.956,477.667,195.508Z" transform="translate(-408.186 -170.49)" fill="url(#linear-gradient-6)"/>
      <path id="Path_80172" data-name="Path 80172" d="M464.715,181.42a3.477,3.477,0,0,0-4.264-.937c-2.725,1.179-1.633,5.208-2.326,6.913s-1.283,1.485-1.578,3.843,3.094,2.358,3.094,5.156-1.517,2.34-1.517,4.155,2.767,1.539,1.665,3.582-3.464,1.767-4.494,2.8.737,3.242.737,3.242,8.982-3.094,9.537-5.6,0-13.408,0-14.072S464.715,181.42,464.715,181.42Z" transform="translate(-425.009 -179.295)" fill="url(#linear-gradient-7)"/>
      <path id="Path_80173" data-name="Path 80173" d="M468.781,196.906c1.144,1.146,6.471,33.836,6.471,35.363s-6.391,2.988-6.391,2.149-6.993-32.168-6.993-34.458S468.781,196.906,468.781,196.906Z" transform="translate(-419.897 -166.856)" fill="url(#linear-gradient-8)"/>
      <path id="Path_80174" data-name="Path 80174" d="M477.168,194.963c-3.817-1.146-9.859.571-12.722,7.634s-4.214,20.388-10.831,31.8c-3.857,6.648-15.39,13.408-14.61,25.92.542,8.689,5.28,9.184,13.891,9.184,9.854,0,42.306,5.88,44.023,1.872s.313-9.565-9.06-14.559c-6.856-3.655-16.511-7.279-16.511-11.86s5.821-18.592,9.257-22.028,8.935-6.924,8.935-10.549-2.011-10.629-3.78-13.784C484.174,195.764,477.168,194.963,477.168,194.963Z" transform="translate(-436.874 -168.538)" fill="url(#linear-gradient-9)"/>
      <path id="Path_80175" data-name="Path 80175" d="M456.889,203.183a19.419,19.419,0,0,0,4.865-6.8,68.773,68.773,0,0,0,3.274-11.643l7.634,8.015s-2.863,3.436-2.863,6.109a18.591,18.591,0,0,0,1.719,6.3s1.473,4.306.714,4.2C469.334,208.974,456.889,203.183,456.889,203.183Z" transform="translate(-423.588 -175.875)" fill="url(#linear-gradient-10)"/>
      <path id="Path_80176" data-name="Path 80176" d="M461.087,190.537c0,5.44,5.374,10.359,8.971,10.359,1.8,0,4.059-4.919,4.059-10.359s-2.917-9.849-6.514-9.849S461.087,185.1,461.087,190.537Z" transform="translate(-420.476 -178.879)" fill="url(#linear-gradient-10)"/>
      <path id="Path_80177" data-name="Path 80177" d="M465.848,218.795s-.249,3.272,1.506,3.359,15.453.158,15.453.158-9.833-6.354-11.12-6.354S465.848,218.795,465.848,218.795Z" transform="translate(-416.955 -152.732)" fill="url(#linear-gradient-12)"/>
      <path id="Path_80178" data-name="Path 80178" d="M444.42,275.347c0,.71-6.2-.9-6.579-2.715s.763-14.4,1.24-14.876,3.528.381,3.528,1.813-2,10.4-2,12.113S444.42,274.44,444.42,275.347Z" transform="translate(-437.765 -121.843)" fill="#fcd9bb"/>
      <path id="Path_80179" data-name="Path 80179" d="M468.224,270.36c0,.573-4.514,1.334-6.358.508s-9.473-5.689-9.473-6.34,2.607-1.351,3.624-1.351S468.224,269.979,468.224,270.36Z" transform="translate(-426.92 -117.726)" fill="#fcd9bb"/>
      <path id="Path_80180" data-name="Path 80180" d="M466.786,247.01c-1.987,4.872-11.449,32.629-11.449,32.629l3.434,1.336s25.152-35.093,26.333-37.209c1.219-2.184,1.426-5.825,0-7.251C477.948,229.358,468.885,241.858,466.786,247.01Z" transform="translate(-424.738 -139.092)" fill="url(#linear-gradient-13)"/>
      <path id="Path_80181" data-name="Path 80181" d="M484.609,238.633c.984,3.244-3.791,8.233-10.577,12.7s-28.541,24.887-28.541,24.887l-2.1-2.29s16.591-28.208,21.229-32.845S481.95,229.875,484.609,238.633Z" transform="translate(-433.593 -139.112)" fill="url(#linear-gradient-10)"/>
      <path id="Path_80182" data-name="Path 80182" d="M460.886,261.3a63.173,63.173,0,0,0,1.621,6.6c1.294,2.135,4.79,3.768,4.79,4.341s-4.195.909-5.553.333a56.384,56.384,0,0,1-6.2-4.1c-.524-.526-2.671-2.1-2.671-2.959s4.294-5.151,4.294-5.151Z" transform="translate(-426.566 -119.814)" fill="url(#linear-gradient-15)"/>
      <path id="Path_80183" data-name="Path 80183" d="M449.433,259.454s-5.628,8.014-6.011,9.349a23.445,23.445,0,0,0-.667,4.39c0,.667,1.637,1.574,1.05,2.163s-5.057-.912-5.63-2.922,1.527-6.873,1.527-8.877-.716-4.722.477-5.915,7.155-.477,7.155-.477Z" transform="translate(-437.534 -122.342)" fill="url(#linear-gradient-10)"/>
      <path id="Path_80184" data-name="Path 80184" d="M454.42,268.77a22.945,22.945,0,0,1,2.105-4.005c.7-.695,4.317-1.748,4.317-1.748l.04-1.787a6.505,6.505,0,0,1-2.234-.437,9.476,9.476,0,0,1-1.748-1.3l-.763,1.3a15.211,15.211,0,0,1-.34,3.129c-.124.343-2.236,4.372-2.236,4.372Z" transform="translate(-426.054 -120.46)" fill="#fcd9bb"/>
      <path id="Path_80185" data-name="Path 80185" d="M463.115,267.49l-2.708-2.253a10.164,10.164,0,0,0-2.751,1.348,4.606,4.606,0,0,0-.954,1.5,15.388,15.388,0,0,0,2.669,1.336A29.9,29.9,0,0,0,463.115,267.49Z" transform="translate(-423.726 -116.199)" fill="#fcd9bb"/>
      <path id="Path_80186" data-name="Path 80186" d="M449.883,260.156c-.416-.416-2.959-4.153-2.959-4.153l-1.809,1.334a5.163,5.163,0,0,1-1.048,2.819c-.928.926-5.436,1.567-5.436,1.567v1.868s5.626-2.058,6.295-2.058a13.184,13.184,0,0,1,3.051,1.43Z" transform="translate(-437.124 -123.045)" fill="#fcd9bb"/>
      <path id="Path_80187" data-name="Path 80187" d="M443.43,264.465l.03,3.762-4.2,1.092-1.49-1.99.525-3.3Z" transform="translate(-437.758 -117.097)" fill="#fcd9bb"/>
      <path id="Path_80188" data-name="Path 80188" d="M473.824,184.87s-.329-3.039-4.381-4.77c-3.434-1.468-7.086,1-8.472,2.384s-2.064,8.815-1.325,10.14A26.623,26.623,0,0,0,461.5,195.4s.94-1.229,1.423-1.229.369-2.666,1.6-2.992S470.026,184.408,473.824,184.87Z" transform="translate(-421.768 -179.649)" fill="url(#linear-gradient-7)"/>
      <g id="Group_12168" data-name="Group 12168" transform="translate(44.885 10.118)">
        <path id="Path_80189" data-name="Path 80189" d="M467.987,185.819a8.328,8.328,0,0,0-.131,3.2c.165,1.355.813,2.647.576,2.974a2.6,2.6,0,0,1-1.964.164c-.376-.456.993-4.3-.122-6.138C465.775,185.078,467.66,185.551,467.987,185.819Z" transform="translate(-461.54 -185.459)" fill="url(#linear-gradient-18)" style="mix-blend-mode: multiply;isolation: isolate"/>
        <path id="Path_80190" data-name="Path 80190" d="M465.362,190.177a4.691,4.691,0,0,0,2.34.7,2.1,2.1,0,0,0,1.626-.893Z" transform="translate(-462.191 -182.104)" fill="#fff"/>
        <path id="Path_80191" data-name="Path 80191" d="M465.62,185.825a3.292,3.292,0,0,0-2.079,2.192l5.5.158A2.665,2.665,0,0,0,465.62,185.825Z" transform="translate(-463.541 -185.268)" fill="url(#linear-gradient-19)" style="mix-blend-mode: multiply;isolation: isolate"/>
        <path id="Path_80192" data-name="Path 80192" d="M469.6,185.6a17.97,17.97,0,0,1,.087,2.429l-2.666.092S467.214,185.117,469.6,185.6Z" transform="translate(-460.963 -185.396)" fill="url(#linear-gradient-20)" style="mix-blend-mode: multiply;isolation: isolate"/>
        <path id="Path_80193" data-name="Path 80193" d="M464.2,187.543a20.349,20.349,0,0,1,2.065-.756,5.146,5.146,0,0,1,1.161-.143l-.268.491.129.4A13.149,13.149,0,0,0,464.2,187.543Z" transform="translate(-463.055 -184.581)" fill="#9f5c44"/>
        <path id="Path_80194" data-name="Path 80194" d="M467.481,187.325a5.227,5.227,0,0,1,1.1-.625,3.739,3.739,0,0,1,.975-.3l-.209.557.085.333A7.2,7.2,0,0,0,467.481,187.325Z" transform="translate(-460.62 -184.762)" fill="#9f5c44"/>
      </g>
      <path id="Path_80195" data-name="Path 80195" d="M456.423,196.935l3.239-3.12,12.327,7.477-.573-3.9,1,1.256s1.332,3.779.59,4.521S456.423,196.935,456.423,196.935Z" transform="translate(-423.933 -169.147)" fill="url(#linear-gradient-21)"/>
      <path id="Path_80196" data-name="Path 80196" d="M504.2,192.642c-.381-.383-4.71.5-5.13.919s-4.4,4.827-4.4,4.83c-5.572,4.937-11.843,13-12.83,13-1.336,0-10.519-4.54-13.145-6.436-3.413-2.46-9.64-5.248-12.026-2.863-1.717,1.719-.987,6.1,3.74,8.78,4.179,2.37,20.793,9.572,23.364,8.78,2.121-.653,7.885-12.165,12.757-18.4,0,0,4.129-1.807,4.745-2.868a10.915,10.915,0,0,0,.775-4.012C502.056,193.835,504.588,193.025,504.2,192.642Z" transform="translate(-424.373 -170.086)" fill="url(#linear-gradient-10)"/>
      <path id="Path_80197" data-name="Path 80197" d="M469.058,201.377s-3.293,1.545-4.23,3.652a15.7,15.7,0,0,0-.935,5.268s-8.547-3.862-8.547-8.078,3.4-4.837,5.151-4.837C464.322,197.381,469.058,201.377,469.058,201.377Z" transform="translate(-424.731 -166.503)" fill="url(#linear-gradient-23)"/>
      <g id="Group_12169" data-name="Group 12169" transform="translate(82.532 19.934)">
        <path id="Path_80198" data-name="Path 80198" d="M485.776,193.136h2.344a.617.617,0,0,0,.616-.615h0a.618.618,0,0,0-.616-.616h-2.344a.617.617,0,0,0-.615.616h0A.617.617,0,0,0,485.776,193.136Z" transform="translate(-485.161 -190.497)" fill="url(#linear-gradient-24)"/>
        <path id="Path_80199" data-name="Path 80199" d="M488.336,192.06a.436.436,0,0,1,.151.352.485.485,0,0,1-.094.409c-.108.132-.611.171-.625-.129s-.108-.406-.359-.366a.331.331,0,0,0-.287.347.241.241,0,0,1-.4.186c-.2-.157-.15-.374-.308-.461a.469.469,0,0,0-.482.108c-.143.125-.078.192-.115.263a.266.266,0,0,1-.286.094.458.458,0,0,1-.273-.428.451.451,0,0,1,.225-.4A11.156,11.156,0,0,1,488.336,192.06Z" transform="translate(-485.087 -190.461)" fill="#ffe2d8" style="mix-blend-mode: multiply;isolation: isolate"/>
        <path id="Path_80200" data-name="Path 80200" d="M487.571,191.122c.057.165-.488.533-.2.622a1.9,1.9,0,0,1,.953.559c.134.254-.153.449-.613.475a6.713,6.713,0,0,1-1.954.082c-.8-.329-.387-.977.3-1.306A3.168,3.168,0,0,1,487.571,191.122Z" transform="translate(-485.046 -191.097)" fill="url(#linear-gradient-25)"/>
        <path id="Path_80201" data-name="Path 80201" d="M487.35,191.117a3.545,3.545,0,0,0-1.111.6.835.835,0,0,0-.192.794c.057.113-.019.259-.106.259s-.42-.031-.449-.247a.98.98,0,0,1,.421-.869A4.32,4.32,0,0,1,487.35,191.117Z" transform="translate(-484.919 -191.085)" fill="#fff" style="mix-blend-mode: soft-light;isolation: isolate"/>
        <path id="Path_80202" data-name="Path 80202" d="M487,191.171c0,.05-.4.165-.508.482a.555.555,0,0,0,.077.575c.172.235.183.362.087.418a.582.582,0,0,1-.484-.012.549.549,0,0,1-.263-.479.971.971,0,0,1,.486-.742A1.325,1.325,0,0,1,487,191.171Z" transform="translate(-484.608 -191.045)" fill="#fff" style="mix-blend-mode: soft-light;isolation: isolate"/>
        <path id="Path_80203" data-name="Path 80203" d="M486.474,191.394c.026.028-.082.174.143.253a2.236,2.236,0,0,1,.761.378c.1.141.106.265-.024.32a.827.827,0,0,1-.655-.1c-.158-.134-.446-.528-.407-.653S486.426,191.347,486.474,191.394Z" transform="translate(-484.325 -190.884)" fill="#ffe2d8" style="mix-blend-mode: multiply;isolation: isolate"/>
      </g>
      <path id="Path_80204" data-name="Path 80204" d="M442.672,253.705c4.052-7.031,12.158-11.646,14.732-16.207s9.149-29.869,10.5-32.21,4.736-2.616,6.441-4.684,1.489-10.363,1.489-10.363l0,0c-.251.724-.514,1.424-.791,2.06a20.276,20.276,0,0,1-2.443,4.164l-3.234,3.117.009,0a13.17,13.17,0,0,0-4.926,6.267c-2.863,7.061-4.214,20.388-10.831,31.8-3.857,6.648-15.39,13.408-14.61,25.92.188,3.016.893,5.031,2.079,6.394C441.1,269.7,438.256,261.369,442.672,253.705Z" transform="translate(-436.874 -171.796)" fill="#fff" style="mix-blend-mode: soft-light;isolation: isolate"/>
      <path id="Path_80205" data-name="Path 80205" d="M493.28,192.642c-.381-.383-4.71.5-5.13.919s-4.4,4.827-4.4,4.83c-5.571,4.937-11.843,13-12.83,13-.834,0-.049,2.835.77,2.015s16.156-18.378,16.858-19.082S493.28,192.642,493.28,192.642Z" transform="translate(-413.449 -170.086)" fill="#fff" style="mix-blend-mode: soft-light;isolation: isolate"/>
      <path id="Path_80206" data-name="Path 80206" d="M468.97,221.589c0-1.174-4.9-11.81-4.9-11.81v0c1.489,6.983,2.894,13.48,3.122,14.836q.016.128.037.256v0h0c.139.874.505,1.813,1.435,1.86C470.812,226.7,468.97,222.762,468.97,221.589Z" transform="translate(-418.264 -157.312)" fill="#ffcfc4" style="mix-blend-mode: soft-light;isolation: isolate"/>
      <path id="Path_80207" data-name="Path 80207" d="M473.809,241.578c1.909-4.029,1.292-6.009.7-6.807a27.457,27.457,0,0,0-9.886,5.99c-4.637,4.637-21.229,32.845-21.229,32.845S471.7,246.027,473.809,241.578Z" transform="translate(-433.593 -138.785)" fill="#ffcfc4" style="mix-blend-mode: soft-light;isolation: isolate"/>
    </g>
    <g id="Group_12172" data-name="Group 12172" transform="translate(514.651 176.613)">
      <path id="Path_80208" data-name="Path 80208" d="M509.1,264.632s1.522,6.067.975,7.549-21.539,1.405-22.4.547.623-4.292,2.029-4.761,4.491-2.065,4.491-3.335,1.618-3.5,4.611-3.5S509.1,264.632,509.1,264.632Z" transform="translate(-468.727 -113.958)" fill="#773c34"/>
      <path id="Path_80209" data-name="Path 80209" d="M506.463,260.343a31.509,31.509,0,0,0-.752,4.839c0,1.56-2.663,3.589-3.9,5.24a3.889,3.889,0,0,0-.467,2.9s19.061.448,19.2,0c.623-2.051-2.03-12.977-2.03-12.977Z" transform="translate(-458.483 -114.54)" fill="#773c34"/>
      <path id="Path_80210" data-name="Path 80210" d="M483.944,259.638l21.2-10.92-13.92-53.845-6.738,5.147Z" transform="translate(-471.308 -163.075)" fill="#6e906d"/>
      <path id="Path_80211" data-name="Path 80211" d="M523.628,200.318c-4.574-5.846-31.5-8.012-39.318-4.843-3.955,1.6,10.688,54.4,10.688,54.4h33.974S527.16,204.828,523.628,200.318Z" transform="translate(-471.538 -163.711)" fill="url(#linear-gradient-26)"/>
      <path id="Path_80212" data-name="Path 80212" d="M530.253,226.092s3.627,8.78,3.627,12.788.47,6.983-5.395,6.983S481.9,246.9,481.9,246.9s.235-7.091,3.047-9.9,11.327-10.9,11.327-10.9Z" transform="translate(-472.819 -139.932)" fill="#5c4144"/>
      <path id="Path_80213" data-name="Path 80213" d="M487.071,232.522c6.662-1.146,11.219,3.625,14.727,11.832s11.4,41.609,11.4,41.609-7.714-2.292-10.694-2.292a4.836,4.836,0,0,0-4.209,2.292s-13.673-32.448-15.427-37.6S481.356,233.5,487.071,232.522Z" transform="translate(-472.819 -135.29)" fill="url(#linear-gradient-27)"/>
      <path id="Path_80214" data-name="Path 80214" d="M508.3,287.456s2.805-2.481,5.085-1.527,4.031,3.244,5.785,3.244A3.836,3.836,0,0,0,522.5,286.5c0-.764-4.033-41.8-6.311-47.335s-7.364-10.307-12.623-8.4-7.188,8.207-5.961,13.553S508.3,287.456,508.3,287.456Z" transform="translate(-461.442 -136.782)" fill="url(#linear-gradient-27)"/>
      <path id="Path_80215" data-name="Path 80215" d="M488.891,199.8a5.947,5.947,0,0,0,2.4-4.747v-7.989l9.161-.763a35,35,0,0,0,3.225,9.844,14.843,14.843,0,0,0,4.794,5.167s-9.238,6.305-12.409,5.994C492,206.909,488.891,199.8,488.891,199.8Z" transform="translate(-467.64 -169.427)" fill="url(#linear-gradient-8)"/>
      <path id="Path_80216" data-name="Path 80216" d="M491.361,193.775s-3.793,15.08-2.847,25.034c1.571,16.532,14.417,31.241,14.417,31.241H493.08l-5.583,5.328-1.276-48.865Z" transform="translate(-469.619 -163.89)" fill="#dbcec4" style="mix-blend-mode: multiply;isolation: isolate"/>
      <path id="Path_80217" data-name="Path 80217" d="M499.517,193.815s-2.015,5.311-1.811,14.091c.24,10.439,1.51,48.7,1.51,48.7s8.461-2.959,13.727.815c4.195,3,6.734,9.22,6.734,9.22s3.1-1.99,3.568-3.864-6.38-59.526-9.717-62.862S499.517,193.815,499.517,193.815Z" transform="translate(-461.116 -163.86)" fill="url(#linear-gradient-30)"/>
      <path id="Path_80218" data-name="Path 80218" d="M493.56,193.775s-2.723,5.5-3.744,17.666c-.5,5.969-.12,43.937-.12,43.937l-5.241,5.074s-2.046-62.789-.791-64.355C485.33,194.017,493.56,193.775,493.56,193.775Z" transform="translate(-471.818 -163.89)" fill="#75c4ae"/>
      <path id="Path_80219" data-name="Path 80219" d="M503.664,189.159c.81,6.652-7.329,12.757-10.255,13.121-3.54.442-6.331-4.517-7.141-11.171s1.708-12.727,6.969-13.257C498.933,177.279,502.855,182.505,503.664,189.159Z" transform="translate(-469.695 -175.726)" fill="url(#linear-gradient-31)"/>
      <path id="Path_80220" data-name="Path 80220" d="M486.7,185.149s-1-4.776-.244-5.645,6.546-2.972,9.085-2.882c2.863.1,7.817,3.253,9.116,5.45,1.759,2.974-.162,10.777-.449,11.9s-.879,3.441-.879,3.441a3.681,3.681,0,0,1-1.043-2.185c-.394-2.377-.425-6.048-1.37-6.291-1.558-.4-2.377,3.413-2.377,3.413s-.064-5.057-1.785-7.446c-1.329-1.846-5.757,1.043-6.991,1.3C488.952,186.369,486.7,185.149,486.7,185.149Z" transform="translate(-469.653 -176.608)" fill="url(#linear-gradient-32)"/>
      <path id="Path_80221" data-name="Path 80221" d="M486.458,179.507c.016-.017.044-.038.063-.056,1.576-1.287,7.664-3,9.022-2.826,1.555.2-3.495,2.2.569,2.966,2.2.411,1.808,7.813,1.808,7.813h-.068a8,8,0,0,0-1.1-2.5c-1.329-1.846-5.757,1.043-6.991,1.3-.812.169-3.061-1.052-3.061-1.052S485.7,180.376,486.458,179.507Z" transform="translate(-469.653 -176.613)" fill="#fff" style="mix-blend-mode: soft-light;isolation: isolate"/>
      <g id="Group_12171" data-name="Group 12171" transform="translate(15.779 12.146)">
        <path id="Path_80222" data-name="Path 80222" d="M487.808,185.138a8.244,8.244,0,0,1,.449,3.312c-.056,1.424-.648,2.833-.355,3.15s2.074.01,2.234-.212c.373-.512-1.555-4.193-.5-6.211C490.181,184.144,488.142,184.828,487.808,185.138Z" transform="translate(-484.222 -182.817)" fill="url(#linear-gradient-33)"/>
        <path id="Path_80223" data-name="Path 80223" d="M493.8,184.323l-.91-.736-3.861.517.261,1.225Z" transform="translate(-483.319 -183.588)" fill="#974f35"/>
        <path id="Path_80224" data-name="Path 80224" d="M485.749,184.847l.788-.865,2.383-.008-.073,1.25Z" transform="translate(-485.749 -183.301)" fill="#974f35"/>
        <path id="Path_80225" data-name="Path 80225" d="M492.428,189.016a4.271,4.271,0,0,1-2.163,1.7c-1.384.418-2.248-1.08-2.248-1.08Z" transform="translate(-484.067 -179.563)" fill="#fff"/>
        <path id="Path_80226" data-name="Path 80226" d="M493.1,185.2a19.444,19.444,0,0,1-2.373.277c-.632-.023-1.107-.044-1.107-.044l.4.4-.026.42A5.975,5.975,0,0,0,493.1,185.2Z" transform="translate(-482.881 -182.395)" fill="#9f5c44"/>
        <path id="Path_80227" data-name="Path 80227" d="M488.871,186.044c-.251-.028-.831-.085-1.492-.2a3.717,3.717,0,0,1-1.1-.387l.3.519-.042.343A5.027,5.027,0,0,0,488.871,186.044Z" transform="translate(-485.356 -182.2)" fill="#9f5c44"/>
      </g>
      <path id="Path_80228" data-name="Path 80228" d="M489.46,194.854c-4.122.033-14.887,42.945-12.405,42.945h18.514a71.875,71.875,0,0,1-7.636-5.917c-2.29-2.29,4.581-15.268,4.581-17.178S489.46,194.854,489.46,194.854Z" transform="translate(-476.687 -163.09)" fill="#75c4ae"/>
      <path id="Path_80229" data-name="Path 80229" d="M507.727,197.045c4.245-1.015,6.655,14.544,7.418,18.934s.74,20.3-.954,20.231c-4.047-.157-5.726-2.673-8.207-11.451S501.453,198.548,507.727,197.045Z" transform="translate(-456.757 -161.5)" fill="url(#linear-gradient-34)"/>
      <path id="Path_80230" data-name="Path 80230" d="M498.129,197.39a49.924,49.924,0,0,0-.423,7.866c.178,7.73.919,30.7,1.292,42.114h0l1.985-8.4Z" transform="translate(-461.116 -161.21)" fill="#fff" style="mix-blend-mode: soft-light;isolation: isolate"/>
      <path id="Path_80231" data-name="Path 80231" d="M488.448,196.331c-4.627,5.456-13.692,42.268-11.394,42.268h2.365c-3.657-4.444,8.372-39.231,9.9-41.294,1.755-2.365,9.105-3.53,9.105-3.53s-8.23.242-9.9,2.323A.678.678,0,0,0,488.448,196.331Z" transform="translate(-476.687 -163.89)" fill="#fff" style="mix-blend-mode: soft-light;isolation: isolate"/>
      <path id="Path_80232" data-name="Path 80232" d="M513.235,280.613c2.278.954,4.031,3.244,5.785,3.244a3.094,3.094,0,0,0,1.612-.519l-2.619-4.7s-12.088-36.483-15.319-39.711-5.238.08-5.238.08c.077.333.185.794.322,1.363s.3,1.25.489,2.023.4,1.637.63,2.577c.115.47.235.959.36,1.464,1.059,4.3,2.426,9.8,3.768,15.191q.235.953.472,1.9t.467,1.874c2.241,8.984,4.184,16.743,4.184,16.745S510.956,279.659,513.235,280.613Z" transform="translate(-461.29 -131.467)" fill="#a9b6b1" style="mix-blend-mode: soft-light;isolation: isolate"/>
      <path id="Path_80233" data-name="Path 80233" d="M499.1,259.487c-4.924-7.949-16.433-17.422-16.466-17.45,2.633,7.117,15.12,36.747,15.12,36.747a4.837,4.837,0,0,1,4.209-2.29,26.966,26.966,0,0,1,5.083.815l0,0A87.977,87.977,0,0,0,499.1,259.487Z" transform="translate(-472.28 -128.111)" fill="#a9b6b1" style="mix-blend-mode: soft-light;isolation: isolate"/>
    </g>
    <g id="Group_12179" data-name="Group 12179" transform="translate(501.15 237.906)">
      <g id="Group_12173" data-name="Group 12173" transform="translate(5.49)">
        <path id="Path_80234" data-name="Path 80234" d="M478.25,216.058h-4.881a1.285,1.285,0,0,1-1.282-1.282h0a1.286,1.286,0,0,1,1.282-1.282h4.881a1.287,1.287,0,0,1,1.282,1.282h0A1.286,1.286,0,0,1,478.25,216.058Z" transform="translate(-472.087 -210.564)" fill="url(#linear-gradient-35)"/>
        <path id="Path_80235" data-name="Path 80235" d="M472.615,213.817a.9.9,0,0,0-.313.733.991.991,0,0,0,.2.852c.223.279,1.269.357,1.3-.266s.225-.848.749-.763a.691.691,0,0,1,.6.723.5.5,0,0,0,.824.387c.4-.327.313-.78.643-.961a.976.976,0,0,1,1,.228c.3.258.165.4.24.545a.566.566,0,0,0,.6.2.96.96,0,0,0,.568-.893.934.934,0,0,0-.467-.841C478.251,213.608,472.96,213.46,472.615,213.817Z" transform="translate(-471.937 -210.489)" fill="#ffe2d8" style="mix-blend-mode: multiply;isolation: isolate"/>
        <path id="Path_80236" data-name="Path 80236" d="M474.033,211.863c-.117.343,1.017,1.111.425,1.3a3.966,3.966,0,0,0-1.982,1.161c-.279.529.32.939,1.276.993s3.227.519,4.068.171c1.661-.686.806-2.034-.634-2.722S474.1,211.662,474.033,211.863Z" transform="translate(-471.849 -211.812)" fill="url(#linear-gradient-36)"/>
        <path id="Path_80237" data-name="Path 80237" d="M473.455,211.853a7.4,7.4,0,0,1,2.313,1.242,1.735,1.735,0,0,1,.4,1.653c-.12.237.04.542.219.542s.878-.066.937-.515a2.037,2.037,0,0,0-.878-1.811A9.047,9.047,0,0,0,473.455,211.853Z" transform="translate(-471.073 -211.788)" fill="#ffe2d8" style="mix-blend-mode: multiply;isolation: isolate"/>
        <path id="Path_80238" data-name="Path 80238" d="M473.5,211.967c0,.1.827.343,1.057,1a1.159,1.159,0,0,1-.16,1.2c-.359.489-.38.752-.179.872a1.225,1.225,0,0,0,1.006-.026,1.142,1.142,0,0,0,.549-1,2.017,2.017,0,0,0-1.013-1.546A2.7,2.7,0,0,0,473.5,211.967Z" transform="translate(-471.039 -211.704)" fill="#fff" style="mix-blend-mode: soft-light;isolation: isolate"/>
        <path id="Path_80239" data-name="Path 80239" d="M474.661,212.431c-.057.057.169.362-.3.528a4.6,4.6,0,0,0-1.585.787c-.209.291-.219.549.049.667a1.732,1.732,0,0,0,1.367-.205c.329-.277.926-1.1.846-1.36S474.76,212.332,474.661,212.431Z" transform="translate(-471.69 -211.369)" fill="#fff" style="mix-blend-mode: soft-light;isolation: isolate"/>
      </g>
      <g id="Group_12177" data-name="Group 12177" transform="translate(4.472 5.112)">
        <rect id="Rectangle_3301" data-name="Rectangle 3301" width="8.815" height="0.954" transform="translate(9.116 5.065) rotate(180)" fill="#b85b42"/>
        <rect id="Rectangle_3302" data-name="Rectangle 3302" width="8.815" height="0.954" transform="translate(9.116 4.111) rotate(180)" fill="#902c1f"/>
        <rect id="Rectangle_3303" data-name="Rectangle 3303" width="8.815" height="0.954" transform="translate(9.116 3.214) rotate(180)" fill="#b85b42"/>
        <rect id="Rectangle_3304" data-name="Rectangle 3304" width="8.815" height="0.954" transform="translate(9.116 2.26) rotate(180)" fill="#902c1f"/>
        <rect id="Rectangle_3305" data-name="Rectangle 3305" width="8.815" height="0.954" transform="translate(9.116 1.363) rotate(180)" fill="#b85b42"/>
        <rect id="Rectangle_3306" data-name="Rectangle 3306" width="8.815" height="0.954" transform="translate(9.116 5.963) rotate(180)" fill="#902c1f"/>
        <path id="Path_80240" data-name="Path 80240" d="M475.238,220.043c2.617,0,4.74-1.055,4.74-2.358s-2.095-1.989-4.712-1.989c-3.469,0-2.206,3.465-3.591,2.711v-3.425h8.815v5.553h-8.815V219.26C472.385,219.878,473.62,220.043,475.238,220.043Z" transform="translate(-471.374 -214.573)" fill="#d69238" style="mix-blend-mode: multiply;isolation: isolate"/>
        <g id="Group_12174" data-name="Group 12174" transform="translate(1.294 1.561)" style="mix-blend-mode: multiply;isolation: isolate">
          <circle id="Ellipse_1129" data-name="Ellipse 1129" cx="0.087" cy="0.087" r="0.087" transform="translate(4.826 2.774)" fill="#d69200"/>
          <path id="Path_80241" data-name="Path 80241" d="M474.129,216.971a.138.138,0,1,0,.138-.138A.138.138,0,0,0,474.129,216.971Z" transform="translate(-470.848 -214.763)" fill="#d69200"/>
          <path id="Path_80242" data-name="Path 80242" d="M473.646,217.512a.174.174,0,1,0,.174-.174A.173.173,0,0,0,473.646,217.512Z" transform="translate(-471.206 -214.388)" fill="#d69200"/>
          <path id="Path_80243" data-name="Path 80243" d="M473.287,216.649a.174.174,0,1,0,.174-.174A.175.175,0,0,0,473.287,216.649Z" transform="translate(-471.473 -215.028)" fill="#d69200"/>
          <circle id="Ellipse_1130" data-name="Ellipse 1130" cx="0.218" cy="0.218" r="0.218" transform="translate(4.391 0.619)" fill="#d69200"/>
          <path id="Path_80244" data-name="Path 80244" d="M473.708,216.027a.174.174,0,1,0,.174-.174A.175.175,0,0,0,473.708,216.027Z" transform="translate(-471.16 -215.489)" fill="#d69200"/>
          <path id="Path_80245" data-name="Path 80245" d="M472.245,217.26a.225.225,0,1,0,.225-.225A.226.226,0,0,0,472.245,217.26Z" transform="translate(-472.245 -214.613)" fill="#d69200"/>
          <circle id="Ellipse_1131" data-name="Ellipse 1131" cx="0.174" cy="0.174" r="0.174" transform="translate(5.661 2.299)" fill="#d69200"/>
          <path id="Path_80246" data-name="Path 80246" d="M474.379,217.641a.174.174,0,1,0,.174-.174A.174.174,0,0,0,474.379,217.641Z" transform="translate(-470.663 -214.293)" fill="#d69200"/>
          <path id="Path_80247" data-name="Path 80247" d="M472.7,216.46a.1.1,0,1,0,.1-.1A.1.1,0,0,0,472.7,216.46Z" transform="translate(-471.911 -215.114)" fill="#d69200"/>
          <path id="Path_80248" data-name="Path 80248" d="M473.126,217.547a.14.14,0,1,0,.141-.141A.14.14,0,0,0,473.126,217.547Z" transform="translate(-471.592 -214.338)" fill="#d69200"/>
          <circle id="Ellipse_1132" data-name="Ellipse 1132" cx="0.174" cy="0.174" r="0.174" transform="translate(4.739 1.621)" fill="#d69200"/>
          <path id="Path_80249" data-name="Path 80249" d="M475.779,216.257a.131.131,0,1,0,.131-.131A.13.13,0,0,0,475.779,216.257Z" transform="translate(-469.625 -215.287)" fill="#d69200"/>
          <path id="Path_80250" data-name="Path 80250" d="M474.51,215.764a.12.12,0,0,0,.24,0,.12.12,0,1,0-.24,0Z" transform="translate(-470.566 -215.644)" fill="#d69200"/>
          <circle id="Ellipse_1133" data-name="Ellipse 1133" cx="0.065" cy="0.065" r="0.065" transform="translate(0.872 0.174)" fill="#d69200"/>
        </g>
        <g id="Group_12175" data-name="Group 12175" transform="translate(2.27 1.561)" style="mix-blend-mode: soft-light;isolation: isolate">
          <circle id="Ellipse_1134" data-name="Ellipse 1134" cx="0.087" cy="0.087" r="0.087" transform="translate(4.826 2.774)" fill="#d69200"/>
          <path id="Path_80251" data-name="Path 80251" d="M474.69,216.971a.138.138,0,1,0,.138-.138A.137.137,0,0,0,474.69,216.971Z" transform="translate(-471.409 -214.763)" fill="#d69200"/>
          <path id="Path_80252" data-name="Path 80252" d="M474.206,217.512a.174.174,0,1,0,.174-.174A.175.175,0,0,0,474.206,217.512Z" transform="translate(-471.768 -214.388)" fill="#d69200"/>
          <path id="Path_80253" data-name="Path 80253" d="M473.848,216.649a.174.174,0,1,0,.174-.174A.175.175,0,0,0,473.848,216.649Z" transform="translate(-472.034 -215.028)" fill="#d69200"/>
          <circle id="Ellipse_1135" data-name="Ellipse 1135" cx="0.218" cy="0.218" r="0.218" transform="translate(4.391 0.619)" fill="#d69200"/>
          <path id="Path_80254" data-name="Path 80254" d="M474.269,216.027a.174.174,0,1,0,.174-.174A.175.175,0,0,0,474.269,216.027Z" transform="translate(-471.721 -215.489)" fill="#d69200"/>
          <path id="Path_80255" data-name="Path 80255" d="M472.806,217.26a.226.226,0,1,0,.225-.225A.226.226,0,0,0,472.806,217.26Z" transform="translate(-472.806 -214.613)" fill="#d69200"/>
          <circle id="Ellipse_1136" data-name="Ellipse 1136" cx="0.174" cy="0.174" r="0.174" transform="translate(5.66 2.299)" fill="#d69200"/>
          <path id="Path_80256" data-name="Path 80256" d="M474.94,217.641a.174.174,0,1,0,.348,0,.174.174,0,1,0-.348,0Z" transform="translate(-471.224 -214.293)" fill="#d69200"/>
          <circle id="Ellipse_1137" data-name="Ellipse 1137" cx="0.101" cy="0.101" r="0.101" transform="translate(0.785 1.245)" fill="#d69200"/>
          <path id="Path_80257" data-name="Path 80257" d="M473.687,217.547a.14.14,0,1,0,.139-.141A.14.14,0,0,0,473.687,217.547Z" transform="translate(-472.153 -214.338)" fill="#d69200"/>
          <circle id="Ellipse_1138" data-name="Ellipse 1138" cx="0.174" cy="0.174" r="0.174" transform="translate(4.739 1.621)" fill="#d69200"/>
          <path id="Path_80258" data-name="Path 80258" d="M476.34,216.257a.131.131,0,1,0,.261,0,.131.131,0,1,0-.261,0Z" transform="translate(-470.186 -215.287)" fill="#d69200"/>
          <path id="Path_80259" data-name="Path 80259" d="M475.071,215.764a.119.119,0,0,0,.12.118.117.117,0,0,0,.118-.118.119.119,0,0,0-.118-.12A.12.12,0,0,0,475.071,215.764Z" transform="translate(-471.127 -215.644)" fill="#d69200"/>
          <circle id="Ellipse_1139" data-name="Ellipse 1139" cx="0.065" cy="0.065" r="0.065" transform="translate(0.871 0.174)" fill="#d69200"/>
        </g>
        <g id="Group_12176" data-name="Group 12176">
          <path id="Path_80260" data-name="Path 80260" d="M480.851,215.436c-.023-.162.421-.636-.852-.636-1.179,0-7.9-.118-8.2,0s-.261.993-.232,1.254a11.842,11.842,0,0,1-.035,1.851c-.045.279-.139.695.448.695.507,0,.463-1.414.463-1.865s.31-1.1.815-1.1a1,1,0,0,1,1.13.9,5.68,5.68,0,0,1-.162,1.238c-.07.674.975.771.966-.059-.007-.606-.152-1.39.43-1.447.538-.054.568-.9,1.231-.63.554.225.312,1.106.7,1.1.613,0,.145-1.343.721-1.343.73,0,.15,3.328.724,3.328s.064-3.209.484-3.209c.829,0,.876.831,1.132.831S480.938,216.054,480.851,215.436Z" transform="translate(-471.502 -214.748)" fill="url(#linear-gradient-37)"/>
          <path id="Path_80261" data-name="Path 80261" d="M472.812,214.867c-.061,0-.986-.057-1.062.091-.191.378.035,1.189-.009,1.785s-.138,1.111-.165,1.379c-.019.174.218.331.348.181a6.061,6.061,0,0,0,.075-1.708c-.01-.5-.075-1.358.186-1.477S472.812,214.867,472.812,214.867Z" transform="translate(-471.449 -214.668)" fill="#fff" style="mix-blend-mode: soft-light;isolation: isolate"/>
          <path id="Path_80262" data-name="Path 80262" d="M473.614,216.489c0,.475,0,.926-.237.926-.5,0-.07-.592-.014-1.062s-.047-.723.059-.723S473.614,216.016,473.614,216.489Z" transform="translate(-470.288 -214.093)" fill="#fff" style="mix-blend-mode: soft-light;isolation: isolate"/>
          <path id="Path_80263" data-name="Path 80263" d="M475.936,216.658c.026.792.082,1.525-.117,1.525-.148,0-.03-.752-.056-1.545a8.39,8.39,0,0,1-.019-1.417A4.738,4.738,0,0,1,475.936,216.658Z" transform="translate(-468.374 -214.397)" fill="#fff" style="mix-blend-mode: soft-light;isolation: isolate"/>
          <ellipse id="Ellipse_1140" data-name="Ellipse 1140" cx="0.12" cy="0.301" rx="0.12" ry="0.301" transform="translate(5.909 1.225)" fill="#fff" style="mix-blend-mode: soft-light;isolation: isolate"/>
        </g>
      </g>
      <g id="Group_12178" data-name="Group 12178" transform="translate(0 10.809)">
        <path id="Path_80264" data-name="Path 80264" d="M468.934,218.019c0,1.578,4.181,2.858,9.339,2.858s9.341-1.28,9.341-2.858Z" transform="translate(-468.934 -218.019)" fill="#ffe3ff"/>
        <path id="Path_80265" data-name="Path 80265" d="M476.756,220.046c4.216,0,7.777-.853,8.938-2.027h1.747c0,1.578-4.183,2.858-9.341,2.858-4.209,0-7.765-.852-8.933-2.023A20.848,20.848,0,0,0,476.756,220.046Z" transform="translate(-468.761 -218.019)" fill="#fcd9bb"/>
        <rect id="Rectangle_3307" data-name="Rectangle 3307" width="9.998" height="0.408" rx="0.103" transform="translate(14.338 2.857) rotate(-180)" fill="#fcd9bb"/>
      </g>
    </g>
    <g id="Group_12185" data-name="Group 12185" transform="translate(525.973 238.547)">
      <g id="Group_12183" data-name="Group 12183" transform="translate(3.098)">
        <rect id="Rectangle_3308" data-name="Rectangle 3308" width="12.005" height="1.299" transform="translate(0.394 7.833)" fill="#b85b42"/>
        <rect id="Rectangle_3309" data-name="Rectangle 3309" width="12.005" height="1.299" transform="translate(0.394 6.534)" fill="#902c1f"/>
        <rect id="Rectangle_3310" data-name="Rectangle 3310" width="12.005" height="1.299" transform="translate(0.394 5.311)" fill="#b85b42"/>
        <rect id="Rectangle_3311" data-name="Rectangle 3311" width="12.005" height="1.299" transform="translate(0.394 4.012)" fill="#902c1f"/>
        <rect id="Rectangle_3312" data-name="Rectangle 3312" width="12.005" height="1.299" transform="translate(0.394 2.79)" fill="#b85b42"/>
        <rect id="Rectangle_3313" data-name="Rectangle 3313" width="12.005" height="1.299" transform="translate(0.394 9.055)" fill="#902c1f"/>
        <path id="Rectangle_3314" data-name="Rectangle 3314" d="M.33,0H3.416a.33.33,0,0,1,.33.33V.892a.33.33,0,0,1-.33.33H.329A.329.329,0,0,1,0,.893V.33A.33.33,0,0,1,.33,0Z" transform="translate(8.161 1.011)" fill="url(#linear-gradient-38)"/>
        <path id="Path_80266" data-name="Path 80266" d="M491.917,212.828a.785.785,0,1,1-.773-.648A.718.718,0,0,1,491.917,212.828Z" transform="translate(-480.962 -212.18)" fill="#c90000"/>
        <path id="Path_80267" data-name="Path 80267" d="M492.347,220.676c-3.565,0-6.453-1.438-6.453-3.211s2.851-2.71,6.415-2.71c4.724,0,3.006,4.719,4.891,3.693v-4.667H485.194v7.564H497.2v-1.738C496.234,220.451,494.552,220.676,492.347,220.676Z" transform="translate(-484.8 -210.992)" fill="#d69238" style="mix-blend-mode: multiply;isolation: isolate"/>
        <g id="Group_12180" data-name="Group 12180" transform="translate(2.311 4.359)" style="mix-blend-mode: multiply;isolation: isolate">
          <path id="Path_80268" data-name="Path 80268" d="M487.639,216.971a.118.118,0,1,1-.118-.118A.119.119,0,0,1,487.639,216.971Z" transform="translate(-485.474 -213.074)" fill="#d69200"/>
          <path id="Path_80269" data-name="Path 80269" d="M488.907,216.49a.188.188,0,1,1-.188-.188A.187.187,0,0,1,488.907,216.49Z" transform="translate(-484.637 -213.483)" fill="#d69200"/>
          <circle id="Ellipse_1141" data-name="Ellipse 1141" cx="0.237" cy="0.237" r="0.237" transform="translate(4.941 4.018)" fill="#d69200"/>
          <path id="Path_80270" data-name="Path 80270" d="M490.095,216.052a.237.237,0,1,1-.237-.237A.237.237,0,0,1,490.095,216.052Z" transform="translate(-483.829 -213.844)" fill="#d69200"/>
          <path id="Path_80271" data-name="Path 80271" d="M488.13,215.464a.3.3,0,1,1-.3-.3A.3.3,0,0,1,488.13,215.464Z" transform="translate(-485.374 -214.323)" fill="#d69200"/>
          <path id="Path_80272" data-name="Path 80272" d="M489.522,215.2a.237.237,0,1,1-.237-.237A.237.237,0,0,1,489.522,215.2Z" transform="translate(-484.254 -214.472)" fill="#d69200"/>
          <path id="Path_80273" data-name="Path 80273" d="M491.575,216.885a.307.307,0,1,1-.307-.308A.307.307,0,0,1,491.575,216.885Z" transform="translate(-482.837 -213.279)" fill="#d69200"/>
          <circle id="Ellipse_1142" data-name="Ellipse 1142" cx="0.237" cy="0.237" r="0.237" transform="translate(0.554 3.132)" fill="#d69200"/>
          <path id="Path_80274" data-name="Path 80274" d="M488.608,217.4a.237.237,0,1,1-.237-.239A.237.237,0,0,1,488.608,217.4Z" transform="translate(-484.932 -212.842)" fill="#d69200"/>
          <path id="Path_80275" data-name="Path 80275" d="M490.817,215.795a.138.138,0,1,1-.138-.138A.138.138,0,0,1,490.817,215.795Z" transform="translate(-483.148 -213.961)" fill="#d69200"/>
          <path id="Path_80276" data-name="Path 80276" d="M490.276,217.275a.192.192,0,1,1-.192-.192A.192.192,0,0,1,490.276,217.275Z" transform="translate(-483.628 -212.904)" fill="#d69200"/>
          <circle id="Ellipse_1143" data-name="Ellipse 1143" cx="0.237" cy="0.237" r="0.237" transform="translate(1.809 2.208)" fill="#d69200"/>
          <path id="Path_80277" data-name="Path 80277" d="M486.65,215.518a.178.178,0,1,1-.178-.178A.177.177,0,0,1,486.65,215.518Z" transform="translate(-486.295 -214.196)" fill="#d69200"/>
          <path id="Path_80278" data-name="Path 80278" d="M488.367,214.847a.164.164,0,1,1-.164-.164A.163.163,0,0,1,488.367,214.847Z" transform="translate(-485.001 -214.683)" fill="#d69200"/>
          <path id="Path_80279" data-name="Path 80279" d="M490.707,214.908a.089.089,0,1,1-.089-.089A.09.09,0,0,1,490.707,214.908Z" transform="translate(-483.156 -214.582)" fill="#d69200"/>
        </g>
        <g id="Group_12181" data-name="Group 12181" transform="translate(0.981 4.359)" style="mix-blend-mode: soft-light;isolation: isolate">
          <circle id="Ellipse_1144" data-name="Ellipse 1144" cx="0.119" cy="0.119" r="0.119" transform="translate(1.928 3.779)" fill="#d69200"/>
          <path id="Path_80280" data-name="Path 80280" d="M488.143,216.49a.188.188,0,1,1-.376,0,.188.188,0,1,1,.376,0Z" transform="translate(-483.873 -213.483)" fill="#d69200"/>
          <circle id="Ellipse_1145" data-name="Ellipse 1145" cx="0.237" cy="0.237" r="0.237" transform="translate(4.942 4.018)" fill="#d69200"/>
          <circle id="Ellipse_1146" data-name="Ellipse 1146" cx="0.237" cy="0.237" r="0.237" transform="translate(5.792 1.971)" fill="#d69200"/>
          <path id="Path_80281" data-name="Path 80281" d="M487.368,215.464a.3.3,0,1,1-.3-.3A.3.3,0,0,1,487.368,215.464Z" transform="translate(-484.609 -214.323)" fill="#d69200"/>
          <path id="Path_80282" data-name="Path 80282" d="M488.758,215.2a.237.237,0,1,1-.237-.237A.237.237,0,0,1,488.758,215.2Z" transform="translate(-483.49 -214.472)" fill="#d69200"/>
          <path id="Path_80283" data-name="Path 80283" d="M490.81,216.885a.306.306,0,1,1-.307-.308A.307.307,0,0,1,490.81,216.885Z" transform="translate(-482.072 -213.279)" fill="#d69200"/>
          <circle id="Ellipse_1147" data-name="Ellipse 1147" cx="0.237" cy="0.237" r="0.237" transform="translate(0.555 3.132)" fill="#d69200"/>
          <circle id="Ellipse_1148" data-name="Ellipse 1148" cx="0.237" cy="0.237" r="0.237" transform="translate(3.203 4.324)" fill="#d69200"/>
          <path id="Path_80284" data-name="Path 80284" d="M490.052,215.795a.138.138,0,1,1-.138-.138A.137.137,0,0,1,490.052,215.795Z" transform="translate(-482.383 -213.961)" fill="#d69200"/>
          <path id="Path_80285" data-name="Path 80285" d="M489.511,217.275a.191.191,0,1,1-.19-.192A.192.192,0,0,1,489.511,217.275Z" transform="translate(-482.863 -212.904)" fill="#d69200"/>
          <circle id="Ellipse_1149" data-name="Ellipse 1149" cx="0.237" cy="0.237" r="0.237" transform="translate(1.809 2.208)" fill="#d69200"/>
          <path id="Path_80286" data-name="Path 80286" d="M485.888,215.518a.178.178,0,1,1-.178-.178A.178.178,0,0,1,485.888,215.518Z" transform="translate(-485.531 -214.196)" fill="#d69200"/>
          <path id="Path_80287" data-name="Path 80287" d="M487.6,214.847a.163.163,0,1,1-.164-.164A.163.163,0,0,1,487.6,214.847Z" transform="translate(-484.237 -214.683)" fill="#d69200"/>
          <path id="Path_80288" data-name="Path 80288" d="M489.943,214.908a.089.089,0,1,1-.089-.089A.09.09,0,0,1,489.943,214.908Z" transform="translate(-482.392 -214.582)" fill="#d69200"/>
        </g>
        <g id="Group_12182" data-name="Group 12182" transform="translate(0 2.234)">
          <path id="Path_80289" data-name="Path 80289" d="M485.046,214.4c.03-.219-.575-.865,1.16-.865,1.6,0,10.763-.162,11.162,0s.357,1.353.315,1.707a16.058,16.058,0,0,0,.047,2.521c.063.38.19.947-.608.947-.693,0-.632-1.928-.632-2.541s-.423-1.5-1.111-1.5a1.368,1.368,0,0,0-1.538,1.222,7.609,7.609,0,0,0,.221,1.686c.094.918-1.329,1.054-1.316-.08.009-.825.206-1.891-.585-1.969-.735-.073-.773-1.222-1.677-.858-.754.3-.425,1.506-.953,1.5-.834-.005-.2-1.83-.98-1.83-1,0-.206,4.534-.987,4.534-.8,0-.087-4.372-.658-4.372-1.128,0-1.195,1.132-1.545,1.132S484.928,215.241,485.046,214.4Z" transform="translate(-484.968 -213.463)" fill="#792418"/>
          <path id="Path_80290" data-name="Path 80290" d="M491.259,213.624c.082,0,1.343-.078,1.445.124.259.514-.049,1.621.01,2.431s.188,1.513.228,1.877c.026.239-.3.451-.475.247a8.3,8.3,0,0,1-.1-2.326c.014-.677.1-1.849-.253-2.011S491.259,213.624,491.259,213.624Z" transform="translate(-480.304 -213.354)" fill="#ae7e00" style="mix-blend-mode: soft-light;isolation: isolate"/>
          <path id="Path_80291" data-name="Path 80291" d="M489.723,215.835c0,.648,0,1.261.322,1.261.677,0,.1-.8.021-1.447s.063-.984-.082-.984S489.723,215.189,489.723,215.835Z" transform="translate(-481.443 -212.571)" fill="#ae7e00" style="mix-blend-mode: soft-light;isolation: isolate"/>
          <path id="Path_80292" data-name="Path 80292" d="M486.426,216.063c-.035,1.081-.113,2.079.157,2.079.2,0,.042-1.024.078-2.105a11.654,11.654,0,0,0,.026-1.931A6.409,6.409,0,0,0,486.426,216.063Z" transform="translate(-483.915 -212.986)" fill="#ae7e00" style="mix-blend-mode: soft-light;isolation: isolate"/>
          <path id="Path_80293" data-name="Path 80293" d="M487.515,214.83c0,.226.073.411.164.411s.164-.185.164-.411-.073-.409-.164-.409S487.515,214.6,487.515,214.83Z" transform="translate(-483.08 -212.752)" fill="#ae7e00" style="mix-blend-mode: soft-light;isolation: isolate"/>
        </g>
        <path id="Path_80294" data-name="Path 80294" d="M492.975,213.643h-2.6a.576.576,0,0,1-.575-.573v-.075a.582.582,0,0,1,.019-.136.569.569,0,0,0-.167.4v.075a.576.576,0,0,0,.575.573h2.6a.573.573,0,0,0,.555-.437A.577.577,0,0,1,492.975,213.643Z" transform="translate(-481.494 -211.677)" fill="#ffe2d8" style="mix-blend-mode: multiply;isolation: isolate"/>
        <path id="Path_80295" data-name="Path 80295" d="M491.714,212.373a.467.467,0,0,1,.1.277.632.632,0,0,1-1.245,0,.51.51,0,0,1,.3-.444.662.662,0,0,0-.493.6.786.786,0,0,0,1.546,0A.59.59,0,0,0,491.714,212.373Z" transform="translate(-480.962 -212.161)" fill="#ab0000"/>
      </g>
      <g id="Group_12184" data-name="Group 12184" transform="translate(0 10.088)">
        <path id="Path_80296" data-name="Path 80296" d="M501.867,217.973c0,1.578-4.181,2.858-9.339,2.858s-9.339-1.28-9.339-2.858Z" transform="translate(-483.189 -217.973)" fill="#ffe3ff"/>
        <path id="Path_80297" data-name="Path 80297" d="M493.872,220c-4.216,0-7.777-.855-8.938-2.029h-1.745c0,1.578,4.181,2.858,9.339,2.858,4.209,0,7.766-.852,8.933-2.023A20.843,20.843,0,0,1,493.872,220Z" transform="translate(-483.189 -217.973)" fill="#fcd9bb"/>
        <rect id="Rectangle_3315" data-name="Rectangle 3315" width="9.998" height="0.408" rx="0.103" transform="translate(4.34 2.45)" fill="#fcd9bb"/>
      </g>
    </g>
    <g id="Group_12186" data-name="Group 12186" transform="translate(537.351 224.164)">
      <path id="Path_80298" data-name="Path 80298" d="M495.731,203.92c-.421-.077-3.732,11.5-4.212,12a10.463,10.463,0,0,0-1.668,1.811c-.4.695.268,3.089.268,3.089l.921-1.1s-.535-1.128-.158-1.785a20.924,20.924,0,0,0,1.257-2.192C492.483,214.932,496.352,204.033,495.731,203.92Z" transform="translate(-489.723 -203.92)" fill="url(#linear-gradient-39)"/>
      <path id="Path_80299" data-name="Path 80299" d="M518.246,219.507c-3.094-2.8-10.84-7.162-15.893-9.88h0c-.186.009-5.969-5.424-6.847-5.379s-4.423,3.211-4.585,3.923a26.108,26.108,0,0,0-.005,3.854c.028.54.818-.042.818-.042s.1.888.571.865,1.391-1.477,1.391-1.477.346.481.707.082,1.059-1.109,1.468-1.13,2.34,1.651,2.34,1.651h0c3.464,3.955,10.539,12.007,12.424,13.971,4.052,4.219,9,5.919,12.888,4.954C525.866,230.316,523.012,223.816,518.246,219.507Z" transform="translate(-488.894 -203.677)" fill="url(#linear-gradient-40)"/>
      <path id="Path_80300" data-name="Path 80300" d="M495.506,204.248c-.878.044-4.423,3.211-4.585,3.923a26.108,26.108,0,0,0-.005,3.854c.028.54.82-.042.82-.042s.1.888.569.865,1.391-1.477,1.391-1.477.346.481.707.082a11.17,11.17,0,0,1,1.79-4.726,2.323,2.323,0,0,0,0-1.639S496.023,204.222,495.506,204.248Z" transform="translate(-488.894 -203.677)" fill="#ffc7ae" style="mix-blend-mode: soft-light;isolation: isolate"/>
    </g>
    <g id="Group_12187" data-name="Group 12187" transform="translate(449.408 251.41)">
      <rect id="Rectangle_3316" data-name="Rectangle 3316" width="5.147" height="73.377" transform="translate(63.178 4.698)" fill="#8d6a54"/>
      <path id="Path_80301" data-name="Path 80301" d="M515.607,272.444H461.42c0-2.983,12.13-9.274,27.094-9.274S515.607,269.461,515.607,272.444Z" transform="translate(-422.763 -187.241)" fill="#8d6a54"/>
      <path id="Path_80302" data-name="Path 80302" d="M475.5,223.315v26.134l5.147,6.467v-32.6Z" transform="translate(-412.324 -216.788)" fill="#825b43"/>
      <rect id="Rectangle_3317" data-name="Rectangle 3317" width="131.502" height="6.726" fill="#ffe3ff"/>
    </g>
  </g>
</svg>
