<svg xmlns="http://www.w3.org/2000/svg" xmlns:xlink="http://www.w3.org/1999/xlink" width="355" height="742" viewBox="0 0 355 742">
  <defs>
    <filter id="Rectangle_2802" x="-22.5" y="-25.5" width="400" height="787" filterUnits="userSpaceOnUse">
      <feOffset dy="-3" input="SourceAlpha"/>
      <feGaussianBlur stdDeviation="7.5" result="blur"/>
      <feFlood flood-opacity="0.122"/>
      <feComposite operator="in" in2="blur"/>
      <feComposite in="SourceGraphic"/>
    </filter>
    <linearGradient id="linear-gradient" x1="0.417" y1="-0.375" x2="0.614" y2="1.016" gradientUnits="objectBoundingBox">
      <stop offset="0" stop-color="#07d3df"/>
      <stop offset="1" stop-color="#300a85"/>
    </linearGradient>
    <clipPath id="clip-path">
      <g transform="matrix(1, 0, 0, 1, 0, 0)" filter="url(#Rectangle_2802)">
        <rect id="Rectangle_2802-2" data-name="Rectangle 2802" width="355" height="742" rx="30" transform="translate(-4983 2036)" fill="#fff"/>
      </g>
    </clipPath>
    <linearGradient id="linear-gradient-2" y1="0.5" x2="1" y2="0.5" gradientUnits="objectBoundingBox">
      <stop offset="0" stop-color="#f4015b"/>
      <stop offset="0.045" stop-color="#f4025f"/>
      <stop offset="0.096" stop-color="#f5066d"/>
      <stop offset="0.15" stop-color="#f60e84"/>
      <stop offset="0.206" stop-color="#f918a3"/>
      <stop offset="0.264" stop-color="#fb25cc"/>
      <stop offset="0.319" stop-color="#ff35fb"/>
      <stop offset="0.485" stop-color="#b985f6"/>
      <stop offset="1" stop-color="#4d3594"/>
    </linearGradient>
    <linearGradient id="linear-gradient-3" y1="0.5" x2="1" y2="0.5" gradientUnits="objectBoundingBox">
      <stop offset="0.043" stop-color="#c99224"/>
      <stop offset="0.35" stop-color="#f76122"/>
      <stop offset="0.65" stop-color="#ff2152"/>
      <stop offset="0.767" stop-color="#ff0261"/>
      <stop offset="0.988" stop-color="#ac4452"/>
    </linearGradient>
    <linearGradient id="linear-gradient-4" y1="0.5" x2="1" y2="0.5" gradientUnits="objectBoundingBox">
      <stop offset="0" stop-color="#f4015b"/>
      <stop offset="0.083" stop-color="#f40559"/>
      <stop offset="0.177" stop-color="#f41356"/>
      <stop offset="0.277" stop-color="#f52a51"/>
      <stop offset="0.38" stop-color="#f6494a"/>
      <stop offset="0.479" stop-color="#f86f42"/>
      <stop offset="0.798" stop-color="#ff003e"/>
      <stop offset="1" stop-color="#ff5da3"/>
    </linearGradient>
    <radialGradient id="radial-gradient" cx="0.5" cy="0.5" r="0.369" gradientUnits="objectBoundingBox">
      <stop offset="0" stop-color="#ff3487"/>
      <stop offset="0.056" stop-color="#fe3885"/>
      <stop offset="0.12" stop-color="#fe4682"/>
      <stop offset="0.188" stop-color="#fe5d7d"/>
      <stop offset="0.258" stop-color="#fd7d76"/>
      <stop offset="0.331" stop-color="#fda56d"/>
      <stop offset="0.404" stop-color="#fcd762"/>
      <stop offset="0.454" stop-color="#fcfe5a"/>
      <stop offset="0.748" stop-color="#ff8c2d"/>
      <stop offset="1" stop-color="#ff5da3"/>
    </radialGradient>
    <linearGradient id="linear-gradient-5" y1="0.5" x2="1" y2="0.5" gradientUnits="objectBoundingBox">
      <stop offset="0" stop-color="#ff2b4b"/>
      <stop offset="0.239" stop-color="#fefe56"/>
      <stop offset="0.515" stop-color="#a0bb3e"/>
      <stop offset="0.687" stop-color="#0066a6"/>
      <stop offset="1" stop-color="#37bd69"/>
    </linearGradient>
    <linearGradient id="linear-gradient-6" x1="0" y1="0.5" x2="1" y2="0.5" xlink:href="#radial-gradient"/>
  </defs>
  <g id="Group_12587" data-name="Group 12587" transform="translate(-10 -9)">
    <rect id="Rectangle_3" data-name="Rectangle 3" width="355" height="740" rx="28" transform="translate(10 10)" fill="url(#linear-gradient)"/>
    <g id="Mask_Group_317" data-name="Mask Group 317" transform="translate(4993 -2027)" opacity="0.5" clip-path="url(#clip-path)">
      <g id="Group_12527" data-name="Group 12527" transform="translate(781.484 -8.789)">
        <g id="Group_12526" data-name="Group 12526" transform="translate(-4983.262 1696.789) rotate(90)">
          <g id="Group_12372" data-name="Group 12372" transform="translate(431.525 279.837)">
            <path id="Path_81081" data-name="Path 81081" d="M156.641,313.282A156.641,156.641,0,0,1,45.879,45.879,156.641,156.641,0,1,1,267.4,267.4,155.613,155.613,0,0,1,156.641,313.282Zm0-257.04a100.4,100.4,0,1,0,100.4,100.4A100.513,100.513,0,0,0,156.641,56.242Z" transform="translate(0 0)" fill="url(#linear-gradient-2)"/>
          </g>
          <g id="Group_12373" data-name="Group 12373" transform="translate(809.512 310.579)">
            <path id="Path_81082" data-name="Path 81082" d="M119.164,238.328A119.164,119.164,0,0,1,34.9,34.9,119.164,119.164,0,1,1,203.426,203.426,118.385,118.385,0,0,1,119.164,238.328Zm0-195.542a76.378,76.378,0,1,0,76.378,76.378A76.465,76.465,0,0,0,119.164,42.787Z" transform="translate(0)" fill="url(#linear-gradient-3)"/>
          </g>
          <g id="Group_12374" data-name="Group 12374" transform="translate(319.414 714.991)">
            <path id="Path_81083" data-name="Path 81083" d="M119.164,238.328A119.164,119.164,0,0,1,34.9,34.9,119.164,119.164,0,0,1,203.426,203.426,118.384,118.384,0,0,1,119.164,238.328Zm0-195.542a76.378,76.378,0,1,0,76.378,76.378A76.464,76.464,0,0,0,119.164,42.786Z" transform="translate(0 0)" fill="url(#linear-gradient-4)"/>
          </g>
          <path id="Path_81084" data-name="Path 81084" d="M69.768,69.767A238.2,238.2,0,0,0,238.2,476.4v-.075c75.213,0,136.4,61.19,136.4,136.406S313.415,749.141,238.2,749.141v-.017a238.2,238.2,0,1,0,0,476.4v-.076c75.213,0,136.406,61.191,136.406,136.406S313.414,1498.264,238.2,1498.264v101.8a238.2,238.2,0,1,0,0-476.4v.076c-75.217,0-136.407-61.193-136.407-136.408S162.985,850.919,238.2,850.919v.017a238.2,238.2,0,1,0,0-476.4v.076C162.986,374.61,101.8,313.418,101.8,238.2S162.986,101.8,238.2,101.8V0A236.645,236.645,0,0,0,69.768,69.767Z" transform="translate(215.796 222.162)" fill="url(#radial-gradient)"/>
          <g id="Group_12378" data-name="Group 12378" transform="translate(681.241 979.652)">
            <g id="Group_12375" data-name="Group 12375" transform="translate(0 2.863)">
              <path id="Path_81085" data-name="Path 81085" d="M3.709,6.221V6.1a3.081,3.081,0,0,1-.494.469,1.829,1.829,0,0,1-.533.276,2.03,2.03,0,0,1-.624.095,1.829,1.829,0,0,1-.831-.191A1.88,1.88,0,0,1,.567,6.2a2.365,2.365,0,0,1-.423-.826A3.474,3.474,0,0,1,0,4.347,2.689,2.689,0,0,1,.571,2.52a1.9,1.9,0,0,1,1.5-.653,2.046,2.046,0,0,1,.911.184,2.588,2.588,0,0,1,.722.566V.778A.937.937,0,0,1,3.865.2.511.511,0,0,1,4.3,0a.54.54,0,0,1,.438.183.79.79,0,0,1,.154.531V6.221a.772.772,0,0,1-.165.537.565.565,0,0,1-.427.178.535.535,0,0,1-.421-.185A.759.759,0,0,1,3.709,6.221ZM1.254,4.387a2.127,2.127,0,0,0,.157.864,1.229,1.229,0,0,0,.431.539,1.071,1.071,0,0,0,.6.182,1.125,1.125,0,0,0,.6-.175,1.16,1.16,0,0,0,.435-.523,2.159,2.159,0,0,0,.163-.887,2.064,2.064,0,0,0-.163-.856,1.277,1.277,0,0,0-.439-.552,1.073,1.073,0,0,0-1.22,0,1.308,1.308,0,0,0-.418.563A2.218,2.218,0,0,0,1.254,4.387Z" fill="#3f3e3e"/>
              <path id="Path_81086" data-name="Path 81086" d="M3.721,2.851H1.279a1.642,1.642,0,0,0,.169.749,1.13,1.13,0,0,0,.446.489,1.142,1.142,0,0,0,.61.164A1.487,1.487,0,0,0,2.913,4.2a1.453,1.453,0,0,0,.359-.165A2.409,2.409,0,0,0,3.593,3.8c.1-.084.221-.2.379-.346a.417.417,0,0,1,.274-.085.457.457,0,0,1,.311.1.39.39,0,0,1,.119.3.816.816,0,0,1-.132.4,1.508,1.508,0,0,1-.4.434,2.4,2.4,0,0,1-.672.349,2.955,2.955,0,0,1-.931.134A2.506,2.506,0,0,1,.667,4.4,2.553,2.553,0,0,1,0,2.535,3.1,3.1,0,0,1,.165,1.509,2.272,2.272,0,0,1,.645.7,2.13,2.13,0,0,1,1.424.174,2.822,2.822,0,0,1,2.45,0,2.387,2.387,0,0,1,3.7.307a1.99,1.99,0,0,1,.787.8,2.1,2.1,0,0,1,.26,1c0,.314-.091.519-.27.61A1.7,1.7,0,0,1,3.721,2.851ZM1.279,2.143H3.542a1.5,1.5,0,0,0-.347-.958A1.032,1.032,0,0,0,2.406.866a1,1,0,0,0-.766.32A1.594,1.594,0,0,0,1.279,2.143Z" transform="translate(5.91 1.852)" fill="#3f3e3e"/>
              <path id="Path_81087" data-name="Path 81087" d="M4.282,3.444a1.533,1.533,0,0,1-.25.882,1.507,1.507,0,0,1-.744.559,3.3,3.3,0,0,1-1.2.191A2.919,2.919,0,0,1,.938,4.871a1.694,1.694,0,0,1-.71-.513A1.058,1.058,0,0,1,0,3.736a.476.476,0,0,1,.147-.351A.5.5,0,0,1,.52,3.237a.416.416,0,0,1,.3.1.958.958,0,0,1,.2.268,1.381,1.381,0,0,0,.458.5,1.4,1.4,0,0,0,.732.166A1.074,1.074,0,0,0,2.826,4.1a.469.469,0,0,0,.24-.378.522.522,0,0,0-.249-.484,2.992,2.992,0,0,0-.823-.289A6.772,6.772,0,0,1,.947,2.614,1.748,1.748,0,0,1,.3,2.149,1.079,1.079,0,0,1,.057,1.44,1.257,1.257,0,0,1,.28.729,1.553,1.553,0,0,1,.939.2,2.52,2.52,0,0,1,1.994,0a3.4,3.4,0,0,1,.873.1,2.046,2.046,0,0,1,.645.271,1.334,1.334,0,0,1,.394.374.735.735,0,0,1,.133.4A.455.455,0,0,1,3.9,1.5a.567.567,0,0,1-.41.139.5.5,0,0,1-.328-.109,2,2,0,0,1-.307-.33A1.17,1.17,0,0,0,2.516.9a1.062,1.062,0,0,0-.523-.11A1.024,1.024,0,0,0,1.432.94a.415.415,0,0,0-.223.358.388.388,0,0,0,.162.319,1.309,1.309,0,0,0,.446.211c.184.053.444.12.77.2a4.26,4.26,0,0,1,.947.336,1.591,1.591,0,0,1,.558.464A1.037,1.037,0,0,1,4.282,3.444Z" transform="translate(11.451 1.859)" fill="#3f3e3e"/>
              <path id="Path_81088" data-name="Path 81088" d="M.633,1.225a.673.673,0,0,1-.447-.16A.572.572,0,0,1,0,.61.557.557,0,0,1,.191.172.639.639,0,0,1,.633,0a.662.662,0,0,1,.427.155A.56.56,0,0,1,1.248.61a.573.573,0,0,1-.182.452A.645.645,0,0,1,.633,1.225Zm.614,1.287v3.61a.809.809,0,0,1-.177.565.588.588,0,0,1-.454.194.559.559,0,0,1-.447-.2A.833.833,0,0,1,0,6.122V2.549a.789.789,0,0,1,.17-.555A.568.568,0,0,1,.617,1.8a.589.589,0,0,1,.454.19A.709.709,0,0,1,1.248,2.512Z" transform="translate(16.792 0.055)" fill="#3f3e3e"/>
              <path id="Path_81089" data-name="Path 81089" d="M4.873.913v3.63A3.685,3.685,0,0,1,4.739,5.61a1.681,1.681,0,0,1-.423.743,1.843,1.843,0,0,1-.768.436,4.284,4.284,0,0,1-1.176.139A3.478,3.478,0,0,1,1.217,6.75,2.072,2.072,0,0,1,.433,6.28a.856.856,0,0,1-.272-.587.476.476,0,0,1,.156-.371.528.528,0,0,1,.375-.147.613.613,0,0,1,.48.245c.066.082.134.164.207.25a1.318,1.318,0,0,0,.24.213.905.905,0,0,0,.311.133,1.832,1.832,0,0,0,.421.044,1.73,1.73,0,0,0,.755-.133.782.782,0,0,0,.376-.377,1.592,1.592,0,0,0,.123-.517c.011-.187.022-.482.029-.893a2.032,2.032,0,0,1-.668.612,1.8,1.8,0,0,1-.9.215,1.905,1.905,0,0,1-1.1-.324,2,2,0,0,1-.72-.9A3.279,3.279,0,0,1,0,2.41,3.231,3.231,0,0,1,.153,1.4,2.113,2.113,0,0,1,.592.635,1.9,1.9,0,0,1,1.248.162,2.118,2.118,0,0,1,2.06.009a1.932,1.932,0,0,1,.92.2A2.242,2.242,0,0,1,3.7.847V.682a.726.726,0,0,1,.16-.505A.527.527,0,0,1,4.275,0a.492.492,0,0,1,.481.234A1.564,1.564,0,0,1,4.873.913ZM1.255,2.5a1.72,1.72,0,0,0,.332,1.144,1.084,1.084,0,0,0,.858.39,1.091,1.091,0,0,0,.587-.17,1.227,1.227,0,0,0,.451-.5,1.743,1.743,0,0,0,.176-.814,1.868,1.868,0,0,0-.338-1.19A1.074,1.074,0,0,0,2.434.931a1.028,1.028,0,0,0-.857.412A1.805,1.805,0,0,0,1.255,2.5Z" transform="translate(19.051 1.859)" fill="#3f3e3e"/>
              <path id="Path_81090" data-name="Path 81090" d="M1.169.69V.841A2.168,2.168,0,0,1,1.891.2a1.9,1.9,0,0,1,.9-.2,1.821,1.821,0,0,1,.883.213,1.391,1.391,0,0,1,.581.61,1.429,1.429,0,0,1,.159.492,5.057,5.057,0,0,1,.037.679V4.318a.828.828,0,0,1-.171.565.566.566,0,0,1-.446.194.566.566,0,0,1-.454-.2.82.82,0,0,1-.174-.562V2.238a2.075,2.075,0,0,0-.173-.949A.7.7,0,0,0,2.35.966a1,1,0,0,0-.61.2,1.09,1.09,0,0,0-.4.542A4.008,4.008,0,0,0,1.248,2.75V4.318a.8.8,0,0,1-.177.568.591.591,0,0,1-.455.191.555.555,0,0,1-.443-.2A.813.813,0,0,1,0,4.318V.708A.765.765,0,0,1,.156.176.531.531,0,0,1,.58,0a.594.594,0,0,1,.3.074.581.581,0,0,1,.212.236A.8.8,0,0,1,1.169.69Z" transform="translate(25.152 1.859)" fill="#3f3e3e"/>
              <path id="Path_81091" data-name="Path 81091" d="M3.72,2.851H1.278a1.626,1.626,0,0,0,.169.749A1.15,1.15,0,0,0,2.5,4.253,1.487,1.487,0,0,0,2.913,4.2a1.493,1.493,0,0,0,.362-.165A2.272,2.272,0,0,0,3.59,3.8c.1-.084.226-.2.381-.346a.422.422,0,0,1,.275-.085.449.449,0,0,1,.309.1.377.377,0,0,1,.12.3.807.807,0,0,1-.131.4,1.534,1.534,0,0,1-.4.434,2.386,2.386,0,0,1-.674.349,2.958,2.958,0,0,1-.93.134A2.5,2.5,0,0,1,.668,4.4,2.554,2.554,0,0,1,0,2.535,3.139,3.139,0,0,1,.165,1.509,2.265,2.265,0,0,1,.646.7,2.125,2.125,0,0,1,1.423.174,2.827,2.827,0,0,1,2.449,0,2.4,2.4,0,0,1,3.7.307a2.016,2.016,0,0,1,.787.8,2.125,2.125,0,0,1,.259,1c0,.314-.091.519-.27.61A1.69,1.69,0,0,1,3.72,2.851ZM1.278,2.143H3.542A1.525,1.525,0,0,0,3.2,1.185a1.034,1.034,0,0,0-.79-.319,1,1,0,0,0-.766.32A1.638,1.638,0,0,0,1.278,2.143Z" transform="translate(30.613 1.852)" fill="#3f3e3e"/>
              <path id="Path_81092" data-name="Path 81092" d="M3.712,6.221V6.1a3.035,3.035,0,0,1-.5.469,1.867,1.867,0,0,1-.53.276,2.029,2.029,0,0,1-.625.095,1.837,1.837,0,0,1-.832-.191A1.91,1.91,0,0,1,.567,6.2a2.386,2.386,0,0,1-.422-.826A3.474,3.474,0,0,1,0,4.347,2.683,2.683,0,0,1,.573,2.52a1.909,1.909,0,0,1,1.506-.653,2.038,2.038,0,0,1,.909.184,2.608,2.608,0,0,1,.725.566V.778A.946.946,0,0,1,3.865.2.515.515,0,0,1,4.3,0a.539.539,0,0,1,.436.183.8.8,0,0,1,.153.531V6.221a.772.772,0,0,1-.165.537.561.561,0,0,1-.425.178.543.543,0,0,1-.425-.185A.765.765,0,0,1,3.712,6.221ZM1.255,4.387a2.137,2.137,0,0,0,.159.864,1.216,1.216,0,0,0,.432.539,1.069,1.069,0,0,0,.6.182,1.136,1.136,0,0,0,.6-.175,1.182,1.182,0,0,0,.432-.523,2.148,2.148,0,0,0,.163-.887,2.054,2.054,0,0,0-.163-.856,1.28,1.28,0,0,0-.44-.552,1.031,1.031,0,0,0-.6-.189,1.052,1.052,0,0,0-.614.192,1.272,1.272,0,0,0-.415.563A2.165,2.165,0,0,0,1.255,4.387Z" transform="translate(36.126)" fill="#3f3e3e"/>
              <path id="Path_81093" data-name="Path 81093" d="M1.182.714v1.9A2.978,2.978,0,0,1,1.9,2.063a1.89,1.89,0,0,1,.905-.2A2.02,2.02,0,0,1,3.9,2.161a1.9,1.9,0,0,1,.725.859,3.073,3.073,0,0,1,.261,1.326A3.594,3.594,0,0,1,4.74,5.385a2.459,2.459,0,0,1-.421.821,1.851,1.851,0,0,1-.665.538,1.93,1.93,0,0,1-.862.191,2.118,2.118,0,0,1-.542-.068,1.531,1.531,0,0,1-.433-.183,2.346,2.346,0,0,1-.305-.228c-.082-.081-.192-.2-.329-.361v.126a.76.76,0,0,1-.171.537.567.567,0,0,1-.431.178.547.547,0,0,1-.422-.178A.808.808,0,0,1,0,6.221V.767A.9.9,0,0,1,.153.2.509.509,0,0,1,.579,0a.546.546,0,0,1,.447.188A.8.8,0,0,1,1.182.714Zm.059,3.709a1.713,1.713,0,0,0,.342,1.146,1.113,1.113,0,0,0,.894.4,1.031,1.031,0,0,0,.811-.41A1.784,1.784,0,0,0,3.63,4.387a2.346,2.346,0,0,0-.142-.852,1.285,1.285,0,0,0-.4-.554,1,1,0,0,0-.607-.192,1.11,1.11,0,0,0-.635.192,1.334,1.334,0,0,0-.442.567A2.241,2.241,0,0,0,1.241,4.423Z" transform="translate(44.587)" fill="#3f3e3e"/>
              <path id="Path_81094" data-name="Path 81094" d="M1.706,5.23l.112-.279L.282,1.084A1.419,1.419,0,0,1,.141.6.571.571,0,0,1,.224.3.6.6,0,0,1,.448.082.6.6,0,0,1,.75,0a.5.5,0,0,1,.405.167A1.619,1.619,0,0,1,1.4.662L2.457,3.736l1-2.86c.08-.232.155-.412.215-.543A.669.669,0,0,1,3.877.067.58.58,0,0,1,4.181,0a.542.542,0,0,1,.271.074.512.512,0,0,1,.2.2.507.507,0,0,1,.072.269C4.713.6,4.692.684,4.667.793s-.063.218-.1.327L2.936,5.381a4.759,4.759,0,0,1-.413.883,1.334,1.334,0,0,1-.53.493,2.011,2.011,0,0,1-.9.171,2.222,2.222,0,0,1-.823-.117A.434.434,0,0,1,0,6.376a.423.423,0,0,1,.129-.332.554.554,0,0,1,.388-.117.725.725,0,0,1,.2.027.857.857,0,0,0,.205.025.755.755,0,0,0,.338-.061.575.575,0,0,0,.221-.223A3.292,3.292,0,0,0,1.706,5.23Z" transform="translate(49.795 1.859)" fill="#3f3e3e"/>
            </g>
            <g id="Group_12376" data-name="Group 12376" transform="translate(73.989 2.863)">
              <path id="Path_81095" data-name="Path 81095" d="M.627,1.966h.3V1.593A2.271,2.271,0,0,1,1.076.664a.914.914,0,0,1,.5-.5A2.372,2.372,0,0,1,2.551,0c.726,0,1.092.179,1.092.536a.434.434,0,0,1-.117.3.35.35,0,0,1-.268.123A1.567,1.567,0,0,1,3,.928,2.246,2.246,0,0,0,2.7.9c-.228,0-.372.066-.437.2a1.384,1.384,0,0,0-.095.568v.3h.307c.476,0,.713.145.713.434,0,.2-.06.33-.19.387a1.367,1.367,0,0,1-.523.083H2.173V6.176A.832.832,0,0,1,2,6.74a.587.587,0,0,1-.458.2.571.571,0,0,1-.443-.2.826.826,0,0,1-.176-.564V2.87H.579a.623.623,0,0,1-.427-.13A.39.39,0,0,1,0,2.414C0,2.115.21,1.966.627,1.966Z" fill="#3f3e3e"/>
              <path id="Path_81096" data-name="Path 81096" d="M1.25,3.27V4.318a.8.8,0,0,1-.177.568.6.6,0,0,1-.456.191.561.561,0,0,1-.441-.194A.8.8,0,0,1,0,4.318V.841C0,.279.2,0,.608,0a.5.5,0,0,1,.447.2,1.064,1.064,0,0,1,.153.58A2.209,2.209,0,0,1,1.668.2.945.945,0,0,1,2.3,0,1.607,1.607,0,0,1,3.06.2.582.582,0,0,1,3.43.714a.5.5,0,0,1-.156.382.5.5,0,0,1-.343.144A1.68,1.68,0,0,1,2.6,1.162a1.409,1.409,0,0,0-.467-.088.662.662,0,0,0-.447.146.958.958,0,0,0-.272.426,3.06,3.06,0,0,0-.133.677C1.259,2.58,1.25,2.9,1.25,3.27Z" transform="translate(3.839 1.859)" fill="#3f3e3e"/>
              <path id="Path_81097" data-name="Path 81097" d="M3.719,2.851H1.275a1.678,1.678,0,0,0,.172.749,1.116,1.116,0,0,0,.445.489,1.133,1.133,0,0,0,.608.164A1.5,1.5,0,0,0,2.911,4.2a1.389,1.389,0,0,0,.359-.165A2.2,2.2,0,0,0,3.59,3.8c.1-.084.227-.2.383-.346a.416.416,0,0,1,.274-.085.443.443,0,0,1,.307.1.392.392,0,0,1,.122.3.8.8,0,0,1-.134.4,1.636,1.636,0,0,1-.4.434,2.481,2.481,0,0,1-.677.349,2.976,2.976,0,0,1-.93.134A2.5,2.5,0,0,1,.667,4.4,2.548,2.548,0,0,1,0,2.535,3.035,3.035,0,0,1,.166,1.509,2.185,2.185,0,0,1,.645.7,2.108,2.108,0,0,1,1.424.174,2.807,2.807,0,0,1,2.45,0,2.392,2.392,0,0,1,3.7.307a2,2,0,0,1,.787.8,2.114,2.114,0,0,1,.263,1c0,.314-.09.519-.273.61A1.7,1.7,0,0,1,3.719,2.851ZM1.275,2.143H3.541A1.532,1.532,0,0,0,3.2,1.185,1.05,1.05,0,0,0,2.406.866a1.01,1.01,0,0,0-.768.32A1.638,1.638,0,0,0,1.275,2.143Z" transform="translate(7.486 1.852)" fill="#3f3e3e"/>
              <path id="Path_81098" data-name="Path 81098" d="M3.719,2.851H1.274a1.669,1.669,0,0,0,.173.749A1.144,1.144,0,0,0,2.5,4.253,1.5,1.5,0,0,0,2.909,4.2a1.336,1.336,0,0,0,.359-.165A2.41,2.41,0,0,0,3.589,3.8c.1-.084.228-.2.381-.346a.417.417,0,0,1,.274-.085.455.455,0,0,1,.311.1.389.389,0,0,1,.117.3.832.832,0,0,1-.13.4,1.541,1.541,0,0,1-.4.434,2.424,2.424,0,0,1-.671.349,2.979,2.979,0,0,1-.931.134A2.5,2.5,0,0,1,.667,4.4,2.548,2.548,0,0,1,0,2.535,3.175,3.175,0,0,1,.162,1.509,2.256,2.256,0,0,1,.643.7,2.118,2.118,0,0,1,1.423.174,2.823,2.823,0,0,1,2.446,0,2.417,2.417,0,0,1,3.7.307a2.027,2.027,0,0,1,.785.8,2.093,2.093,0,0,1,.259,1c0,.314-.088.519-.269.61A1.7,1.7,0,0,1,3.719,2.851ZM1.274,2.143H3.538a1.517,1.517,0,0,0-.344-.958A1.027,1.027,0,0,0,2.406.866a1.007,1.007,0,0,0-.767.32A1.63,1.63,0,0,0,1.274,2.143Z" transform="translate(13.055 1.852)" fill="#3f3e3e"/>
              <path id="Path_81099" data-name="Path 81099" d="M1.179.7V.847A2.519,2.519,0,0,1,1.912.213a1.762,1.762,0,0,1,.861-.2,2,2,0,0,1,1.06.3,2.081,2.081,0,0,1,.768.869,3.048,3.048,0,0,1,.28,1.355,3.3,3.3,0,0,1-.164,1.058,2.319,2.319,0,0,1-.446.81,1.937,1.937,0,0,1-.667.5,1.98,1.98,0,0,1-.83.176,1.758,1.758,0,0,1-.9-.215,2.557,2.557,0,0,1-.695-.63V6.1c0,.548-.2.823-.6.823a.487.487,0,0,1-.471-.211A1.352,1.352,0,0,1,0,6.1V.708A.779.779,0,0,1,.155.176.534.534,0,0,1,.583,0a.547.547,0,0,1,.429.18A.731.731,0,0,1,1.179.7ZM3.628,2.516a2.13,2.13,0,0,0-.151-.848,1.256,1.256,0,0,0-.417-.548A.992.992,0,0,0,2.464.931a1.111,1.111,0,0,0-.872.412,1.777,1.777,0,0,0-.356,1.2A1.728,1.728,0,0,0,1.593,3.7a1.089,1.089,0,0,0,.872.417.992.992,0,0,0,.575-.182,1.237,1.237,0,0,0,.427-.54A2.2,2.2,0,0,0,3.628,2.516Z" transform="translate(18.705 1.859)" fill="#3f3e3e"/>
              <path id="Path_81100" data-name="Path 81100" d="M.635,1.225a.682.682,0,0,1-.45-.16A.582.582,0,0,1,0,.61.562.562,0,0,1,.192.172.636.636,0,0,1,.635,0a.662.662,0,0,1,.427.155A.566.566,0,0,1,1.25.61a.571.571,0,0,1-.185.452A.648.648,0,0,1,.635,1.225ZM1.25,2.512v3.61a.8.8,0,0,1-.181.565.576.576,0,0,1-.452.194.552.552,0,0,1-.444-.2A.833.833,0,0,1,0,6.122V2.549a.789.789,0,0,1,.173-.555A.561.561,0,0,1,.617,1.8a.578.578,0,0,1,.452.19A.7.7,0,0,1,1.25,2.512Z" transform="translate(24.588 0.055)" fill="#3f3e3e"/>
              <path id="Path_81101" data-name="Path 81101" d="M3.022,6.363l-1.1-1.812-.678.642v.992a.769.769,0,0,1-.184.555.6.6,0,0,1-.437.2.554.554,0,0,1-.452-.194A.821.821,0,0,1,0,6.176V.853A1.064,1.064,0,0,1,.155.219.548.548,0,0,1,.618,0a.563.563,0,0,1,.456.2A.883.883,0,0,1,1.24.778V3.807L2.647,2.333a3.559,3.559,0,0,1,.4-.373.544.544,0,0,1,.335-.1.535.535,0,0,1,.392.15.5.5,0,0,1,.154.372c0,.183-.17.426-.508.731l-.666.608L4.032,5.733c.1.15.165.263.206.34a.507.507,0,0,1,.061.221.662.662,0,0,1-.161.472.582.582,0,0,1-.429.17.485.485,0,0,1-.354-.126A3.162,3.162,0,0,1,3.022,6.363Z" transform="translate(27.216)" fill="#3f3e3e"/>
              <path id="Path_81102" data-name="Path 81102" d="M.7,1.378a.7.7,0,0,1-.487-.185A.643.643,0,0,1,0,.683.662.662,0,0,1,.2.2.66.66,0,0,1,.686,0a.684.684,0,0,1,.491.2.646.646,0,0,1,.2.483.652.652,0,0,1-.2.51A.682.682,0,0,1,.7,1.378Z" transform="translate(32.628 5.557)" fill="#3f3e3e"/>
              <path id="Path_81103" data-name="Path 81103" d="M4.722,3.536a1.052,1.052,0,0,1-.141.5,1.659,1.659,0,0,1-.423.508,2.182,2.182,0,0,1-.721.384,3.031,3.031,0,0,1-.98.148A2.388,2.388,0,0,1,.65,4.4,2.5,2.5,0,0,1,0,2.591,2.975,2.975,0,0,1,.3,1.232,2.112,2.112,0,0,1,1.159.32,2.659,2.659,0,0,1,2.5,0a2.665,2.665,0,0,1,.889.14A2.211,2.211,0,0,1,4.08.505a1.719,1.719,0,0,1,.429.477.948.948,0,0,1,.149.475.484.484,0,0,1-.169.378.567.567,0,0,1-.4.155.42.42,0,0,1-.259-.078,1.215,1.215,0,0,1-.231-.26,1.838,1.838,0,0,0-.479-.523A1.1,1.1,0,0,0,2.485.958a1.089,1.089,0,0,0-.893.431,1.881,1.881,0,0,0-.339,1.182,2.206,2.206,0,0,0,.089.648,1.484,1.484,0,0,0,.25.506,1.107,1.107,0,0,0,.4.313,1.227,1.227,0,0,0,.514.107,1.2,1.2,0,0,0,.643-.172,1.571,1.571,0,0,0,.472-.533,1.2,1.2,0,0,1,.247-.325.455.455,0,0,1,.324-.121.477.477,0,0,1,.381.171A.574.574,0,0,1,4.722,3.536Z" transform="translate(35.19 1.852)" fill="#3f3e3e"/>
              <path id="Path_81104" data-name="Path 81104" d="M4.971,2.538A2.894,2.894,0,0,1,4.8,3.564,2.257,2.257,0,0,1,3.509,4.9a2.869,2.869,0,0,1-1.031.178A2.667,2.667,0,0,1,1.46,4.891a2.3,2.3,0,0,1-.787-.519,2.349,2.349,0,0,1-.5-.808A3,3,0,0,1,0,2.538,2.953,2.953,0,0,1,.178,1.5,2.255,2.255,0,0,1,.67.694,2.226,2.226,0,0,1,1.46.18,2.721,2.721,0,0,1,2.478,0,2.779,2.779,0,0,1,3.509.183,2.174,2.174,0,0,1,4.3.7a2.2,2.2,0,0,1,.5.8A2.883,2.883,0,0,1,4.971,2.538Zm-1.251,0a1.887,1.887,0,0,0-.338-1.19,1.091,1.091,0,0,0-.9-.425,1.126,1.126,0,0,0-.645.188,1.243,1.243,0,0,0-.43.562,2.3,2.3,0,0,0-.15.866,2.237,2.237,0,0,0,.15.854,1.23,1.23,0,0,0,.425.56,1.1,1.1,0,0,0,.65.191,1.082,1.082,0,0,0,.9-.421A1.893,1.893,0,0,0,3.72,2.538Z" transform="translate(40.703 1.859)" fill="#3f3e3e"/>
              <path id="Path_81105" data-name="Path 81105" d="M4.228,2.627V4.289a.859.859,0,0,1-.177.59.606.606,0,0,1-.473.2.585.585,0,0,1-.46-.2.859.859,0,0,1-.178-.59V2.3a7.068,7.068,0,0,0-.028-.734.776.776,0,0,0-.176-.426A.547.547,0,0,0,2.287.975a.794.794,0,0,0-.806.419,2.976,2.976,0,0,0-.2,1.206V4.289a.857.857,0,0,1-.176.587.6.6,0,0,1-.464.2.612.612,0,0,1-.465-.2A.847.847,0,0,1,0,4.289V.714A.768.768,0,0,1,.161.183.553.553,0,0,1,.588,0a.582.582,0,0,1,.427.167A.64.64,0,0,1,1.19.643V.76a2.174,2.174,0,0,1,.7-.568A1.852,1.852,0,0,1,2.707.009,1.646,1.646,0,0,1,3.517.2,1.471,1.471,0,0,1,4.076.76,2.238,2.238,0,0,1,4.755.193a1.74,1.74,0,0,1,.8-.184,1.823,1.823,0,0,1,.883.2A1.3,1.3,0,0,1,6.99.785a2.587,2.587,0,0,1,.161,1.067V4.289a.852.852,0,0,1-.181.59.585.585,0,0,1-.468.2.6.6,0,0,1-.463-.2.831.831,0,0,1-.183-.587v-2.1a4.515,4.515,0,0,0-.034-.645.768.768,0,0,0-.183-.4A.594.594,0,0,0,5.18.975a.849.849,0,0,0-.469.145.974.974,0,0,0-.348.4A3.1,3.1,0,0,0,4.228,2.627Z" transform="translate(46.587 1.859)" fill="#3f3e3e"/>
            </g>
            <g id="Group_12377" data-name="Group 12377" transform="translate(56.795)">
              <path id="Path_81106" data-name="Path 81106" d="M2.039,1.5c-.024-.078-.049-.161-.076-.239a.645.645,0,0,0,.5-.915A.642.642,0,0,0,1.374.261a.648.648,0,0,0,.35.988c.028.084.049.174.075.258A3.646,3.646,0,0,0,0,2.048c.055.149.109.308.163.46a6.7,6.7,0,0,1,3.381-.254c.04-.148.076-.3.113-.445A3.9,3.9,0,0,0,2.039,1.5Z" transform="translate(5.938)" fill="#3f3e3e"/>
              <path id="Path_81107" data-name="Path 81107" d="M2.393.061A.461.461,0,0,0,2.2.52C2.015.7,2.1.978,2.085,1.2c-.043.129-.2.144-.3.194a3.149,3.149,0,0,0-.5-.626l0-.01A5.335,5.335,0,0,0,.591.219C.4.429.188.637,0,.855A11.091,11.091,0,0,1,1.026,2.177a7.139,7.139,0,0,1,.529,1.118c.315-.164.629-.334.946-.5-.167-.386-.358-.764-.56-1.132.138-.076.328-.148.348-.332a1.193,1.193,0,0,1,.091-.6A.411.411,0,0,0,3,.419.4.4,0,0,0,2.393.061Z" transform="translate(11.916 3.158)" fill="#3f3e3e"/>
              <path id="Path_81108" data-name="Path 81108" d="M10.277,2.92a7.584,7.584,0,0,0-1.464-1.89A3.9,3.9,0,0,0,6.257,0a8.587,8.587,0,0,0-3.5.656A4.617,4.617,0,0,0,.365,2.973,4.919,4.919,0,0,0,.13,6a17.075,17.075,0,0,0,3.344.569,20,20,0,0,0,3.353-.091,11.668,11.668,0,0,0,4.351-1.464A6.381,6.381,0,0,0,10.277,2.92ZM4.882,4.273a1.833,1.833,0,0,1-.845.662A1.765,1.765,0,0,1,2.151,4.5a1.8,1.8,0,0,1-.479-1.315A1.759,1.759,0,0,1,2.6,1.74a1.8,1.8,0,0,1,1.328-.132,1.635,1.635,0,0,1,.509.236,1.764,1.764,0,0,1,.446,2.429ZM9.51,3.184A1.091,1.091,0,0,1,8.415,4.1a1.016,1.016,0,0,1-.8-.333,1.193,1.193,0,0,1-.291-.64,1.1,1.1,0,0,1,.808-1.184,1.355,1.355,0,0,1,.685.026A1.109,1.109,0,0,1,9.51,3.184Z" transform="translate(2.319 2.595)" fill="#3f3e3e"/>
              <path id="Path_81109" data-name="Path 81109" d="M2.7.2A3.963,3.963,0,0,0,1.577,1.269,3.321,3.321,0,0,0,1.345.757C1.279.669,1.159.706,1.068.706A.972.972,0,0,1,.722.651a.416.416,0,0,0-.1-.587A.4.4,0,0,0,.016.3.4.4,0,0,0,.5.783C.642,1,.9.964,1.127.97a3.511,3.511,0,0,0,.306.523A3.578,3.578,0,0,0,1.046,3.02l.924.389a9.538,9.538,0,0,1,.1-.992A3.449,3.449,0,0,1,3.083.563C2.962.435,2.825.324,2.7.2Z" transform="translate(0 3.785)" fill="#3f3e3e"/>
              <path id="Path_81110" data-name="Path 81110" d="M7.392,1.388a13.436,13.436,0,0,1-3.456.27,13.724,13.724,0,0,1-2.327-.282C1.067,1.267.535,1.109,0,.956A4.289,4.289,0,0,0,.755,2.849,3.8,3.8,0,0,0,2.612,4.341a8.036,8.036,0,0,0,2.558.346A7.7,7.7,0,0,0,8.1,4.156,5.667,5.667,0,0,0,9.683,3.146a4.1,4.1,0,0,0,.935-1.36A5.156,5.156,0,0,0,11,0,11.207,11.207,0,0,1,7.392,1.388Z" transform="translate(2.483 7.999)" fill="#3f3e3e"/>
            </g>
          </g>
          <path id="Path_81111" data-name="Path 81111" d="M827.5,23.152A133.97,133.97,0,0,0,620.694,159.2l.041-.008a76.718,76.718,0,1,1-150.7,28.857l.009,0a133.97,133.97,0,1,0-263.159,50.392l.042-.007a76.718,76.718,0,0,1-150.7,28.856L0,278.059a133.97,133.97,0,0,0,242.437,50.03,133.1,133.1,0,0,0,20.723-100.421l-.042.009a76.718,76.718,0,1,1,150.7-28.857h-.009A133.97,133.97,0,1,0,676.966,148.43l-.041.007a76.718,76.718,0,0,1,150.7-28.856l56.23-10.767A133.1,133.1,0,0,0,827.5,23.152Z" transform="translate(325.54 436.478)" fill="url(#linear-gradient-5)"/>
          <g id="Group_12379" data-name="Group 12379" transform="translate(848.735 497.293)">
            <path id="Path_81112" data-name="Path 81112" d="M188.037,376.073a188.037,188.037,0,0,1-132.962-321A188.036,188.036,0,1,1,321,321,186.8,186.8,0,0,1,188.037,376.073Zm0-308.558A120.521,120.521,0,1,0,308.558,188.037,120.658,120.658,0,0,0,188.037,67.516Z" transform="translate(0 0)" fill="url(#linear-gradient-6)"/>
          </g>
          <rect id="Rectangle_3361" data-name="Rectangle 3361" width="540.72" height="540.124" transform="translate(474.446 471.939)" fill="none"/>
          <rect id="Rectangle_3362" data-name="Rectangle 3362" width="540.72" height="540.124" transform="translate(474.446 471.939)" fill="none"/>
        </g>
      </g>
    </g>
  </g>
</svg>
