<svg id="Layer_2" data-name="Layer 2" xmlns="http://www.w3.org/2000/svg" width="35" height="35" viewBox="0 0 35 35">
  <g id="_62.spotify" data-name="62.spotify">
    <circle id="background" cx="17.5" cy="17.5" r="17.5" fill="#12c64b"/>
    <g id="icon" transform="translate(6.522 10.519)">
      <path id="Path_74456" data-name="Path 74456" d="M60.082,106.43a1.036,1.036,0,0,1-1.416.372,15.361,15.361,0,0,0-8.026-1.79,19.931,19.931,0,0,0-4.162.549,1.036,1.036,0,0,1-.549-1.989,21.576,21.576,0,0,1,4.59-.628,20.349,20.349,0,0,1,4.423.32,14.937,14.937,0,0,1,4.773,1.742,1.034,1.034,0,0,1,.368,1.424Z" transform="translate(-42.782 -92.981)" fill="#fff"/>
      <path id="Path_74457" data-name="Path 74457" d="M58.477,83.758a1.225,1.225,0,0,1-1.06.609A1.209,1.209,0,0,1,56.8,84.2a18.044,18.044,0,0,0-9.506-2.108,23.527,23.527,0,0,0-4.93.65,1.227,1.227,0,0,1-.65-2.364,25.43,25.43,0,0,1,5.437-.736,23.751,23.751,0,0,1,5.24.38,17.661,17.661,0,0,1,5.648,2.064A1.227,1.227,0,0,1,58.477,83.758Z" transform="translate(-39.252 -74.307)" fill="#fff"/>
      <path id="Path_74458" data-name="Path 74458" d="M54.511,57.967a1.5,1.5,0,0,1-2.058.539c-7.664-4.478-17.605-1.816-17.7-1.79a1.505,1.505,0,1,1-.8-2.9,31.242,31.242,0,0,1,6.652-.9,29.462,29.462,0,0,1,6.425.465A21.706,21.706,0,0,1,53.964,55.9a1.505,1.505,0,0,1,.547,2.066Z" transform="translate(-32.794 -52.897)" fill="#fff"/>
    </g>
  </g>
</svg>
