<svg xmlns="http://www.w3.org/2000/svg" width="60" height="60" viewBox="0 0 60 60">
  <g id="like" transform="translate(-15.662 -15.663)">
    <g id="Group_11961" data-name="Group 11961" transform="translate(26.912 30.187)">
      <path id="Path_79309" data-name="Path 79309" d="M84.851,70.049a10.408,10.408,0,0,0-7.58,3.262,1,1,0,0,1-1.463,0,10.438,10.438,0,0,0-18.019,7.176c0,8.6,13.2,21.007,17.452,24.775a1.956,1.956,0,0,0,2.6,0c4.247-3.769,17.452-16.178,17.452-24.775A10.439,10.439,0,0,0,84.851,70.049Z" transform="translate(-57.789 -70.049)" fill="#e63950"/>
    </g>
    <g id="Group_11962" data-name="Group 11962" transform="translate(27.981 31.255)">
      <path id="Path_79310" data-name="Path 79310" d="M76.713,105.22a.535.535,0,0,1-.387-.9.551.551,0,0,1,.756-.021,0,0,0,0,0,0,0,.535.535,0,0,1-.371.921Zm-1.536-1.485a.538.538,0,0,1-.377-.155,74.659,74.659,0,0,1-9.029-10.492C63.1,89.181,61.8,86.019,61.79,83.421a9.386,9.386,0,0,1,11.619-9.1,9.2,9.2,0,0,1,2.115.8.536.536,0,0,1,.222.721.547.547,0,0,1-.721.224,8.2,8.2,0,0,0-1.869-.71,8.425,8.425,0,0,0-1.995-.238,8.311,8.311,0,0,0-8.3,8.3c-.011,2.307,1.3,5.443,3.795,9.064a73.722,73.722,0,0,0,8.9,10.335h0a.533.533,0,0,1,.005.756A.523.523,0,0,1,75.177,103.736Z" transform="translate(-61.79 -74.05)" fill="#e8566f"/>
    </g>
    <g id="Group_11963" data-name="Group 11963" transform="translate(38.38 32.03)">
      <path id="Path_79311" data-name="Path 79311" d="M122.25,76.951a10.389,10.389,0,0,1,1.843,5.925c0,8.6-13.2,21.007-17.452,24.775a1.956,1.956,0,0,1-2.6,0c-.822-.73-1.98-1.783-3.313-3.07,2.421,2.511,4.646,4.554,5.984,5.741a1.956,1.956,0,0,0,2.6,0c4.247-3.769,17.452-16.178,17.452-24.775A10.427,10.427,0,0,0,122.25,76.951Z" transform="translate(-100.731 -76.951)" fill="#d10028"/>
    </g>
    <g id="Group_11964" data-name="Group 11964" transform="translate(39.029 32.607)">
      <path id="Path_79312" data-name="Path 79312" d="M124.79,79.111a10.4,10.4,0,0,1,2.42,6.683c0,8.6-13.2,21.007-17.452,24.775a1.956,1.956,0,0,1-2.6,0c-.96-.852-2.379-2.146-4-3.738,2.166,2.205,4.117,3.994,5.334,5.073a1.956,1.956,0,0,0,2.6,0c4.247-3.769,17.452-16.178,17.452-24.775A10.415,10.415,0,0,0,124.79,79.111Z" transform="translate(-103.162 -79.111)" fill="#b7022d"/>
    </g>
    <g id="Group_11975" data-name="Group 11975" transform="translate(15.662 15.663)">
      <g id="Group_11969" data-name="Group 11969" transform="translate(28.524 0)">
        <g id="Group_11965" data-name="Group 11965">
          <path id="Path_79313" data-name="Path 79313" d="M123.949,23.481A1.476,1.476,0,0,1,122.473,22V17.139a1.476,1.476,0,1,1,2.952,0V22A1.476,1.476,0,0,1,123.949,23.481Z" transform="translate(-122.473 -15.663)" fill="#e63950"/>
        </g>
        <g id="Group_11966" data-name="Group 11966" transform="translate(0.006 0.006)">
          <path id="Path_79314" data-name="Path 79314" d="M124.1,15.686c0,.044.006.089.006.135v4.866a1.476,1.476,0,0,1-1.476,1.476c-.045,0-.09,0-.135-.006a1.476,1.476,0,0,0,2.946-.135V17.156A1.476,1.476,0,0,0,124.1,15.686Z" transform="translate(-122.496 -15.686)" fill="#d10028"/>
        </g>
        <g id="Group_11967" data-name="Group 11967" transform="translate(0 52.182)">
          <path id="Path_79315" data-name="Path 79315" d="M123.949,218.881a1.476,1.476,0,0,1-1.476-1.476v-4.866a1.476,1.476,0,0,1,2.952,0V217.4A1.476,1.476,0,0,1,123.949,218.881Z" transform="translate(-122.473 -211.063)" fill="#e63950"/>
        </g>
        <g id="Group_11968" data-name="Group 11968" transform="translate(0.006 52.188)">
          <path id="Path_79316" data-name="Path 79316" d="M124.1,211.085c0,.044.006.089.006.135v4.866a1.476,1.476,0,0,1-1.476,1.476q-.068,0-.135-.006a1.476,1.476,0,0,0,2.946-.135v-4.866A1.476,1.476,0,0,0,124.1,211.085Z" transform="translate(-122.496 -211.085)" fill="#d10028"/>
        </g>
      </g>
      <g id="Group_11974" data-name="Group 11974" transform="translate(0 28.524)">
        <g id="Group_11970" data-name="Group 11970" transform="translate(52.182)">
          <path id="Path_79317" data-name="Path 79317" d="M211.062,123.949a1.476,1.476,0,0,1,1.476-1.476H217.4a1.476,1.476,0,1,1,0,2.952h-4.866A1.476,1.476,0,0,1,211.062,123.949Z" transform="translate(-211.062 -122.473)" fill="#e63950"/>
        </g>
        <g id="Group_11971" data-name="Group 11971" transform="translate(52.188 0.006)">
          <path id="Path_79318" data-name="Path 79318" d="M217.555,122.5q.006.067.006.135a1.476,1.476,0,0,1-1.476,1.476H211.22c-.045,0-.09,0-.135-.006a1.476,1.476,0,0,0,1.47,1.341h4.866a1.476,1.476,0,0,0,.135-2.946Z" transform="translate(-211.085 -122.496)" fill="#d10028"/>
        </g>
        <g id="Group_11972" data-name="Group 11972">
          <path id="Path_79319" data-name="Path 79319" d="M15.662,123.949a1.476,1.476,0,0,1,1.476-1.476H22a1.476,1.476,0,0,1,0,2.952H17.138A1.476,1.476,0,0,1,15.662,123.949Z" transform="translate(-15.662 -122.473)" fill="#e63950"/>
        </g>
        <g id="Group_11973" data-name="Group 11973" transform="translate(0.006 0.006)">
          <path id="Path_79320" data-name="Path 79320" d="M22.156,122.5c0,.044.006.089.006.135a1.476,1.476,0,0,1-1.476,1.476H15.821c-.045,0-.09,0-.135-.006a1.476,1.476,0,0,0,1.47,1.341h4.866a1.476,1.476,0,0,0,.135-2.946Z" transform="translate(-15.686 -122.496)" fill="#d10028"/>
        </g>
      </g>
    </g>
    <g id="Group_11986" data-name="Group 11986" transform="translate(24.016 24.017)">
      <g id="Group_11980" data-name="Group 11980" transform="translate(0 0)">
        <g id="Group_11976" data-name="Group 11976" transform="translate(36.898)">
          <path id="Path_79321" data-name="Path 79321" d="M185.546,52.907a1.476,1.476,0,0,1,0-2.088l3.441-3.441a1.476,1.476,0,1,1,2.088,2.088l-3.441,3.441A1.476,1.476,0,0,1,185.546,52.907Z" transform="translate(-185.114 -46.947)" fill="#e63950"/>
        </g>
        <g id="Group_11977" data-name="Group 11977" transform="translate(36.904 0.006)">
          <path id="Path_79322" data-name="Path 79322" d="M191.092,47.4a1.47,1.47,0,0,0-.909-.426,1.473,1.473,0,0,1-.426,1.179l-3.441,3.441a1.474,1.474,0,0,1-1.179.426,1.476,1.476,0,0,0,2.514.909l3.441-3.441A1.476,1.476,0,0,0,191.092,47.4Z" transform="translate(-185.137 -46.969)" fill="#d10028"/>
        </g>
        <g id="Group_11978" data-name="Group 11978" transform="translate(0 36.898)">
          <path id="Path_79323" data-name="Path 79323" d="M47.378,191.075a1.476,1.476,0,0,1,0-2.088l3.441-3.441a1.476,1.476,0,0,1,2.088,2.088l-3.441,3.441A1.476,1.476,0,0,1,47.378,191.075Z" transform="translate(-46.946 -185.115)" fill="#e63950"/>
        </g>
        <g id="Group_11979" data-name="Group 11979" transform="translate(0.006 36.904)">
          <path id="Path_79324" data-name="Path 79324" d="M52.924,185.563a1.47,1.47,0,0,0-.909-.426,1.473,1.473,0,0,1-.426,1.179l-3.441,3.441a1.473,1.473,0,0,1-1.179.426,1.476,1.476,0,0,0,2.514.909l3.441-3.441A1.476,1.476,0,0,0,52.924,185.563Z" transform="translate(-46.97 -185.137)" fill="#d10028"/>
        </g>
      </g>
      <g id="Group_11985" data-name="Group 11985" transform="translate(0 0)">
        <g id="Group_11981" data-name="Group 11981" transform="translate(36.898 36.898)">
          <path id="Path_79325" data-name="Path 79325" d="M185.547,185.546a1.476,1.476,0,0,1,2.088,0l3.441,3.441a1.476,1.476,0,0,1-2.088,2.088l-3.441-3.441A1.476,1.476,0,0,1,185.547,185.546Z" transform="translate(-185.114 -185.114)" fill="#e63950"/>
        </g>
        <g id="Group_11982" data-name="Group 11982" transform="translate(39.436 39.436)">
          <path id="Path_79326" data-name="Path 79326" d="M198.041,195.953l-1.335-1.335a1.476,1.476,0,0,1-2.088,2.088l1.335,1.335a1.476,1.476,0,0,0,2.088-2.088Z" transform="translate(-194.618 -194.618)" fill="#d10028"/>
        </g>
        <g id="Group_11983" data-name="Group 11983">
          <path id="Path_79327" data-name="Path 79327" d="M47.379,47.378a1.476,1.476,0,0,1,2.088,0l3.441,3.441a1.476,1.476,0,0,1-2.088,2.088l-3.441-3.441A1.476,1.476,0,0,1,47.379,47.378Z" transform="translate(-46.946 -46.946)" fill="#e63950"/>
        </g>
        <g id="Group_11984" data-name="Group 11984" transform="translate(2.538 2.538)">
          <path id="Path_79328" data-name="Path 79328" d="M59.873,57.785,58.538,56.45a1.476,1.476,0,0,1-2.088,2.088l1.335,1.335a1.476,1.476,0,0,0,2.088-2.088Z" transform="translate(-56.45 -56.45)" fill="#d10028"/>
        </g>
      </g>
    </g>
    <g id="Group_11991" data-name="Group 11991" transform="translate(36.23 36.742)">
      <g id="Group_11988" data-name="Group 11988">
        <g id="Group_11987" data-name="Group 11987">
          <path id="Path_79329" data-name="Path 79329" d="M102.957,95.208l1.619,4.983a.886.886,0,0,0,.843.612h5.24a.886.886,0,0,1,.521,1.6l-4.239,3.08a.886.886,0,0,0-.322.991l1.619,4.983a.886.886,0,0,1-1.364.991l-4.239-3.08a.886.886,0,0,0-1.042,0l-4.239,3.08a.886.886,0,0,1-1.364-.991l1.619-4.983a.886.886,0,0,0-.322-.991l-4.239-3.08a.886.886,0,0,1,.521-1.6h5.24a.886.886,0,0,0,.843-.612l1.619-4.983A.886.886,0,0,1,102.957,95.208Z" transform="translate(-92.682 -94.595)" fill="#ffa91a"/>
        </g>
      </g>
      <g id="Group_11990" data-name="Group 11990" transform="translate(3.262 6.208)">
        <g id="Group_11989" data-name="Group 11989">
          <path id="Path_79330" data-name="Path 79330" d="M119.612,117.842h-.567a.9.9,0,0,1-.247.268l-4.239,3.08a.886.886,0,0,0-.322.991l1.619,4.983a.886.886,0,0,1-1.364.991l-4.239-3.08a.886.886,0,0,0-1.042,0l-4.13,3-.138.424a.886.886,0,0,0,1.364.991l4.239-3.08a.886.886,0,0,1,1.042,0l4.239,3.08a.886.886,0,0,0,1.364-.991l-1.619-4.983a.886.886,0,0,1,.322-.991l4.239-3.08A.886.886,0,0,0,119.612,117.842Z" transform="translate(-104.898 -117.842)" fill="#f79219"/>
        </g>
      </g>
    </g>
  </g>
</svg>
