<svg xmlns="http://www.w3.org/2000/svg" width="30.061" height="35" viewBox="0 0 30.061 35">
  <g id="medal_1_" data-name="medal(1)" transform="translate(-36.128)">
    <g id="Group_12360" data-name="Group 12360" transform="translate(36.217 0)">
      <g id="Group_12358" data-name="Group 12358" transform="translate(0 0)">
        <g id="Group_12354" data-name="Group 12354" transform="translate(0 18.48)">
          <g id="Group_12352" data-name="Group 12352" transform="translate(14.941)">
            <path id="Path_81056" data-name="Path 81056" d="M333.248,405.215l-2.915,3.932a.617.617,0,0,1-.491.25l-4.9.047a.619.619,0,0,1-.557-.338l-1.325-2.6,5.586-.054,3.326-4.487,1.325,2.6A.617.617,0,0,1,333.248,405.215Z" transform="translate(-318.48 -392.967)" fill="#fff9e3"/>
            <path id="Path_81057" data-name="Path 81057" d="M434.666,405.216l-1.242,1.676-1.5-2.942,1.47-1.984,1.325,2.6A.617.617,0,0,1,434.666,405.216Z" transform="translate(-419.898 -392.968)" fill="#fde784"/>
            <path id="Path_81058" data-name="Path 81058" d="M319.383,377.248l-3.143,4.24a.618.618,0,0,1-.491.25l-5.278.051-1.5-2.942,5.586-.054,3.326-4.487Z" transform="translate(-305.35 -367.199)" fill="#fde784"/>
            <path id="Path_81059" data-name="Path 81059" d="M420.8,377.248l-1.47,1.984-1.5-2.942,1.47-1.984Z" transform="translate(-406.768 -367.199)" fill="#fdd330"/>
            <path id="Path_81060" data-name="Path 81060" d="M305.29,349.587l-3.143,4.24a.619.619,0,0,1-.491.25l-5.278.051-1.5-2.942,5.586-.054,3.326-4.487Z" transform="translate(-292.221 -341.429)" fill="#fdd330"/>
            <path id="Path_81061" data-name="Path 81061" d="M406.708,349.587l-1.47,1.984-1.5-2.942,1.47-1.984Z" transform="translate(-393.638 -341.429)" fill="#f8c52d"/>
            <path id="Path_81062" data-name="Path 81062" d="M264.912,270.337l3.193,6.267-3.143,4.24a.618.618,0,0,1-.491.25l-5.278.05L256,274.878Z" transform="translate(-256 -270.337)" fill="#1c96f9"/>
            <path id="Path_81063" data-name="Path 81063" d="M268.1,276.6l-3.193-6.267h0l-8.912,4.541.978,1.92a13.277,13.277,0,0,0,6.235-2.1,1.166,1.166,0,0,1,1.671.452l1.751,3.436Z" transform="translate(-255.994 -270.337)" fill="#1785f8"/>
          </g>
          <g id="Group_12353" data-name="Group 12353" transform="translate(0 0.042)">
            <path id="Path_81064" data-name="Path 81064" d="M47.765,407.509l-1.35,2.65a.62.62,0,0,1-.557.337l-4.9-.047a.617.617,0,0,1-.491-.25l-2.915-3.932a.617.617,0,0,1-.054-.649l1.309-2.569,3.339,4.454Z" transform="translate(-37.435 -394.019)" fill="#fff9e3"/>
            <path id="Path_81065" data-name="Path 81065" d="M134.116,468.262l-1.35,2.65a.62.62,0,0,1-.557.337l-2.087-.02,1.513-2.97Z" transform="translate(-123.786 -454.772)" fill="#fde784"/>
            <path id="Path_81066" data-name="Path 81066" d="M60.392,379.864l-1.506,2.956-5.278-.051a.617.617,0,0,1-.491-.25l-3.143-4.24,1.484-2.912,3.34,4.456Z" transform="translate(-49.117 -368.23)" fill="#fde784"/>
            <path id="Path_81067" data-name="Path 81067" d="M148.191,440.9l-1.506,2.956-2.47-.024,1.5-2.95Z" transform="translate(-136.916 -429.27)" fill="#fdd330"/>
            <path id="Path_81068" data-name="Path 81068" d="M74.485,351.684l-1.506,2.957L67.7,354.59a.617.617,0,0,1-.491-.25l-3.143-4.24,1.5-2.95,3.323,4.494Z" transform="translate(-62.246 -341.941)" fill="#fdd330"/>
            <path id="Path_81069" data-name="Path 81069" d="M162.284,413.234l-1.506,2.957-2.47-.024,1.5-2.951Z" transform="translate(-150.045 -403.491)" fill="#f8c52d"/>
            <path id="Path_81070" data-name="Path 81070" d="M90.267,275.5l-3.193,6.267-5.278-.05a.618.618,0,0,1-.491-.25l-3.143-4.24,3.193-6.267Z" transform="translate(-75.378 -270.956)" fill="#1c96f9"/>
            <path id="Path_81071" data-name="Path 81071" d="M111,270.958l-1.018,2a13.413,13.413,0,0,0,5.413,3.66,1.166,1.166,0,0,1,.638,1.626l-1.783,3.5,2.469.024,3.193-6.267Z" transform="translate(-105.019 -270.958)" fill="#1785f8"/>
          </g>
        </g>
        <g id="Group_12357" data-name="Group 12357" transform="translate(3.307)">
          <g id="Group_12355" data-name="Group 12355">
            <circle id="Ellipse_1933" data-name="Ellipse 1933" cx="11.609" cy="11.609" r="11.609" transform="translate(0 0)" fill="#fee265"/>
            <path id="Path_81072" data-name="Path 81072" d="M252.03,11.608a11.609,11.609,0,0,1-11.608,11.609c-.376,0-.749-.018-1.115-.053a11.61,11.61,0,0,0,0-23.112c.367-.035.739-.053,1.115-.053A11.608,11.608,0,0,1,252.03,11.608Z" transform="translate(-228.813 0)" fill="#fdd330"/>
          </g>
          <g id="Group_12356" data-name="Group 12356" transform="translate(2.465 2.465)">
            <circle id="Ellipse_1934" data-name="Ellipse 1934" cx="9.143" cy="9.143" r="9.143" transform="translate(0 0)" fill="#fca62f"/>
            <path id="Path_81073" data-name="Path 81073" d="M249.564,45.209a9.148,9.148,0,0,1-10.258,9.076,9.144,9.144,0,0,0,0-18.151,9.148,9.148,0,0,1,10.258,9.075Z" transform="translate(-231.278 -36.066)" fill="#fb9927"/>
          </g>
        </g>
      </g>
      <g id="Group_12359" data-name="Group 12359" transform="translate(12.377 5.638)">
        <path id="Path_81074" data-name="Path 81074" d="M221.411,94.415a1.056,1.056,0,0,1-1.056-1.056V86.08l-.056.056a1.056,1.056,0,1,1-1.494-1.494l1.86-1.86a1.056,1.056,0,0,1,1.8.747v9.829a1.056,1.056,0,0,1-1.056,1.056Z" transform="translate(-218.495 -82.473)" fill="#ffd597"/>
      </g>
    </g>
    <g id="Group_12363" data-name="Group 12363" transform="translate(36.128 8.831)">
      <g id="Group_12361" data-name="Group 12361" transform="translate(27.933)">
        <g id="XMLID_207_" transform="translate(0.327 2.247)">
          <path id="Path_81075" data-name="Path 81075" d="M450.8,163.125h0l-.744,0a.528.528,0,0,1,0-1.056h0l.744,0a.528.528,0,0,1,0,1.056Z" transform="translate(-449.531 -162.066)" fill="#fdd330"/>
        </g>
        <g id="XMLID_147_" transform="translate(0.01)">
          <path id="Path_81076" data-name="Path 81076" d="M445.418,130.635a.528.528,0,0,1-.272-.981l.646-.387a.528.528,0,1,1,.543.906l-.646.387A.526.526,0,0,1,445.418,130.635Z" transform="translate(-444.89 -129.192)" fill="#fdd330"/>
        </g>
        <g id="XMLID_55_" transform="translate(0 4.106)">
          <path id="Path_81077" data-name="Path 81077" d="M445.913,190.7a.525.525,0,0,1-.273-.077L445,190.23a.528.528,0,0,1,.548-.9l.643.391a.528.528,0,0,1-.275.98Z" transform="translate(-444.742 -189.25)" fill="#fdd330"/>
        </g>
      </g>
      <g id="Group_12362" data-name="Group 12362" transform="translate(0 0)">
        <g id="XMLID_224_" transform="translate(0 2.247)">
          <path id="Path_81078" data-name="Path 81078" d="M36.656,163.125a.528.528,0,0,1,0-1.056l.744,0h0a.528.528,0,0,1,0,1.056l-.744,0Z" transform="translate(-36.128 -162.066)" fill="#fdd330"/>
        </g>
        <g id="XMLID_223_" transform="translate(0.416)">
          <path id="Path_81079" data-name="Path 81079" d="M43.383,130.636a.526.526,0,0,1-.271-.075l-.646-.387a.528.528,0,1,1,.543-.906l.646.387a.528.528,0,0,1-.272.981Z" transform="translate(-42.21 -129.193)" fill="#fdd330"/>
        </g>
        <g id="XMLID_222_" transform="translate(0.428 4.105)">
          <path id="Path_81080" data-name="Path 81080" d="M42.918,190.7a.528.528,0,0,1-.275-.98l.643-.391a.528.528,0,1,1,.548.9l-.643.391A.526.526,0,0,1,42.918,190.7Z" transform="translate(-42.39 -189.249)" fill="#fdd330"/>
        </g>
      </g>
    </g>
  </g>
</svg>
