<svg xmlns="http://www.w3.org/2000/svg" width="32.517" height="40" viewBox="0 0 32.517 40">
  <g id="medal" transform="translate(-45.799 0)">
    <path id="Path_81042" data-name="Path 81042" d="M291.5,318.962l-4.816-1.06-1.493,4.712a.408.408,0,0,1-.743.08l-5.957-10.349a14.792,14.792,0,0,0,7.55-4.237l5.9,10.251A.408.408,0,0,1,291.5,318.962Z" transform="translate(-213.683 -282.937)" fill="#fd646f"/>
    <path id="Path_81043" data-name="Path 81043" d="M291.5,318.961l-4.451-.98a.408.408,0,0,0-.477.276l-1.38,4.356a.408.408,0,0,1-.743.08l-5.1-8.866-.854-1.482a14.792,14.792,0,0,0,7.55-4.237l.847,1.471,5.053,8.78A.409.409,0,0,1,291.5,318.961Z" transform="translate(-213.684 -282.936)" fill="#fd646f"/>
    <path id="Path_81044" data-name="Path 81044" d="M382.336,413.124l-4.451-.98a.409.409,0,0,0-.477.275l.479-1.489a.408.408,0,0,1,.478-.274l3.83.851.583,1.013A.408.408,0,0,1,382.336,413.124Z" transform="translate(-304.517 -377.1)" fill="#fc4755"/>
    <path id="Path_81045" data-name="Path 81045" d="M59.4,317.959l-6.052,10.511a.408.408,0,0,1-.743-.08l-1.38-4.356a.408.408,0,0,0-.477-.276l-4.451.98a.408.408,0,0,1-.442-.6l5.628-9.778A14.89,14.89,0,0,0,59.4,317.959Z" transform="translate(0 -288.674)" fill="#fd646f"/>
    <g id="Group_12346" data-name="Group 12346" transform="translate(45.799 24.88)">
      <path id="Path_81046" data-name="Path 81046" d="M52.282,306.795l-5.015,8.713-.967.213a.408.408,0,0,1-.442-.6l4.791-8.323,1.3-2.257q.523.5,1.093.939Z" transform="translate(-45.801 -304.538)" fill="#fc4755"/>
      <path id="Path_81047" data-name="Path 81047" d="M109.559,429.234l-.591,1.026a.408.408,0,0,1-.743-.08l-1.38-4.356a.409.409,0,0,0-.477-.276l1.526-.336a.408.408,0,0,1,.477.275Z" transform="translate(-101.42 -415.345)" fill="#fc4755"/>
      <path id="Path_81048" data-name="Path 81048" d="M106.1,311.311l3.98,1.795,3.8,2.057-1.019,1.769a16.361,16.361,0,0,1-7.657-3.847l-.078-.07Z" transform="translate(-100.277 -310.758)" fill="#fc4755"/>
      <path id="Path_81049" data-name="Path 81049" d="M286.891,309.579l-.847-1.471-4.483,1.979-3.067,2.259.345.6.847,1.47,4.766,8.28a.408.408,0,0,0,.743-.08l.3-.958L280.76,313.4A16.353,16.353,0,0,0,286.891,309.579Z" transform="translate(-259.483 -307.816)" fill="#fc4755"/>
    </g>
    <path id="Path_81050" data-name="Path 81050" d="M92.972,14.872A14.813,14.813,0,0,1,68.291,25.982c-.111-.1-.22-.2-.328-.3a15.16,15.16,0,0,1-1.088-1.146A14.856,14.856,0,0,1,82.45.638,14.8,14.8,0,0,1,87.78,3.569a14.865,14.865,0,0,1,5.193,11.3Z" transform="translate(-16.087)" fill="#faa515"/>
    <ellipse id="Ellipse_1932" data-name="Ellipse 1932" cx="10.62" cy="10.652" rx="10.62" ry="10.652" transform="translate(51.438 4.22)" fill="#fad207"/>
    <path id="Path_81051" data-name="Path 81051" d="M136.057,167.3A10.62,10.62,0,1,1,114.9,165.99a10.617,10.617,0,0,0,21.079,0A10.68,10.68,0,0,1,136.057,167.3Z" transform="translate(-63.38 -152.429)" fill="#faa515"/>
    <path id="Path_81052" data-name="Path 81052" d="M125.438,51.656a10.652,10.652,0,1,0,10.62,10.652A10.636,10.636,0,0,0,125.438,51.656Zm0,20.074a9.423,9.423,0,1,1,9.394-9.423,9.419,9.419,0,0,1-9.394,9.423Z" transform="translate(-63.38 -47.436)" fill="#faf063" fill-rule="evenodd"/>
    <path id="Path_81053" data-name="Path 81053" d="M180.385,107.364l1.459,2.98a.408.408,0,0,0,.309.225l3.279.471a.408.408,0,0,1,.227.7l-2.378,2.316a.409.409,0,0,0-.118.362l.567,3.274a.409.409,0,0,1-.594.431l-2.926-1.551a.409.409,0,0,0-.383,0l-2.926,1.551a.408.408,0,0,1-.594-.431l.567-3.274a.409.409,0,0,0-.118-.362l-2.378-2.316a.408.408,0,0,1,.227-.7l3.279-.471a.409.409,0,0,0,.309-.225l1.459-2.98A.408.408,0,0,1,180.385,107.364Z" transform="translate(-117.961 -98.382)" fill="#faa515"/>
  </g>
</svg>
