<svg xmlns="http://www.w3.org/2000/svg" width="15.001" height="19.714" viewBox="0 0 15.001 19.714">
  <path id="Path_67835" data-name="Path 67835" d="M.038-22.481q.722-1.052,1.09-1.584L1.5-24.6H14.95q-.684,1.026-1.02,1.539l-.336.513H10.073a3.475,3.475,0,0,1,.95,1.774H15q-.71,1.064-1.058,1.59l-.348.526q-1.28.025-1.919.025h-.64q-.025.481-.038.659l-.019.228-.006.076A2.744,2.744,0,0,1,9.882-15.8a8.011,8.011,0,0,1-1.3.748,15.844,15.844,0,0,1-1.907.71q-.868.253-2.274.519Q8.3-9.343,10.25-7.113L12.2-4.883H8.425q-3.763-4.257-5.651-6.4L.887-13.422v-2.053q3.522.3,5.03-.469A3.229,3.229,0,0,0,8.083-18.6q-4.042-.038-6.063-.051L0-18.668q.71-1.039,1.071-1.565l.361-.526q3.117.025,4.688.025H7.691q0-.19-.367-.557a3.7,3.7,0,0,0-.735-.583,7.412,7.412,0,0,0-2.407-.608H.038Z" transform="translate(0 24.597)" fill="#fff"/>
</svg>
