<svg xmlns="http://www.w3.org/2000/svg" width="44.968" height="40" viewBox="0 0 44.968 40">
  <g id="speech-bubble" transform="translate(0 -28.28)">
    <g id="Group_11993" data-name="Group 11993" transform="translate(0 28.28)">
      <path id="Path_79389" data-name="Path 79389" d="M51.9,236.378a4.208,4.208,0,1,0,2.5,7.587l.607.607a.659.659,0,1,0,.931-.932l-.616-.616a4.2,4.2,0,0,0-3.426-6.646Zm0,7.1a2.892,2.892,0,1,1,2.476-1.4l-.7-.7a.659.659,0,0,0-.931.932l.717.717A2.871,2.871,0,0,1,51.9,243.476Z" transform="translate(-43.501 -218.101)" fill="#f36"/>
      <path id="Path_79390" data-name="Path 79390" d="M253.647,244.134v-7.1a.659.659,0,1,0-1.317,0v7.1a.659.659,0,0,0,1.317,0Z" transform="translate(-230.169 -218.101)" fill="#f36"/>
      <path id="Path_79391" data-name="Path 79391" d="M282.342,244.448a.659.659,0,0,0,.579.345h4.735a.659.659,0,1,0,0-1.317h-3.52L288.1,237.4a.659.659,0,0,0-.552-1.018h-4.479a.659.659,0,1,0,0,1.317h3.264l-3.961,6.079A.659.659,0,0,0,282.342,244.448Z" transform="translate(-257.472 -218.101)" fill="#f36"/>
      <path id="Path_79392" data-name="Path 79392" d="M169.026,236.378a.659.659,0,0,0-.659.659v4.879a1.445,1.445,0,0,1-.975,1.362,1.921,1.921,0,0,1-.872.2h0a1.724,1.724,0,0,1-.955-.271,1.424,1.424,0,0,1-.809-1.284v-4.884a.659.659,0,0,0-1.317,0v4.884a2.717,2.717,0,0,0,1.418,2.395,3.044,3.044,0,0,0,1.662.478h0a3.225,3.225,0,0,0,1.465-.339,2.747,2.747,0,0,0,1.7-2.539v-4.879A.659.659,0,0,0,169.026,236.378Z" transform="translate(-149.081 -218.101)" fill="#f36"/>
      <path id="Path_79393" data-name="Path 79393" d="M18.408,168.528H2.433a1.117,1.117,0,0,1-1.115-1.116V147.894a1.117,1.117,0,0,1,1.115-1.116H5.022a.659.659,0,0,0,0-1.317H2.433A2.436,2.436,0,0,0,0,147.894v19.518a2.436,2.436,0,0,0,2.433,2.434H18.408a.659.659,0,1,0,0-1.317Z" transform="translate(0 -135.168)" fill="#f36"/>
      <path id="Path_79394" data-name="Path 79394" d="M121,32.579a.659.659,0,0,0-1.134.67,7.419,7.419,0,1,1-1.86-2.107.659.659,0,0,0,.806-1.042,8.644,8.644,0,0,0-5.334-1.819,8.736,8.736,0,0,0-8.593,10.292H85.339a.659.659,0,1,0,0,1.317h19.895a8.772,8.772,0,0,0,5.723,5.484V60.523a1.117,1.117,0,0,1-1.115,1.116h-3.993a.659.659,0,0,0-.659.659v3.8l-4.569-4.283a.659.659,0,0,0-.451-.178H98.724a.659.659,0,0,0,0,1.317h1.185L105.4,68.1a.659.659,0,0,0,1.109-.481V62.957h3.334a2.436,2.436,0,0,0,2.433-2.434V45.661A8.733,8.733,0,0,0,121,32.579Z" transform="translate(-77.243 -28.28)" fill="#f36"/>
      <path id="Path_79395" data-name="Path 79395" d="M405.995,179.25a.634.634,0,1,0,.634.634A.634.634,0,0,0,405.995,179.25Z" transform="translate(-369.759 -165.991)" fill="#f36"/>
      <path id="Path_79396" data-name="Path 79396" d="M378.724,69.471a3.34,3.34,0,0,0,1.751-.969,3.3,3.3,0,0,0,.909-2.463,3.332,3.332,0,0,0-3.25-3.146h-.068a3.324,3.324,0,0,0-3.291,2.86,3.377,3.377,0,0,0-.032.462.659.659,0,1,0,1.317,0,2.035,2.035,0,0,1,.019-.28,2.005,2.005,0,1,1,1.986,2.286.659.659,0,0,0-.659.659v2.786a.659.659,0,0,0,1.317,0V69.471Z" transform="translate(-341.829 -59.852)" fill="#f36"/>
    </g>
  </g>
</svg>
