<svg xmlns="http://www.w3.org/2000/svg" width="14.512" height="16" viewBox="0 0 14.512 16">
  <g id="timer_2_" data-name="timer(2)" transform="translate(-4.5 -2.5)">
    <path id="Path_81022" data-name="Path 81022" d="M11.756,18.5a7.252,7.252,0,0,0,.558-14.482v-.4h.93a.558.558,0,1,0,0-1.116H10.267a.558.558,0,1,0,0,1.116h.93v.4A7.252,7.252,0,0,0,11.756,18.5Zm0-13.4a6.14,6.14,0,1,1-6.14,6.14A6.146,6.146,0,0,1,11.756,5.1Z" fill="#07d3df"/>
    <path id="Path_81023" data-name="Path 81023" d="M23.058,19.337h2.977a.558.558,0,1,0,0-1.116H23.616V15.058a.558.558,0,1,0-1.116,0v3.721A.557.557,0,0,0,23.058,19.337Z" transform="translate(-11.302 -7.535)" fill="#07d3df"/>
  </g>
</svg>
