<svg xmlns="http://www.w3.org/2000/svg" width="20.111" height="13" viewBox="0 0 20.111 13">
  <g id="view" transform="translate(0 -91.866)">
    <circle id="Ellipse_1090" data-name="Ellipse 1090" cx="3.096" cy="3.096" r="3.096" transform="translate(6.96 95.272)" fill="#fff"/>
    <path id="Path_74434" data-name="Path 74434" d="M19.8,97.51c-2.38-2.876-5.982-5.644-9.747-5.644S2.687,94.636.309,97.51a1.346,1.346,0,0,0,0,1.715,20.155,20.155,0,0,0,3.526,3.336c4.216,3.069,8.217,3.076,12.442,0A20.154,20.154,0,0,0,19.8,99.225,1.347,1.347,0,0,0,19.8,97.51Zm-9.747-3.477a4.334,4.334,0,1,1-4.334,4.335A4.339,4.339,0,0,1,10.056,94.033Z" transform="translate(0 0)" fill="#fff"/>
  </g>
</svg>
