<svg xmlns="http://www.w3.org/2000/svg" width="49.381" height="50" viewBox="0 0 49.381 50">
  <g id="zodiac_1_" data-name="zodiac(1)" transform="translate(-12.424 -9.447)">
    <path id="Path_79371" data-name="Path 79371" d="M326.635,30.41c.18.883-.791,2.3-1.239,3.07-.277.432.39.8.679.4a4.919,4.919,0,0,1,1.578-1.555c.441-.229,1.179-.5,1.554-.037.119.219-.033.37-.154.545-.436.63-.933,1.225-1.392,1.839a1.919,1.919,0,0,1-2.711.531.326.326,0,0,0-.394.51,2.211,2.211,0,0,0,1.993.579c-.4.858-.094,2.241,1.055,2.257a1.515,1.515,0,0,0,1.213-2.336c-.309-.44-1.039-.021-.727.425.459.656-.531,1.516-.843.747-.23-.567.264-1.151.582-1.577.419-.563.852-1.116,1.277-1.676.337-.444.885-.951.963-1.525.132-1.529-1.927-1.6-2.853-.948a1.908,1.908,0,0,0,.1-1.436A.356.356,0,0,0,326.635,30.41Z" transform="translate(-279.615 -18.397)" fill="#4a148c"/>
    <path id="Path_79372" data-name="Path 79372" d="M427.415,115.253q1.009.393,2.02.781c.437.168.626-.535.193-.7l-1.459-.561c.291-.276.584-.552.851-.851a.364.364,0,0,0-.254-.613c-.464-.052-.939-.141-1.413-.224a5.684,5.684,0,0,0,.752-.846c.149-.219-.056-.456-.275-.479-.5-.052-.994-.172-1.492-.267.231-.253.5-.491.714-.734a.248.248,0,0,0-.351-.351,9.717,9.717,0,0,1-1.12,1.033c-.21.136-.22.551.078.6.515.079,1.06.121,1.581.223a6,6,0,0,1-.794.81.325.325,0,0,0,.142.54c.475.1.956.174,1.433.266-.258.257-.509.521-.768.775A.367.367,0,0,0,427.415,115.253Z" transform="translate(-370.084 -90.406)" fill="#4a148c"/>
    <path id="Path_79373" data-name="Path 79373" d="M401.455,125.6a15.892,15.892,0,0,0-1.143,1.119.305.305,0,0,0,.213.514c.455.052.93.085,1.386.176-.22.272-.431.552-.633.836-.149.209.058.438.264.46.434.047.882.1,1.317.193-.247.3-.483.6-.719.909a.287.287,0,0,0,.171.42c.759.157,1.508.353,2.25.575a.306.306,0,0,0,.162-.589c-.591-.169-1.186-.313-1.786-.44.247-.272.488-.547.717-.836a.32.32,0,0,0-.223-.538c-.432-.056-.863-.139-1.293-.213.222-.26.437-.525.639-.8.154-.21-.057-.487-.282-.492a9.7,9.7,0,0,1-1.359-.17q.353-.369.715-.729c.259-.255-.127-.632-.395-.4Z" transform="translate(-347.499 -104.011)" fill="#4a148c"/>
    <path id="Path_79374" data-name="Path 79374" d="M432.516,235.7a.23.23,0,0,0-.4,0,1.941,1.941,0,0,0-.159.65,9.693,9.693,0,0,1-2.325-.327.376.376,0,0,0-.2.725,10.5,10.5,0,0,0,2.515.343,13.936,13.936,0,0,0,.046,2.3.336.336,0,0,0,.643,0,3.524,3.524,0,0,0,.074-.676c.788.051,1.522.361,2.295.476a.237.237,0,0,0,.166-.4,3.7,3.7,0,0,0-2.473-.791c-.016-.325-.025-.624-.014-.949a4.064,4.064,0,0,0,2.415-.9.268.268,0,0,0-.259-.445,8.928,8.928,0,0,1-2.172.6A1.9,1.9,0,0,0,432.516,235.7Z" transform="translate(-373.434 -202.643)" fill="#4a148c"/>
    <path id="Path_79375" data-name="Path 79375" d="M426.447,261.636c.349-.108.635-.347.994-.454a9.576,9.576,0,0,0,1.137-.3.277.277,0,0,0-.066-.5c-.7-.129-2.049.092-2.419.8A.318.318,0,0,0,426.447,261.636Z" transform="translate(-370.645 -224.823)" fill="#4a148c"/>
    <path id="Path_79376" data-name="Path 79376" d="M408.393,337.365a1.355,1.355,0,0,0-.563-2.053,1.01,1.01,0,0,0-1.312,1.27.29.29,0,0,0,.558-.154.419.419,0,0,1,.694-.391.674.674,0,0,1-.025.979c-.811.966-3.982-1.037-4.9-1.542-.418-.271-.807.416-.385.658.835.572,4.034,2.544,3.545,3.66a.7.7,0,0,1-.8.521.43.43,0,0,1,0-.836c.3-.089.26-.6-.077-.569a1.006,1.006,0,0,0-.688,1.66c1.33,1.347,3.613-.772,1.474-2.747A2.035,2.035,0,0,0,408.393,337.365Z" transform="translate(-349.342 -291.95)" fill="#4a148c"/>
    <path id="Path_79377" data-name="Path 79377" d="M328.869,406.589a3.185,3.185,0,0,1,2.467.314c.248.1.39-.249.241-.415a2.7,2.7,0,0,0-2.109-.76,2.011,2.011,0,0,0-1.628-3.1,2.268,2.268,0,0,0-2.373,1.543,1.511,1.511,0,0,0,1.493,1.945c.482-.027.487-.775,0-.754-.881.038-.945-1-.468-1.518a1.724,1.724,0,0,1,1.807-.444c1.218.453.85,1.753.191,2.535a2.43,2.43,0,0,0-1.157,3.159c.136.315.661.153.642-.174C327.919,408.017,327.827,406.99,328.869,406.589Z" transform="translate(-280.463 -352.318)" fill="#4a148c"/>
    <path id="Path_79378" data-name="Path 79378" d="M230.16,429.811c.17-.186.007-.568-.269-.461a5.742,5.742,0,0,1-1.586.5,3.093,3.093,0,0,1-1.8-.42c-.458-.258-.872.453-.411.7a4.147,4.147,0,0,0,.922.362c-.04.5-.023,1.017-.039,1.519a7.4,7.4,0,0,0,.008,1.8.288.288,0,0,0,.551,0,6.358,6.358,0,0,0,.144-1.712c.018-.483.065-.99.049-1.48a3.793,3.793,0,0,0,.746-.005c-.073.861-.022,1.749-.031,2.609a5.019,5.019,0,0,0,.065,1.184,4.464,4.464,0,0,0-2.455.59.373.373,0,0,0,.376.643,3.37,3.37,0,0,1,1.641-.483,5.25,5.25,0,0,1,1.62.327.334.334,0,0,0,.256-.607,2.554,2.554,0,0,0-.728-.345c-.177-1.35.055-2.732-.008-4.09A2.409,2.409,0,0,0,230.16,429.811Z" transform="translate(-191.267 -376.247)" fill="#4a148c"/>
    <path id="Path_79379" data-name="Path 79379" d="M125.277,404a3.178,3.178,0,0,0-1.564-2.489,2.788,2.788,0,0,0-3.483.454,1.4,1.4,0,0,0,1.549,2.187c.731-.234.806-.939.684-1.592-.094-.5-.867-.291-.77.212.067.343.047.685-.387.659a.726.726,0,0,1-.657-.753,1.062,1.062,0,0,1,.863-.737A2.362,2.362,0,0,1,124.447,404C124.5,404.53,125.336,404.533,125.277,404Z" transform="translate(-96.314 -350.966)" fill="#4a148c"/>
    <path id="Path_79380" data-name="Path 79380" d="M114.531,429.985a.413.413,0,1,0-.815.11,3.063,3.063,0,0,0,3.094,2.693c1.273.141,2.918-1.138,1.976-2.5a1.464,1.464,0,0,0-1.593-.523c-.96.3-.917,1.645-.3,2.251A2.3,2.3,0,0,1,114.531,429.985Zm3.14.507a.718.718,0,0,1,.626.53c-.237,1.1-1.71-.073-.626-.53Z" transform="translate(-90.76 -376.478)" fill="#4a148c"/>
    <path id="Path_79381" data-name="Path 79381" d="M38.9,320a14.974,14.974,0,0,0-2.061.783c-.9.507-1.711,1.962-.6,2.734,1.322.879,2.818-.609,3.723-1.436a1.35,1.35,0,0,0,2.291.437,1.234,1.234,0,0,0-1.54-1.869c-1.1.438-1.742,1.547-2.754,2.118-.345.188-1.092.478-1.377.052-.8-1.463,2.726-1.9,3.5-2.535,1.721-1.067.653-3.013-.849-2.231a.325.325,0,0,0,.249.591c.552-.122.969.3.465.787A3.092,3.092,0,0,1,38.9,320Zm2.836,1.565a.519.519,0,0,1-.53.668.745.745,0,0,1-.679-.614C41.005,321.281,41.543,321.05,41.74,321.564Z" transform="translate(-20.861 -276.371)" fill="#4a148c"/>
    <path id="Path_79382" data-name="Path 79382" d="M12.99,216.044c.018.014.036.027.054.04-.843.65-.241,1.793.657,2.051a2.089,2.089,0,0,0-.918.615c-.2.236.067.676.358.464,1.166-.824,2.827-.54,4.193-.7a.358.358,0,0,0,0-.716c-.676-.022-1.351-.073-2.026-.116-.534-.034-1.471-.031-1.8-.558-.412-.667,1.035-.5,1.328-.5.682.012,1.365.028,2.047.032a.4.4,0,0,0,0-.8c-.89-.027-1.811-.1-2.706-.067a1.786,1.786,0,0,1-.615-.258c-.461-.327-.5-.975.185-.991,1.388-.053,2.792.515,4.175.212a4.506,4.506,0,0,1,.178,1.089.406.406,0,0,0,.811,0,6.165,6.165,0,0,0-.187-1.4A1.762,1.762,0,0,0,19.685,213a.259.259,0,0,0-.438-.181c-.3.3-.5.619-.785.857a3.205,3.205,0,0,0-1.73-1.763,1.772,1.772,0,0,0-1.873.127c-.36.351-.491,1.065.035,1.327a.254.254,0,0,0,.368-.283c-.163-1.115,1.526-.322,1.9.03a2.112,2.112,0,0,1,.53.9,24.34,24.34,0,0,1-3.7-.265,1.271,1.271,0,0,0-1,2.3Z" transform="translate(0 -181.237)" fill="#4a148c"/>
    <path id="Path_79383" data-name="Path 79383" d="M44.895,118.507c-.2.306-.4.615-.579.936s.289.744.548.423c.436-.539.807-1.133,1.2-1.705.18-.266-.124-.692-.437-.569a1.2,1.2,0,0,1-1.515-1.789c.268-.446.566-.8,1.119-.674a1.5,1.5,0,0,1,1.086.941.43.43,0,0,0,.1.159.306.306,0,0,0,.443.186c.27-.13.4-.446.566-.685.175-.259.358-.512.546-.761a.4.4,0,0,0-.143-.546c-.5-.261-.774.532-1.028.832C44.112,111.945,40.973,118,44.895,118.507Z" transform="translate(-27.441 -93.93)" fill="#4a148c"/>
    <path id="Path_79384" data-name="Path 79384" d="M72.463,125.251c-.952,1.528-1.91,3.051-2.85,4.585-.259.423.4.8.662.387.967-1.518,1.916-3.048,2.871-4.573C73.417,125.218,72.732,124.82,72.463,125.251Z" transform="translate(-51.192 -103.603)" fill="#4a148c"/>
    <path id="Path_79385" data-name="Path 79385" d="M114.672,41.434a.851.851,0,0,0-1.044-.213.244.244,0,0,0,.058.44c1.151.327,1.37,2.155,2.125,2.962.229.257.587-.023.533-.31a3.961,3.961,0,0,0-.521-1.151,4.121,4.121,0,0,1-.35-1.672c.01-.129.107-.756.351-.681.119.036.254.575.295.684a10.486,10.486,0,0,0,.892,2.051.383.383,0,0,0,.662-.387,23.17,23.17,0,0,1-.973-2.331c.057-.447.249-1.15.741-.723a2.48,2.48,0,0,1,.446,1.019,13.024,13.024,0,0,0,.948,2.515c.619,1.1,2.133,1.544,2.877.323a3.729,3.729,0,0,0,.248.592.377.377,0,0,0,.685-.289,6.2,6.2,0,0,0-.319-.891,2.173,2.173,0,0,0-.379-.816.551.551,0,0,0-.662-.036c-.255.114-.6.215-.719.485-.155.351.322.466.568.353a.793.793,0,0,1-.755.531c-1.317-.172-1.454-2.773-2-3.776-.468-1.143-1.841-1.274-2.267-.054C115.358,39.708,114.617,40.738,114.672,41.434Z" transform="translate(-90.585 -26.66)" fill="#4a148c"/>
    <path id="Path_79386" data-name="Path 79386" d="M232.837,14.88c-.044.212.191.454.4.308a3.81,3.81,0,0,0,.846-1.045q.361-.522.726-1.041c1.1,1.03,1.785.071.478-.667q.509-.7,1.036-1.384-.022.42-.038.84c-.018.5.713.478.759,0,.064-.657.121-1.318.142-1.978a.386.386,0,0,0-.5-.44,9.594,9.594,0,0,0-1.267.34c-.3.1-.717.177-.85.489a.242.242,0,0,0,.085.323c.372.195.761-.065,1.142-.135q-.563.75-1.112,1.511c-.861-.733-1.409.059-.462.645-.225.318-.448.637-.666.959A3.919,3.919,0,0,0,232.837,14.88Z" transform="translate(-197.501)" fill="#4a148c"/>
    <path id="Path_79387" data-name="Path 79387" d="M160.677,138.283c2.139-.368,6.155-.836,6.509-.933a.417.417,0,0,0-.015-.822c-.026,0-4.931-.568-6.872-.9a.5.5,0,0,1-.317-.8c.946-1.26,3.065-3.938,3.065-3.938a.417.417,0,0,0-.583-.586s-2.343,1.85-3.566,2.792a.5.5,0,0,1-.806-.352c-.19-2.086-.613-7.262-.756-9.3a.416.416,0,0,0-.83-.01c-.163,2.531-.534,7.135-.8,9.659a.5.5,0,0,1-.8.344c-1.413-1.076-4.411-3.575-4.411-3.575a.416.416,0,0,0-.591.581s2.5,3.121,3.547,4.545a.5.5,0,0,1-.337.794c-1.874.254-6.41.745-6.436.748a.417.417,0,0,0,0,.824c.026,0,4.343.47,6.191.7a.5.5,0,0,1,.349.788c-.784,1.108-2.269,3.166-2.269,3.166a.417.417,0,0,0,.584.577s2.226-1.621,3.359-2.407a.5.5,0,0,1,.78.331c.129.8.27,1.987.319,2.5.206,2.133.42,4.339.524,5.829a.422.422,0,0,0,.326.388.416.416,0,0,0,.5-.377c.083-1.192.26-2.818.446-4.54.088-.809.288-2.534.443-3.589a.5.5,0,0,1,.818-.311c1.053.882,2.988,2.524,2.988,2.524a.417.417,0,0,0,.6-.567s-1.48-1.936-2.35-3.082a.622.622,0,0,1,.4-.99Z" transform="translate(-119.975 -101.797)" fill="#4a148c"/>
    <path id="Path_79388" data-name="Path 79388" d="M175.512,318.8a.421.421,0,0,0,.468.7A.421.421,0,0,0,175.512,318.8Z" transform="translate(-145.97 -277.133)" fill="#4a148c"/>
  </g>
</svg>
